<svg xmlns="http://www.w3.org/2000/svg" xmlns:xlink="http://www.w3.org/1999/xlink" viewBox="0 0 3011.35 2000"><defs><style>.cls-1{fill:url(#Новый_образец_градиента_2);}.cls-2{fill:#fc008b;}.cls-3{fill:#adeff7;}.cls-4{fill:#7271b3;}.cls-5{fill:#fcc13f;}.cls-6{fill:#352e73;}.cls-7{fill:#8cd334;}.cls-8{fill:#fee2bf;}.cls-9{fill:#f3ffff;}.cls-10{fill:#2d2861;}.cls-11{fill:#fff;}.cls-12{fill:#f7a491;}.cls-13{fill:#f48c7f;}.cls-14{fill:#2ba14c;}.cls-15{fill:#d6007e;}.cls-16{fill:#f27a6a;}.cls-17{fill:#efefef;}</style><linearGradient id="Новый_образец_градиента_2" x1="1510.01" y1="190.34" x2="1535.01" y2="1980.21" gradientUnits="userSpaceOnUse"><stop offset="0" stop-color="#8bf9fd"/><stop offset="0.99" stop-color="#fafee5"/></linearGradient></defs><g id="Layer_2" data-name="Layer 2"><g id="Layer_1-2" data-name="Layer 1"><path class="cls-1" d="M2727.19,1993c286.42-145.65,305.13-851.82-248.8-1017.11S1747.27,211.21,1075.3,172c-208.55-12.18-696,77.11-875.85,605.58C21.37,1300.9,227.3,1965.67,360.2,1993Z"/><path class="cls-2" d="M240.63,445.18a4.1,4.1,0,0,0-4.26.87c-5.57,5.27-18.79,9-25.73,10.1l-23.31-28c2.36-6.62,8.45-18.94,14.66-23.45a4.11,4.11,0,0,0,1.63-4l-4.84-28.26a4.12,4.12,0,0,0-2.88-3.25c-7.35-2.18-17.19-11.77-21.62-17.23l12.65-34.21c6.91-1.27,20.62-2.15,27.63,1a4.13,4.13,0,0,0,4.3-.6l22-18.32a4.12,4.12,0,0,0,1.38-4.12c-1.79-7.46,1.6-20.77,4.11-27.33l36-6.16c4.55,5.35,12.18,16.78,13,24.41A4.09,4.09,0,0,0,298,290l26.89,9.94a4.14,4.14,0,0,0,4.26-.87c5.57-5.28,18.79-9,25.73-10.11L378.18,317c-2.36,6.62-8.45,18.93-14.66,23.44a4.11,4.11,0,0,0-1.63,4l4.84,28.26a4.12,4.12,0,0,0,2.88,3.25c7.35,2.19,17.19,11.78,21.62,17.23l-12.65,34.21c-6.91,1.27-20.62,2.16-27.63-1a4.11,4.11,0,0,0-4.3.59l-22,18.32a4.11,4.11,0,0,0-1.37,4.12c1.78,7.46-1.6,20.78-4.12,27.34L283.16,483c-4.55-5.35-12.17-16.78-13-24.41a4.12,4.12,0,0,0-2.66-3.43Zm65.08-45a35.92,35.92,0,1,0-50.59-4.68A35.93,35.93,0,0,0,305.71,400.17Zm14.72,17.72a59,59,0,1,0-83-7.68A59,59,0,0,0,320.43,417.89Z"/><path class="cls-3" d="M222.81,1323.39a4.71,4.71,0,0,0-5-.38c-7.8,4-23.54,4-31.53,3l-16.81-38.25c4.68-6.55,15.27-18.19,23.53-21.2a4.71,4.71,0,0,0,3.08-3.91L199.7,1230a4.71,4.71,0,0,0-2.14-4.49c-7.41-4.73-15.22-18.39-18.37-25.8L203.91,1166c8,.79,23.39,4.14,30.13,9.79a4.69,4.69,0,0,0,4.92.7L269,1163.3a4.72,4.72,0,0,0,2.81-4.11c.39-8.78,8.32-22.37,13.16-28.8l41.54,4.56c3.33,7.33,8.11,22.33,6.59,31a4.71,4.71,0,0,0,1.85,4.62L361.46,1190a4.73,4.73,0,0,0,5,.39c7.8-4,23.54-4,31.53-3l16.81,38.26c-4.68,6.54-15.28,18.18-23.53,21.19a4.71,4.71,0,0,0-3.08,3.91l-3.59,32.65a4.73,4.73,0,0,0,2.15,4.49c7.41,4.73,15.22,18.4,18.37,25.8l-24.72,33.69c-8-.78-23.39-4.14-30.13-9.79a4.71,4.71,0,0,0-4.92-.7l-30.07,13.22a4.71,4.71,0,0,0-2.81,4.1c-.4,8.78-8.33,22.38-13.16,28.81l-41.54-4.57c-3.33-7.33-8.11-22.32-6.59-31a4.73,4.73,0,0,0-1.85-4.62Zm85.88-29a41.15,41.15,0,1,0-54.23-21.12A41.14,41.14,0,0,0,308.69,1294.36Zm10.62,24.17a67.55,67.55,0,1,0-89-34.67A67.55,67.55,0,0,0,319.31,1318.53Z"/><path class="cls-4" d="M2626.5,549.37a4.73,4.73,0,0,0-5-.39c-7.8,4.06-23.54,4-31.53,3l-16.81-38.25c4.69-6.55,15.28-18.19,23.54-21.2a4.72,4.72,0,0,0,3.07-3.91L2603.4,456a4.72,4.72,0,0,0-2.15-4.49c-7.4-4.73-15.22-18.39-18.37-25.8L2607.61,392c8,.79,23.39,4.14,30.12,9.79a4.71,4.71,0,0,0,4.92.7l30.08-13.21a4.72,4.72,0,0,0,2.81-4.11c.39-8.78,8.32-22.38,13.16-28.8l41.54,4.56c3.32,7.33,8.11,22.33,6.58,31a4.73,4.73,0,0,0,1.85,4.62L2765.15,416a4.75,4.75,0,0,0,5,.39c7.79-4.05,23.54-4,31.52-3l16.82,38.26c-4.68,6.54-15.28,18.18-23.54,21.19a4.7,4.7,0,0,0-3.07,3.91l-3.59,32.65a4.72,4.72,0,0,0,2.15,4.49c7.4,4.73,15.22,18.4,18.37,25.8l-24.73,33.69c-8-.78-23.39-4.14-30.12-9.79a4.73,4.73,0,0,0-4.93-.7l-30.07,13.22a4.7,4.7,0,0,0-2.81,4.1c-.39,8.78-8.32,22.38-13.16,28.81l-41.54-4.57c-3.32-7.33-8.11-22.33-6.58-31a4.73,4.73,0,0,0-1.85-4.62Zm85.89-29a41.15,41.15,0,1,0-54.24-21.12A41.15,41.15,0,0,0,2712.39,520.34ZM2723,544.51a67.55,67.55,0,1,0-89-34.67A67.55,67.55,0,0,0,2723,544.51Z"/><path class="cls-2" d="M30.88,1475.65a4.82,4.82,0,0,0-3.74-3.43c-8.79-1.65-21.35-11.6-27.14-17.4l10.58-41.21c7.86-2.3,23.66-5,32.17-2.18a4.79,4.79,0,0,0,4.91-1.21l23.4-23.89a4.84,4.84,0,0,0,1.1-4.95c-3-8.44-.63-24.3,1.5-32.21l41-11.44c5.93,5.66,16.14,18,18,26.77a4.79,4.79,0,0,0,3.5,3.65l32.39,8.32a4.81,4.81,0,0,0,4.83-1.52c5.84-6.79,20.73-12.7,28.65-14.81l30.4,29.76c-1.94,8-7.54,23-14.19,29a4.79,4.79,0,0,0-1.42,4.86l9,32.21a4.81,4.81,0,0,0,3.74,3.42c8.79,1.66,21.35,11.6,27.14,17.41L246.06,1518c-7.86,2.3-23.66,5-32.17,2.19a4.78,4.78,0,0,0-4.91,1.2l-23.4,23.9a4.81,4.81,0,0,0-1.1,4.94c3,8.44.63,24.3-1.5,32.21l-41,11.44c-5.93-5.66-16.14-18-18-26.76a4.8,4.8,0,0,0-3.5-3.66l-32.39-8.32a4.8,4.8,0,0,0-4.83,1.53c-5.84,6.78-20.73,12.69-28.65,14.8l-30.4-29.76c1.94-8,7.54-23,14.2-29a4.83,4.83,0,0,0,1.41-4.87Zm87,30.72a41.9,41.9,0,1,0-30.17-51A41.9,41.9,0,0,0,117.91,1506.37Zm-6.68,26a68.77,68.77,0,1,0-49.52-83.71A68.77,68.77,0,0,0,111.23,1532.4Z"/><path class="cls-5" d="M442.05,1765.19a9,9,0,0,0-7.61,5.68c-6.12,15.63-28.84,35.32-41.55,44L320.64,1781c-1.49-15.3-.89-45.35,7.2-60.06a9,9,0,0,0-.5-9.48L291.47,1660a9,9,0,0,0-8.73-3.74c-16.6,2.51-45-7.32-58.84-14l-6.79-79.51c12.49-8.94,38.82-23.45,55.6-23.79a9,9,0,0,0,8-5.18l26.62-56.79a9,9,0,0,0-1.12-9.43c-10.47-13.12-16.16-42.64-17.29-58l65.46-45.64c14,6.35,39.72,21.9,48.41,36.26a9,9,0,0,0,8.46,4.31l62.5-5.34a9,9,0,0,0,7.61-5.69c6.13-15.62,28.84-35.31,41.55-44l72.26,33.87c1.49,15.3.89,45.35-7.2,60.05a9,9,0,0,0,.5,9.49l35.87,51.46a9,9,0,0,0,8.73,3.74c16.59-2.51,45,7.32,58.84,14l6.79,79.51c-12.5,8.94-38.82,23.45-55.6,23.79a9,9,0,0,0-8,5.17l-26.62,56.8a9,9,0,0,0,1.11,9.43c10.48,13.12,16.17,42.64,17.29,58l-65.46,45.64c-14-6.35-39.72-21.9-48.4-36.26a9,9,0,0,0-8.47-4.31Zm87-149.67a78.59,78.59,0,1,0-104.52,37.81A78.59,78.59,0,0,0,529.05,1615.52Zm45.64,21.39a129,129,0,1,0-171.55,62A129,129,0,0,0,574.69,1636.91Z"/><path class="cls-6" d="M1518.94,1927.89l-934.36.32c-31.19,0-57.47-16.22-61.21-37.8L342,844.87c-3-17.37,17-32.51,42-31.87l907.66,23.06c20,.51,36.6,11.09,39,25Z"/><path class="cls-4" d="M433.1,844.43l820.17,20.83c20.06.51,36.61,11.1,39.06,25L1470,1897.74l-901.75.31L391.06,876.3C388.05,858.93,408,843.79,433.1,844.43Z"/><polygon class="cls-3" points="447.78 495.33 579.33 1898.05 1495.1 1898.05 1375.91 513.09 447.78 495.33"/><polygon class="cls-2" points="1375.91 513.09 447.78 495.33 458.13 605.75 1383.88 605.75 1375.91 513.09"/><polygon class="cls-7" points="1383.88 605.75 458.13 605.75 467.09 701.23 1392.1 701.23 1383.88 605.75"/><polygon class="cls-8" points="846.83 773.01 906.48 1297 1394.76 1296.81 1340.04 773.01 846.83 773.01"/><path class="cls-9" d="M793.24,837.4H526a4.78,4.78,0,1,1,0-9.55H793.24a4.78,4.78,0,1,1,0,9.55Z"/><path class="cls-9" d="M809.59,905.72H526a4.78,4.78,0,1,1,0-9.55H809.59a4.78,4.78,0,1,1,0,9.55Z"/><path class="cls-9" d="M813.67,974.15H535a4.78,4.78,0,1,1,0-9.55h278.7a4.78,4.78,0,1,1,0,9.55Z"/><path class="cls-9" d="M821,1050.13H538.23a4.78,4.78,0,1,1,0-9.55H821a4.78,4.78,0,1,1,0,9.55Z"/><path class="cls-9" d="M1383.88,1382.64H645a4.78,4.78,0,1,1,0-9.55h738.9a4.78,4.78,0,1,1,0,9.55Z"/><path class="cls-9" d="M1383.88,1460H651.5a4.77,4.77,0,1,1,0-9.54h732.38a4.77,4.77,0,1,1,0,9.54Z"/><path class="cls-9" d="M1208.07,538.67v48.94h57.86V538.67Zm48,40.64h-38.23V547h38.23Z"/><path class="cls-9" d="M1312.18,543.4s10.27,15.34,11.88,18h.31c1.61-2.85,11.68-18,11.68-18h9.56l-16.61,23L1346.12,591h-10.07s-10.68-16.13-12.39-19h-.2c-1.61,2.85-12.18,19-12.18,19h-9.77l17.32-24.29-16.52-23.3Z"/><path class="cls-8" d="M3002.57,2000H295c-4.85,0-8.78-3.53-8.78-7.9s3.93-7.9,8.78-7.9H3002.57c4.85,0,8.78,3.54,8.78,7.9S3007.42,2000,3002.57,2000Z"/><path class="cls-10" d="M2387.18,1985.52H1106.71c-36.57,0-66.22-25.77-66.22-57.56v-.57H2454.05C2454.05,1959.49,2424.11,1985.52,2387.18,1985.52Z"/><path class="cls-4" d="M1755.09,1985.52H633.84c-32,0-58-25.77-58-57.56v-.57H1813.64C1813.64,1959.49,1787.43,1985.52,1755.09,1985.52Z"/><rect class="cls-7" x="868.4" y="231.68" width="123.86" height="123.86" rx="18.75"/><path class="cls-11" d="M977.59,280.29c.93-4-2.78-8.29-8.34-9.29a214.72,214.72,0,0,0-73.72-.42c-5.57.93-9.29,5.25-8.34,9.32h0c7.3,32.66,4.28,20.57,9.88,38.72a8.89,8.89,0,0,0,10,6h0a9,9,0,0,0,7.5-9.61c-.27-2.55-.55-5.11-.82-7.66-.34-2.93,2.11-5.61,5.46-5.86a182,182,0,0,1,26.52,0c3.35.24,5.81,2.89,5.48,5.79l-.81,7.59a8.78,8.78,0,0,0,7.54,9.4h0a9,9,0,0,0,10-6C969.22,313.92,975.73,288.62,977.59,280.29Z"/><path class="cls-7" d="M906.35,278.44a6.27,6.27,0,0,1,3.22.88v-5h-6.44v5A6.29,6.29,0,0,1,906.35,278.44Z"/><path class="cls-7" d="M900,284.77a6.27,6.27,0,0,1,.88-3.22h-5V288h5A6.27,6.27,0,0,1,900,284.77Z"/><path class="cls-7" d="M906.35,291.1a6.29,6.29,0,0,1-3.22-.88v5h6.44v-5A6.27,6.27,0,0,1,906.35,291.1Z"/><path class="cls-7" d="M911.8,281.55a6.33,6.33,0,0,1,0,6.44h5v-6.44Z"/><path class="cls-7" d="M910.21,284.77a3.86,3.86,0,1,1-3.86-3.86A3.86,3.86,0,0,1,910.21,284.77Z"/><path class="cls-7" d="M967.66,285.28A8.26,8.26,0,1,1,959.4,277,8.25,8.25,0,0,1,967.66,285.28Z"/><rect class="cls-2" x="92.95" y="792.24" width="158.26" height="158.26" rx="20.63"/><path class="cls-11" d="M228.11,867.21A54.23,54.23,0,1,1,173.88,813,54.23,54.23,0,0,1,228.11,867.21Z"/><path class="cls-2" d="M171.57,838.75l4.83,32.56a4.36,4.36,0,0,1-8.63,1.28,4.44,4.44,0,0,1,0-1.15Z"/><path class="cls-2" d="M171.9,868.49l38.33,3.24L172,876a3.77,3.77,0,1,1-.83-7.49A4.45,4.45,0,0,1,171.9,868.49Z"/><path class="cls-12" d="M2026.19,1446c-8.47,12.43-80.47,51.75-80.47,51.75s-8.26-1.71-22,2.22c-8.82,2.51-25.59.18-22.74,5.45s18.41,1.69,16.86,5.67-33.43,13.59-30.85,18.37,31.94-6.25,30.54-2.69-29.46,10.72-25.82,17.48,32-11.39,34-7.77-19.49,17.69-16.55,23.12,25.1-18.82,25.93-16.63c.44,1.18-6.91,16.37-3.85,17.79,3.47,1.6,14.67-17.37,27.27-31,1.74-1.88,2.24-3.72,8.36-8.55,23.8-11.69,86.08-40.36,98-54.28,14.67-17,52.45-105,52.45-105l-60.93,6.23S2036.15,1431.36,2026.19,1446Z"/><path class="cls-13" d="M1925.4,1514.25a19.62,19.62,0,0,0,6,4.29c.4.08,7.36,4.09,15.33.63C1941.22,1519.53,1935.15,1519.9,1925.4,1514.25Z"/><path class="cls-6" d="M2225.07,1348.32s12.23,150.86,12.23,164-52.06,16.81-52.06,16.81l-15.91-154.81Z"/><path class="cls-4" d="M2147.43,1311.6s33.77-18.08,61.62-1.51S2244.47,1424,2244.47,1424l-89.19,10.68Z"/><path class="cls-14" d="M2088.71,1318.88c-3.39,1.17-17.22,11-25.28,26.54s-29.34,80.37-29.34,80.37l35,12.83Z"/><path class="cls-12" d="M2265,1853.64s5.77,20.5,10.35,25.07,19.74,22.34,16,31.14-96.17,21.41-99.68,17.9,16-18.35,27-27.45,18.95-20.29,14.33-33.87-4.63-12.24-4.63-13.58S2265,1853.64,2265,1853.64Z"/><path class="cls-2" d="M2191.66,1927.75c-4-3.36,8.81-17.15,27.63-28,7.88,0,18.39-.55,27.29-2.77,13.93-3.49,24.61-15.56,27.78-19.48.29.41,22.7,22,18.32,32.31C2289,1918.65,2195.63,1931.09,2191.66,1927.75Z"/><path class="cls-12" d="M2111.6,1863.59s-1.71,21.05,1.76,26.51,15.6,27.12,8.84,33.88c-6.1,6.1-90.78,2.18-93.43-2s11.83-16.69,24.59-23.17,22.92-15.67,21.37-29.93-1.85-13-1.55-14.26S2111.6,1863.59,2111.6,1863.59Z"/><path class="cls-2" d="M2018.25,1925.35c-4.42-2.81,15.1-20.46,35.83-26.9,7.69,1.7,18.06,3.48,27.23,3.25,14.36-.36,27.42-9.81,31.36-13,.19.46,19.48,28.4,10.84,35.53C2116.76,1929.84,2025,1929.6,2018.25,1925.35Z"/><path class="cls-4" d="M2105.42,1565.56,2160.09,1724l62.71,146.65,52.53-13.2s-19-101.65-36.77-133.58c-13.47-24.17-22.88-162.83-22.88-162.83Z"/><path class="cls-6" d="M2131.67,1592.22l-18.94,278.4H2068s-19.56-291.68-12.4-319.44,81.75-21.48,81.75-21.48Z"/><path class="cls-7" d="M2088.71,1318.88s57.69-17.29,66.57-16.17c9.73,1.22,33.36,13.74,33.36,13.74s-1.45,100.16,2.73,128.47,33.42,119,33.42,119-41.18,23.88-110.42,16.12-64.46-24.47-64.46-24.47,6.56-100.27,13.13-144.44S2088.71,1318.88,2088.71,1318.88Z"/><path class="cls-5" d="M2279.76,1178.37s3,14.09-11.65,19.05-23.83-46.77-32.19-57-33.71-13-46.88,7.4c-7.25,11.22-9.52,16.11-10.09,18.23-.47,1.74.2,1.63.2,1.63l4,7.43s12.75-7.75,17.56,6.39-9.37,37.27,2.79,56.47,34.47,5.62,34.47,5.62c18.5,12.44,39.79-6.55,46.63-24.51S2279.76,1178.37,2279.76,1178.37Z"/><path class="cls-12" d="M2134.68,1250l2,20.79,18.59,32s-36.66,44.37-48,33.77c-2.53-2.37-8.91-49.33-8.91-49.33Z"/><path class="cls-13" d="M2136.69,1270.74l3.89,7.09c-11.43,10.26-26.1,19.49-39.95,24.8-1.3-8.61-2.23-15.48-2.23-15.48l36.28-37.2Z"/><path class="cls-12" d="M2096.93,1181.69s-9.69,8.78-13.25,13.75c-21.19,29.53-4,87.76,7,92.61,16.75,7.33,38.56-2.53,63.13-19.19s32.34-43.66,9.84-67.13S2096.93,1181.69,2096.93,1181.69Z"/><path class="cls-5" d="M2178.46,1176.48l-6.69-6.41c-26.25,0-47.18-15.82-76.64.09-19.44,10.5-11.45,25.28-11.45,25.28,72,0,46,56.75,54.85,79.32S2202.41,1248.51,2178.46,1176.48Z"/><path class="cls-12" d="M2128.1,1240.39s1-18.62,12.44-14.94,2.52,31.76-7,30.77S2128.1,1240.39,2128.1,1240.39Z"/><path class="cls-7" d="M2180.35,1162.45s-10.85,6.72-15.22,6.16,6.69,13.63,12.56,15.1,3.81-4.18,5-6.12,5.8-.42,6.86-1.85C2192,1172.48,2185.47,1163.07,2180.35,1162.45Z"/><path class="cls-6" d="M2179.39,1311.82s-13-2-24.11,40.16c-12.62,47.73,1,97.18,21.84,109.7s29.47,10.11,29.47,10.11l-3.27,29.44s-61.67-13.81-70.07-66.52c-13.76-86.39,26.84-130.88,26.84-130.88a49.73,49.73,0,0,1,10,2.19C2172.67,1307,2179.39,1311.82,2179.39,1311.82Z"/><path class="cls-12" d="M2211.26,1411.57v61.67c0,10.75-12.33,83.48-27.45,108.39s-35.62,52.7-39.86,54.29-13.46,7.43-18.24,2.65-8.55-2.58-14.52-5.17.79-11.14,9.15-19.5,10.15-10.34,8.75-11.73-8.15,6.36-11.74,5.17,2.19-13.73,11.55-18.11,24.27-12.93,25.66-17.51,1.39-3.38,1.39-4.57,10.55-73.42,10.55-87.54,4.17-60.09,4.17-60.09Z"/><path class="cls-14" d="M2183.06,1314c5.42.68,20.14,6,25.32,23.55s18.8,67.25,16.41,91.52c0,0-58.09,7.56-58.09,5.18s-12.71-64.66-6.37-91.92C2165.86,1318.55,2173.62,1312.82,2183.06,1314Z"/><path class="cls-6" d="M2097.74,1316.23l-40.39,145.15h0c1.78-18.95,3.74-37.06,5.69-50.2,6.57-44.17,25.67-92.29,25.67-92.29S2092.26,1317.81,2097.74,1316.23Z"/><path class="cls-10" d="M2773,1263.31c12.85,22.91,7.24,68.2-3.45,82.79s-36.12,19.15-36.12,19.15l-37.31,12.46s-26.85-38.07-34.27-61.47c-2.87-9-3.36-14.93,0-34.13,4.33-24.81,10.74-37.65,37.81-40.63C2726,1238.57,2757.5,1235.6,2773,1263.31Z"/><path class="cls-12" d="M2654,1324.39c1.29,8.33,7,14.39,12.84,13.54s9.44-8.29,8.14-16.62-7-14.39-12.84-13.54S2652.68,1316.06,2654,1324.39Z"/><path class="cls-12" d="M2808,1893.1c3.72,7.24,21.43,19.77,21.43,19.77-15.14,18-63.71,56.29-63.71,56.29s-6.15-6.36-3.38-12.21,16.22-42,10.12-53.87c-1.59-3.09-13.27-26.15-23.48-39,13.64-4.59,26.83-11.17,39.52-17.09C2796.49,1863.46,2806.79,1890.7,2808,1893.1Z"/><path class="cls-10" d="M2811.17,1897.38s-35.68,38-42.58,42c-5.61,3.3-13,43.58-4.93,44.78s68.28-60.24,70-68.6S2811.17,1897.38,2811.17,1897.38Z"/><path class="cls-12" d="M2635.08,1807c4.35,7,23.13,18.37,23.13,18.37-13.5,18.93-58.53,60.13-58.53,60.13s-6.7-6-4.46-12,12.45-42.88,5.31-54.35c-1.86-3-15.56-25.25-26.88-37.38,13.19-5.43,25.76-12.82,37.88-19.52C2620.94,1778.13,2633.64,1804.65,2635.08,1807Z"/><path class="cls-10" d="M2642.11,1814.11s-35.29,37.71-42.17,41.78c-5.6,3.32-12.79,43.63-4.72,44.8s71-56.12,72.76-64.49S2642.11,1814.11,2642.11,1814.11Z"/><path class="cls-15" d="M2659.28,1579.51s-125.65,54-135,94.88c-5.06,22.12,58.85,139.12,58.85,139.12l49.87-20.78s-10.4-43-23.51-71.37c-6.08-13.14-10.17-20.84-10.17-20.84,10.27-8.62,128.4-44.27,128.4-44.27l-21.13-69.92Z"/><path class="cls-2" d="M2807,1579.51s10.13,16-8.41,58.77c-12.16,28-50.62,110-49.65,111.68,27.21,46,63,114.47,63,114.47l-59,28.8c-.87,1.5-75-99.68-77.89-130.28-2.21-23.45,17.53-178.18,17.53-178.18Z"/><path class="cls-12" d="M2864.64,1292.14c11.44-13.16,34.9-57.94,42.84-73.17-.24-1.46-1.22-10,5-23,4.38-9.15,4.93-27.37,10.17-23.73s-1.56,19.9,3.08,18.67,21-34.28,25.78-31-12.74,33.5-8.59,32.41,17.18-30.37,23.88-25.71-18.37,33-14.78,35.52,19-15.8,24.37-12.06-22.12,24-19.68,23.35,19.84-6.11,20.83-2.67c1.11,3.89-41.88,22.65-45.65,31h0c-7,22.39-19.09,63.12-36.3,84.37-21,26-67.39,83.55-67.39,83.55L2786,1377.85S2851.08,1307.74,2864.64,1292.14Z"/><path class="cls-13" d="M2927.79,1199.39a19.33,19.33,0,0,1,3.59,6.87,19.72,19.72,0,0,1-2.15,16.47C2930.63,1216.92,2932.16,1210.46,2927.79,1199.39Z"/><path class="cls-12" d="M2620,1268.82c-6.86-16.06-15.48-66-18.37-82.9.67-1.31,4.21-9.13,2.28-23.39-1.37-10.07,3.68-27.57-2.41-25.74s-4.61,19.42-8.65,16.82-9.52-39.15-15-37.49,1.86,35.82-1.75,33.49-7-34.21-14.85-31.87,7.38,37.13,3.19,38.39-13.21-20.93-19.49-19,13.7,29.69,11.58,28.32-17-12-19-9c-2.25,3.36,32.9,34.54,33.94,43.66h0c-.24,23.46-1.15,66,8.71,91.53,12.07,31.27,41.88,100.41,41.88,100.41l46.58-17.24S2628.16,1287.88,2620,1268.82Z"/><path class="cls-13" d="M2588.34,1163.19a19.25,19.25,0,0,0-5.52,5.42,19.76,19.76,0,0,0-3,16.34C2580.27,1179,2580.79,1172.36,2588.34,1163.19Z"/><path class="cls-5" d="M2807,1347.22s45.1,39.49,44.78,40.43c-2.41,7-48.78,37.9-48.78,56.63,0,21.23,14.73,165.32,14.73,165.32s-40.65,13.4-90.37,5.91-83.92-30.66-83.92-30.66,3.05-39.2,3.05-75.42a433.52,433.52,0,0,0-5.52-67.39L2603,1357l47.15-26s32.67,62.73,41.3,62.73c24.52,0,52.42-4.25,52.42-4.25Z"/><path class="cls-12" d="M2694.92,1362.09s5.58,39.46-6.25,50.14c-12.49,11.27,45.2,8.17,49.28-10.45,2.2-10.07-5.68-54.48-5.68-54.48Z"/><path class="cls-13" d="M2732.27,1347.3l-37.35,14.79a159.93,159.93,0,0,1,1.31,20.73c9.14,1.3,19.52-.6,30.74-7a62.65,62.65,0,0,0,8.83-6.06C2734.14,1357.81,2732.27,1347.3,2732.27,1347.3Z"/><path class="cls-12" d="M2718.08,1263.85s17.64,4.53,28,21.2,16.09,64.87-20.93,86-64-11.57-63.26-42.45S2676.73,1258.19,2718.08,1263.85Z"/><path class="cls-12" d="M2718.08,1263.85s17.64,4.53,28,21.2,16.09,64.87-20.93,86-64-11.57-63.26-42.45S2676.73,1258.19,2718.08,1263.85Z"/><path class="cls-12" d="M2745,1328c-2.93,7.93-.82,15.91,4.7,17.83s12.36-3,15.29-10.88.82-15.91-4.7-17.83S2748,1320.05,2745,1328Z"/><polygon class="cls-5" points="1212.87 0 1210.31 36.82 1175.73 49.95 1258.02 108.54 1293.19 94.83 1293.19 57.63 1212.87 0"/><circle class="cls-14" cx="1422.13" cy="181.47" r="146.97" transform="matrix(0.15, -0.99, 0.99, 0.15, 1028.19, 1559.95)"/><circle class="cls-7" cx="1422.13" cy="181.47" r="116.71"/><circle class="cls-8" cx="1422.13" cy="181.47" r="74.93" transform="translate(1155.27 1590.08) rotate(-86.54)"/><path class="cls-2" d="M1458.24,181.55a36,36,0,1,1-36-36A36,36,0,0,1,1458.24,181.55Z"/><path class="cls-6" d="M1419.68,184.59a3.17,3.17,0,0,1-1.76-.54L1212.62,43.44a3.12,3.12,0,0,1,3.53-5.15L1419.56,177.6C1421,178.57,1420.68,184.59,1419.68,184.59Z"/><polygon class="cls-5" points="1411.38 163.85 1412.18 175.85 1400.65 179.61 1420.58 186.26 1421.73 176.82 1411.38 163.85"/><path class="cls-7" d="M2239.58,563.28l-9.93-23.48-25-5.13a3.5,3.5,0,0,1-1.59-6.08l19.26-16.69-2.84-25.33a3.5,3.5,0,0,1,5.29-3.39l21.83,13.15,23.21-10.52a3.5,3.5,0,0,1,4.86,4L2269,514.62l17.18,18.83a3.5,3.5,0,0,1-2.28,5.85l-25.4,2.19-12.6,22.16A3.5,3.5,0,0,1,2239.58,563.28Z"/><path class="cls-2" d="M2746.52,1031.66l-6.18-14.63-15.55-3.19a2.18,2.18,0,0,1-1-3.79l12-10.4L2734,983.88a2.18,2.18,0,0,1,3.29-2.11l13.6,8.19,14.46-6.56a2.18,2.18,0,0,1,3,2.49l-3.59,15.46,10.71,11.72a2.19,2.19,0,0,1-1.43,3.65l-15.82,1.36-7.84,13.8A2.18,2.18,0,0,1,2746.52,1031.66Z"/><polygon class="cls-7" points="2632.81 838.9 2647.32 844.8 2659.02 833.92 2674.82 841.68 2683.71 826.25 2701.97 834.24 2711.91 821.04 2730.73 825.86 2728.91 832.98 2714.83 829.38 2704.35 843.31 2686.8 835.63 2677.76 851.32 2660.32 842.75 2648.9 853.37 2635.45 847.91 2629.4 856.45 2623.39 852.21 2632.81 838.9"/><polygon class="cls-5" points="1165.13 130.2 1146.87 113.15 1123.24 122.69 1104.12 102.13 1082.09 120.05 1059.45 97.75 1037.12 111.75 1011.83 93.85 1018.6 84.28 1037.52 97.66 1061.07 82.88 1082.84 104.32 1105.24 86.1 1126.34 108.79 1149.41 99.47 1166.33 115.28 1180.2 105.99 1186.73 115.74 1165.13 130.2"/><rect class="cls-8" x="1518.94" y="659.02" width="975.31" height="105.76" rx="6.87"/><path class="cls-4" d="M2265.4,750.76H1581.32A22.77,22.77,0,0,1,1558.58,728V695.4a22.77,22.77,0,0,1,22.74-22.74H2265.4a22.76,22.76,0,0,1,22.74,22.74V728A22.76,22.76,0,0,1,2265.4,750.76ZM1581.32,679a16.46,16.46,0,0,0-16.44,16.45V728a16.46,16.46,0,0,0,16.44,16.44H2265.4A16.47,16.47,0,0,0,2281.85,728V695.4A16.47,16.47,0,0,0,2265.4,679Z"/><path class="cls-4" d="M2385.14,722.28a27.38,27.38,0,1,1,27.38-27.38A27.41,27.41,0,0,1,2385.14,722.28Zm0-48.47a21.09,21.09,0,1,0,21.09,21.09A21.11,21.11,0,0,0,2385.14,673.81Z"/><path class="cls-4" d="M2421,749.49l-24.5-32.86a3.14,3.14,0,0,1,4.84-4l.21.23,27.55,30.58a5.07,5.07,0,0,1-7.53,6.78l-.29-.36Z"/><path class="cls-5" d="M1218,320.11l-12.2-10.68-15.72,4a2.22,2.22,0,0,1-2.59-3l6.38-14.9-8.65-13.71a2.23,2.23,0,0,1,2.09-3.41l16.14,1.47,10.37-12.46a2.23,2.23,0,0,1,3.89.93l3.58,15.81,15.07,6a2.23,2.23,0,0,1,.31,4l-13.93,8.3-1,16.18A2.23,2.23,0,0,1,1218,320.11Z"/><path class="cls-2" d="M1709.22,171.42,1697,160.74l-15.71,4a2.23,2.23,0,0,1-2.6-3l6.39-14.9-8.65-13.71a2.23,2.23,0,0,1,2.08-3.41l16.15,1.47L1705,118.68a2.23,2.23,0,0,1,3.89.93l3.59,15.82,15.06,6a2.23,2.23,0,0,1,.32,4L1714,153.72l-1.06,16.17A2.22,2.22,0,0,1,1709.22,171.42Z"/><path class="cls-13" d="M814.08,1310.32s26,6.48,34.49,38.87,12.77,108.21,20.1,116.11,55.29,49,63.94,47.62,28-25.74,34-25.74,5.26,5.88,2.26,9.12-6.68,7-4.89,8.92l1.78,1.92s20.52-6.11,25-3.27-6.23,17.67-6.77,23-13.82,16.06-16.17,18.6-10.65,5.31-39.61,1a137.68,137.68,0,0,1-90.44-54.1c-26.14-34.85-36.66-141.77-36.07-152.69C803.28,1312.1,814.08,1310.32,814.08,1310.32Z"/><path class="cls-15" d="M854,1344.63c-9.12-32.39-38.93-34.31-38.93-34.31s-14.75,1.78-16.37,29.44c-.37,6.36,3.15,48.48,11.85,86.73,14-10.47,38.47-19.35,55.88-22.43A508.12,508.12,0,0,0,854,1344.63Z"/><path class="cls-12" d="M915.21,1804.66s17.38,70.89,30.33,82,55.21,32.42,44.15,34.71-92.87,4.2-90.62-9.45,4.59-22.35,4.59-22.35L882,1839Z"/><path class="cls-2" d="M995.19,1924.3c-20,2-78.21,4.08-95.18,1.91,0,0-3.19-.62-.94-14.27.55-3.34,1.1-6.38,1.63-9.07,15.39,4.05,48.92-4.56,62.2-6.32,14.43,6.9,30.69,17.22,35.94,18.08C1006.43,1915.88,1006.43,1923.18,995.19,1924.3Z"/><path class="cls-12" d="M727.12,1854.54s3.22,28.71,3.22,36.61-7.36,30.19-4,33.6,100.86,3,100.86-.22-17.22-12.93-40.63-19.62-17.61-34.75-20.57-50.37Z"/><path class="cls-2" d="M828.82,1927.13c0-7.51-16-14.55-36.68-20.87-22,7.45-52.68,1.3-64.16-.9-3.52,9.2-5,21.68-2.49,22.32C728.41,1928.43,828.82,1928.5,828.82,1927.13Z"/><polygon class="cls-14" points="859.06 1508.35 942.02 1850.78 889.52 1862.54 764.31 1527.98 859.06 1508.35"/><path class="cls-7" d="M839.7,1524.53l-27.05,79.57-34.21,263.37-52.2-3.39s-17.63-262.45-11.55-334Z"/><path class="cls-2" d="M879.28,1525.81c-11.12-42-25.66-99-29.64-123.6-6.69-41.33-29.18-91.79-29.18-91.79s-24.75-3.91-43.16-2.88c-35.56,2-86.39,12.24-86.39,12.24l17.49,230.84C764.52,1549.38,826.07,1544.49,879.28,1525.81Z"/><polygon class="cls-4" points="875.59 1471.8 839.81 1562.18 843.5 1566.33 960.22 1552.1 993.08 1480.46 989.39 1476.78 875.59 1471.8"/><polygon class="cls-10" points="879.28 1475.49 843.5 1565.87 963.91 1555.79 993.08 1480.46 879.28 1475.49"/><path class="cls-12" d="M690.91,1319.78s28.05,6.48,37.16,38.86,13.77,108.21,21.67,116.12,59.57,49,68.9,47.62,30.19-25.74,36.67-25.74,5.68,5.88,2.43,9.12-7.19,7-5.26,8.91,1.26,1.76,1.92,1.93c9.49,2.47,28.87-7.6,33.74-4.76s-4.66,9.52-4.66,14.38,1.19,4.78.61,10.13-1.93,9.63-4.46,12.16-34.45,11.76-65.65,7.5-69.3-19.25-97.47-54.1-39.5-141.77-38.86-152.69C679.27,1321.56,690.91,1319.78,690.91,1319.78Z"/><path class="cls-4" d="M991,1426.49a6.76,6.76,0,1,1-6.76-6.76A6.76,6.76,0,0,1,991,1426.49Z"/><rect class="cls-4" x="949.92" y="1451.85" width="50.58" height="3.98" transform="translate(-713.55 1915.12) rotate(-71.42)"/><path class="cls-5" d="M1018.83,1435.37l-.26,0a1.2,1.2,0,0,1-.91-1.42,34.25,34.25,0,0,0-27.19-41.08,1.19,1.19,0,1,1,.43-2.34,36.57,36.57,0,0,1,30,36,37,37,0,0,1-.86,7.94A1.2,1.2,0,0,1,1018.83,1435.37Z"/><path class="cls-5" d="M1034.18,1438.78a1.15,1.15,0,0,1-.26,0,1.2,1.2,0,0,1-.91-1.42,50.42,50.42,0,0,0,1.18-10.84,49.89,49.89,0,0,0-40.86-49.11,1.19,1.19,0,1,1,.43-2.34,52.35,52.35,0,0,1,41.58,62.8A1.19,1.19,0,0,1,1034.18,1438.78Z"/><path class="cls-5" d="M1047.77,1441.8l-.26,0a1.18,1.18,0,0,1-.9-1.42,64,64,0,0,0-50.76-76.66,1.2,1.2,0,0,1,.44-2.35,66.18,66.18,0,0,1,54.21,65.15,67.08,67.08,0,0,1-1.56,14.37A1.2,1.2,0,0,1,1047.77,1441.8Z"/><path class="cls-15" d="M729.84,1354.09c-9.11-32.39-38.93-34.31-38.93-34.31s-14.74,1.78-16.36,29.44c-.38,6.36,3.15,48.48,11.84,86.73,14-10.47,38.48-19.35,55.88-22.43A507.68,507.68,0,0,0,729.84,1354.09Z"/><path class="cls-10" d="M697.1,1196.45c-.38,21.49,6.67,30.84,20.07,47.7s37,36.76,37,36.76l66.47-42.37s2.44-5.22-2.85-31.73C795.89,1097,697.4,1179.81,697.1,1196.45Z"/><path class="cls-12" d="M713.9,1241.6c2.69,8.41,9.47,13.75,15.16,11.94s8.11-10.11,5.43-18.52-9.48-13.75-15.16-11.93S711.22,1233.19,713.9,1241.6Z"/><path class="cls-12" d="M805.19,1226.2c-2.51,8.47.09,16.7,5.81,18.4s12.4-3.79,14.9-12.26-.09-16.7-5.81-18.39S807.7,1217.74,805.19,1226.2Z"/><path class="cls-12" d="M744.75,1267.66l-2.48,44.95s5.45,15.2,30.09,15.25c18.19,0,16.09-40.52,16.09-40.52L787,1267.66Z"/><path class="cls-16" d="M787.66,1301.52H788a106.21,106.21,0,0,0,.41-14.18L787,1267.66H744.75l-.37,6.75C749.68,1283.43,765.28,1301.52,787.66,1301.52Z"/><path class="cls-12" d="M762.77,1164.86c-14.24,2.11-24.65,12.19-32.21,24.5-15,24.39-2.81,60.31,1.31,68.55s20.58,29.39,45,29.39,38.92-28.42,41-50.17c2.75-29.13-2.52-59.34-30.24-69.47A52.21,52.21,0,0,0,762.77,1164.86Z"/><path class="cls-10" d="M723.42,1222.94s6.93-38.87,29-47.59,58.17,9.37,65.43,31.46c0,0-6.92-45.63-18.92-57.62s-36.31-13.33-36.31-13.33l8,8a76.41,76.41,0,0,0-21.87-2.9c-13.08,0-15.5,3.15-15.5,3.15s9,1.45,9,4.36-23.74,3.87-23.74,3.87-1.9,19.36-9.61,27.07S723.42,1222.94,723.42,1222.94Z"/><path class="cls-13" d="M984.26,1502.81s-25.27,21.54-20.49,26.32c1.5,1.5,12.73-8.45,12.73-8.45s-11.2,13-9.55,18,.94,6.82.94,6.82l12.39-13.38,5.77-28.45Z"/><polygon class="cls-5" points="142.63 1018.52 164.83 1027.45 182.64 1010.77 206.82 1022.55 220.32 998.93 248.25 1011.04 263.36 990.83 292.13 998.09 289.39 1008.98 267.87 1003.55 251.93 1024.88 225.08 1013.24 211.36 1037.25 184.68 1024.26 167.28 1040.55 146.7 1032.27 137.51 1045.35 128.32 1038.9 142.63 1018.52"/><polygon class="cls-3" points="1175.89 191.3 1146.28 192.03 1144.01 213.85 1114.81 215.59 1109.4 236.35 1087.65 240.47 1089.76 249.09 1118.86 243.57 1123.98 223.9 1154.36 222.09 1156.59 200.63 1183.43 199.97 1175.89 191.3"/><path class="cls-5" d="M1867.46,374.76a70.21,70.21,0,1,1-30.85-94.39A70.2,70.2,0,0,1,1867.46,374.76Z"/><path class="cls-17" d="M1766.34,335.92a37.54,37.54,0,1,0,67,34Z"/><path class="cls-10" d="M1352.91,1384.55h112.2a15.62,15.62,0,0,1,15.62,15.62v42.58a0,0,0,0,1,0,0H1337.29a0,0,0,0,1,0,0v-42.58A15.62,15.62,0,0,1,1352.91,1384.55Z"/><path class="cls-10" d="M1382.77,1453.46c0,23.75-17.23,43-38.48,43s-38.48-19.25-38.48-43,17.23-43,38.48-43S1382.77,1429.7,1382.77,1453.46Z"/><path class="cls-10" d="M1535,1654.81c0,23.75-17.23,43-38.48,43s-38.48-19.25-38.48-43,17.23-43,38.48-43S1535,1631.05,1535,1654.81Z"/><path class="cls-10" d="M1533.2,1871.79c0,23.75-17.23,43-38.48,43s-38.48-19.26-38.48-43,17.23-43,38.48-43S1533.2,1848,1533.2,1871.79Z"/><path class="cls-10" d="M1511.63,1453.46c0,23.75-17.23,43-38.48,43s-38.48-19.25-38.48-43,17.22-43,38.48-43S1511.63,1429.7,1511.63,1453.46Z"/><polygon class="cls-10" points="1441.76 1478.24 1374.88 1479.46 1366.43 1384.55 1457.99 1384.55 1441.76 1478.24"/><polygon class="cls-10" points="1453.44 1405.46 1409.22 1421.28 1368.84 1390.33 1375.43 1339.85 1422.4 1320.32 1470.63 1359.13 1453.44 1405.46"/><path class="cls-4" d="M1521.44,1641.9a498.42,498.42,0,0,1-66.71-1.14c-10.21-.87-17.83-10.85-16.86-22.23q5.55-65.71,11.11-131.44c.91-10.72,9.13-18.74,18.76-18.41a356.68,356.68,0,0,0,40.31-.89c9.9-.77,18.57,7.33,19.5,18.38q5.64,66.72,11.29,133.46C1539.82,1631.25,1531.88,1641.37,1521.44,1641.9Z"/><path class="cls-4" d="M1576.35,1855.18l-29.28-152.06c-2.43-12.6-12.4-21.6-23.94-21.6h-40.71c-11.53,0-21.5,9-23.93,21.6l-29.29,152.06h0v52.25a19.74,19.74,0,0,0,16.74,20c1.41.22,21.45-9.23,21.45-20.38v-26.4c0-14,10.18-25.43,22.75-25.43h56.3c8.43,0,15.27,7.64,15.27,17.07v55.14s14.58-5.15,14.58-13.21v-59Z"/><path class="cls-10" d="M1371.07,1655.29c-.35,23.76-17.87,42.75-39.12,42.44s-38.19-19.82-37.84-43.57,17.86-42.75,39.11-42.44S1371.42,1631.55,1371.07,1655.29Z"/><path class="cls-10" d="M1356.43,1871.54c-.35,23.75-17.86,42.75-39.11,42.43s-38.19-19.82-37.84-43.57,17.86-42.74,39.11-42.43S1356.78,1847.79,1356.43,1871.54Z"/><path class="cls-4" d="M1365.35,1641.9a498.42,498.42,0,0,1-66.71-1.14c-10.2-.87-17.82-10.85-16.86-22.23q5.57-65.71,11.12-131.44c.9-10.72,9.12-18.74,18.75-18.41a356.68,356.68,0,0,0,40.31-.89c9.9-.77,18.57,7.33,19.5,18.38q5.65,66.72,11.29,133.46C1383.74,1631.25,1375.79,1641.37,1365.35,1641.9Z"/><path class="cls-4" d="M1399.82,1855.56l-27-152.47c-2.24-12.63-12.07-21.78-23.61-21.95l-40.71-.6c-11.53-.17-21.63,8.68-24.24,21.24l-31.53,151.61h0l-.77,52.25c-.16,10.76,6.84,19.76,16.08,21.36a17,17,0,0,0,4.35.2c9.95-.78,17.6-10.27,17.77-21.42l.38-26.4c.21-14,10.57-25.27,23.14-25.09l56.28.83c8.44.13,15.17,7.87,15,17.3l-.81,55s14.64-4.77,14.76-12.83l.87-59Z"/><path class="cls-15" d="M1615.32,864.59c-1,2.21-2,4.42-3.07,6.62,64.41,25.33,100.78,94.71,59.37,183.93,2.08,1,18.82,8,20.91,8.94C1736,970.4,1682.86,891.35,1615.32,864.59Z"/><path class="cls-2" d="M1691.79,1044.84c-15.36-6.67-38,12.22-50.52,41.84-11.88,28.21-10.65,56.9,2.85,65.12h0c21.79,7.08,55-.1,64.87-23.42l8.28-17.83C1728.36,1086.67,1714.57,1054.75,1691.79,1044.84Z"/><path class="cls-10" d="M1288.26,1196c-18.63-10.14-44,.47-56.59,23.69s-7.76,50.27,10.87,60.41,44-.47,56.6-23.69S1306.9,1206.09,1288.26,1196Z"/><path class="cls-15" d="M1681,1059c79.45-171.16-155.06-280.21-234.52-109l-6-2.78c83.51-180,330.13-65.39,246.61,114.64Z"/><polygon class="cls-10" points="1639.82 1366.25 1589.7 1263.69 1525.21 1310.69 1561.25 1402.44 1639.82 1366.25"/><path class="cls-10" d="M1571.6,1354.56a43.14,43.14,0,1,0,60.87,2.08A43.13,43.13,0,0,0,1571.6,1354.56Z"/><path class="cls-10" d="M1295,1262.59l80.86-87.07-11.7-16.42c-18-25.25-54.25-24.07-79.38,2.58l-48.73,51.69Z"/><path class="cls-10" d="M1092.36,1444.63q-3.51-2.52-7-5a4,4,0,0,0-5.56.94q-4.74,6.81-8.91,13.93a4,4,0,0,0,1.57,5.48c2.52,1.37,5,2.74,7.53,4.13a4,4,0,0,0,5.37-1.49q3.74-6.36,8-12.44A4,4,0,0,0,1092.36,1444.63Z"/><path class="cls-10" d="M1076.16,1465.89l-3.42-1.71a4,4,0,0,0-5.36,1.79q-4.44,9.12-7.93,18.61a4,4,0,0,0,2.49,5.11l3.61,1.22a4,4,0,0,0,5-2.41q3.26-8.79,7.37-17.27A4,4,0,0,0,1076.16,1465.89Z"/><path class="cls-4" d="M1258.69,1247.75a155.7,155.7,0,0,1-15.34-10.06,35.19,35.19,0,0,0-45.6,3.55l-72,71.28a35.26,35.26,0,0,0,1.48,51.37,288.37,288.37,0,0,0,56.62,39.65,35.24,35.24,0,0,0,49.07-17.08l40.47-94.45A35.13,35.13,0,0,0,1258.69,1247.75Z"/><path class="cls-10" d="M1149.61,1386.83l-13-9.91a29.71,29.71,0,0,0-41.64,5.52l-10.55,13.81,55,42,14.51-19A23.16,23.16,0,0,0,1149.61,1386.83Z"/><path class="cls-10" d="M1112.72,1422.46l-10.66-8.14a4,4,0,0,0-5.58.74l-11.3,14.79a4,4,0,0,0,.75,5.57l10.66,8.15a4,4,0,0,0,5.58-.74l11.3-14.79A4,4,0,0,0,1112.72,1422.46Z"/><path class="cls-10" d="M1073.65,1429.66q-3.53-2.51-7.06-5a4,4,0,0,0-5.55.95q-4.76,6.81-8.92,13.93a4,4,0,0,0,1.58,5.48c2.51,1.36,5,2.74,7.53,4.12a4,4,0,0,0,5.37-1.49q3.74-6.35,8-12.44A4,4,0,0,0,1073.65,1429.66Z"/><path class="cls-10" d="M1057.44,1450.92l-3.41-1.7a4,4,0,0,0-5.36,1.79q-4.44,9.12-7.94,18.6a4,4,0,0,0,2.5,5.11l3.61,1.22a4,4,0,0,0,5-2.4q3.26-8.79,7.37-17.27A4,4,0,0,0,1057.44,1450.92Z"/><path class="cls-10" d="M1094,1407.49l-10.65-8.14a4,4,0,0,0-5.59.74l-11.3,14.79a4,4,0,0,0,.76,5.58l10.66,8.14a4,4,0,0,0,5.58-.74l11.3-14.79A4,4,0,0,0,1094,1407.49Z"/><path class="cls-10" d="M1111,1459.82q-3.51-2.52-7-5a4,4,0,0,0-5.56,1q-4.74,6.81-8.92,13.93a4,4,0,0,0,1.58,5.48c2.52,1.37,5,2.74,7.53,4.13a4,4,0,0,0,5.37-1.49q3.74-6.36,8-12.44A4,4,0,0,0,1111,1459.82Z"/><path class="cls-10" d="M1094.76,1481.08l-3.41-1.71a4,4,0,0,0-5.36,1.79q-4.44,9.12-7.93,18.61a4,4,0,0,0,2.49,5.1l3.61,1.23a4,4,0,0,0,5-2.41q3.25-8.79,7.37-17.27A4,4,0,0,0,1094.76,1481.08Z"/><path class="cls-10" d="M1131.33,1437.65l-10.66-8.14a4,4,0,0,0-5.59.74l-11.3,14.79a4,4,0,0,0,.76,5.58l10.66,8.14a4,4,0,0,0,5.58-.74l11.3-14.79A4,4,0,0,0,1131.33,1437.65Z"/><path class="cls-10" d="M1142.85,1449.57q4.19,1.07,8.37,2.17a4,4,0,0,1,2.86,4.86q-2.13,8-4.88,15.8a4,4,0,0,1-5.2,2.33c-2.67-1-5.34-2.08-8-3.1a4,4,0,0,1-2.33-5.06q2.44-7,4.36-14.13A4,4,0,0,1,1142.85,1449.57Z"/><path class="cls-10" d="M1137.07,1475.68l3.51,1.51a4,4,0,0,1,2.09,5.25,198.13,198.13,0,0,1-9.09,18.07,4,4,0,0,1-5.5,1.39l-3.27-2a4,4,0,0,1-1.39-5.39q4.61-8.14,8.43-16.77A4,4,0,0,1,1137.07,1475.68Z"/><path class="cls-10" d="M1155.55,1422.33l.5-.67,3.86.85a3.85,3.85,0,0,1,2.92,4.57l-4.09,18.6a3.84,3.84,0,0,1-4.57,2.91l-11.74-2.61a3.81,3.81,0,0,1-2.87-2.72Z"/><path class="cls-4" d="M1487.13,1384.28q48.4-58.33,99.15-115a17,17,0,0,0-2.86-25.17,638.45,638.45,0,0,0-217.37-99.67,16.91,16.91,0,0,0-21,15.56q-3.61,74.38-13.36,148.06c-1.08,8.16,4.43,14.49,11.66,18.44,15.2,8.31,20.68,8.7,114.31,57.42,3.55,1.19,4.56,2.19,9.19,4.93A17,17,0,0,0,1487.13,1384.28Z"/><path class="cls-10" d="M1469.27,1215.75l-6-2.78a23.82,23.82,0,0,1-11.56-31.62l22.87-49.28,49.18,22.86-22.86,49.25A23.79,23.79,0,0,1,1469.27,1215.75Z"/><path class="cls-4" d="M1680.39,1095.87c-32.88,70.84-119.19,100.53-192.78,66.32S1381,1042.81,1413.87,972s119.19-100.54,192.78-66.32S1713.26,1025,1680.39,1095.87Z"/><path class="cls-10" d="M1616.8,1115.13A370.72,370.72,0,0,0,1477.55,1051c-10.25-2.33-16-13.47-13-25.31q3.75-14.9,7.51-29.79c3.14-12.47,14.75-20.9,25.52-18.4a425.94,425.94,0,0,1,161.75,75.89c8.78,6.66,9.79,20.91,2.33,31.32l-17.19,24C1637.35,1118.56,1625.2,1121.36,1616.8,1115.13Z"/><path class="cls-3" d="M1636.07,1075.59c-3.79,8.16-13.79,11.56-22.33,7.59s-12.4-13.81-8.61-22,13.79-11.56,22.33-7.59S1639.86,1067.43,1636.07,1075.59Z"/><path class="cls-3" d="M1539.54,1027.61c-3.78,8.16-13.78,11.56-22.32,7.59s-12.4-13.81-8.61-22,13.78-11.55,22.33-7.58S1543.33,1019.44,1539.54,1027.61Z"/><path class="cls-15" d="M1430.57,942c2,.93,17.2,10.61,19.2,11.54,37.34-80.43,105.61-102.63,162.75-82a37.33,37.33,0,0,0,2.5-6.85C1554.93,843.08,1469.8,857.49,1430.57,942Z"/><path class="cls-2" d="M1450.93,931.24c17.2,8.52,17.44,42.38.75,75.22-15.89,31.27-41.9,51.4-59.08,45.64h0c-22.31-13.86-40.59-48.29-27.47-74.17l9.48-20.44C1387.3,930.11,1425.43,918.6,1450.93,931.24Z"/><path class="cls-10" d="M1790.35,1567.25q-2.6,3.45-5.15,6.94a4,4,0,0,0,.83,5.58q6.69,4.9,13.71,9.23a4,4,0,0,0,5.51-1.46c1.42-2.48,2.85-5,4.29-7.44a4,4,0,0,0-1.37-5.41q-6.27-3.87-12.26-8.25A4,4,0,0,0,1790.35,1567.25Z"/><path class="cls-10" d="M1811.23,1583.93l-1.78,3.37a4,4,0,0,0,1.68,5.41,200,200,0,0,0,18.41,8.34,4,4,0,0,0,5.15-2.38c.43-1.19.87-2.39,1.3-3.59a4,4,0,0,0-2.29-5.06q-8.7-3.45-17.09-7.76A4,4,0,0,0,1811.23,1583.93Z"/><path class="cls-4" d="M1606.21,1390.79a156.8,156.8,0,0,1-11.91,14c-12,12.49-12.74,32-2.25,45.72L1653.6,1531a35.17,35.17,0,0,0,51.09,5,288.5,288.5,0,0,0,46.45-51.21,35.3,35.3,0,0,0-10.72-50.88l-88.5-52.11A35,35,0,0,0,1606.21,1390.79Z"/><path class="cls-10" d="M1733.87,1508.7l-10.19,12.77a29.77,29.77,0,0,0,4.61,41.78l13.56,10.86L1785,1520,1766.39,1505A23.11,23.11,0,0,0,1733.87,1508.7Z"/><path class="cls-10" d="M1768.65,1546.39l-8.36,10.49a4,4,0,0,0,.62,5.6l14.52,11.63a4,4,0,0,0,5.59-.63l8.36-10.49a4,4,0,0,0-.61-5.6l-14.53-11.63A4,4,0,0,0,1768.65,1546.39Z"/><path class="cls-10" d="M1775,1585.64q-2.58,3.46-5.15,6.95a4,4,0,0,0,.83,5.58q6.69,4.9,13.71,9.23a4,4,0,0,0,5.52-1.46q2.11-3.74,4.28-7.45a4,4,0,0,0-1.37-5.4q-6.27-3.87-12.26-8.25A4,4,0,0,0,1775,1585.64Z"/><path class="cls-10" d="M1795.87,1602.32l-1.78,3.38a4,4,0,0,0,1.68,5.4,201.33,201.33,0,0,0,18.41,8.35,4,4,0,0,0,5.16-2.38l1.29-3.59a4,4,0,0,0-2.29-5.07q-8.7-3.44-17.09-7.75A4,4,0,0,0,1795.87,1602.32Z"/><path class="cls-10" d="M1753.29,1564.79l-8.36,10.49a4,4,0,0,0,.62,5.6l14.52,11.63a4,4,0,0,0,5.59-.63l8.37-10.49a4,4,0,0,0-.62-5.6l-14.53-11.63A4,4,0,0,0,1753.29,1564.79Z"/><path class="cls-10" d="M1805.93,1549q-2.6,3.46-5.15,7a4,4,0,0,0,.83,5.57q6.69,4.9,13.71,9.23a4,4,0,0,0,5.51-1.45c1.42-2.49,2.85-5,4.29-7.45a4,4,0,0,0-1.37-5.4q-6.27-3.89-12.26-8.26A4,4,0,0,0,1805.93,1549Z"/><path class="cls-10" d="M1826.81,1565.64c-.59,1.12-1.18,2.25-1.78,3.37a4,4,0,0,0,1.68,5.41q9,4.63,18.41,8.35a4,4,0,0,0,5.15-2.39c.43-1.2.87-2.39,1.3-3.58a4,4,0,0,0-2.29-5.07q-8.71-3.45-17.09-7.75A4,4,0,0,0,1826.81,1565.64Z"/><path class="cls-10" d="M1784.23,1528.1l-8.36,10.49a4,4,0,0,0,.62,5.6l14.52,11.63a4,4,0,0,0,5.59-.63l8.36-10.49a4,4,0,0,0-.61-5.6l-14.53-11.63A4,4,0,0,0,1784.23,1528.1Z"/><path class="cls-10" d="M1796.39,1516.84c.77-2.78,1.56-5.56,2.35-8.33a4,4,0,0,1,4.92-2.76q8,2.31,15.68,5.23a4,4,0,0,1,2.22,5.25q-1.66,4-3.28,8a4,4,0,0,1-5.11,2.22q-6.89-2.61-14-4.67A4,4,0,0,1,1796.39,1516.84Z"/><path class="cls-10" d="M1822.35,1523.18l1.58-3.47a4,4,0,0,1,5.29-2,200.38,200.38,0,0,1,17.86,9.48,4,4,0,0,1,1.26,5.54l-2,3.23a4,4,0,0,1-5.41,1.27q-8-4.8-16.57-8.8A4,4,0,0,1,1822.35,1523.18Z"/><path class="cls-10" d="M1769.46,1503.53l-.66-.51.94-3.85a3.83,3.83,0,0,1,4.63-2.82l18.48,4.5a3.82,3.82,0,0,1,2.8,4.63l-2.85,11.69A3.86,3.86,0,0,1,1790,1520Z"/><path class="cls-10" d="M1404.6,1927.39a67.95,67.95,0,1,0-129,0Z"/><path class="cls-10" d="M1575,1927.39a67.95,67.95,0,1,0-129,0Z"/><path class="cls-2" d="M1409,807.22a13.09,13.09,0,1,1-13.09-13.1A13.1,13.1,0,0,1,1409,807.22Z"/><polygon class="cls-2" points="1412.73 948.27 1405.65 881.06 1423.29 869.44 1397.02 861.04 1414.69 848.73 1399.49 841.62 1392.81 807.83 1399.03 806.6 1405.09 837.23 1427.34 847.65 1411.18 858.91 1437.86 867.44 1412.37 884.24 1419.04 947.6 1412.73 948.27"/></g></g></svg>