<svg xmlns="http://www.w3.org/2000/svg" viewBox="0 0 2537.78 1533.52"><defs><style>.cls-1{fill:#deebe9;}.cls-2{fill:#bed5dc;}.cls-3{opacity:0.5;}.cls-4{fill:#74a1bd;}.cls-5{fill:#c4d7d4;}.cls-6{fill:#2f1a31;}.cls-7{fill:#e28569;}.cls-8{fill:#f7b686;}.cls-9{opacity:0.2;}.cls-10{fill:#e08b65;}.cls-11{fill:#436e8e;}.cls-12{fill:#db996b;}.cls-13{fill:#db6b49;}.cls-14{fill:#fff;}.cls-15{fill:#060633;}.cls-16{fill:#020202;}.cls-17{fill:#cfd3a3;}.cls-18{fill:#dd8964;}.cls-19{opacity:0.3;}.cls-20{fill:#42428e;}.cls-21{fill:#96a7e2;}.cls-22{fill:#b2c9c6;}.cls-23{fill:#a0bcb8;}.cls-24{fill:#6f4975;}.cls-25{fill:#56335b;}.cls-26{fill:#eda588;}</style></defs><g id="Layer_2" data-name="Layer 2"><g id="_Layer_" data-name="&lt;Layer&gt;"><path class="cls-1" d="M2206.93,1519.65c-211.26,24.33-428.91,14.19-873.63-11.27-249.72-14.3-751.83,9.39-1002.45,11.27C148.13,1521,0,1395.52,0,1242.41V287.55C0,134.43,148.44,1.3,330.85,10.31c169.4,8.36,418.55,41.48,678.29,21.2,308.91-24.11,895.24-44.6,1197.79-21.2,182,14.07,330.85,124.12,330.85,277.24v954.86C2537.78,1395.52,2388,1498.8,2206.93,1519.65Z"/><ellipse class="cls-2" cx="1260.89" cy="1264.62" rx="1116.45" ry="93.45"/><g class="cls-3"><path class="cls-4" d="M821,311.41c-1.73-37.51-35.43-69.23-73-69.23-53.2,0-70.65,40.76-72.75,78.25C673.09,359.38,707.42,386,745,386S823.16,358,821,311.41Z"/><path class="cls-5" d="M807.81,315.34c0-29.88-29.82-61.7-59.68-62.65C704,251.27,686.05,296.08,686.05,326s30.83,47.68,60.7,47.68S807.81,345.21,807.81,315.34Z"/><path class="cls-4" d="M754.53,314.33c-.4-4.08-4.74-6.8-8.84-6.8s-8.49,4.94-8.49,9,4.4,7.44,8.49,7.44S755.27,321.89,754.53,314.33Z"/><path class="cls-4" d="M745.69,318.07h-1.48a1.47,1.47,0,0,1-1.47-1.48c0-.81-1.86-3.57-1-3.57l.82-1.73,1.77-40.35-1.84,1.12a1.47,1.47,0,1,1-2.42-1.67l4.53-6.57a1.48,1.48,0,0,1,2.69.84l2.45,51.82C749.7,317.3,746.5,318.07,745.69,318.07Z"/><path class="cls-4" d="M750.78,272.27a1.46,1.46,0,0,1-1.14-.54l-5.59-4c-.52-.63.16-3.7.8-4.22a1.48,1.48,0,0,1,2.07.21l5,6.15a1.46,1.46,0,0,1-.21,2.07A1.41,1.41,0,0,1,750.78,272.27Z"/><path class="cls-4" d="M719,322.84a1.52,1.52,0,0,1-1.06-.45l-4.37-4.54a1.47,1.47,0,0,1,1.06-2.49h0l34.75-1.83c.81,0,1.27,2.57,1.27,3.38v1.49a1.47,1.47,0,0,1-1.47,1.47c-.81,0-2.65.73-2.65-.08l1.18-1.41-29.61-.07,2,2a1.46,1.46,0,0,1,0,2.08A1.44,1.44,0,0,1,719,322.84Z"/><path class="cls-4" d="M714.64,318.31a1.53,1.53,0,0,1-.94-.34,1.47,1.47,0,0,1-.2-2.07l4.08-5a1.48,1.48,0,1,1,2.29,1.87l-1.61,3.75A14.74,14.74,0,0,1,714.64,318.31Z"/></g><polygon class="cls-6" points="420.36 1184.46 402.95 1188 404.04 967.02 417.43 972.69 420.36 1184.46"/><path class="cls-6" d="M471.8,1196.75s-92.18,1.66-122.91,1.89c-3.39,0-5.83-4.64-5.83-8h0c0-3.4,5-7.43,8.35-7.41,30.1.16,120.39,1.26,120.39,1.26a6.15,6.15,0,0,1,6.15,6.15h0A6.15,6.15,0,0,1,471.8,1196.75Z"/><path class="cls-6" d="M347.47,1207.78c1.13-6.74,7-11,13.87-11s13.86,4.51,13.86,11.35c0,8.51-8.6,14.49-15.44,14.49A12.67,12.67,0,0,1,347.47,1207.78Z"/><path class="cls-6" d="M445.8,1207.78c1.12-6.74,7-11,13.86-11s13.87,4.51,13.87,11.35c0,8.51-8.61,14.49-15.44,14.49A12.66,12.66,0,0,1,445.8,1207.78Z"/><path class="cls-6" d="M369.06,974.11s-3.31,14.65,30.73,19.38,48.68-19.38,48.68-19.38Z"/><path class="cls-7" d="M472.92,905a17.1,17.1,0,0,1-14.45-16.12c-2.14-45.93-15-126.83-39.59-170.67-15.93-28.46-158.1-34.58-164.38,4.51-5.46,34,48.73,237.57,48.73,237.57s4.57,15.69,21.23,17.44,217.73,6.51,222.23,0C562.94,954.19,544.45,916,472.92,905Z"/><path class="cls-8" d="M1783.18,421.36h0a5.32,5.32,0,0,1-7.33-1.49l-24.93-37.66a5.3,5.3,0,0,1,1.49-7.33h0a5.31,5.31,0,0,1,7.33,1.49L1784.67,414A5.3,5.3,0,0,1,1783.18,421.36Z"/><path class="cls-8" d="M1794.47,413.88h0a5.3,5.3,0,0,1-7.33-1.49l-27.88-42.11a5.3,5.3,0,0,1,1.49-7.33h0a5.3,5.3,0,0,1,7.33,1.49L1796,406.55A5.3,5.3,0,0,1,1794.47,413.88Z"/><path class="cls-8" d="M1812,433.79l-1.88-.17a6.41,6.41,0,0,1-5.81-6.93l3-34.13a6.41,6.41,0,0,1,6.93-5.82l1.87.17a6.41,6.41,0,0,1,5.82,6.92L1819,428A6.43,6.43,0,0,1,1812,433.79Z"/><path class="cls-8" d="M1805.76,406.4h0a5.3,5.3,0,0,1-7.33-1.49l-22.35-33.75a5.31,5.31,0,0,1,1.49-7.33h0a5.31,5.31,0,0,1,7.34,1.49l22.34,33.75A5.3,5.3,0,0,1,1805.76,406.4Z"/><path class="cls-8" d="M1789.72,447.87s-27.16-13.28-31.63-34.29c-1.55-7.27,32.29-28.36,39.47-24.14s20,28.5,20,28.5Z"/><path class="cls-8" d="M1772,428.81h0a5.29,5.29,0,0,1-7.32-1.48l-22.3-33.69a5.29,5.29,0,0,1,1.49-7.31h0a5.28,5.28,0,0,1,7.31,1.48l22.31,33.69A5.29,5.29,0,0,1,1772,428.81Z"/><path class="cls-8" d="M1820.74,409.64c44.62,38.6,111.74,90.58,178.09,119,15.37,6.59,21.34,8.88,30.83,11.42,7.63,2,12.71,17.83,9.35,30.93-3.15,12.3-16,23.19-20.23,22.66-7.15-.9-18.08-5.28-35.33-12.35-60-24.55-124.36-68.83-197.45-135.51Z"/><path class="cls-8" d="M2021,873.45c33.91,106.44,52.36,294.07,70.38,345.22,6.45,18.3,36.2,15.31,31.6-5.24,0,0,30.37-227.08-27.95-370.18C2082.41,812.3,1974,726,2021,873.45Z"/><path class="cls-7" d="M2091.38,1218.67s2.41,21.29-8.6,29.19-44.85,18.85-29.71,30.42c8.69,6.64,42.94-4,52.84-5.6s20,2.1,26.1-7c6.69-10-9-52.23-9-52.23s-6.84,5.33-14.56,6.32C2097.3,1221.17,2091.38,1218.67,2091.38,1218.67Z"/><path class="cls-8" d="M1941.24,872.16c22.52,109.65,21.14,298.25,33.68,351.14,4.48,18.92,34.37,19.32,32-1.63,0,0,54.06-222.28,11.12-371.13C2008.72,818.34,1910.06,720.27,1941.24,872.16Z"/><path class="cls-7" d="M1974.54,1221.67s-1.46,23.12-13.28,29.77-46.63,13.83-32.84,27c7.91,7.54,43.12.69,53.13.2s19.66,4.27,26.71-4.13c7.75-9.24-1.38-52.83-1.38-52.83a53.72,53.72,0,0,1-15.33,2.91C1980.34,1224.78,1974.54,1221.67,1974.54,1221.67Z"/><g class="cls-9"><path class="cls-10" d="M2083.64,1050.49c-5.24,0-9.81-4.47-10.28-10.17a10.86,10.86,0,0,1,2.54-8,9.23,9.23,0,0,1,6.5-3.19c5.44-.27,10.25,4.29,10.74,10.17a10.87,10.87,0,0,1-2.54,8,9.24,9.24,0,0,1-6.5,3.18Zm-.78-19.11h-.34a6.94,6.94,0,0,0-4.89,2.4,8.56,8.56,0,0,0-2,6.34c.39,4.65,4.13,8.24,8.34,8a6.88,6.88,0,0,0,4.88-2.4,8.51,8.51,0,0,0,2-6.33h0C2090.47,1034.92,2086.93,1031.38,2082.86,1031.38Z"/></g><g class="cls-9"><path class="cls-10" d="M1986.29,1052.11c-5.25,0-9.81-4.47-10.28-10.18a10.83,10.83,0,0,1,2.54-8,9.21,9.21,0,0,1,6.49-3.18c5.46-.3,10.26,4.29,10.75,10.16h0a10.87,10.87,0,0,1-2.54,8,9.18,9.18,0,0,1-6.5,3.18Zm-.78-19.11h-.35a6.86,6.86,0,0,0-4.88,2.4,8.51,8.51,0,0,0-2,6.33c.38,4.65,4.11,8.25,8.33,8.06a7,7,0,0,0,4.89-2.4,8.6,8.6,0,0,0,2-6.34h0C1993.12,1036.54,1989.57,1033,1985.51,1033Z"/></g><path class="cls-7" d="M2196.14,950.18c-1.91,81.51-35.48,53.75-81,51.57-43.26-2-67.44,32.86-129.21,3.69-36.08-17-57.22,19.86-86.12-4.42-31.65-26.56,33.69-176.54,47.92-256.21,5.2.89,98.36,6.82,183.2-18.06,10.26-3,11,20.62,21.4,21.55C2179.6,861.11,2197,913.71,2196.14,950.18Z"/><path class="cls-6" d="M2026.86,471.84s-24-34.7-4.53-65.16,35-37.52,46.75-38.56c7.26-.63,15.32-1.44,22.24.54,7.35,2.11,9.95,7.53,16.12,10.9,2.87,1.57,12.24,2,14.92,3.21,18.4,8.23,23.19,28.41,29.23,43.22,6.14,15-16,46.42-28.07,54.16s-27.32,19.48-48.69,14.88S2026.86,471.84,2026.86,471.84Z"/><path class="cls-11" d="M1929.28,726.74c3.1-17,16.35-147.71,16.35-147.71-12.4-51.77,7.77-77.36,7.77-77.36,53.72,25.51,81.3,16.88,111.29,22.5,41.33,7.75,123.79,66.8,123.79,66.8-19.88,24.21-43.55,25.62-43.55,25.62,3.79,45.31,6,86.66,6.94,124C2154.86,856.6,1914.8,806.38,1929.28,726.74Z"/><path class="cls-6" d="M2188.47,591c3,5-7.35,17.68-23.08,28.22s-39.58,11.45-44.8,8.79c-8.36-4.27-2.38-17.61,23.37-32.15C2166.4,583.15,2185.49,585.92,2188.47,591Z"/><path class="cls-8" d="M2091.63,533.29c-7.6-3.79-7.36-6.83-8-14.36l-2.14-23.61-.62-6.86-3.64-40.29-10.68,36.14-6.42,21.7-1.82,6.18c-1.49,5-6.56,9.69-14,9.9,0,0-1.09,14.39,20,18.81C2080.06,544.21,2091.67,533.31,2091.63,533.29Z"/><path class="cls-12" d="M2081.85,494.73c-.08.19-.17.37-.27.56-5.34,10.91-22.24,13.69-22.24,13.69l.89-3,6.41-21.69c4.78.29,11.37,1.26,14.33,4.15C2082.51,490,2083.06,492,2081.85,494.73Z"/><path class="cls-8" d="M2023.83,431.67a48.81,48.81,0,1,1,27.84,63.16A48.8,48.8,0,0,1,2023.83,431.67Z"/><path class="cls-13" d="M2038.06,467.43a97,97,0,0,0,30.32,6.38s-4.27,14.51-20.07,9.46C2039.12,480.33,2038.06,467.43,2038.06,467.43Z"/><path class="cls-14" d="M2038.06,467.43s2.34,4.2,10.4,7.29,19.92-.91,19.92-.91S2049.37,471.87,2038.06,467.43Z"/><path class="cls-15" d="M2071.73,443.48a1,1,0,0,1,.59-1.84,11,11,0,0,1,11.22,7.51,1,1,0,0,1-.55,1.33,1.13,1.13,0,0,1-1.33-.56,17.34,17.34,0,0,0-9.32-6.24A1.06,1.06,0,0,1,2071.73,443.48Z"/><path class="cls-15" d="M2075.19,456.82c-.81,2.29-2.81,3.67-4.47,3.09s-2.36-2.92-1.55-5.21,2.81-3.67,4.47-3.09S2076,454.53,2075.19,456.82Z"/><path class="cls-15" d="M2035.94,435.27a1,1,0,0,1-.69-.59,1,1,0,0,1,.54-1.33A11,11,0,0,1,2049,436a1,1,0,0,1,0,1.44,1.12,1.12,0,0,1-1.44,0,17.42,17.42,0,0,0-11-2.22A1,1,0,0,1,2035.94,435.27Z"/><path class="cls-15" d="M2044.22,446.29c.13,2.43-1.2,4.47-3,4.56s-3.29-1.8-3.41-4.22,1.19-4.47,3-4.56S2044.09,443.87,2044.22,446.29Z"/><path class="cls-8" d="M2106.6,467.43c-6.48,2.68-13.27.58-15.16-4.69s1.82-11.72,8.29-14.4,13.27-.57,15.16,4.7S2113.08,464.76,2106.6,467.43Z"/><path class="cls-6" d="M2064.33,393.22S2037.77,398.89,2028,412s18.22,4.7,24,12.41,7.84-.65,22.07,2.93,11.37,18.08,22.7,15.93,30.84,2,34-1.68S2111.24,385.46,2064.33,393.22Z"/><path class="cls-6" d="M2148.8,401.42s.79-11.62,15.8-12.53,53.69,26,46.85,60.23,20.49,44.22,2.79,61.62-28.15,9.2-43.16,2.49-27.49,18.63-39.57,2.79,1.24-39.93,19.91-49.2,24.83-23.54,18-37S2148.34,410.73,2148.8,401.42Z"/><path class="cls-6" d="M2032.76,368.08c-5.74-5.76-31.12-11.6-50.26,14.92s.88,51.24-21.26,58-19.37,28.19-.28,29.56,10.85,21.72,25.86,27.66,37.71-2.4,33.68-18.76-21.21-35.05-9.5-70.29C2017.38,390,2040,375.36,2032.76,368.08Z"/><path class="cls-6" d="M2108.61,376.12a1.39,1.39,0,0,1-.35,0,1.52,1.52,0,0,1-1.13-1.82h0c.11-.49,2.6-12.13-8.44-18.8a1.52,1.52,0,0,1,1.57-2.6c12.95,7.83,9.86,21.94,9.82,22.08A1.5,1.5,0,0,1,2108.61,376.12Z"/><path class="cls-6" d="M2127,378.76a1.5,1.5,0,0,1-.81-.24c-8.17-5.2-12.15-1.19-12.19-1.14a1.52,1.52,0,1,1-2.19-2.1c.23-.24,5.77-5.84,16,.68a1.52,1.52,0,0,1-.82,2.8Z"/><path class="cls-6" d="M2222.86,477a1.51,1.51,0,0,1-1.15-.53c-5.17-6-5.33-13.86-5.51-23-.22-10.93-.5-24.54-9.91-39.65-16.54-26.53-45.6-20.08-45.89-20a1.51,1.51,0,1,1-.69-2.95c.31-.08,31.48-7,49.16,21.36,9.85,15.81,10.13,29.88,10.36,41.19.18,8.87.32,15.88,4.78,21a1.52,1.52,0,0,1-1.15,2.51Z"/><path class="cls-6" d="M1949.53,465.74a1.5,1.5,0,0,1-1-.34c-5.74-4.64-8.22-9.71-7.35-15.07,1.71-10.52,15.89-18.45,24-21.47,4.25-1.59,3.46-5.93,1.56-14.12-2.55-11-6-26.08,7.32-40.3,22.65-24.12,57.59-6,57.94-5.82a1.52,1.52,0,1,1-1.42,2.68c-.33-.17-33.25-17.2-54.31,5.22-12.24,13-9.1,26.62-6.57,37.54,1.87,8.07,3.48,15.05-3.46,17.64-9.71,3.63-20.76,11.16-22,19.12-.68,4.2,1.42,8.31,6.26,12.22a1.52,1.52,0,0,1,.23,2.13A1.5,1.5,0,0,1,1949.53,465.74Z"/><path class="cls-6" d="M2010.42,679.51s-13.89-29.14-4.5-31.48,19.73,29.15,19.73,29.15Z"/><path class="cls-4" d="M2008.52,669.36a35.64,35.64,0,0,0-10.72,46.72c49.64,88.29,113.5,119.7,158.33,130.51a205.83,205.83,0,0,0,69.84,4.74,18.06,18.06,0,0,0,15.42-22.81L2237.73,815a46.23,46.23,0,0,0-41.6-34.11,138.33,138.33,0,0,1-26.52-4.36c-43.78-11.66-80.69-43.74-109.7-95.34a35.63,35.63,0,0,0-48.51-13.6Q2009.9,668.4,2008.52,669.36Z"/><path class="cls-11" d="M2188.7,852.25a52,52,0,0,1-13-19.7c-7.82-20.89.1-40.51,8.12-53.29l1,.61c-7.88,12.56-15.67,31.83-8,52.28a50.76,50.76,0,0,0,12.69,19.23Z"/><path class="cls-11" d="M2140,842.39c-.13-.33-13.09-32.59,18.28-69.64l.88.74c-30.93,36.52-18.23,68.14-18.1,68.45Z"/><path class="cls-11" d="M2104.72,827.11c0-.45-1.22-44.75,32.65-63.9l.57,1c-33.26,18.8-32.09,62.42-32.07,62.86Z"/><path class="cls-11" d="M2068.25,802.1l-1-.5c.18-.37,18-36.73,51.2-50.7l.45,1.06C2086.09,765.76,2068.43,801.73,2068.25,802.1Z"/><path class="cls-11" d="M2036.31,771l-1-.63c.22-.33,22-32.65,62.08-38.22l.16,1.14C2058,738.76,2036.53,770.65,2036.31,771Z"/><path class="cls-11" d="M2012.9,737.2l-1-.63c.21-.32,21.15-31.58,60.34-35.8l.12,1.14C2033.76,706.07,2013.11,736.89,2012.9,737.2Z"/><path class="cls-11" d="M1994.27,709.31c-.09-.33,0-.69.45-1.25,3.83-5.2,36.75-32.24,61.51-32.8l0,1.15c-25.68.58-60.17,30.31-60.86,32.75a.29.29,0,0,0,0-.16Z"/><path class="cls-6" d="M1992.54,660.16a31.72,31.72,0,0,1-14.45-3.42c-16.08-8.12-22.15-27.43-22.79-29.61a8.62,8.62,0,0,1,16.53-4.88c1.2,4,6.06,15.11,14.08,19.13,4.06,2,8.62,2.07,13.95.13,9.08-3.31,14.91-8.53,17.33-15.51,3-8.67.1-18.18-3.31-23.68a8.62,8.62,0,1,1,14.67-9.07c7.2,11.66,9.09,26.37,4.93,38.4-2.89,8.33-10,19.61-27.72,26.06A38.65,38.65,0,0,1,1992.54,660.16Z"/><path class="cls-8" d="M2086.7,809.11l-9.62-39.58c-1.32-5.4,13.78-4.85,18.89-6.62,26-9,30.47-28.61,37.23-46.24,9.39-24.48.6-56.31-8.39-77.62-4.6-10.9-3.51-20.44,8.9-30.36,5.15-4.12,9.93-6.76,24.48-9.83,7-1.49,13.68-1.13,16.44,4.24,4.32,8.41,7.25,15.2,12.39,31.33,12.22,38.3,12.68,74.31,1.35,104.14-13.91,36.61-41.9,52.71-87.21,74C2095.87,815,2088.12,815,2086.7,809.11Z"/><g class="cls-3"><path class="cls-10" d="M2170.18,732.11a7.15,7.15,0,0,1-3.14-.71c-5-2.43-6.34-10.15-3-17.59,2-4.42,5.33-7.83,8.89-9.12a7.81,7.81,0,0,1,6.18.14c5,2.43,6.33,10.16,3,17.6-2,4.41-5.33,7.82-8.9,9.12A9,9,0,0,1,2170.18,732.11Zm5.83-25.29a6.31,6.31,0,0,0-2.12.39c-2.9,1-5.65,3.94-7.36,7.71-2.68,5.89-1.91,12.33,1.67,14.06a5.29,5.29,0,0,0,4.1,0c2.9-1,5.65-3.93,7.36-7.71h0c2.67-5.89,1.91-12.33-1.67-14A4.53,4.53,0,0,0,2176,706.82Z"/></g><path class="cls-8" d="M2116.88,797.09l-13.8-18.58a6.38,6.38,0,0,0,3.48-4.09l.5-1.81a6.43,6.43,0,0,0-4.47-7.87l-33-9.11a6.42,6.42,0,0,0-7.87,4.46l-.5,1.82a6.41,6.41,0,0,0,4.47,7.86l5.65,1.56L2043,783.41c-8.41,3-6.64,10.45,2.07,9.4l13.26-4.44a1.43,1.43,0,0,1,2,1v0a1.51,1.51,0,0,1-.88,1.68l-13.15,5.61c-4.18,1.63-8.54,10.5,2.9,9l12.71-4.17a1.75,1.75,0,0,1,2.31,1v0a1.17,1.17,0,0,1-.63,1.5l-10.76,4.86c-9.67,4.63-2.77,10.31,3,8.88l12.16-4.1a1.45,1.45,0,0,1,1.82.61v0a1.4,1.4,0,0,1-.66,2s-14,8.94-3.13,9.94c5.39.5,20.8-6,20.8-6C2103.88,814.66,2116.88,797.09,2116.88,797.09Z"/><path class="cls-6" d="M678.38,1193.74s-.52,17.72,11.18,23.37,46.17,12.05,32.58,22.72c-7.8,6.12-42.64,0-52.53-.55s-19.44,3.27-26.43-3.76c-7.7-7.73,2.38-43.57,2.38-43.57s8.3,4.91,16,5.13C672.64,1197.4,678.38,1193.74,678.38,1193.74Z"/><path class="cls-6" d="M786.23,1193.63s-.52,17.72,11.18,23.37,46.17,12,32.58,22.72c-7.8,6.12-42.64,0-52.54-.55s-19.43,3.26-26.42-3.76c-7.7-7.74,2.38-43.58,2.38-43.58s8.3,4.92,16,5.14C780.49,1197.29,786.23,1193.63,786.23,1193.63Z"/><path class="cls-11" d="M799.07,1164.35c-8.77-116.13-10.83-194.48-47.58-244.82-40.21-55.09-148-94.06-189.61-96.49-67.8-4-99.74,6.13-99.74,6.13C411.25,935,491,949,549.92,951.93q2.93.14,5.87.33C591.49,954.5,655,963.57,679,999c19,28.09,32.23,67.53,37.8,169.24a36.05,36.05,0,0,0,37,34.12S802.22,1206.11,799.07,1164.35Z"/><path class="cls-11" d="M702.84,1170.33c1.16-116.45,4.77-175.9-30.18-227.5-22.45-33.16-56.22-58.18-100.36-74.38-31.51-11.57-68.56-18.66-110.14-21.09-67.79-4-98.26-12.16-98.26-12.16C309,970.67,509.74,941.91,562,999.63c22.76,25.14,51,73,56.54,174.69a36.07,36.07,0,0,0,37,34.12S702.42,1212.9,702.84,1170.33Z"/><path class="cls-16" d="M702.51,1056c0-.69-3.48-69.77-15.06-93.9-14.64-30.53-57.15-62.41-101.08-75.8l.23-.74C630.72,899,673.43,931,688.16,961.72c11.64,24.26,15.09,93.5,15.13,94.2Z"/><path class="cls-8" d="M744.82,775.79,773.55,737c-92.51-8-119.52-2.52-173.07-82.87l-49.27,28.27C587.83,803.89,744.11,776.31,744.82,775.79Z"/><path class="cls-17" d="M412,620.12s28.84-49.3,95.33-34.17,93.58,83,98.34,246.12c0,0-61.55-2.26-223.28,51.38-19.16,6.36-47.26,1.32-37.42-31.32C363.25,791.48,381,670.48,412,620.12Z"/><path class="cls-17" d="M338.85,634.52l68.4,12.85S526.84,682.74,560.32,683s47.33-24.2,47.33-24.2-27-45.84-83.59-67.46A164.65,164.65,0,0,0,507.33,586c-9.8-2.59-19.76-4.86-29.74-5C364.7,579.68,338.85,634.52,338.85,634.52Z"/><path class="cls-6" d="M338.85,634.52c-1.47,5.39,12.86,14.39,32,20.09s35.89,6,37.37.58-12.85-14.39-32-20.1S340.33,629.13,338.85,634.52Z"/><path class="cls-8" d="M508.87,853.2s38.43-2.19,48.35,6,16.37,26.27,9.13,22.47-15.14-11.21-15.14-11.21,16.14,16.63,10.62,18.72-19.42-12.51-19.42-12.51S560,898,554.18,898.32s-19.14-16-19.14-16,15.61,20.49,8.8,20.66-12.79-17-18.32-14.93-21.33,14.14-29-.5Z"/><path class="cls-18" d="M550.82,870.78s-3.71-5.11-7.41-5.11h-.1l0-.95c4.21-.09,8.15,5.28,8.32,5.51Z"/><path class="cls-18" d="M542,877s-3.63-5.19-9.14-6.15l.16-.94c5.91,1,9.61,6.32,9.77,6.55Z"/><path class="cls-18" d="M534.65,882.6c0-.07-4.48-6.21-8.44-5.77l-.1-.94c4.5-.51,9.13,5.88,9.32,6.15Z"/><path class="cls-8" d="M367.21,810.8c28.3,46.34,64.54,65,129.29,76.75l12.37-34.35c-47.15-8.59-71.29-42.72-90.26-73.78-27-44.2-22.12-98-18.08-121.83a6.15,6.15,0,0,0-2.33-5.92c-6-4.62-21.64-14-49.55-14.56a5.39,5.39,0,0,0-5.32,4C331.65,685.11,331.57,752.44,367.21,810.8Z"/><g class="cls-19"><path class="cls-10" d="M381.43,801.4a9.38,9.38,0,0,1-3.51-.72,15.54,15.54,0,0,1-8-8.43h0c-2.9-6.87-1.1-14.25,4-16.43a8.41,8.41,0,0,1,6.6.09,15.52,15.52,0,0,1,8,8.42c2.9,6.88,1.11,14.25-4,16.44A7.8,7.8,0,0,1,381.43,801.4Zm-4.37-24a5.73,5.73,0,0,0-2.21.44c-4,1.7-5.24,7.76-2.82,13.5h0a13.32,13.32,0,0,0,6.73,7.22,6.28,6.28,0,0,0,4.88.1c4-1.7,5.24-7.75,2.82-13.49a13.21,13.21,0,0,0-6.73-7.22A7.09,7.09,0,0,0,377.06,777.44Z"/></g><path class="cls-8" d="M437.12,583.14c11.39,16.69,36.56,30,50,27.17,16.77-3.48,11.57-13.8,9.77-16.29-4.41-6.11-5.49-10.32-4.81-16.81l.17-1.57.85-8,1.6-15,1.62-15.16,5.36-50.26-24.82,48.66-4.22,8.28-5.95,11.69-8.55,16.74C453.45,581.82,437.23,583.13,437.12,583.14Z"/><path class="cls-6" d="M466.7,555.88s8.12,15.06,25.56,19.76l.85-8,1.6-15Z"/><path class="cls-7" d="M534.49,466.91s21.93,26,3.29,43.56S534.49,466.91,534.49,466.91Z"/><path class="cls-7" d="M453.3,544.6s-42.89-23.74-37.84-65.05c2.24-18.32,8.94-25.73,19.93-31.55C489.42,419.37,453.3,544.6,453.3,544.6Z"/><path class="cls-8" d="M539.16,505.45c-.28-31-22.81-56-50.33-55.73s-49.61,25.59-49.34,56.62,22.81,56,50.34,55.72S539.44,536.47,539.16,505.45Z"/><path class="cls-15" d="M492.2,499.79a1,1,0,0,0,.56-.7,1,1,0,0,0-.78-1.2,11,11,0,0,0-12.37,5.17,1,1,0,0,0,.29,1.4,1.1,1.1,0,0,0,1.4-.29,17.36,17.36,0,0,1,10.26-4.3A.93.93,0,0,0,492.2,499.79Z"/><path class="cls-15" d="M486.28,512.13c.35,2.38,2,4.11,3.76,3.86s2.86-2.39,2.51-4.78-2-4.11-3.76-3.86S485.93,509.74,486.28,512.13Z"/><path class="cls-15" d="M529.66,501.35a.72.72,0,0,0,.6-.43,1.2,1.2,0,0,0-.22-1.4,7.08,7.08,0,0,0-10.37-.09,1.23,1.23,0,0,0-.19,1.4.75.75,0,0,0,1.09.28c4-2,8.43-.09,8.61.06A.67.67,0,0,0,529.66,501.35Z"/><path class="cls-15" d="M519.26,510.51c-.59,2.34.31,4.58,2,5s3.55-1.13,4.13-3.47-.31-4.57-2-5S519.85,508.17,519.26,510.51Z"/><path class="cls-14" d="M519.7,532.85a102.24,102.24,0,0,1-32.58-1.4s.56,15.9,18,14.88C515.25,545.73,519.7,532.85,519.7,532.85Z"/><path class="cls-7" d="M547.36,478.05c-4.85,5.08-11,10.58-24.25,6.29s-15.82-11.45-15.82-11.45A18.46,18.46,0,0,1,488.71,480c-12.28-2.36-13.27-7.61-13.27-7.61s-3,11.13-14.27,12.41,4.71,16.9-14.46,17.26c-13.86.26-8.08-29.72-10.88-47.19C432,431,458.41,416.44,468.4,425.63c8.36,7.69,16.73-2.17,36.86-1.33,24.14,1,13.31,19.84,23.17,19.09C551,441.7,561.37,463.38,547.36,478.05Z"/><path class="cls-8" d="M439.05,506.63c4.63,3.81,11.13,3.54,14.53-.59s2.41-10.57-2.22-14.37-11.13-3.54-14.53.59S434.43,502.83,439.05,506.63Z"/><path class="cls-7" d="M416.63,452a1,1,0,0,1-.7-.27,1.06,1.06,0,0,1-.08-1.49c6-6.65,14.15-4.08,14.49-4a1.05,1.05,0,0,1-.66,2h0c-.29-.09-7.18-2.23-12.26,3.39A1.06,1.06,0,0,1,416.63,452Z"/><path class="cls-7" d="M433.32,444.62a1.05,1.05,0,0,1-1-.92c-.85-6.51,3.11-12,3.28-12.21a1.05,1.05,0,0,1,1.7,1.24c0,.06-3.63,5-2.89,10.7a1.05,1.05,0,0,1-.91,1.18Z"/><path class="cls-7" d="M555.1,442.07a1,1,0,0,1-.46-.11c-12.14-5.88-26.6-.21-26.75-.15a1.05,1.05,0,0,1-.78-2c.62-.25,15.48-6.07,28.45.21a1.06,1.06,0,0,1-.46,2Z"/><path class="cls-7" d="M477,427.88a1,1,0,0,1-.67-.24,1.06,1.06,0,0,1-.15-1.49,24.07,24.07,0,0,1,8.57-6.17,1.06,1.06,0,0,1,.81,1.95,22.15,22.15,0,0,0-7.75,5.56A1,1,0,0,1,477,427.88Z"/><path class="cls-6" d="M584.25,1252l-2.2-.22c-1.71-.16-3-3-2.86-6.32L596.25,825l32.42-16.05-39.3,434.61C589.08,1248.5,586.82,1252.25,584.25,1252Z"/><path class="cls-6" d="M1481.3,1252l2.2-.22c1.71-.16,3-3,2.85-6.32L1469.29,825l-32.42-16.05,39.31,434.61C1476.46,1248.5,1478.73,1252.25,1481.3,1252Z"/><path class="cls-4" d="M1577.27,829.38c0,29.61-240,53.6-536.06,53.6s-536.06-24-536.06-53.6,240-53.59,536.06-53.59S1577.27,799.78,1577.27,829.38Z"/><rect class="cls-4" x="505.15" y="804.67" width="1072.12" height="24.72"/><path class="cls-2" d="M1577.27,804.67c0,29.6-240,53.6-536.06,53.6s-536.06-24-536.06-53.6,240-53.6,536.06-53.6S1577.27,775.07,1577.27,804.67Z"/><path class="cls-20" d="M657.37,843.75h-.17c-45.08-4.62-81.11-10-107.08-15.84a1.67,1.67,0,0,1,.74-3.25c25.84,5.86,61.73,11.17,106.68,15.78a1.66,1.66,0,0,1-.17,3.32Z"/><path class="cls-20" d="M1486.36,836.2a1.67,1.67,0,0,1-.26-3.31c.53-.08,52.52-8.28,72.05-15.76a1.66,1.66,0,1,1,1.19,3.11c-19.85,7.6-70.57,15.61-72.72,15.94A1.14,1.14,0,0,1,1486.36,836.2Z"/><path class="cls-21" d="M979.68,488.94s85.21,19.71,92.11,27.37,3.59,275,3.59,275l-100.5,4.61Z"/><path class="cls-21" d="M974.88,795.92H873.18a21.74,21.74,0,0,1-21.74-21.75V517a21.75,21.75,0,0,1,19.73-21.66l96.18-8.92a21.75,21.75,0,0,1,23.75,21.21l5.52,266.09A21.74,21.74,0,0,1,974.88,795.92Z"/><path class="cls-7" d="M877.45,526a5.12,5.12,0,1,1-5.12-5.11A5.12,5.12,0,0,1,877.45,526Z"/><path class="cls-6" d="M891.22,526a5.12,5.12,0,1,1,5.11,5.12A5.11,5.11,0,0,1,891.22,526Z"/><path class="cls-4" d="M914.83,526a5.11,5.11,0,1,1,5.11,5.12A5.11,5.11,0,0,1,914.83,526Z"/><path class="cls-4" d="M877.45,544.19a5.12,5.12,0,1,1-5.12-5.11A5.12,5.12,0,0,1,877.45,544.19Z"/><path class="cls-7" d="M891.22,544.19a5.12,5.12,0,1,1,5.11,5.12A5.11,5.11,0,0,1,891.22,544.19Z"/><path class="cls-4" d="M914.83,544.19a5.11,5.11,0,1,1,5.11,5.12A5.11,5.11,0,0,1,914.83,544.19Z"/><path class="cls-11" d="M965.18,599.67H877.49a7.94,7.94,0,0,1-7.86-9l1.66-12.38a4.6,4.6,0,0,1,4.28-4l89.69-5.4a6.21,6.21,0,0,1,6.58,6.19V593A6.67,6.67,0,0,1,965.18,599.67Zm.46-29.53h-.31l-89.69,5.4a3.39,3.39,0,0,0-3.14,2.92l-1.65,12.39a6.7,6.7,0,0,0,6.64,7.59h87.69a5.44,5.44,0,0,0,5.43-5.44V575.12a5,5,0,0,0-5-5Z"/><path class="cls-11" d="M965.18,644.15H877.49a7.93,7.93,0,0,1-7.86-9l1.66-12.39a4.61,4.61,0,0,1,4.28-4l89.69-5.4a6.22,6.22,0,0,1,6.58,6.19v17.9A6.66,6.66,0,0,1,965.18,644.15Zm.46-29.53h-.31L875.64,620A3.4,3.4,0,0,0,872.5,623l-1.65,12.39a6.7,6.7,0,0,0,6.64,7.59h87.69a5.44,5.44,0,0,0,5.43-5.43V619.6a5,5,0,0,0-5-5Z"/><path class="cls-11" d="M965.18,690.44H877.49a7.93,7.93,0,0,1-7.86-9l1.66-12.39a4.61,4.61,0,0,1,4.28-4l89.69-5.4a6.21,6.21,0,0,1,6.58,6.19v17.9A6.66,6.66,0,0,1,965.18,690.44Zm.46-29.53h-.31l-89.69,5.4a3.4,3.4,0,0,0-3.14,2.92l-1.65,12.39a6.7,6.7,0,0,0,6.64,7.59h87.69a5.44,5.44,0,0,0,5.43-5.43v-17.9a5,5,0,0,0-5-5Z"/><path class="cls-11" d="M974.88,796.53v-1.22c12.78,0,19.32-12.88,20-14.26-.11-7-3.7-241.15-4.2-265.29-.5-23.89-11-26.2-11.09-26.22l.23-1.2c.47.09,11.57,2.53,12.08,27.4.51,24.38,4.16,263,4.2,265.43v.14l-.05.12a31,31,0,0,1-5.16,7.54C986.31,793.91,980.78,796.53,974.88,796.53Z"/><path class="cls-6" d="M1539.07,592.45V584s-52.5-10.36-58.16,5.36,27.58,29.35,46,27.7S1539.07,592.45,1539.07,592.45Z"/><path class="cls-6" d="M1782.62,580.72l3.61-7.62s51.89,13.08,50.28,29.71-37.48,14.74-53.39,5.39S1782.62,580.72,1782.62,580.72Z"/><path class="cls-4" d="M1588.55,1240.05h0a7.29,7.29,0,0,1-7.27-7.27v-26.26a7.28,7.28,0,0,1,7.27-7.26h0a7.28,7.28,0,0,1,7.26,7.26v26.26A7.29,7.29,0,0,1,1588.55,1240.05Z"/><path class="cls-4" d="M1728,1240.05h0a7.29,7.29,0,0,1-7.27-7.27v-26.26a7.28,7.28,0,0,1,7.27-7.26h0a7.28,7.28,0,0,1,7.27,7.26v26.26A7.29,7.29,0,0,1,1728,1240.05Z"/><path class="cls-11" d="M1580.92,346.51h0a2.52,2.52,0,0,1-2.5-2.51V274.69a2.51,2.51,0,0,1,2.5-2.5h0a2.51,2.51,0,0,1,2.51,2.5V344A2.52,2.52,0,0,1,1580.92,346.51Z"/><rect class="cls-22" x="1540.38" y="372.54" width="248.24" height="148.1" rx="13.79"/><rect class="cls-11" x="1561.93" y="392.28" width="205.14" height="43.67" rx="13.79"/><rect class="cls-1" x="1585.78" y="409.09" width="10.06" height="10.06" rx="2.15"/><rect class="cls-1" x="1603.31" y="409.09" width="10.06" height="10.06" rx="2.15"/><rect class="cls-1" x="1594.11" y="419.15" width="10.06" height="10.06" rx="2.15"/><rect class="cls-1" x="1594.11" y="399.04" width="10.06" height="10.06" rx="2.15"/><rect class="cls-1" x="1705.83" y="409.09" width="10.06" height="10.06" rx="2.15"/><rect class="cls-1" x="1723.36" y="409.09" width="10.06" height="10.06" rx="2.15"/><rect class="cls-1" x="1714.16" y="419.15" width="10.06" height="10.06" rx="2.15"/><rect class="cls-1" x="1714.16" y="399.04" width="10.06" height="10.06" rx="2.15"/><rect class="cls-11" x="1631.62" y="472.21" width="10.06" height="10.06" rx="2.15"/><rect class="cls-11" x="1647.32" y="472.21" width="10.06" height="10.06" rx="2.15"/><rect class="cls-11" x="1663.32" y="472.21" width="10.06" height="10.06" rx="2.15"/><rect class="cls-11" x="1679.55" y="472.21" width="10.06" height="10.06" rx="2.15"/><rect class="cls-11" x="1694.45" y="463.92" width="10.06" height="10.06" rx="2.15"/><rect class="cls-11" x="1617.51" y="463.92" width="10.06" height="10.06" rx="2.15"/><rect class="cls-11" x="1604.15" y="455.59" width="10.06" height="10.06" rx="2.15"/><rect class="cls-11" x="1708.33" y="455.59" width="10.06" height="10.06" rx="2.15"/><path class="cls-7" d="M1595.84,372.54h-29.38a.46.46,0,0,1-.45-.51l3.44-29.3a7.87,7.87,0,0,1,7.81-7h8.2a7.85,7.85,0,0,1,7.83,7.19Z"/><path class="cls-11" d="M1733.41,346.51h0a2.52,2.52,0,0,1-2.5-2.51V274.69a2.51,2.51,0,0,1,2.5-2.5h0a2.51,2.51,0,0,1,2.51,2.5V344A2.52,2.52,0,0,1,1733.41,346.51Z"/><path class="cls-7" d="M1748.33,372.54H1719a.46.46,0,0,1-.45-.51l3.44-29.3a7.86,7.86,0,0,1,7.81-7h8.2a7.86,7.86,0,0,1,7.83,7.19Z"/><path class="cls-11" d="M1638.36,520.63s-9.19,32.36-3.45,37.72,35.17,6.51,38.46,2.68-2.45-40.4-2.45-40.4Z"/><path class="cls-22" d="M1737.54,884H1571.09c-17.36,0-31.84-16.28-33.32-37.46l-17.18-246.43c-1.66-23.89,13.73-44.42,33.32-44.42h208.64c20.11,0,35.67,21.56,33.19,46l-25,246.43C1768.64,868.59,1754.41,884,1737.54,884Z"/><path class="cls-11" d="M1654.55,649.72H1566a14.39,14.39,0,0,1-14.37-14.37V606.24A14.39,14.39,0,0,1,1566,591.87h88.59a14.38,14.38,0,0,1,14.37,14.37v29.11A14.38,14.38,0,0,1,1654.55,649.72ZM1566,593a13.23,13.23,0,0,0-13.22,13.22v29.11A13.23,13.23,0,0,0,1566,648.57h88.59a13.23,13.23,0,0,0,13.22-13.22V606.24A13.23,13.23,0,0,0,1654.55,593Z"/><rect class="cls-23" x="1675.93" y="592.45" width="74.85" height="56.7" rx="11.07"/><path class="cls-11" d="M1736.22,644.76H1690.5a9.92,9.92,0,0,1-9.92-9.91V606.74a9.92,9.92,0,0,1,9.92-9.91h45.72a9.92,9.92,0,0,1,9.92,9.91v28.11A9.92,9.92,0,0,1,1736.22,644.76ZM1690.5,598a8.75,8.75,0,0,0-8.74,8.74v28.11a8.75,8.75,0,0,0,8.74,8.74h45.72a8.75,8.75,0,0,0,8.74-8.74V606.74a8.75,8.75,0,0,0-8.74-8.74Z"/><path class="cls-22" d="M1611.12,1214.25h-48.46c-13,0-23.59-13.7-23.59-30.59V848.06c0-16.89,10.56-30.59,23.59-30.59H1629c13.67,0,24.48,15,23.54,32.7l-17.85,335.59C1633.8,1201.8,1623.52,1214.25,1611.12,1214.25Z"/><path class="cls-6" d="M1496,1272.08s103,3.62,111.48,0,6-42.75,0-44.46S1447.5,1246.76,1496,1272.08Z"/><path class="cls-22" d="M1701.2,1214.25h46.11c12.4,0,22.45-13.7,22.45-30.6V848.06c0-16.89-10-30.59-22.45-30.59h-63.1c-13,0-23.29,15-22.39,32.7l17,335.59C1679.61,1201.8,1689.4,1214.25,1701.2,1214.25Z"/><path class="cls-6" d="M1820.46,1272.08s-103,3.62-111.48,0-6-42.75,0-44.46S1869,1246.76,1820.46,1272.08Z"/><path class="cls-6" d="M1672.14,627.5h0a3.8,3.8,0,0,1-3.79-3.79V612.9a3.8,3.8,0,0,1,3.79-3.79h0a3.8,3.8,0,0,1,3.79,3.79v10.81A3.8,3.8,0,0,1,1672.14,627.5Z"/><path class="cls-23" d="M1562.24,608.77a7.88,7.88,0,1,1,7.88,7.88A7.87,7.87,0,0,1,1562.24,608.77Z"/><path class="cls-4" d="M1589,608.77a7.88,7.88,0,1,1,7.88,7.88A7.87,7.87,0,0,1,1589,608.77Z"/><path class="cls-23" d="M1615.74,608.77a7.88,7.88,0,1,1,7.87,7.88A7.87,7.87,0,0,1,1615.74,608.77Z"/><path class="cls-23" d="M1642.48,608.77a7.88,7.88,0,1,1,7.88,7.88A7.87,7.87,0,0,1,1642.48,608.77Z"/><path class="cls-23" d="M1562.24,632a7.88,7.88,0,1,1,7.88,7.87A7.88,7.88,0,0,1,1562.24,632Z"/><path class="cls-4" d="M1589,632a7.88,7.88,0,1,1,7.88,7.87A7.88,7.88,0,0,1,1589,632Z"/><circle class="cls-23" cx="1623.61" cy="631.95" r="7.87"/><path class="cls-23" d="M1642.48,632a7.88,7.88,0,1,1,7.88,7.87A7.88,7.88,0,0,1,1642.48,632Z"/><path class="cls-7" d="M1463.92,758.72l-2.27-6.17c29.44-10.84,32.4-28.24,36.5-52.31a244.3,244.3,0,0,1,5.65-26.72c4.67-16.35,17.64-29.3,37.52-37.45a110.44,110.44,0,0,1,28.49-7.4l.62,6.55c-.62.06-50.35,5.24-60.31,40.11a235.74,235.74,0,0,0-5.49,26C1500.5,725.61,1496.93,746.56,1463.92,758.72Zm106.51-123.5-.31-3.27.31,3.27Z"/><path class="cls-6" d="M1650.61,760.47l-6.57-.33c.28-5.54-4.14-12.18-9.26-19.86-9.73-14.59-23-34.57-15.42-64.37,4.45-17.38,1.77-33.45-8-47.76a64.14,64.14,0,0,0-16.3-16.6l3.53-5.55a69.55,69.55,0,0,1,18,18.23c7.54,11,15.23,29.16,9,53.31-6.91,27,5,44.78,14.52,59.1C1646,745.29,1651,752.76,1650.61,760.47Z"/><path class="cls-11" d="M777.94,788c-14.75,0-32.2-25.43-35.62-26,0,0,13.78,12,17.24,12.67,38.76,7.12,47.8,54.34,106.49,1.09,32.2-29.22,63.79-41,96.57-36,28.82,4.39,54.66,20.78,79.64,36.62,27.54,17.46,53.55,33.94,80.49,32.4,30.79-1.78,51.69-47.44,75.88-100.32,35.21-76.93,79-172.67,175.09-189.55,66.36-11.66,116.63,13.14,147.11,36,33,24.74,50.58,52.64,50.75,52.92l-2.92,1.82c-.17-.27-17.48-27.71-50-52.06-29.93-22.41-79.27-46.72-144.35-35.29C1280,538.9,1236.64,633.72,1201.77,709.92c-24.66,53.89-46,100.44-78.82,102.33-28,1.6-54.52-15.17-82.53-32.93-24.69-15.65-50.22-31.84-78.32-36.12-31.69-4.84-62.35,6.65-93.73,35.13C829.16,813.91,808.45,804.67,777.94,788Z"/><path class="cls-11" d="M1119.16,814c-27.13,0-52.66-16.18-79.63-33.28-24.53-15.55-49.9-31.64-77.68-35.88-31.14-4.79-61.38,6.6-92.38,34.73-39.32,35.67-60.63,27.15-92,10.12-10.82-.32-22.21-12.42-29.79-20.46l-2.21-2.34c-2-1.63-3.56-3-4.27-3.63l-4.42-3.86,5.78,1c1.2.2,2.56,1.38,5.14,4.07,5.39,4.45,10.63,8.33,12.12,8.6,12.32,2.26,21.51,8.34,30.41,14.22,18.83,12.44,35.11,23.18,74.67-12.73,32.59-29.56,64.66-41.38,97.93-36.41,29.19,4.47,55.16,21,80.27,36.87,27.31,17.32,53.21,33.68,79.52,32.14,29.81-1.71,50.51-47,74.48-99.36,35.36-77.28,79.37-173.44,176.3-190.49,66.91-11.75,117.64,13.26,148.39,36.32,31.67,23.75,49.21,50.34,51.11,53.29l.9,1.4-5.69,3.61-.87-1.36c-.74-1.15-18-28-49.6-51.63-29.67-22.22-78.56-46.33-143.08-35C1281.16,540.37,1238,634.76,1203.26,710.6c-24.88,54.38-46.37,101.34-80.21,103.29C1121.75,814,1120.45,814,1119.16,814ZM948.09,740.48a95.51,95.51,0,0,1,14.26,1.09c28.46,4.35,54.12,20.62,78.94,36.37,27.78,17.59,53.94,34.44,81.56,32.66,31.88-1.83,53-48,77.42-101.36,35-76.54,78.62-171.8,173.76-188.52,65.68-11.56,115.44,13,145.62,35.6a225.44,225.44,0,0,1,49.5,51.11l.14-.07a224.49,224.49,0,0,0-49.44-51.11c-30.22-22.65-80.07-47.22-145.85-35.7-95.22,16.73-138.83,112-173.87,188.61-24.41,53.37-45.5,99.45-77.28,101.28-27.45,1.43-53.69-15-81.46-32.64-24.84-15.75-50.51-32-79-36.39-32.23-4.93-63.41,6.72-95.22,35.59a160.12,160.12,0,0,1-17.6,14,140.28,140.28,0,0,0,17.71-13.93C894.32,752.56,920.9,740.48,948.09,740.48ZM759.46,776.35c5.85,5.31,12.55,10,18.49,10h.41l.37.21a203.55,203.55,0,0,0,20.11,9.91c-3.52-2-6.93-4.2-10.38-6.49C779.89,784.37,771,778.52,759.46,776.35Z"/><path class="cls-6" d="M1534,469h0a6.39,6.39,0,0,1-6.37-6.37V417.21a6.38,6.38,0,0,1,6.37-6.37h0a6.38,6.38,0,0,1,6.36,6.37v45.37A6.38,6.38,0,0,1,1534,469Z"/><path class="cls-6" d="M1795,469h0a6.39,6.39,0,0,1-6.37-6.37V417.21a6.39,6.39,0,0,1,6.37-6.37h0a6.38,6.38,0,0,1,6.37,6.37v45.37A6.39,6.39,0,0,1,1795,469Z"/><path class="cls-6" d="M1632.06,971.72l-1.15,0c0-.81,2.63-81.16,0-87.49-1.87-4.57-56-17.64-92-25.32l.24-1.12c9.22,2,90.13,19.41,92.83,26S1632.17,968.4,1632.06,971.72Z"/><path class="cls-6" d="M1684.52,971.7h-1.15v-77s-1.45-12.24,9.53-17.38c10.66-5,72.89-19,75.53-19.62l.25,1.12c-.64.15-64.75,14.6-75.3,19.54-10.2,4.78-8.92,15.8-8.86,16.27Z"/><path class="cls-6" d="M1655.46,851.37c-23.89,0-87.11-15.63-93.06-19.78a1.43,1.43,0,0,1-.73-1c-.26-3.55-12.35-84.84-12.48-85.67l1.14-.17c.5,3.34,12.09,81.23,12.48,85.68,1.24,1.66,20.42,7.37,44.54,12.61,27.53,6,47.83,8.42,54.31,6.56,5.57-1.61,17.77-3.49,31.89-5.66,23.2-3.57,55-8.45,56.7-12.93,3.18-8.17,7.06-89.84,4.46-94-2.11-3.33-63.77-1.6-102.13.27l0-1.15c.24,0,25.19-1.22,50.18-1.82,50.88-1.23,52.41,1.18,53,2.09,3.41,5.42-1.73,88.2-4.37,95-1.84,4.73-25,8.64-57.59,13.65-14.09,2.16-26.25,4-31.75,5.62A25,25,0,0,1,1655.46,851.37Z"/><path class="cls-11" d="M1587.33,1203.44a4.11,4.11,0,1,1,4.1-4.1A4.11,4.11,0,0,1,1587.33,1203.44Zm0-7.06a3,3,0,1,0,3,3A3,3,0,0,0,1587.33,1196.38Z"/><path class="cls-11" d="M1595.81,1199.34a3.53,3.53,0,1,1,3.53,3.53A3.53,3.53,0,0,1,1595.81,1199.34Z"/><path class="cls-11" d="M1716.67,1203.44a4.11,4.11,0,1,1,4.1-4.1A4.11,4.11,0,0,1,1716.67,1203.44Zm0-7.06a3,3,0,1,0,2.95,3A3,3,0,0,0,1716.67,1196.38Z"/><path class="cls-11" d="M1725.16,1199.34a3.53,3.53,0,1,1,3.53,3.53A3.53,3.53,0,0,1,1725.16,1199.34Z"/><path class="cls-8" d="M1295.5,581s29,99.67,92.63,82l15.12,37.2s-61,68.47-130.74-21.18S1295.5,581,1295.5,581Z"/><path class="cls-6" d="M1204.88,1243.71s.48,17.93,13.4,23,50.35,9.62,36.36,21.15c-8,6.61-45.85,2.34-56.52,2.34s-20.7,4.37-28.64-2.34c-8.73-7.39,0-44.14,0-44.14s9.21,4.51,17.5,4.31C1198.92,1247.73,1204.88,1243.71,1204.88,1243.71Z"/><path class="cls-6" d="M1107.08,1242.43s.48,17.93,13.39,23,50.35,9.62,36.36,21.15c-8,6.61-45.84,2.34-56.52,2.34s-20.7,4.37-28.64-2.34c-8.73-7.39,0-44.14,0-44.14s9.22,4.51,17.5,4.31C1101.12,1246.45,1107.08,1242.43,1107.08,1242.43Z"/><path class="cls-6" d="M1067.43,848.44c.23,9.67,52.58,13.51,117.33,11.25s116.5-12.25,116.27-21.93-52-22.28-116.8-20S1067.21,838.77,1067.43,848.44Z"/><path class="cls-7" d="M1067.43,578.08s28.65-39.75,113.13-40.27c121.83-.74,109.2,109.91,120.47,300,0,0-106.93-38.46-233.66,8.3C1067.37,846.06,1037.3,632,1067.43,578.08Z"/><path class="cls-7" d="M1060.17,609.65l30.38-1s142.7,24.5,182,18.83c21.28-3.08,44-33.51,44-33.51s-15.68-60.27-148.52-60.33C1051,533.61,1060.17,609.65,1060.17,609.65Z"/><path class="cls-8" d="M1151.22,534.36c13,14.75,38.78,24.58,51.42,20.3,15.76-5.32,9.53-14.67,7.5-16.86-5-5.36-6.51-9.3-6.62-15.63l0-1.54-.12-7.78-.23-14.65-.22-14.81-.76-49.08L1184,484.15l-3.09,8.48-4.37,12-6.27,17.14C1166.81,531.16,1151.33,534.34,1151.22,534.36Z"/><path class="cls-6" d="M1085.33,623.16c4.59,8.77,22.62,8.56,40.29-.46s28.26-23.43,23.68-32.2-22.62-8.56-40.29.46S1080.75,614.4,1085.33,623.16Z"/><path class="cls-24" d="M1284,844.86c.17,33.43-3.18,80.49-14.42,148.7-15.58,94.6-34.09,190-43.18,235.66a36.47,36.47,0,0,1-34.19,29.17l-9,.41a30.35,30.35,0,0,1-31.86-32.16l20.65-309,3.26-67.53a97.17,97.17,0,0,1,17.78-5.79C1225.78,836.68,1283.91,833.11,1284,844.86Z"/><path class="cls-24" d="M1186.94,845.92c-1.77,33.27-5.9,77.56-17.56,148.35-15.59,94.6-34.1,190-43.19,235.66a36.44,36.44,0,0,1-34.18,29.16l-9,.42a30.35,30.35,0,0,1-31.86-32.16l20.65-309,3.08-63.88c.14-2.93,2.54-5.47,6-6.39C1104,842,1188.24,821.49,1186.94,845.92Z"/><path class="cls-16" d="M1173.61,972.37l-1.43-.24c9.09-55.19,43.48-88.27,43.82-88.6l1,1.06C1216.66,884.91,1182.63,917.68,1173.61,972.37Z"/><path class="cls-25" d="M1176.52,504.6s9.61,13.56,27,16l-.12-7.78-.23-14.65Z"/><path class="cls-6" d="M1231.4,410.84s24.2,22.51,8.3,41.6S1231.4,410.84,1231.4,410.84Z"/><path class="cls-6" d="M1162.28,495.3s-44.15-17.83-44.15-58.25c0-17.93,5.59-25.86,15.5-32.76C1182.34,370.32,1162.28,495.3,1162.28,495.3Z"/><path class="cls-8" d="M1240.44,447.44c-3.92-29.88-28.59-51.27-55.09-47.79s-44.81,30.51-40.89,60.39,28.59,51.27,55.09,47.79S1244.36,477.31,1240.44,447.44Z"/><path class="cls-15" d="M1194.5,447.52a1,1,0,0,0,.46-.75,1,1,0,0,0-.9-1.06,10.64,10.64,0,0,0-11.31,6.44,1,1,0,0,0,.44,1.32,1.08,1.08,0,0,0,1.32-.44,16.8,16.8,0,0,1,9.39-5.36A1,1,0,0,0,1194.5,447.52Z"/><path class="cls-15" d="M1190.25,460.11c.61,2.26,2.44,3.73,4.08,3.28s2.47-2.64,1.85-4.9-2.44-3.73-4.08-3.28S1189.63,457.85,1190.25,460.11Z"/><path class="cls-15" d="M1230.8,444.61a.7.7,0,0,0,.53-.49,1.2,1.2,0,0,0-.38-1.33,6.88,6.88,0,0,0-10,1.14,1.15,1.15,0,0,0,0,1.37.72.72,0,0,0,1.08.15,10.33,10.33,0,0,1,8.31-1A.62.62,0,0,0,1230.8,444.61Z"/><path class="cls-15" d="M1221.85,454.67c-.29,2.32.84,4.37,2.53,4.58s3.29-1.5,3.58-3.82-.84-4.38-2.53-4.59S1222.14,452.34,1221.85,454.67Z"/><path class="cls-14" d="M1224.91,476.15a99.5,99.5,0,0,1-31.58,2.49s2.42,15.26,19.1,12.22C1222.13,489.09,1224.91,476.15,1224.91,476.15Z"/><path class="cls-8" d="M1144.07,460.38c4.91,3.12,11.15,2.1,13.94-2.29s1.07-10.47-3.84-13.59-11.14-2.1-13.93,2.28S1139.16,457.26,1144.07,460.38Z"/><path class="cls-6" d="M1109.69,415.38a1.92,1.92,0,0,1-.66-.12,1.88,1.88,0,0,1-1.1-2.43c4.29-11.3,15.75-12.08,16.24-12.11a1.88,1.88,0,0,1,.22,3.76c-.43,0-9.54.73-12.94,9.69A1.88,1.88,0,0,1,1109.69,415.38Z"/><path class="cls-6" d="M1126.57,398.44a1.89,1.89,0,0,1-1.65-1c-4.25-7.73-2-16.49-1.88-16.86a1.88,1.88,0,1,1,3.63,1c0,.15-1.94,7.73,1.55,14.08a1.89,1.89,0,0,1-1.65,2.79Z"/><path class="cls-6" d="M1133.63,404.29a23.5,23.5,0,0,1-.52-3.57c-.55-6.7.32-21.6,16-33.44C1170,351.49,1215,382.14,1237.35,378s27.82,10.76,18.33,20.47-18.33,8.29-18.33,8.29,22.31-.9,20.92,8.85-26.79,17.19-49.15,6-46,30.89-63,14.29S1133.63,404.29,1133.63,404.29Z"/><path class="cls-6" d="M1195,369s16.87,1.12,25.75,0,20.15,6.55,10.69,13.52S1195,369,1195,369Z"/><path class="cls-6" d="M1334.7,823.34s-2.94,34.2,7.29,33,8.75-36.37,8.75-36.37Z"/><path class="cls-4" d="M1336.61,834.15a37.87,37.87,0,0,1-28.12-42.48c16.43-106.41,68.26-161.52,108.84-189a219.12,219.12,0,0,1,67.73-30.8,19.22,19.22,0,0,1,23.87,17l1.41,14.84a49.13,49.13,0,0,1-28.65,49.48,147.36,147.36,0,0,0-24.77,14.24c-39.22,28-64,73.66-73.57,135.85a37.88,37.88,0,0,1-43.21,31.65C1338.94,834.68,1337.76,834.44,1336.61,834.15Z"/><path class="cls-11" d="M1470,659.33c-12.76-9.73-28-26.29-28-50a55.35,55.35,0,0,1,5.6-24.46l1.07.59a54,54,0,0,0-5.45,23.93c0,23.18,15,39.43,27.51,49Z"/><path class="cls-11" d="M1447,675.35c-45.06-25.15-44.2-62.11-44.19-62.48l1.22,0c0,.36-.81,36.59,43.57,61.37Z"/><path class="cls-11" d="M1429.8,692.64c-40.87-6.41-56.21-50.95-56.36-51.4l1.16-.39c.15.44,15.26,44.29,55.39,50.59Z"/><path class="cls-11" d="M1415.53,712c-38.24-1.51-69.57-31-69.88-31.33l.84-.88c.31.29,31.31,29.5,69.09,31Z"/><path class="cls-11" d="M1381.77,740.69c-32.29,0-55.88-16.84-56.16-17.05l.72-1c.33.24,33.59,24,75.06,14.65l.27,1.19A90.46,90.46,0,0,1,1381.77,740.69Z"/><path class="cls-11" d="M1367,781.77A97,97,0,0,1,1314.91,766l.72-1c.32.24,32.38,23.19,72.4,12.9l.3,1.18A85.21,85.21,0,0,1,1367,781.77Z"/><path class="cls-11" d="M1363.21,813.18c-23.42,0-50.31-9.48-54.78-12.39-.63-.4-.89-.71-.92-1.08l1.22-.1a.33.33,0,0,0-.06-.17c.82,1.11,12.29,5.86,27.34,9.23,13.15,3,31.72,5.45,45.47.64l.4,1.16A57.37,57.37,0,0,1,1363.21,813.18Z"/><path class="cls-6" d="M1376,909.81a9.19,9.19,0,0,1-9-10.94c1.33-6.75.67-17.29-5.55-24.8-4.94-6-12.54-9-22.57-9h-.48c-6.05.06-10.59,1.82-13.87,5.38-6.5,7.07-7.12,20.19-6.82,24.23a9.16,9.16,0,0,1-18.28,1.34c-.18-2.4-1.35-23.89,11.62-38,6.71-7.28,16.11-11.19,27.18-11.29h.64c19.6,0,30.75,8.45,36.68,15.59,8.63,10.4,12.25,25.75,9.42,40A9.16,9.16,0,0,1,1376,909.81Z"/><path class="cls-8" d="M1342.58,791.09h0a5.36,5.36,0,0,0,3.76,6.56l44.07,11.94a5.37,5.37,0,0,0,6.57-3.76h0a5.37,5.37,0,0,0-3.77-6.56l-44.07-11.95A5.37,5.37,0,0,0,1342.58,791.09Z"/><path class="cls-8" d="M1346.16,777.87h0a5.37,5.37,0,0,0,3.77,6.56l49.28,13.36a5.37,5.37,0,0,0,6.57-3.76h0a5.37,5.37,0,0,0-3.77-6.56l-49.29-13.36A5.36,5.36,0,0,0,1346.16,777.87Z"/><path class="cls-8" d="M1321.48,767.36l.75,1.75a6.48,6.48,0,0,0,8.5,3.38l31.81-13.73a6.49,6.49,0,0,0,3.38-8.5l-.76-1.75a6.49,6.49,0,0,0-8.5-3.38l-31.81,13.73A6.48,6.48,0,0,0,1321.48,767.36Z"/><path class="cls-8" d="M1349.75,764.65h0a5.37,5.37,0,0,0,3.76,6.57L1393,781.93a5.37,5.37,0,0,0,6.56-3.77h0a5.36,5.36,0,0,0-3.76-6.56l-39.51-10.71A5.36,5.36,0,0,0,1349.75,764.65Z"/><path class="cls-8" d="M1315.05,793.25s21.39,21.84,43,19.45c7.47-.83,17-40,10.61-45.57S1334.91,757,1334.91,757Z"/><path class="cls-8" d="M1339,804.2h0a5.37,5.37,0,0,0,3.76,6.55l39.43,10.69a5.35,5.35,0,0,0,6.54-3.76h0a5.36,5.36,0,0,0-3.75-6.55l-39.43-10.69A5.37,5.37,0,0,0,1339,804.2Z"/><path class="cls-8" d="M1341.88,751.32c-51.25-30.55-122.49-78.43-170.9-133.06-11.22-12.66-15.32-17.65-20.78-26-4.39-6.67-21.16-6.53-32.66.87-10.79,6.93-18.68,20.94-15.31,26.62,3.72,6.26,10.82,15.67,23.1,30C1168,699.5,1231,747.24,1318.2,796.17Z"/><g class="cls-3"><path class="cls-10" d="M1208.36,709.88h-.15a14.64,14.64,0,0,1-8.06-2.79c-5.34-3.74-7.53-9.88-4.87-13.68s9.17-3.84,14.51-.1a14.56,14.56,0,0,1,5.39,6.61,6.89,6.89,0,0,1-6.82,10Zm-6.78-17.13a5.24,5.24,0,0,0-4.48,1.94c-1.93,2.75.06,7.59,4.33,10.58h0a12.47,12.47,0,0,0,6.81,2.39,4.72,4.72,0,0,0,4.87-6.95,13.36,13.36,0,0,0-11.53-8Z"/></g><path class="cls-8" d="M1435,704.39s10.36-12.62-1.22-22c-14.77-11.95-44.61-12.68-35.36-5,8.2,6.82,22.17,13.73,22.17,13.73s-35.77-17.06-36.77-8.43,30,22.9,30,22.9-36.39-13.33-34.7-4.86,29.72,21.58,29.72,21.58-34.86-14.94-32.66-5.15,21.79,13.86,29.7,17.48c7.47,3.42,12.1-.28,14.88-7.73,0,0,7.08-5.8,7.67-11.12.23-2,2.72-3,3.47-4.26A50.45,50.45,0,0,0,1435,704.39Z"/><path class="cls-7" d="M1005.63,834.67H871a6.55,6.55,0,0,1-6.21-4.45l-28-83.56a6.5,6.5,0,0,1,6.21-8.55H972.49a13.69,13.69,0,0,1,13,9.31l26.35,78.7A6.51,6.51,0,0,1,1005.63,834.67Z"/><path class="cls-7" d="M997.18,834.67H862.55a6.55,6.55,0,0,1-6.21-4.45l-28-83.56a6.5,6.5,0,0,1,6.21-8.55H964a13.69,13.69,0,0,1,13,9.31l26.35,78.7A6.51,6.51,0,0,1,997.18,834.67Z"/><path class="cls-1" d="M902.84,783.65c0-3.17,3.66-4.46,6.86-4.46s8.41,3.48,8.38,7.92c0,4.8-3.79,5.43-7,5.43S902.84,787.69,902.84,783.65Z"/><path class="cls-7" d="M862.48,822.86h184.24a7.79,7.79,0,0,1,7.79,7.79v.06a4,4,0,0,1-4,4H862.48a0,0,0,0,1,0,0V822.86A0,0,0,0,1,862.48,822.86Z"/><path class="cls-11" d="M987.61,780.35c-.07-.25-6.67-25-11-32.71s-9.41-9.09-9.46-9.11l.23-.84c.23.06,5.6,1.62,10,9.52s10.76,31.9,11,32.92Z"/><path class="cls-11" d="M1007.51,823.3c-5,0-6.24-2.21-6.29-2.31l-10.52-31.4.83-.28L1002,820.65h0s1.14,1.77,5.49,1.77Z"/><path class="cls-11" d="M1546.92,1150.56h0a3.45,3.45,0,0,1-1.89-4.49l36.17-88.27a3.45,3.45,0,0,1,4.49-1.89h0a3.46,3.46,0,0,1,1.88,4.5l-36.16,88.27A3.44,3.44,0,0,1,1546.92,1150.56Z"/><polygon class="cls-24" points="1470.12 1140.09 1498.1 1099.42 1513.37 1113.18 1494.15 1143.78 1470.12 1140.09"/><polygon class="cls-6" points="1317.81 1152.83 1494.15 1143.78 1653.32 1152.83 1525.14 1163.46 1317.81 1152.83"/><path class="cls-6" d="M1339.76,1116.68s-28.41-.06-26.73,8.3,30.62,4.7,30.62,4.7Z"/><path class="cls-4" d="M1331,1119a31.35,31.35,0,0,1,33.11-26.14c88.93,6.18,138,45.13,163.5,76.71a181.22,181.22,0,0,1,30.1,53.75,15.9,15.9,0,0,1-12.33,20.87l-12.15,2.2a40.7,40.7,0,0,1-42.82-20.22,121.52,121.52,0,0,0-13.46-19.45c-25.78-30.42-65.21-47.68-117.19-51.3a31.36,31.36,0,0,1-29.11-33.45C1330.7,1121,1330.82,1120,1331,1119Z"/><path class="cls-11" d="M1485.33,1217.52l-.86-.55c24.78-38.87,59.55-23.79,59.9-23.63l-.41.92C1543.61,1194.11,1509.62,1179.41,1485.33,1217.52Z"/><path class="cls-11" d="M1470.58,1199.51l-.92-.41c9.2-20.33,21.88-30.33,30.89-35.15,9.79-5.23,17.29-5.63,17.6-5.65l0,1C1517.9,1159.33,1488,1161.18,1470.58,1199.51Z"/><path class="cls-11" d="M1455.21,1186.16l-1-.07c2.46-34.16,38.15-49.91,38.51-50.06l.4.93C1492.75,1137.11,1457.62,1152.62,1455.21,1186.16Z"/><path class="cls-11" d="M1437.27,1175.66c-1.4-31.66,20.78-59.56,21-59.84l.78.64c-.22.27-22.17,27.88-20.78,59.15Z"/><path class="cls-11" d="M1414.42,1166.05c-10.71-34,6.8-63.49,7-63.78l.87.52c-.18.29-17.45,29.38-6.89,63Z"/><path class="cls-11" d="M1380,1157.86c-11.42-32.76,5.55-61.2,5.72-61.48l.86.52c-.17.28-16.89,28.33-5.63,60.63Z"/><path class="cls-11" d="M1353.66,1154.72c-8.89-19.9.2-56.28,2.89-61.29.29-.54.53-.78.83-.83l.16,1c.09,0,.14,0,.14-.06-1.68,1.48-12.33,40.12-3.1,60.76Z"/><path class="cls-6" d="M1282.56,1163.88a41,41,0,0,1-4.56-.26,7.59,7.59,0,0,1,1.68-15.08c5.66.64,14.32-.64,20.08-6.3,4.64-4.55,6.59-11.16,5.8-19.63-.46-5-2.22-8.58-5.36-11-6.22-4.87-16.93-4.53-20.53-4a7.59,7.59,0,0,1-2.35-15c2-.32,19.62-2.77,32.15,7,6.47,5,10.35,12.52,11.2,21.65,1.54,16.49-4.74,26.43-10.28,31.87C1303.41,1159.92,1293.06,1163.87,1282.56,1163.88Z"/><path class="cls-24" d="M1552.33,1191.5l-37.41-15.33a.61.61,0,0,1-.31-.87l19.67-35.53a10.81,10.81,0,0,1,13.57-4.78l10.44,4.28a10.83,10.83,0,0,1,6.23,13.25Z"/><polygon class="cls-7" points="1653.32 1275.28 1525.14 1283.32 1525.14 1163.46 1653.32 1152.83 1653.32 1275.28"/><polygon class="cls-26" points="1525.14 1283.32 1317.81 1258.76 1317.81 1152.83 1525.14 1163.46 1525.14 1283.32"/><path class="cls-7" d="M1317.81,1152.83s-17.48,16.17-18.7,16.58,196,24.86,196,24.86l30-30.81Z"/><polygon class="cls-7" points="1653.32 1152.83 1668.35 1173.55 1548.53 1194.27 1525.14 1163.46 1653.32 1152.83"/><path class="cls-6" d="M1548.53,1195.17a1,1,0,0,1-.73-.35l-22.74-30-29.27,30.05a1.18,1.18,0,0,1-.77.26l-177.32-22.27a.91.91,0,0,1-.79-1,.9.9,0,0,1,1-.79l176.88,22.22,29.69-30.48c.18-.2.43-.4.71-.27a.94.94,0,0,1,.66.35l23.05,30.36,104.26-18a.9.9,0,0,1,.3,1.78l-104.79,18.13Z"/><path class="cls-24" d="M1523.09,1122.44a30.53,30.53,0,0,1-12.62-2.89c-8.81-4-15.09-9.75-18.66-17.07-6.63-13.56-1.85-28.14,4.25-36.5a7,7,0,0,1,11.3,8.25c-4.11,5.63-6.63,14.65-3,22.11,2.11,4.33,6.11,7.85,11.88,10.47,4.19,1.91,7.88,2.16,11.29.77,6.74-2.75,11.37-11.48,12.59-14.6a7,7,0,0,1,13.07,5c-.66,1.72-6.77,17-20.29,22.54A25.79,25.79,0,0,1,1523.09,1122.44Z"/><path class="cls-6" d="M640,804.61H776.13a6.61,6.61,0,0,0,6.28-4.5l28.28-84.47a6.58,6.58,0,0,0-6.28-8.65H673.52a13.85,13.85,0,0,0-13.15,9.42L633.73,796A6.58,6.58,0,0,0,640,804.61Z"/><path class="cls-6" d="M648.55,804.61H784.67a6.61,6.61,0,0,0,6.28-4.5l28.28-84.47A6.58,6.58,0,0,0,813,707H682.06a13.84,13.84,0,0,0-13.14,9.42L642.28,796A6.57,6.57,0,0,0,648.55,804.61Z"/><path class="cls-1" d="M743.93,753c0-3.21-3.7-4.52-6.93-4.52s-8.5,3.52-8.47,8c0,4.85,3.83,5.48,7.05,5.48S743.93,757.12,743.93,753Z"/><path class="cls-6" d="M590.6,792.67H780.74a4,4,0,0,1,4,4v.06a7.88,7.88,0,0,1-7.88,7.88H590.6a0,0,0,0,1,0,0V792.67A0,0,0,0,1,590.6,792.67Z" transform="translate(1375.34 1597.28) rotate(180)"/><path class="cls-11" d="M658.23,749.7l-.85-.23c.27-1,6.77-25.4,11.15-33.28s9.87-9.56,10.1-9.62l.24.85s-5.32,1.56-9.57,9.2S658.3,749.45,658.23,749.7Z"/><path class="cls-11" d="M638.12,793.12v-.89c4.46,0,5.56-1.85,5.57-1.86l10.58-31.61.84.28L644.5,790.72C644.42,790.88,643.16,793.12,638.12,793.12Z"/></g></g></svg>