<svg xmlns="http://www.w3.org/2000/svg" xmlns:xlink="http://www.w3.org/1999/xlink" viewBox="0 0 1958.22 1278.62"><defs><style>.cls-1{opacity:0.79;}.cls-2{fill:#22b573;}.cls-104,.cls-3,.cls-45,.cls-6,.cls-7{fill:#fff;}.cls-3{opacity:0.86;}.cls-4{opacity:0.94;}.cls-5{fill:#009245;}.cls-6{opacity:0.43;}.cls-7{opacity:0.45;}.cls-8{fill:url(#linear-gradient);}.cls-9{fill:url(#_55);}.cls-10{opacity:0.44;}.cls-11{fill:url(#_45);}.cls-12{fill:url(#_45-2);}.cls-13{fill:url(#_45-3);}.cls-14{fill:url(#_45-4);}.cls-15{fill:url(#_45-5);}.cls-16{fill:url(#_45-6);}.cls-17{fill:url(#_45-7);}.cls-18{fill:url(#_45-8);}.cls-19{fill:url(#_45-9);}.cls-20{fill:url(#_45-10);}.cls-21{fill:url(#_45-11);}.cls-22{fill:url(#_45-12);}.cls-23{fill:url(#_45-13);}.cls-24{fill:url(#_45-14);}.cls-25{fill:url(#_45-15);}.cls-26{fill:url(#_45-16);}.cls-27{fill:url(#_45-17);}.cls-28{fill:url(#_45-18);}.cls-29{fill:url(#_45-19);}.cls-30{fill:url(#_45-20);}.cls-31{fill:url(#_45-21);}.cls-32{fill:url(#_45-22);}.cls-33{fill:url(#_45-23);}.cls-34{fill:url(#_45-24);}.cls-35{fill:url(#_45-25);}.cls-36{fill:url(#_45-26);}.cls-37{fill:url(#linear-gradient-2);}.cls-38{fill:#00aee8;}.cls-39{fill:#be1430;}.cls-40{fill:#d91a39;}.cls-41{fill:#0091d3;}.cls-42{fill:url(#linear-gradient-3);}.cls-43{fill:url(#_52);}.cls-44{fill:url(#linear-gradient-4);}.cls-45{opacity:0.39;}.cls-46{fill:url(#linear-gradient-5);}.cls-47{fill:url(#linear-gradient-6);}.cls-48{fill:url(#_52-2);}.cls-49{fill:url(#linear-gradient-7);}.cls-50{fill:url(#linear-gradient-8);}.cls-51{fill:url(#linear-gradient-9);}.cls-52{fill:url(#linear-gradient-10);}.cls-53{fill:url(#linear-gradient-11);}.cls-54{fill:url(#linear-gradient-12);}.cls-55{fill:url(#linear-gradient-13);}.cls-56{fill:url(#linear-gradient-14);}.cls-57{fill:url(#linear-gradient-15);}.cls-58{fill:url(#linear-gradient-16);}.cls-59{fill:url(#linear-gradient-17);}.cls-60{fill:url(#linear-gradient-18);}.cls-61{fill:url(#linear-gradient-19);}.cls-62{fill:#f7a8aa;}.cls-63{fill:#a41f23;}.cls-64{fill:#ff931e;}.cls-65{fill:url(#linear-gradient-20);}.cls-66{fill:url(#linear-gradient-21);}.cls-67{fill:#3d81b5;}.cls-68{fill:url(#linear-gradient-22);}.cls-69{fill:url(#linear-gradient-23);}.cls-70{fill:url(#linear-gradient-24);}.cls-71{fill:url(#linear-gradient-25);}.cls-72{fill:#00a8d1;}.cls-73{fill:url(#linear-gradient-26);}.cls-74{fill:url(#linear-gradient-27);}.cls-75{fill:url(#linear-gradient-28);}.cls-76{fill:url(#linear-gradient-29);}.cls-77{fill:url(#linear-gradient-30);}.cls-78{fill:url(#linear-gradient-31);}.cls-79{fill:#ccc;}.cls-112,.cls-113,.cls-114,.cls-115,.cls-116,.cls-118,.cls-119,.cls-120,.cls-121,.cls-122,.cls-127,.cls-128,.cls-129,.cls-130,.cls-131,.cls-135,.cls-136,.cls-137,.cls-138,.cls-139,.cls-140,.cls-141,.cls-142,.cls-143,.cls-144,.cls-145,.cls-146,.cls-147,.cls-148,.cls-149,.cls-164,.cls-165,.cls-166,.cls-167,.cls-168,.cls-169,.cls-80,.cls-81,.cls-82,.cls-83,.cls-84,.cls-85,.cls-88,.cls-89,.cls-90,.cls-91,.cls-92,.cls-93{fill-rule:evenodd;}.cls-80{fill:url(#linear-gradient-32);}.cls-81{fill:url(#linear-gradient-33);}.cls-82{fill:url(#linear-gradient-34);}.cls-83{fill:url(#linear-gradient-35);}.cls-84,.cls-86{fill:#006837;}.cls-85{fill:url(#linear-gradient-36);}.cls-87{fill:#2f804a;}.cls-88{fill:url(#linear-gradient-37);}.cls-89{fill:url(#linear-gradient-38);}.cls-90{fill:url(#linear-gradient-39);}.cls-91{fill:url(#linear-gradient-40);}.cls-92{fill:url(#linear-gradient-41);}.cls-93{fill:url(#linear-gradient-42);}.cls-94{fill:#faa41a;}.cls-95{fill:#f2633b;}.cls-96{fill:#bf1f3f;}.cls-97{fill:url(#linear-gradient-43);}.cls-98{fill:#29abe2;}.cls-99{fill:url(#linear-gradient-44);}.cls-100{fill:#55dbff;}.cls-101{fill:#c7b299;}.cls-102{fill:#998675;}.cls-103{opacity:0.8;}.cls-105{fill:#eac4f9;}.cls-106{fill:#f7f4f9;}.cls-107{fill:url(#linear-gradient-45);}.cls-108{fill:#fbae88;}.cls-109{fill:url(#linear-gradient-46);}.cls-110{fill:#ff2a78;}.cls-111{fill:#c7b2f9;}.cls-112{fill:url(#_40);}.cls-113{fill:url(#_163);}.cls-114{fill:url(#linear-gradient-47);}.cls-115{fill:url(#linear-gradient-48);}.cls-116{fill:url(#_62);}.cls-117{fill:url(#_63);}.cls-118{fill:url(#_60);}.cls-119{fill:url(#linear-gradient-49);}.cls-120{fill:url(#_64);}.cls-121{fill:url(#_64-2);}.cls-122{fill:url(#linear-gradient-50);}.cls-123{fill:url(#linear-gradient-51);}.cls-124{fill:#4d4d4d;}.cls-125{fill:#666;}.cls-126{fill:url(#linear-gradient-52);}.cls-127{fill:url(#linear-gradient-53);}.cls-128{fill:url(#linear-gradient-54);}.cls-129{fill:url(#_63-2);}.cls-130{fill:url(#_63-3);}.cls-131{fill:url(#_60-2);}.cls-132{fill:url(#linear-gradient-55);}.cls-133{fill:url(#linear-gradient-56);}.cls-134{fill:url(#linear-gradient-57);}.cls-135{fill:url(#linear-gradient-58);}.cls-136{fill:url(#_64-3);}.cls-137{fill:url(#_64-4);}.cls-138{fill:url(#linear-gradient-59);}.cls-139{fill:url(#linear-gradient-60);}.cls-140{fill:url(#_64-5);}.cls-141{fill:url(#_58);}.cls-142{fill:url(#linear-gradient-61);}.cls-143{fill:url(#_43);}.cls-144{fill:url(#linear-gradient-62);}.cls-145{fill:url(#_23);}.cls-146{fill:url(#_57);}.cls-147{fill:url(#linear-gradient-63);}.cls-148{fill:url(#_57-2);}.cls-149{fill:url(#linear-gradient-64);}.cls-150{fill:url(#linear-gradient-65);}.cls-151{fill:url(#linear-gradient-66);}.cls-152{fill:url(#linear-gradient-67);}.cls-153{fill:url(#linear-gradient-68);}.cls-154{fill:url(#linear-gradient-69);}.cls-155{fill:url(#linear-gradient-70);}.cls-156{fill:url(#linear-gradient-71);}.cls-157{fill:url(#linear-gradient-72);}.cls-158{fill:url(#linear-gradient-73);}.cls-159{fill:url(#linear-gradient-74);}.cls-160{fill:url(#linear-gradient-75);}.cls-161{fill:url(#linear-gradient-76);}.cls-162{fill:url(#linear-gradient-77);}.cls-163{fill:url(#linear-gradient-78);}.cls-164{fill:url(#linear-gradient-79);}.cls-165{fill:url(#linear-gradient-80);}.cls-166{fill:url(#linear-gradient-81);}.cls-167{fill:url(#linear-gradient-82);}.cls-168{fill:url(#linear-gradient-83);}.cls-169{fill:url(#linear-gradient-84);}.cls-170{fill:url(#linear-gradient-85);}.cls-171{fill:url(#linear-gradient-86);}.cls-172{fill:url(#linear-gradient-87);}.cls-173{fill:url(#linear-gradient-88);}.cls-174{fill:url(#linear-gradient-89);}.cls-175{fill:url(#linear-gradient-90);}.cls-176{fill:url(#linear-gradient-91);}.cls-177{fill:url(#linear-gradient-92);}.cls-178{fill:url(#linear-gradient-93);}.cls-179{fill:url(#linear-gradient-94);}.cls-180{fill:url(#linear-gradient-95);}.cls-181{fill:url(#linear-gradient-96);}.cls-182{fill:url(#_43-2);}.cls-183{fill:url(#linear-gradient-97);}.cls-184{fill:url(#linear-gradient-98);}.cls-185{fill:url(#linear-gradient-99);}.cls-186{fill:url(#_43-3);}.cls-187{fill:url(#linear-gradient-100);}.cls-188{fill:url(#_15);}.cls-189{fill:url(#linear-gradient-101);}.cls-190{fill:url(#linear-gradient-102);}.cls-191{fill:url(#linear-gradient-103);}.cls-192{fill:url(#linear-gradient-104);}.cls-193{fill:url(#linear-gradient-105);}.cls-194{fill:url(#_18);}.cls-195{fill:url(#linear-gradient-106);}</style><linearGradient id="linear-gradient" x1="950.59" y1="218.79" x2="959.36" y2="1094.98" gradientUnits="userSpaceOnUse"><stop offset="0" stop-color="#2b3582"/><stop offset="1" stop-color="#150e42"/></linearGradient><linearGradient id="_55" x1="960.43" y1="336.44" x2="943.97" y2="1041.39" gradientUnits="userSpaceOnUse"><stop offset="0" stop-color="#18459f"/><stop offset="0.99" stop-color="#2874b5"/></linearGradient><linearGradient id="_45" x1="156.69" y1="484.69" x2="782.89" y2="870.25" gradientUnits="userSpaceOnUse"><stop offset="0.29" stop-color="#53d8ff"/><stop offset="1" stop-color="#3840f7"/></linearGradient><linearGradient id="_45-2" x1="230.96" y1="365.09" x2="857.16" y2="750.66" xlink:href="#_45"/><linearGradient id="_45-3" x1="338.85" y1="374.85" x2="843.2" y2="685.39" xlink:href="#_45"/><linearGradient id="_45-4" x1="192.81" y1="425.85" x2="819.67" y2="811.82" xlink:href="#_45"/><linearGradient id="_45-5" x1="297.1" y1="213.13" x2="960.77" y2="621.77" xlink:href="#_45"/><linearGradient id="_45-6" x1="346.91" y1="176.45" x2="973.31" y2="562.14" xlink:href="#_45"/><linearGradient id="_45-7" x1="380.72" y1="121.57" x2="1007.35" y2="507.4" xlink:href="#_45"/><linearGradient id="_45-8" x1="279.82" y1="284.28" x2="906.69" y2="670.25" xlink:href="#_45"/><linearGradient id="_45-9" x1="265.52" y1="307.35" x2="891.72" y2="692.92" xlink:href="#_45"/><linearGradient id="_45-10" x1="243.19" y1="343.74" x2="869.39" y2="729.3" xlink:href="#_45"/><linearGradient id="_45-11" x1="222.4" y1="377.61" x2="848.6" y2="763.18" xlink:href="#_45"/><linearGradient id="_45-12" x1="302.17" y1="193.46" x2="982.28" y2="612.22" xlink:href="#_45"/><linearGradient id="_45-13" x1="337.66" y1="132.99" x2="1018.47" y2="552.17" xlink:href="#_45"/><linearGradient id="_45-14" x1="293.82" y1="261.85" x2="919.9" y2="647.34" xlink:href="#_45"/><linearGradient id="_45-15" x1="396.75" y1="95.46" x2="1023.33" y2="481.26" xlink:href="#_45"/><linearGradient id="_45-16" x1="324.05" y1="213.4" x2="950.63" y2="599.2" gradientTransform="translate(1432.2 909.6) rotate(-180)" xlink:href="#_45"/><linearGradient id="_45-17" x1="289.31" y1="269.53" x2="915.83" y2="655.29" gradientTransform="translate(1180.42 909.6) rotate(-180)" xlink:href="#_45"/><linearGradient id="_45-18" x1="246.78" y1="319.97" x2="903.69" y2="724.45" gradientTransform="translate(931.49 909.6) rotate(-180)" xlink:href="#_45"/><linearGradient id="_45-19" x1="200.07" y1="414" x2="826.27" y2="799.56" xlink:href="#_45"/><linearGradient id="_45-20" x1="14.47" y1="112.24" x2="1182.51" y2="831.43" xlink:href="#_45"/><linearGradient id="_45-21" x1="291.86" y1="170.51" x2="967.39" y2="586.45" xlink:href="#_45"/><linearGradient id="_45-22" x1="237.43" y1="353.25" x2="864.3" y2="739.23" xlink:href="#_45"/><linearGradient id="_45-23" x1="179.76" y1="447.09" x2="805.96" y2="832.65" xlink:href="#_45"/><linearGradient id="_45-24" x1="120.04" y1="265.53" x2="1025.81" y2="823.23" xlink:href="#_45"/><linearGradient id="_45-25" x1="189.77" y1="390.27" x2="870.09" y2="809.16" xlink:href="#_45"/><linearGradient id="_45-26" x1="258.66" y1="217.95" x2="938.21" y2="636.36" xlink:href="#_45"/><linearGradient id="linear-gradient-2" x1="872.06" y1="756.29" x2="878.8" y2="905.73" xlink:href="#linear-gradient"/><linearGradient id="linear-gradient-3" x1="1009.72" y1="1209.27" x2="642.89" y2="407.97" xlink:href="#linear-gradient"/><linearGradient id="_52" x1="948.72" y1="1227.32" x2="754.45" y2="802.95" gradientUnits="userSpaceOnUse"><stop offset="0.67" stop-color="#2b3582"/><stop offset="1" stop-color="#150e42"/></linearGradient><linearGradient id="linear-gradient-4" x1="920.28" y1="1112.69" x2="800.21" y2="850.41" gradientUnits="userSpaceOnUse"><stop offset="0" stop-color="#53d8ff"/><stop offset="1" stop-color="#3840f7"/></linearGradient><linearGradient id="linear-gradient-5" x1="1131.59" y1="766.32" x2="1138.34" y2="915.75" xlink:href="#linear-gradient"/><linearGradient id="linear-gradient-6" x1="1925.23" y1="1211.43" x2="1558.41" y2="410.14" gradientTransform="matrix(1, 0, 0, -1, -655.9, 1840.52)" xlink:href="#linear-gradient"/><linearGradient id="_52-2" x1="1864.24" y1="1229.48" x2="1669.96" y2="805.11" gradientTransform="matrix(1, 0, 0, -1, -659.31, 2150.55)" xlink:href="#_52"/><linearGradient id="linear-gradient-7" x1="1835.8" y1="1114.85" x2="1715.73" y2="852.57" gradientTransform="matrix(-1, 0, 0, 1, 2927.98, 0)" xlink:href="#linear-gradient-4"/><linearGradient id="linear-gradient-8" x1="1124.89" y1="973.59" x2="797.73" y2="258.94" xlink:href="#linear-gradient"/><linearGradient id="linear-gradient-9" x1="1101.74" y1="920.95" x2="840.18" y2="349.6" xlink:href="#linear-gradient-4"/><linearGradient id="linear-gradient-10" x1="1134.68" y1="1061.91" x2="786.99" y2="302.42" xlink:href="#linear-gradient"/><linearGradient id="linear-gradient-11" x1="959.08" y1="12.41" x2="1073.88" y2="95.55" xlink:href="#linear-gradient"/><linearGradient id="linear-gradient-12" x1="895.87" y1="47.22" x2="1027.91" y2="142.85" xlink:href="#linear-gradient"/><linearGradient id="linear-gradient-13" x1="1029.69" y1="47.22" x2="1161.73" y2="142.85" xlink:href="#linear-gradient"/><linearGradient id="linear-gradient-14" x1="993.48" y1="0.65" x2="1222.53" y2="437.36" gradientTransform="translate(-195.6 -112.5) rotate(0.37)" xlink:href="#linear-gradient"/><linearGradient id="linear-gradient-15" x1="1055.04" y1="307.3" x2="1357.75" y2="307.3" gradientTransform="translate(-195.6 -112.5) rotate(0.37)" xlink:href="#linear-gradient"/><linearGradient id="linear-gradient-16" x1="1099.57" y1="167.05" x2="1176.85" y2="599.99" gradientTransform="translate(-195.6 -112.5) rotate(0.37)" xlink:href="#linear-gradient-4"/><linearGradient id="linear-gradient-17" x1="1257.9" y1="138.78" x2="1335.19" y2="571.72" gradientTransform="translate(-195.6 -112.5) rotate(0.37)" xlink:href="#linear-gradient-4"/><linearGradient id="linear-gradient-18" x1="935.07" y1="204.6" x2="992.97" y2="282.46" gradientTransform="matrix(1, -0.06, 0.06, 1, -60.67, 5.53)" xlink:href="#linear-gradient-4"/><linearGradient id="linear-gradient-19" x1="1098" y1="215.6" x2="1155.9" y2="293.46" gradientTransform="matrix(1, -0.06, 0.06, 1, -60.67, 5.53)" xlink:href="#linear-gradient-4"/><linearGradient id="linear-gradient-20" x1="-1551.91" y1="-1649.73" x2="-1545.46" y2="-1694.92" gradientTransform="matrix(-0.53, 0.85, 0.85, 0.53, 1406.52, 2665.74)" xlink:href="#linear-gradient"/><linearGradient id="linear-gradient-21" x1="-1637.77" y1="-1721.3" x2="-1413.92" y2="-1721.3" gradientTransform="matrix(-0.53, 0.85, 0.85, 0.53, 1406.52, 2665.74)" xlink:href="#linear-gradient"/><linearGradient id="linear-gradient-22" x1="1242.6" y1="-236.22" x2="1363.19" y2="-236.22" gradientTransform="matrix(0.93, 0.36, 0.36, -0.93, -370.52, -114.07)" xlink:href="#linear-gradient"/><linearGradient id="linear-gradient-23" x1="1304.94" y1="-183.47" x2="1412.98" y2="-277.91" gradientTransform="matrix(1, 0, 0, -1, -547.58, 366.14)" gradientUnits="userSpaceOnUse"><stop offset="0" stop-color="#cb236d"/><stop offset="1" stop-color="#4c246d"/></linearGradient><linearGradient id="linear-gradient-24" x1="1387.67" y1="-236.66" x2="1414.44" y2="-236.66" gradientTransform="matrix(0.93, 0.36, 0.36, -0.93, -370.52, -114.07)" xlink:href="#linear-gradient"/><linearGradient id="linear-gradient-25" x1="1400.02" y1="-257.63" x2="1355.99" y2="-205.88" gradientTransform="matrix(0.93, 0.36, 0.36, -0.93, -370.52, -114.07)" xlink:href="#linear-gradient-23"/><linearGradient id="linear-gradient-26" x1="1492.44" y1="287.46" x2="1498.9" y2="242.28" gradientTransform="matrix(0.77, 0.64, 0.64, -0.77, -36.05, -366.72)" xlink:href="#linear-gradient"/><linearGradient id="linear-gradient-27" x1="1406.58" y1="215.89" x2="1630.44" y2="215.89" gradientTransform="matrix(0.77, 0.64, 0.64, -0.77, -36.05, -366.72)" xlink:href="#linear-gradient"/><linearGradient id="linear-gradient-28" x1="2553.66" y1="-3598.46" x2="2674.25" y2="-3598.46" gradientTransform="matrix(0.48, -0.88, -0.88, -0.48, -3024.3, 1031.89)" xlink:href="#linear-gradient"/><linearGradient id="linear-gradient-29" x1="2616" y1="-3545.71" x2="2724.04" y2="-3640.15" gradientTransform="matrix(1, 0, 0, -1, -1274.21, -3186.22)" xlink:href="#linear-gradient-23"/><linearGradient id="linear-gradient-30" x1="2698.73" y1="-3598.91" x2="2725.5" y2="-3598.91" gradientTransform="matrix(0.48, -0.88, -0.88, -0.48, -3024.3, 1031.89)" xlink:href="#linear-gradient"/><linearGradient id="linear-gradient-31" x1="2711.08" y1="-3619.88" x2="2667.06" y2="-3568.13" gradientTransform="matrix(0.48, -0.88, -0.88, -0.48, -3024.3, 1031.89)" xlink:href="#linear-gradient-23"/><linearGradient id="linear-gradient-32" x1="2644.19" y1="788.28" x2="2672.07" y2="788.28" gradientTransform="matrix(-1, 0, 0, 1, 4109.33, -0.18)" xlink:href="#linear-gradient"/><linearGradient id="linear-gradient-33" x1="2797.57" y1="550.48" x2="2802.85" y2="421.7" gradientTransform="matrix(-1, 0.07, 0.07, 1, 4207.25, 11.23)" gradientUnits="userSpaceOnUse"><stop offset="0" stop-color="#f9b776"/><stop offset="1" stop-color="#f47960"/></linearGradient><linearGradient id="linear-gradient-34" x1="2613.04" y1="789.99" x2="2640.93" y2="789.99" gradientTransform="matrix(-1, 0, 0, 1, 4109.33, -0.18)" xlink:href="#linear-gradient"/><linearGradient id="linear-gradient-35" x1="2766.63" y1="554.47" x2="2771.91" y2="425.68" xlink:href="#linear-gradient-33"/><linearGradient id="linear-gradient-36" x1="2756.89" y1="416.54" x2="2772.56" y2="437.9" gradientTransform="matrix(-1, 0.07, 0.07, 1, 4207.25, 11.23)" gradientUnits="userSpaceOnUse"><stop offset="0" stop-color="#fdf53f"/><stop offset="1" stop-color="#d93c65"/></linearGradient><linearGradient id="linear-gradient-37" x1="1819.56" y1="1406.06" x2="1811.33" y2="1340.27" gradientTransform="matrix(-0.94, -0.34, -0.34, 0.94, 3601.64, -162.82)" xlink:href="#linear-gradient-33"/><linearGradient id="linear-gradient-38" x1="2652.01" y1="578.14" x2="2668.07" y2="517.92" gradientTransform="matrix(-1, 0, 0, 1, 4111.73, 0)" xlink:href="#linear-gradient-33"/><linearGradient id="linear-gradient-39" x1="1568.42" y1="1531.43" x2="1546.49" y2="1489.54" gradientTransform="matrix(-0.9, -0.43, -0.43, 0.9, 3514.72, -177.11)" xlink:href="#linear-gradient"/><linearGradient id="linear-gradient-40" x1="1798.8" y1="1402.86" x2="1792.28" y2="1350.65" gradientTransform="matrix(-0.94, -0.34, -0.34, 0.94, 3601.64, -162.82)" xlink:href="#linear-gradient-33"/><linearGradient id="linear-gradient-41" x1="1800.98" y1="1380.69" x2="1780.33" y2="1341.24" gradientTransform="matrix(-0.94, -0.34, -0.34, 0.94, 3601.64, -162.82)" xlink:href="#linear-gradient"/><linearGradient id="linear-gradient-42" x1="1779.52" y1="1404.63" x2="1773.1" y2="1353.25" gradientTransform="matrix(-0.94, -0.34, -0.34, 0.94, 3601.64, -162.82)" xlink:href="#linear-gradient-33"/><linearGradient id="linear-gradient-43" x1="-573.88" y1="4085.86" x2="-731.25" y2="4602.79" gradientTransform="translate(-1873.26 3332.54) rotate(-137.9)" xlink:href="#linear-gradient-33"/><linearGradient id="linear-gradient-44" x1="1279.17" y1="1115.08" x2="1639.16" y2="1115.08" gradientUnits="userSpaceOnUse"><stop offset="0" stop-color="#dd278f"/><stop offset="0.58" stop-color="#93278f"/></linearGradient><linearGradient id="linear-gradient-45" x1="4797.68" y1="1640.38" x2="4873.09" y2="1640.38" gradientTransform="translate(3293.32 -3383.57) rotate(106.36)" gradientUnits="userSpaceOnUse"><stop offset="0" stop-color="#a737d5"/><stop offset="1" stop-color="#ef497a"/></linearGradient><linearGradient id="linear-gradient-46" x1="4841.7" y1="934.72" x2="4808.11" y2="1085.01" gradientTransform="matrix(-1, 0, 0, 1, 5401.69, 0)" xlink:href="#linear-gradient-44"/><linearGradient id="_40" x1="570.13" y1="706.26" x2="539.67" y2="792.76" gradientUnits="userSpaceOnUse"><stop offset="0" stop-color="#cb236d"/><stop offset="0.32" stop-color="#4c246d"/></linearGradient><linearGradient id="_163" x1="521.54" y1="698.95" x2="442.96" y2="806.16" gradientTransform="matrix(1, 0, 0, 1, 0, 0)" xlink:href="#linear-gradient-23"/><linearGradient id="linear-gradient-47" x1="-132.23" y1="845.34" x2="-159.88" y2="887.33" gradientTransform="matrix(0.98, -0.18, 0.18, 0.98, 512.8, -132.3)" xlink:href="#linear-gradient-23"/><linearGradient id="linear-gradient-48" x1="540.76" y1="768.26" x2="493.85" y2="830.39" gradientTransform="matrix(1, 0, 0, 1, 0, 0)" xlink:href="#linear-gradient-33"/><linearGradient id="_62" x1="418.93" y1="937.78" x2="498.57" y2="828.36" gradientUnits="userSpaceOnUse"><stop offset="0.78" stop-color="#f9b776"/><stop offset="1" stop-color="#f47960"/></linearGradient><linearGradient id="_63" x1="613.8" y1="763.57" x2="384.21" y2="1052.41" gradientUnits="userSpaceOnUse"><stop offset="0.6" stop-color="#f9b776"/><stop offset="1" stop-color="#f47960"/></linearGradient><linearGradient id="_60" x1="533.32" y1="781.56" x2="453.08" y2="976.43" gradientUnits="userSpaceOnUse"><stop offset="0" stop-color="#a737d5"/><stop offset="0.24" stop-color="#ef497a"/></linearGradient><linearGradient id="linear-gradient-49" x1="468.63" y1="855.73" x2="593.84" y2="851.32" gradientTransform="matrix(1, 0, 0, 1, 0, 0)" xlink:href="#linear-gradient-23"/><linearGradient id="_64" x1="554.03" y1="811.44" x2="493.12" y2="751.14" gradientUnits="userSpaceOnUse"><stop offset="0.45" stop-color="#f9b776"/><stop offset="1" stop-color="#f47960"/></linearGradient><linearGradient id="_64-2" x1="539.02" y1="826.6" x2="478.11" y2="766.3" xlink:href="#_64"/><linearGradient id="linear-gradient-50" x1="-132.44" y1="845.2" x2="-160.09" y2="887.19" gradientTransform="matrix(0.98, -0.18, 0.18, 0.98, 512.8, -132.3)" xlink:href="#linear-gradient-23"/><linearGradient id="linear-gradient-51" x1="596.75" y1="809.89" x2="609.54" y2="809.89" gradientTransform="matrix(1, 0, 0, 1, 0, 0)" xlink:href="#linear-gradient-33"/><linearGradient id="linear-gradient-52" x1="-591.27" y1="1714.08" x2="-548.79" y2="1826.65" gradientTransform="matrix(-0.36, 0.93, 0.93, 0.36, -1223.08, 733.96)" xlink:href="#linear-gradient-33"/><linearGradient id="linear-gradient-53" x1="538.61" y1="1020.55" x2="568.11" y2="1020.55" gradientTransform="matrix(1, 0, 0, 1, 0, 0)" xlink:href="#linear-gradient-23"/><linearGradient id="linear-gradient-54" x1="502.78" y1="1025.61" x2="519.19" y2="1025.61" gradientTransform="matrix(1, 0, 0, 1, 0, 0)" xlink:href="#linear-gradient-23"/><linearGradient id="_63-2" x1="493.6" y1="972.87" x2="517.94" y2="972.87" xlink:href="#_63"/><linearGradient id="_63-3" x1="520.63" y1="974.99" x2="549.23" y2="974.99" xlink:href="#_63"/><linearGradient id="_60-2" x1="568.32" y1="795.98" x2="488.09" y2="990.84" xlink:href="#_60"/><linearGradient id="linear-gradient-55" x1="197.41" y1="1141.98" x2="237.91" y2="1234.13" gradientTransform="matrix(-0.98, -0.21, -0.21, 0.98, 1208.64, -330.97)" xlink:href="#linear-gradient-33"/><linearGradient id="linear-gradient-56" x1="194.06" y1="1151.73" x2="234.08" y2="1242.77" gradientTransform="matrix(-0.98, -0.21, -0.21, 0.98, 1208.64, -330.97)" xlink:href="#linear-gradient-33"/><linearGradient id="linear-gradient-57" x1="-3373.33" y1="724.75" x2="-3362.76" y2="724.75" gradientTransform="translate(4165.88)" xlink:href="#linear-gradient-33"/><linearGradient id="linear-gradient-58" x1="1316.35" y1="-3221.51" x2="1345.82" y2="-3221.51" gradientTransform="matrix(-0.49, 0.87, -0.87, -0.49, -1521.09, -1794.31)" xlink:href="#linear-gradient-23"/><linearGradient id="_64-3" x1="658.43" y1="846.57" x2="656.67" y2="1023.8" xlink:href="#_64"/><linearGradient id="_64-4" x1="93.5" y1="-3724.97" x2="103.58" y2="-3816.95" gradientTransform="translate(-998.26 -2648.82) rotate(152.86)" xlink:href="#_64"/><linearGradient id="linear-gradient-59" x1="100.32" y1="-3723.03" x2="110.95" y2="-3820.07" gradientTransform="translate(-998.26 -2648.82) rotate(152.86)" xlink:href="#linear-gradient-33"/><linearGradient id="linear-gradient-60" x1="686.46" y1="1026.97" x2="715.92" y2="1026.97" gradientTransform="translate(2.4 -0.18) rotate(-0.27)" xlink:href="#linear-gradient-23"/><linearGradient id="_64-5" x1="866.25" y1="834.55" x2="864.49" y2="1011.78" gradientTransform="translate(-95.52 11.23) rotate(3.93)" xlink:href="#_64"/><linearGradient id="_58" x1="820.61" y1="827.43" x2="880.32" y2="827.43" gradientTransform="translate(-95.52 11.23) rotate(3.93)" gradientUnits="userSpaceOnUse"><stop offset="0" stop-color="#2b3582"/><stop offset="0.5" stop-color="#160f44"/><stop offset="1" stop-color="#150e42"/></linearGradient><linearGradient id="linear-gradient-61" x1="819.99" y1="788.9" x2="836.54" y2="811.47" gradientTransform="translate(-95.52 11.23) rotate(3.93)" xlink:href="#linear-gradient"/><linearGradient id="_43" x1="703.33" y1="781.02" x2="683.55" y2="903.79" gradientUnits="userSpaceOnUse"><stop offset="0.52" stop-color="#fdf53f"/><stop offset="1" stop-color="#d93c65"/></linearGradient><linearGradient id="linear-gradient-62" x1="-104.59" y1="964.59" x2="-113.28" y2="895.08" gradientTransform="translate(510.09 -162.82) rotate(-19.91)" xlink:href="#linear-gradient-33"/><linearGradient id="_23" x1="669.58" y1="779.46" x2="742.76" y2="790.93" gradientUnits="userSpaceOnUse"><stop offset="0" stop-color="#f9b776"/><stop offset="0.71" stop-color="#f47960"/></linearGradient><linearGradient id="_57" x1="-298.9" y1="897.01" x2="-321.15" y2="854.5" gradientTransform="matrix(0.9, -0.43, 0.43, 0.9, 597.01, -177.11)" gradientUnits="userSpaceOnUse"><stop offset="0" stop-color="#2b3582"/><stop offset="0.65" stop-color="#150e42"/></linearGradient><linearGradient id="linear-gradient-63" x1="-126.52" y1="961.21" x2="-133.42" y2="906.04" gradientTransform="translate(510.09 -162.82) rotate(-19.91)" xlink:href="#linear-gradient-33"/><linearGradient id="_57-2" x1="-124.77" y1="935.76" x2="-145" y2="897.11" gradientTransform="translate(510.09 -162.82) rotate(-19.91)" xlink:href="#_57"/><linearGradient id="linear-gradient-64" x1="-146.9" y1="963.08" x2="-153.69" y2="908.79" gradientTransform="translate(510.09 -162.82) rotate(-19.91)" xlink:href="#linear-gradient-33"/><linearGradient id="linear-gradient-65" x1="-2135.63" y1="1249.75" x2="-2109.34" y2="1084.4" gradientTransform="matrix(1, 0, 0, -1, 2358.06, 2380.06)" xlink:href="#linear-gradient"/><linearGradient id="linear-gradient-66" x1="-2125.09" y1="1251.43" x2="-2098.8" y2="1086.07" gradientTransform="matrix(-1, 0, 0, 1, -1894.21, 0)" xlink:href="#linear-gradient"/><linearGradient id="linear-gradient-67" x1="-2145.4" y1="1248.2" x2="-2119.11" y2="1082.85" gradientTransform="matrix(-1, 0, 0, 1, -1894.21, 0)" xlink:href="#linear-gradient-4"/><linearGradient id="linear-gradient-68" x1="1107.78" y1="1168.25" x2="1152.81" y2="1168.25" gradientTransform="matrix(-1, -0.02, -0.02, 1, 1427.16, 10.04)" xlink:href="#linear-gradient-33"/><linearGradient id="linear-gradient-69" x1="373.77" y1="1203.47" x2="419.2" y2="1203.47" gradientTransform="matrix(-0.99, -0.14, -0.14, 0.99, 777.28, 23.85)" xlink:href="#linear-gradient-33"/><linearGradient id="linear-gradient-70" x1="-5232.46" y1="-1961.97" x2="-5208.27" y2="-1961.97" gradientTransform="translate(4844.51 -1873.28) rotate(-54.02)" gradientUnits="userSpaceOnUse"><stop offset="0" stop-color="#2c759e"/><stop offset="1" stop-color="#051042"/></linearGradient><linearGradient id="linear-gradient-71" x1="-5197.93" y1="-1916.94" x2="-5173.89" y2="-1916.94" xlink:href="#linear-gradient-70"/><linearGradient id="linear-gradient-72" x1="2641.85" y1="793.59" x2="2738.37" y2="793.59" gradientTransform="matrix(-0.98, 0.21, 0.21, 0.98, 2702.61, -238.9)" xlink:href="#linear-gradient"/><linearGradient id="linear-gradient-73" x1="-2171.59" y1="1017.35" x2="-2279.5" y2="1046.92" gradientTransform="matrix(-1, -0.05, -0.05, 1, -1913.16, -100.99)" xlink:href="#linear-gradient"/><linearGradient id="linear-gradient-74" x1="225.17" y1="1030.81" x2="558.53" y2="1025.25" gradientTransform="matrix(1, 0, 0, 1, 0, 0)" xlink:href="#linear-gradient-33"/><linearGradient id="linear-gradient-75" x1="243.73" y1="1051.94" x2="290.42" y2="1051.94" xlink:href="#linear-gradient"/><linearGradient id="linear-gradient-76" x1="248.66" y1="1038.37" x2="-1.38" y2="788.33" gradientTransform="matrix(1, 0, 0, 1, 0, 0)" xlink:href="#linear-gradient-23"/><linearGradient id="linear-gradient-77" x1="224.07" y1="1029.86" x2="189.83" y2="955.06" gradientTransform="matrix(1, 0, 0, 1, 0, 0)" xlink:href="#linear-gradient-23"/><linearGradient id="linear-gradient-78" x1="143.44" y1="1035.76" x2="550.61" y2="1028.97" gradientTransform="matrix(1, 0, 0, 1, 0, 0)" xlink:href="#linear-gradient-33"/><linearGradient id="linear-gradient-79" x1="-590.05" y1="958.59" x2="-600.93" y2="871.56" gradientTransform="translate(510.09 -162.82) rotate(-19.91)" xlink:href="#linear-gradient-33"/><linearGradient id="linear-gradient-80" x1="218.77" y1="990.35" x2="240.01" y2="910.69" gradientTransform="matrix(1, 0, 0, 1, 0, 0)" xlink:href="#linear-gradient-33"/><linearGradient id="linear-gradient-81" x1="-393.57" y1="383.17" x2="-609.69" y2="615.37" gradientTransform="matrix(0.9, -0.43, 0.43, 0.9, 597.01, -177.11)" xlink:href="#linear-gradient-23"/><linearGradient id="linear-gradient-82" x1="-617.5" y1="954.36" x2="-626.14" y2="885.29" gradientTransform="translate(510.09 -162.82) rotate(-19.91)" xlink:href="#linear-gradient-33"/><linearGradient id="linear-gradient-83" x1="-230.74" y1="489.88" x2="-446.86" y2="722.08" gradientTransform="translate(510.09 -162.82) rotate(-19.91)" xlink:href="#linear-gradient-23"/><linearGradient id="linear-gradient-84" x1="-643.02" y1="956.7" x2="-651.51" y2="888.73" gradientTransform="translate(510.09 -162.82) rotate(-19.91)" xlink:href="#linear-gradient-33"/><linearGradient id="linear-gradient-85" x1="-2356.43" y1="1169.74" x2="-2260.45" y2="1169.74" gradientTransform="matrix(-1, 0, 0, 1, -1894.21, 0)" xlink:href="#linear-gradient"/><linearGradient id="linear-gradient-86" x1="-2345.35" y1="1169.74" x2="-2249.37" y2="1169.74" gradientTransform="matrix(-1, 0, 0, 1, -1894.21, 0)" xlink:href="#linear-gradient"/><linearGradient id="linear-gradient-87" x1="-2097.7" y1="1169.74" x2="-2001.72" y2="1169.74" gradientTransform="matrix(-1, 0, 0, 1, -1894.21, 0)" xlink:href="#linear-gradient"/><linearGradient id="linear-gradient-88" x1="-2086.62" y1="1169.74" x2="-1990.64" y2="1169.74" gradientTransform="matrix(-1, 0, 0, 1, -1894.21, 0)" xlink:href="#linear-gradient"/><linearGradient id="linear-gradient-89" x1="216.5" y1="909.02" x2="559.83" y2="1818.84" gradientUnits="userSpaceOnUse"><stop offset="0" stop-color="#18459f"/><stop offset="1" stop-color="#2874b5"/></linearGradient><linearGradient id="linear-gradient-90" x1="-2240.79" y1="952.71" x2="-2317.36" y2="1033.63" gradientTransform="matrix(-1, 0, 0, 1, -1894.21, 0)" xlink:href="#linear-gradient"/><linearGradient id="linear-gradient-91" x1="6921.97" y1="1230.27" x2="6732.06" y2="1436.84" gradientTransform="matrix(-1, 0, 0, 1, 8580.64, 0)" xlink:href="#linear-gradient"/><linearGradient id="linear-gradient-92" x1="6860.33" y1="1245.61" x2="6877.2" y2="1245.61" gradientTransform="matrix(-1, 0, 0, 1, 8580.64, 0)" xlink:href="#linear-gradient-33"/><linearGradient id="linear-gradient-93" x1="2231.99" y1="645.63" x2="2241.13" y2="1232.23" gradientTransform="matrix(-1, 0, 0, 1, 3971.86, 0)" xlink:href="#linear-gradient-23"/><linearGradient id="linear-gradient-94" x1="6879.37" y1="1191.1" x2="6689.45" y2="1397.67" gradientTransform="matrix(-1, 0, 0, 1, 8580.64, 0)" xlink:href="#linear-gradient"/><linearGradient id="linear-gradient-95" x1="6799.53" y1="1244.75" x2="6814.1" y2="1244.75" gradientTransform="matrix(-1, 0, 0, 1, 8580.64, 0)" xlink:href="#linear-gradient-33"/><linearGradient id="linear-gradient-96" x1="2208.62" y1="646" x2="2217.75" y2="1232.59" gradientTransform="matrix(-1, 0, 0, 1, 3971.86, 0)" xlink:href="#linear-gradient-23"/><linearGradient id="_43-2" x1="1668.93" y1="768.1" x2="1831.76" y2="1068.89" xlink:href="#_43"/><linearGradient id="linear-gradient-97" x1="-3827.57" y1="705.11" x2="-3797.8" y2="790.15" gradientTransform="translate(5405.57)" xlink:href="#linear-gradient-33"/><linearGradient id="linear-gradient-98" x1="-3853" y1="714.02" x2="-3823.24" y2="799.05" gradientTransform="translate(5405.57)" xlink:href="#linear-gradient-33"/><linearGradient id="linear-gradient-99" x1="-3830.14" y1="768.35" x2="-3852.56" y2="723.12" gradientTransform="translate(5405.57)" xlink:href="#linear-gradient-33"/><linearGradient id="_43-3" x1="1725.33" y1="737.57" x2="1888.16" y2="1038.36" xlink:href="#_43"/><linearGradient id="linear-gradient-100" x1="6741.16" y1="927.59" x2="6850.22" y2="927.59" gradientTransform="matrix(-1, 0, 0, 1, 8580.64, 0)" xlink:href="#linear-gradient-33"/><linearGradient id="_15" x1="6883.22" y1="850.06" x2="6943.19" y2="1099.93" gradientTransform="matrix(-1, 0, 0, 1, 8580.64, 0)" gradientUnits="userSpaceOnUse"><stop offset="0.16" stop-color="#53d8ff"/><stop offset="1" stop-color="#3840f7"/></linearGradient><linearGradient id="linear-gradient-101" x1="6920.77" y1="810.67" x2="6907.99" y2="866.75" gradientTransform="matrix(-1, 0, 0, 1, 8580.64, 0)" xlink:href="#linear-gradient-4"/><linearGradient id="linear-gradient-102" x1="6914.08" y1="834.19" x2="6907.97" y2="870.84" gradientTransform="matrix(-1, 0, 0, 1, 8580.64, 0)" xlink:href="#linear-gradient-4"/><linearGradient id="linear-gradient-103" x1="6842.13" y1="916.16" x2="6876.1" y2="916.16" gradientTransform="matrix(-1, 0, 0, 1, 8580.64, 0)" xlink:href="#linear-gradient-33"/><linearGradient id="linear-gradient-104" x1="6824.91" y1="811" x2="6868.03" y2="811" gradientTransform="matrix(-1, 0, 0, 1, 8580.64, 0)" xlink:href="#linear-gradient-33"/><linearGradient id="linear-gradient-105" x1="-807.25" y1="2633.75" x2="-823.36" y2="2580.6" gradientTransform="matrix(-0.75, -0.67, -0.67, 0.75, 2853.96, -1718.75)" xlink:href="#linear-gradient-33"/><linearGradient id="_18" x1="1637.31" y1="612.38" x2="1756.09" y2="782.33" gradientUnits="userSpaceOnUse"><stop offset="0" stop-color="#2b3582"/><stop offset="0.74" stop-color="#150e42"/></linearGradient><linearGradient id="linear-gradient-106" x1="-823.72" y1="2633.5" x2="-838.22" y2="2585.69" gradientTransform="matrix(-0.75, -0.67, -0.67, 0.75, 2853.96, -1718.75)" xlink:href="#linear-gradient-33"/></defs><g id="Layer_2" data-name="Layer 2"><g id="Illustration"><g class="cls-1"><path class="cls-2" d="M1802,193.94c33.43,75,210.17,519.22-176.92,760,0,0-191.64-262.52,164.93-761.19A7,7,0,0,1,1802,193.94Z"/><path class="cls-3" d="M1784.23,274.36c1,13.81,1.62,27.6,2.11,41.42s.75,27.62.85,41.44q.33,41.46-1.37,82.89a1468.58,1468.58,0,0,1-15.73,165.06c-8.57,54.63-20.68,108.85-38.6,161.33-4.44,13.13-9.37,26.09-14.64,38.91-1.35,3.2-2.62,6.42-4,9.59l-4.2,9.52c-2.93,6.28-5.82,12.6-9,18.78A448.59,448.59,0,0,1,1656,914.22a3.19,3.19,0,0,1-5.09-3.84v0l0,0a443.26,443.26,0,0,0,43.43-69.71c3.16-6.09,6.05-12.32,9-18.53l4.21-9.4c1.42-3.12,2.7-6.32,4-9.47,5.29-12.68,10.26-25.51,14.74-38.51,18.07-52,30.43-105.89,39.28-160.27S1779.6,495,1782.2,440q1.93-41.32,1.83-82.71,0-20.69-.62-41.37c-.41-13.78-1-27.58-1.88-41.31h0a1.35,1.35,0,0,1,2.7-.19Z"/></g><g class="cls-4"><path class="cls-5" d="M1958.21,565.06c-2.44,53.05-29.27,361.2-323,388,0,0-34.57-207.42,316.38-392.17A4.5,4.5,0,0,1,1958.21,565.06Z"/><path class="cls-3" d="M1925,606.58c-6.91,16.13-14.43,31.93-22.2,47.62s-16,31.18-24.41,46.51-17.3,30.46-26.47,45.39-18.64,29.67-28.64,44.07c-19.89,28.86-41.42,56.67-65.24,82.5l-2.22,2.44-2.28,2.37-4.58,4.75-4.57,4.74c-1.53,1.58-3.14,3.07-4.71,4.61-3.17,3-6.28,6.16-9.51,9.15l-9.8,8.83a399.73,399.73,0,0,1-42,32.11,3.19,3.19,0,1,1-3.51-5.33l0,0,0,0a392.74,392.74,0,0,0,41.55-31.2l9.76-8.64c3.21-2.92,6.31-6,9.47-9,1.56-1.51,3.17-3,4.7-4.52l4.57-4.65,4.57-4.66,2.28-2.33,2.21-2.4c23.83-25.38,45.47-52.82,65.52-81.36,10.07-14.24,19.61-28.86,28.9-43.63s18.2-29.79,26.77-45,16.83-30.6,24.74-46.17,15.54-31.3,22.54-47.25v0a1.35,1.35,0,0,1,2.48,1.07Z"/></g><path class="cls-5" d="M174.35,216.32c2.5-4.25,9.74-2,9.74,3.06C184.16,268.1,188.6,396.2,230.7,478c68.54,133.12,85.2,316.46-3.48,377.67C227.22,855.62-98.49,678.83,174.35,216.32Z"/><path class="cls-6" d="M166.3,283c-.19,1.14-.33,2.58-.49,3.9l-.4,4-.71,8.12q-.66,8.11-1.23,16.24c-.74,10.84-1.29,21.69-1.78,32.54q-1.42,32.55-1.57,65.13c0,21.72.26,43.44,1.07,65.13s2.07,43.38,3.91,65,4.18,43.2,7.13,64.7,6.73,42.87,11.08,64.12,9.61,42.31,15.78,63.11c1.58,5.18,3.24,10.35,4.86,15.52l1.22,3.88c.4,1.3.81,2.59,1.28,3.87l2.72,7.66c3.47,10.29,7.66,20.3,11.62,30.41v0a.8.8,0,0,1-1.48.61l-6.51-15-1.61-3.75c-.54-1.25-1-2.54-1.49-3.81l-2.93-7.63-2.92-7.63c-.51-1.27-1-2.56-1.38-3.85l-1.33-3.87c-1.74-5.16-3.58-10.29-5.24-15.48-6.51-20.81-12-41.93-16.81-63.19-2.24-10.67-4.47-21.34-6.29-32.09-1-5.36-1.95-10.72-2.74-16.11l-2.5-16.16c-3-21.58-5.53-43.24-7.3-65s-2.92-43.47-3.65-65.24c-.14-5.44-.35-10.88-.45-16.33l-.26-16.33V429.26c0-5.45.12-10.89.18-16.33.37-21.78,1.13-43.54,2.48-65.27.72-10.86,1.51-21.72,2.48-32.56.49-5.42,1-10.84,1.59-16.25l.94-8.12.52-4.05c.21-1.37.34-2.65.67-4.18a.79.79,0,0,1,.94-.61.81.81,0,0,1,.62.9Z"/><path class="cls-2" d="M203.83,1035.75s38.82-77.07-1.94-203.32C164.08,715.29,65.62,437.69,71.38,320.31c.26-5.2-6.8-7.87-9.21-3.47C36.35,364-18.39,488.28,6.2,659.43,37.9,880.13,203.83,1035.75,203.83,1035.75Z"/><path class="cls-7" d="M55.84,423.22c-1,3-1.81,6.08-2.54,9.16-.38,1.53-.7,3.09-1,4.63l-1,4.65q-1.81,9.33-2.94,18.76a357.18,357.18,0,0,0-2.49,37.84c-.22,12.64.2,25.28,1.08,37.89s2.2,25.17,4.07,37.67A600.79,600.79,0,0,0,66.8,647.91L69.35,657l2.76,9.07c1.78,6.06,3.84,12,5.81,18q6.06,18,12.44,35.92,12.74,35.84,26.3,71.36,6.77,17.77,13.73,35.48l13.88,35.43q7,17.71,13.81,35.49c4.53,11.86,9,23.74,13.18,35.76s8.09,24.13,11.37,36.44c1.63,6.15,3.11,12.36,4.31,18.62s2.06,12.58,2.6,18.94a.73.73,0,0,1-1.46.15h0c-.74-6.27-1.85-12.49-3.19-18.66s-3-12.28-4.74-18.35c-3.55-12.13-7.76-24.08-12.18-35.94-8.85-23.73-18.59-47.15-28.11-70.67C120.63,817.13,102,769.84,85.05,722c-4.22-12-8.47-23.94-12.44-36-2-6.06-4-12.09-5.76-18.22l-2.74-9.15-2.52-9.22c-1.74-6.12-3.18-12.34-4.73-18.51-.75-3.1-1.39-6.22-2.09-9.33s-1.39-6.22-2-9.35L51,602.76l-1.63-9.42-.8-4.71-.69-4.73c-.45-3.15-1-6.29-1.34-9.46A451.29,451.29,0,0,1,43,498.17l.22-4.77c.07-1.59.22-3.18.32-4.76l.36-4.76.45-4.76c.26-3.17.7-6.33,1.05-9.49s.82-6.31,1.35-9.45c2-12.55,4.62-25.06,9-37a.09.09,0,0,1,.12-.05S55.85,423.18,55.84,423.22Z"/><rect class="cls-8" x="180.23" y="226.09" width="1549.5" height="861.6" rx="41.86"/><rect class="cls-9" x="220.72" y="279.95" width="1464.17" height="765.82" rx="41.86"/><g class="cls-10"><rect class="cls-11" x="307.71" y="595.59" width="80.09" height="13.48" rx="5.9"/><rect class="cls-12" x="576.22" y="595.59" width="80.09" height="13.48" rx="5.9"/><rect class="cls-13" x="670.85" y="595.59" width="74.9" height="13.48" rx="5.9"/><rect class="cls-14" x="405.27" y="595.59" width="148.33" height="13.48" rx="5.9"/><rect class="cls-15" x="571.25" y="401.38" width="85.07" height="13.48" rx="5.9"/><rect class="cls-16" x="676.28" y="401.38" width="93.77" height="13.48" rx="5.9"/><rect class="cls-17" x="788.81" y="401.38" width="114.61" height="13.48" rx="5.9"/><rect class="cls-18" x="406.79" y="401.38" width="148.33" height="13.48" rx="5.9"/><rect class="cls-19" x="307.71" y="351.24" width="80.09" height="13.48" rx="5.9"/><rect class="cls-20" x="307.71" y="401.38" width="80.09" height="13.48" rx="5.9"/><rect class="cls-21" x="307.71" y="448.06" width="80.09" height="13.48" rx="5.9"/><rect class="cls-22" x="509.96" y="351.24" width="118.83" height="13.48" rx="5.9"/><rect class="cls-23" x="649.84" y="351.24" width="106.48" height="13.48" rx="5.9"/><rect class="cls-24" x="412.87" y="351.24" width="74.17" height="13.48" rx="5.9"/><rect class="cls-25" x="768.15" y="351.24" width="109.94" height="13.48" rx="5.9"/><rect class="cls-26" x="661.49" y="448.06" width="109.23" height="13.48" rx="5.9" transform="translate(1432.2 909.6) rotate(180)"/><rect class="cls-27" x="538.9" y="448.06" width="102.62" height="13.48" rx="5.9" transform="translate(1180.42 909.6) rotate(180)"/><rect class="cls-28" x="408.04" y="448.06" width="115.42" height="13.48" rx="5.9" transform="translate(931.49 909.6) rotate(180)"/><rect class="cls-29" x="307.71" y="498.19" width="80.09" height="13.48" rx="5.9"/><rect class="cls-30" x="576.22" y="498.19" width="152.06" height="13.48" rx="5.9"/><rect class="cls-31" x="773.11" y="498.19" width="123.79" height="13.48" rx="5.9"/><rect class="cls-32" x="409.62" y="498.19" width="148.33" height="13.48" rx="5.9"/><rect class="cls-33" x="307.71" y="543.78" width="80.09" height="13.48" rx="5.9"/><rect class="cls-34" x="503.28" y="543.78" width="159.27" height="13.48" rx="5.9"/><rect class="cls-35" x="409.62" y="543.78" width="80.86" height="13.48" rx="5.9"/><rect class="cls-36" x="739.06" y="543.78" width="119.5" height="13.48" rx="5.9"/></g><rect class="cls-37" x="853.58" y="777.33" width="42.44" height="79.43" rx="11.39"/><rect class="cls-38" x="858.78" y="1039.81" width="33.19" height="127.99" rx="11.39"/><rect class="cls-38" x="849.71" y="784.02" width="20.3" height="109.28" rx="6.06"/><rect class="cls-38" x="881.82" y="785.41" width="20.3" height="109.28" rx="6.06"/><path class="cls-39" d="M955.3,1206.57c.12-1.64.19-3.3.19-5h0a66.46,66.46,0,0,0-66.26-66.26H863.61a66.46,66.46,0,0,0-66.25,66.26h0c0,1.66.07,3.32.19,5Z"/><path class="cls-40" d="M942.39,1205.56c.11-1.37.16-2.74.16-4.13h0a55.4,55.4,0,0,0-55.24-55.24H866a55.4,55.4,0,0,0-55.24,55.24h0c0,1.39,0,2.76.16,4.13Z"/><rect class="cls-41" x="837.38" y="824.57" width="81.49" height="187.05" rx="11.39"/><rect class="cls-42" x="840.55" y="835.76" width="71.74" height="164.67" rx="11.39"/><rect class="cls-41" x="837.38" y="1026.68" width="78.08" height="92.87" rx="11.39"/><rect class="cls-43" x="845.21" y="1033.96" width="65.84" height="78.31" rx="11.39"/><circle class="cls-44" cx="876.65" cy="1017.38" r="28.17"/><circle class="cls-45" cx="877.5" cy="1017.38" r="21.47" transform="translate(-314.27 1637.66) rotate(-76.72)"/><rect class="cls-46" x="1113.11" y="787.35" width="42.44" height="79.43" rx="11.39"/><rect class="cls-38" x="1120.49" y="1041.98" width="33.19" height="127.99" rx="11.39" transform="translate(2274.18 2211.94) rotate(180)"/><rect class="cls-38" x="1142.45" y="786.18" width="20.3" height="109.28" rx="6.06" transform="translate(2305.21 1681.64) rotate(180)"/><rect class="cls-38" x="1110.34" y="787.57" width="20.3" height="109.28" rx="6.06" transform="translate(2240.99 1684.41) rotate(180)"/><path class="cls-39" d="M1057.16,1208.73c-.12-1.64-.18-3.29-.18-5h0a66.44,66.44,0,0,1,66.25-66.25h25.62a66.44,66.44,0,0,1,66.25,66.25h0c0,1.67-.06,3.32-.19,5Z"/><path class="cls-40" d="M1070.07,1207.72c-.11-1.36-.16-2.74-.16-4.13h0a55.4,55.4,0,0,1,55.24-55.24h21.36a55.4,55.4,0,0,1,55.24,55.24h0c0,1.39,0,2.77-.15,4.13Z"/><rect class="cls-41" x="1093.59" y="826.74" width="81.49" height="187.05" rx="11.39" transform="translate(2268.67 1840.52) rotate(180)"/><rect class="cls-47" x="1100.17" y="837.92" width="71.74" height="164.67" rx="11.39" transform="translate(2272.08 1840.52) rotate(180)"/><rect class="cls-41" x="1097" y="1028.84" width="78.08" height="92.87" rx="11.39" transform="translate(2272.08 2150.55) rotate(180)"/><rect class="cls-48" x="1101.41" y="1036.12" width="65.84" height="78.31" rx="11.39" transform="translate(2268.67 2150.55) rotate(180)"/><circle class="cls-49" cx="1135.81" cy="1019.54" r="28.17"/><circle class="cls-45" cx="1134.96" cy="1019.54" r="21.47" transform="translate(-388.5 1101.16) rotate(-45)"/><rect class="cls-50" x="964.04" y="644.6" width="83.94" height="138.61" rx="11.39"/><rect class="cls-51" x="990.1" y="649.34" width="33.19" height="127.99" rx="11.39"/><rect class="cls-52" x="837.38" y="768.73" width="341.91" height="34.39" rx="16.01"/><path class="cls-40" d="M886.84,732v40.26c0,26.7,17.77,48.54,39.5,48.54h161.91c21.73,0,39.5-21.84,39.5-48.54V732Z"/><path class="cls-53" d="M952.82,78.3V53.52A42.58,42.58,0,0,1,995.36,11h37.49a42.59,42.59,0,0,1,42.55,42.54V78.3h11V53.52A53.58,53.58,0,0,0,1032.85,0H995.36a53.58,53.58,0,0,0-53.52,53.52V78.3Z"/><ellipse class="cls-54" cx="945.69" cy="83.3" rx="30.7" ry="27.06"/><ellipse class="cls-55" cx="1079.51" cy="83.3" rx="30.7" ry="27.06"/><path class="cls-56" d="M1148.79,333.11l-273.12-1.77a22.17,22.17,0,0,1-22-22.25h0a22.17,22.17,0,0,1,22.25-22l273.12,1.77a22.17,22.17,0,0,1,22,22.25h0A22.17,22.17,0,0,1,1148.79,333.11Z"/><path class="cls-39" d="M1123.27,89.28l-216-1.4c-51.38-.33-93.69,41.44-94,92.82l-.55,85.54a35.31,35.31,0,0,0,35,35.44l332.39,2.16a35.33,35.33,0,0,0,35.44-35l.55-85.54C1216.42,131.93,1174.65,89.62,1123.27,89.28Z"/><path class="cls-40" d="M1112.35,102.15,917,100.88a84.74,84.74,0,0,0-85,83.94l-.5,77.37a31.93,31.93,0,0,0,31.64,32.05l300.61,1.95a31.94,31.94,0,0,0,32.06-31.64l.5-77.36A84.75,84.75,0,0,0,1112.35,102.15Z"/><path class="cls-39" d="M1165.66,315.53l-303.69-2a49.72,49.72,0,0,0-49.88,49.24l-.25,39.85c-.72,110.77,88.67,302.2,199.44,302.92h0c110.78.72,202.65-189.54,203.36-300.31l.26-39.85A49.71,49.71,0,0,0,1165.66,315.53Z"/><path class="cls-40" d="M1155.7,329l-277.41-1.8a45.4,45.4,0,0,0-45.56,45l-.24,36.39c-.66,101.19,81,276,182.19,276.71h0c101.18.66,185.1-173.13,185.76-274.32l.23-36.4A45.4,45.4,0,0,0,1155.7,329Z"/><path class="cls-57" d="M1160.1,212.06a29,29,0,0,1-26.41,28.72,1350.42,1350.42,0,0,1-250.13-1.7A29,29,0,0,1,857.39,210l.1-15.71a29,29,0,0,1,26.3-28.71c83.65-7.77,167.29-8.68,250.91,1.22a29,29,0,0,1,25.51,29Z"/><path class="cls-58" d="M945.49,202.8a18.39,18.39,0,1,1-18.27-18.5A18.38,18.38,0,0,1,945.49,202.8Z"/><path class="cls-59" d="M1108.87,203.86a18.39,18.39,0,1,1-18.26-18.5A18.38,18.38,0,0,1,1108.87,203.86Z"/><path class="cls-60" d="M927.49,228.26a1.08,1.08,0,0,1,1-1.15h0a1.09,1.09,0,0,1,1.16,1h0a1.08,1.08,0,0,1-1,1.13h-.06A1.07,1.07,0,0,1,927.49,228.26Zm-5.52.57a1.11,1.11,0,0,1-.86-1.28h0a1.08,1.08,0,0,1,1.28-.85h0a1.1,1.1,0,0,1,.86,1.28h0a1.1,1.1,0,0,1-1.07.88h0Zm11.86-1.47a1.06,1.06,0,0,1,.71-1.35h0a1.05,1.05,0,0,1,1.35.69h0a1.09,1.09,0,0,1-.69,1.38h0a1.38,1.38,0,0,1-.34,0h0A1.06,1.06,0,0,1,933.83,227.36Zm-18.2-.63a1.08,1.08,0,0,1-.5-1.44h0a1.06,1.06,0,0,1,1.44-.52h0a1.07,1.07,0,0,1,.5,1.44h0a1,1,0,0,1-1,.62h0A1,1,0,0,1,915.63,226.73Zm24.13-1.81a1.09,1.09,0,0,1,.34-1.51h0a1.11,1.11,0,0,1,1.49.34h0a1.12,1.12,0,0,1-.34,1.52h0a1.15,1.15,0,0,1-.59.15h0A1,1,0,0,1,939.76,224.92ZM910,223.12a1.1,1.1,0,0,1-.13-1.54h0a1.1,1.1,0,0,1,1.53-.12h0a1.1,1.1,0,0,1,.13,1.53h0a1.13,1.13,0,0,1-.85.39h0A1,1,0,0,1,910,223.12Zm34.85-2a1.11,1.11,0,0,1,0-1.55h0a1.09,1.09,0,0,1,1.53,0h0a1.09,1.09,0,0,1,0,1.54h0a1,1,0,0,1-.78.32h0A1.16,1.16,0,0,1,944.87,221.08Zm-39.4-2.84a1.1,1.1,0,0,1,.25-1.52h0a1.09,1.09,0,0,1,1.53.25h0a1.07,1.07,0,0,1-.27,1.51h0a1,1,0,0,1-.63.21h0A1.11,1.11,0,0,1,905.47,218.24Zm43.42-2.16a1.09,1.09,0,0,1-.42-1.48h0a1.1,1.1,0,0,1,1.48-.42h0a1.09,1.09,0,0,1,.42,1.48h0a1.07,1.07,0,0,1-1,.56h0A1,1,0,0,1,948.89,216.08Zm-46.6-3.7h0a1.09,1.09,0,0,1,.62-1.41h0a1.1,1.1,0,0,1,1.41.62h0a1.11,1.11,0,0,1-.62,1.41h0a2,2,0,0,1-.42.07h0A1.08,1.08,0,0,1,902.29,212.38Zm49.25-2.14a1.05,1.05,0,0,1-.77-1.32h0a1.11,1.11,0,0,1,1.32-.78h0a1.08,1.08,0,0,1,.78,1.32h0v0h0a1.1,1.1,0,0,1-1.07.8h0A1.17,1.17,0,0,1,951.54,210.24Zm-50.88-4.34a1.09,1.09,0,0,1,1-1.21h0a1.1,1.1,0,0,1,1.21.95h0a1.09,1.09,0,0,1-1,1.21h-.14A1.09,1.09,0,0,1,900.66,205.9Zm50.91-3.05v0h0v-.07h0a1.09,1.09,0,0,1,1.09-1.08h0a1.08,1.08,0,0,1,1.07,1.09h0v.06h0v.06h0a1.07,1.07,0,0,1-1.08,1.07h0A1.1,1.1,0,0,1,951.57,202.85Zm0-.11Zm-49.93-2.29a1.11,1.11,0,0,1-1-1.21h0a1.08,1.08,0,0,1,1.23-.93h0a1.06,1.06,0,0,1,.93,1.2h0a1.08,1.08,0,0,1-1.08,1h0Zm49.19-3.79a1.06,1.06,0,0,1,.77-1.31h0a1.08,1.08,0,0,1,1.33.77h0a1.1,1.1,0,0,1-.79,1.33h0a1.32,1.32,0,0,1-.28,0h0A1.06,1.06,0,0,1,950.83,196.66ZM903,194.19a1.11,1.11,0,0,1-.6-1.42h0a1.1,1.1,0,0,1,1.42-.6h0a1.1,1.1,0,0,1,.6,1.42h0a1.13,1.13,0,0,1-1,.68h0A1.57,1.57,0,0,1,903,194.19ZM948.58,191h0a1.09,1.09,0,0,1,.43-1.48h0a1.07,1.07,0,0,1,1.47.43h0a1.07,1.07,0,0,1-.43,1.47h0a1.12,1.12,0,0,1-.53.13h0A1.09,1.09,0,0,1,948.58,191Zm-42.72-2.5a1.11,1.11,0,0,1-.24-1.54h0a1.08,1.08,0,0,1,1.51-.22h0a1.08,1.08,0,0,1,.25,1.51h0a1.13,1.13,0,0,1-.89.45h0A1,1,0,0,1,905.86,188.47ZM945,186h0a1.09,1.09,0,0,1,0-1.53h0a1.1,1.1,0,0,1,1.55,0h0a1.08,1.08,0,0,1-.05,1.53h0a1.14,1.14,0,0,1-.75.29h0A1.06,1.06,0,0,1,945,186Zm-34.92-2.37a1.1,1.1,0,0,1,.15-1.53h0a1.1,1.1,0,0,1,1.53.15h0a1.11,1.11,0,0,1-.15,1.53h0a1.12,1.12,0,0,1-.71.25h0A1.08,1.08,0,0,1,910.06,183.62Zm30.21-1.55h0a1.08,1.08,0,0,1-.32-1.5h0a1.08,1.08,0,0,1,1.49-.34h0a1.12,1.12,0,0,1,.35,1.51h0a1.14,1.14,0,0,1-.93.49h0A1.1,1.1,0,0,1,940.27,182.07ZM915.33,180a1.1,1.1,0,0,1,.52-1.45h0a1.09,1.09,0,0,1,1.45.54h0a1.08,1.08,0,0,1-.54,1.43h0a.92.92,0,0,1-.45.12h0A1.09,1.09,0,0,1,915.33,180Zm19.42-.54h0a1.11,1.11,0,0,1-.7-1.38h0a1.07,1.07,0,0,1,1.38-.68h0a1.05,1.05,0,0,1,.7,1.36h0a1.08,1.08,0,0,1-1,.76h0A.84.84,0,0,1,934.75,179.44Zm-13.41-1.68a1.05,1.05,0,0,1,.87-1.25h0a1.07,1.07,0,0,1,1.27.85h0a1.1,1.1,0,0,1-.87,1.27h0a.82.82,0,0,1-.22,0h0A1.08,1.08,0,0,1,921.34,177.76Zm7.38.52h0a1.09,1.09,0,0,1-1-1.17h0a1.1,1.1,0,0,1,1.16-1h0a1.12,1.12,0,0,1,1,1.17h0a1.11,1.11,0,0,1-1.09,1h-.08Z"/><path class="cls-61" d="M1090.78,229.32a1.08,1.08,0,0,1,1-1.15h0a1.09,1.09,0,0,1,1.16,1h0a1.08,1.08,0,0,1-1,1.13h-.06A1.07,1.07,0,0,1,1090.78,229.32Zm-5.52.57a1.11,1.11,0,0,1-.86-1.28h0a1.1,1.1,0,0,1,1.29-.86h0a1.11,1.11,0,0,1,.85,1.29h0a1.07,1.07,0,0,1-1.06.87h0Zm11.86-1.47a1.06,1.06,0,0,1,.71-1.35h0a1.06,1.06,0,0,1,1.36.69h0a1.09,1.09,0,0,1-.7,1.37h0a1,1,0,0,1-.34,0h0A1.06,1.06,0,0,1,1097.12,228.42Zm-18.19-.63a1.08,1.08,0,0,1-.51-1.44h0a1.06,1.06,0,0,1,1.44-.52h0a1.07,1.07,0,0,1,.5,1.44h0a1,1,0,0,1-1,.62h0A1,1,0,0,1,1078.93,227.79Zm24.12-1.81a1.09,1.09,0,0,1,.34-1.51h0a1.11,1.11,0,0,1,1.49.34h0a1.11,1.11,0,0,1-.34,1.51h0a1.05,1.05,0,0,1-.59.16h0A1.06,1.06,0,0,1,1103.05,226Zm-29.74-1.8a1.1,1.1,0,0,1-.13-1.54h0a1.12,1.12,0,0,1,1.54-.13h0a1.11,1.11,0,0,1,.12,1.54h0a1.11,1.11,0,0,1-.84.39h0A1.11,1.11,0,0,1,1073.31,224.18Zm34.85-2a1.11,1.11,0,0,1,0-1.55h0a1.1,1.1,0,0,1,1.54,0h0a1.09,1.09,0,0,1,0,1.53h0a1,1,0,0,1-.79.33h0A1.16,1.16,0,0,1,1108.16,222.14Zm-39.4-2.85a1.09,1.09,0,0,1,.25-1.51h0a1.09,1.09,0,0,1,1.53.25h0a1.07,1.07,0,0,1-.27,1.51h0a1,1,0,0,1-.63.21h0A1.1,1.1,0,0,1,1068.76,219.29Zm43.42-2.15a1.1,1.1,0,0,1-.42-1.48h0a1.1,1.1,0,0,1,1.48-.42h0a1.08,1.08,0,0,1,.42,1.48h0a1.07,1.07,0,0,1-1,.56h0A1,1,0,0,1,1112.18,217.14Zm-46.6-3.7h0a1.1,1.1,0,0,1,.62-1.41h0a1.1,1.1,0,0,1,1.41.61h0a1.1,1.1,0,0,1-.62,1.41h0a1.56,1.56,0,0,1-.41.08h0A1.08,1.08,0,0,1,1065.58,213.44Zm49.26-2.14a1.06,1.06,0,0,1-.78-1.32h0a1.11,1.11,0,0,1,1.32-.78h0a1.08,1.08,0,0,1,.78,1.32h0v0h0a1.11,1.11,0,0,1-1.07.8h0A1,1,0,0,1,1114.84,211.3ZM1064,207a1.1,1.1,0,0,1,1-1.21h0a1.09,1.09,0,0,1,1.21.95h0a1.09,1.09,0,0,1-.95,1.21H1065A1.1,1.1,0,0,1,1064,207Zm50.91-3.05v0h0v-.08h0a1.08,1.08,0,0,1,1.09-1.07h0a1.1,1.1,0,0,1,1.08,1.09h0v.06h0v.06h0a1.07,1.07,0,0,1-1.08,1.07h0A1.1,1.1,0,0,1,1114.86,203.91Zm0-.12h0v0h0Zm-49.93-2.28a1.11,1.11,0,0,1-1-1.21h0a1.1,1.1,0,0,1,1.23-.94h0a1.07,1.07,0,0,1,.93,1.21h0a1.08,1.08,0,0,1-1.08,1h0Zm49.19-3.79a1.06,1.06,0,0,1,.77-1.31h0a1.08,1.08,0,0,1,1.33.77h0a1.1,1.1,0,0,1-.79,1.33h0a1.32,1.32,0,0,1-.28,0h0A1.06,1.06,0,0,1,1114.12,197.72Zm-47.85-2.47a1.1,1.1,0,0,1-.6-1.42h0a1.1,1.1,0,0,1,1.42-.6h0a1.09,1.09,0,0,1,.59,1.42h0a1.12,1.12,0,0,1-1,.68h0A1.43,1.43,0,0,1,1066.27,195.25Zm45.6-3.23h0a1.08,1.08,0,0,1,.43-1.47h0a1.07,1.07,0,0,1,1.47.43h0a1.07,1.07,0,0,1-.42,1.47h0a1.18,1.18,0,0,1-.53.13h0A1.08,1.08,0,0,1,1111.87,192Zm-42.72-2.49a1.11,1.11,0,0,1-.24-1.54h0a1.08,1.08,0,0,1,1.51-.22h0a1.08,1.08,0,0,1,.25,1.51h0a1.13,1.13,0,0,1-.89.45h0A1,1,0,0,1,1069.15,189.53Zm39.12-2.48h0a1.09,1.09,0,0,1,0-1.53h0a1.1,1.1,0,0,1,1.55,0h0a1.08,1.08,0,0,1,0,1.53h0a1.13,1.13,0,0,1-.74.29h0A1.07,1.07,0,0,1,1108.27,187.05Zm-34.92-2.37a1.1,1.1,0,0,1,.15-1.53h0a1.1,1.1,0,0,1,1.53.15h0a1.1,1.1,0,0,1-.15,1.53h0a1.12,1.12,0,0,1-.71.25h0A1.08,1.08,0,0,1,1073.35,184.68Zm30.21-1.55h0a1.08,1.08,0,0,1-.32-1.5h0a1.08,1.08,0,0,1,1.49-.34h0a1.1,1.1,0,0,1,.35,1.51h0a1.14,1.14,0,0,1-.93.49h0A1.1,1.1,0,0,1,1103.56,183.13ZM1078.62,181a1.1,1.1,0,0,1,.52-1.45h0a1.09,1.09,0,0,1,1.45.54h0a1.08,1.08,0,0,1-.54,1.43h0a.79.79,0,0,1-.45.11h0A1.07,1.07,0,0,1,1078.62,181Zm19.42-.54h0a1.11,1.11,0,0,1-.7-1.38h0a1.07,1.07,0,0,1,1.38-.68h0a1.05,1.05,0,0,1,.7,1.36h0a1.08,1.08,0,0,1-1,.76h0A.88.88,0,0,1,1098,180.5Zm-13.41-1.68a1.05,1.05,0,0,1,.87-1.25h0a1.07,1.07,0,0,1,1.27.85h0a1.1,1.1,0,0,1-.87,1.27h0a.82.82,0,0,1-.22,0h0A1.08,1.08,0,0,1,1084.63,178.82Zm7.38.52h0a1.09,1.09,0,0,1-1-1.17h0a1.1,1.1,0,0,1,1.16-1h0a1.12,1.12,0,0,1,1,1.16h0a1.11,1.11,0,0,1-1.09,1H1092Z"/><path class="cls-62" d="M900.89,140a10.81,10.81,0,0,1-.81-21.58c78.6-6.46,150.39-6.22,219.48.73a10.81,10.81,0,0,1-2.17,21.51c-67.76-6.82-138.26-7.05-215.54-.69Q901.37,140,900.89,140Z"/><path class="cls-63" d="M1010.05,251.67c-43.67-.29-87.68-2.74-131.73-7.35-16.15-1.69-28.25-16.06-28.13-33.41l.11-17.51c.11-17.22,12.28-31.41,28.31-33,94.53-9.44,180-9,261.38,1.24,15.74,2,27.53,16.32,27.42,33.33l-.12,18.11c-.11,17.31-12.33,31.51-28.43,33A1283.91,1283.91,0,0,1,1010.05,251.67Zm6.12-96a1298.2,1298.2,0,0,0-137.36,6.75c-15,1.5-26.37,14.82-26.48,31l-.11,17.51c-.1,16.31,11.21,29.79,26.31,31.38a1316.89,1316.89,0,0,0,260.14,1.77c15-1.42,26.48-14.75,26.59-31l.11-18.12c.11-16-10.92-29.43-25.64-31.29A1037.89,1037.89,0,0,0,1016.17,155.66Z"/><path class="cls-63" d="M1082.78,436.83l-141.47-.92a24.59,24.59,0,0,1-24.4-24.72l.26-40.28a24.58,24.58,0,0,1,24.72-24.4l141.47.91a24.6,24.6,0,0,1,24.41,24.72l-.27,40.28A24.59,24.59,0,0,1,1082.78,436.83Zm-140.9-88.36a22.63,22.63,0,0,0-22.75,22.45l-.26,40.28a22.62,22.62,0,0,0,22.45,22.74l141.48.92a22.62,22.62,0,0,0,22.74-22.45l.26-40.28a22.62,22.62,0,0,0-22.45-22.74Z"/><path class="cls-64" d="M955.15,371.15a3.36,3.36,0,0,1-.77-.08,3,3,0,0,1-.72-.22,3.34,3.34,0,0,1-.69-.38,3,3,0,0,1-.58-.49,3.92,3.92,0,0,1,0-5.56,4.09,4.09,0,0,1,5.56,0,6.89,6.89,0,0,1,.49.61,4.76,4.76,0,0,1,.35.67,3.68,3.68,0,0,1,.21.75,3.36,3.36,0,0,1,.08.77,3.94,3.94,0,0,1-.09.76,2.94,2.94,0,0,1-.22.73,3.75,3.75,0,0,1-.36.69,4.68,4.68,0,0,1-.49.58,3.12,3.12,0,0,1-.61.49,3.22,3.22,0,0,1-.68.37,3.13,3.13,0,0,1-.74.21A2.8,2.8,0,0,1,955.15,371.15Z"/><path class="cls-64" d="M1044.05,367.8a3.91,3.91,0,0,1,3.93-3.9h0a3.94,3.94,0,0,1,3.93,4h0a4,4,0,0,1-4,3.91h0A3.93,3.93,0,0,1,1044.05,367.8Zm-18.57-.12a3.93,3.93,0,0,1,4-3.9h0a3.92,3.92,0,0,1,3.9,4h0a3.93,3.93,0,0,1-4,3.91h0A4,4,0,0,1,1025.48,367.68Zm-18.55-.12a3.93,3.93,0,0,1,4-3.9h0a3.93,3.93,0,0,1,3.9,3.95h0a3.94,3.94,0,0,1-3.95,3.91h0A4,4,0,0,1,1006.93,367.56Zm-18.57-.12a4,4,0,0,1,4-3.91h0a3.93,3.93,0,0,1,3.9,4h0a3.92,3.92,0,0,1-4,3.9h0A3.94,3.94,0,0,1,988.36,367.44Zm-18.55-.12a4,4,0,0,1,4-3.91h0a3.94,3.94,0,0,1,3.9,4h0a3.93,3.93,0,0,1-3.95,3.9h0A3.93,3.93,0,0,1,969.81,367.32Z"/><path class="cls-64" d="M1066.5,371.88a3.88,3.88,0,0,1-2.76-1.18,3,3,0,0,1-.49-.59,6.29,6.29,0,0,1-.37-.67,4.45,4.45,0,0,1-.21-.75,3.35,3.35,0,0,1-.07-.77,3.8,3.8,0,0,1,1.18-2.76,2.53,2.53,0,0,1,.59-.49,2.86,2.86,0,0,1,.69-.37,2.93,2.93,0,0,1,.73-.21,3.92,3.92,0,0,1,4.67,3.88,3.37,3.37,0,0,1-.09.77,3.46,3.46,0,0,1-.22.74,3.2,3.2,0,0,1-.38.67,2.91,2.91,0,0,1-.47.58,3.36,3.36,0,0,1-.61.49,3.41,3.41,0,0,1-.67.37,3.51,3.51,0,0,1-.75.21A3.36,3.36,0,0,1,1066.5,371.88Z"/><path class="cls-65" d="M841.22,373.24l14.18,8.94a6.49,6.49,0,0,1,1.93,9.11L762,533.91a6.49,6.49,0,0,1-8.84,1.87l-7.4-4.67Z"/><path class="cls-66" d="M699.69,548.65l15,9.43a13.1,13.1,0,0,0,17.92-3.87l115-177L805.89,351a7.12,7.12,0,0,0-9.91,2.38L695.46,530.82A13.09,13.09,0,0,0,699.69,548.65Z"/><path class="cls-67" d="M733.16,487l44.92-77.67a11.29,11.29,0,0,1,19.1,12L752.26,499a11.29,11.29,0,0,1-19.1-12Z"/><polygon class="cls-45" points="791.45 404.36 795.85 407.14 738.9 503.91 734.49 501.13 791.45 404.36"/><path class="cls-67" d="M790.06,343.71a46.21,46.21,0,1,1,14.45,63.74A46.22,46.22,0,0,1,790.06,343.71Z"/><path class="cls-45" d="M799.29,349.53a35.3,35.3,0,1,1,11,48.69A35.3,35.3,0,0,1,799.29,349.53Z"/><path class="cls-68" d="M814,603.39l5-12.95c2-5.22.5-10.7-3.4-12.32L712.11,532.43l-13.9,36.11c-1.13,2.93-.22,6,2,6.76l103,35C807.21,611.66,812,608.61,814,603.39Z"/><path class="cls-67" d="M698.43,589.76A36.27,36.27,0,1,1,745.32,569,36.28,36.28,0,0,1,698.43,589.76Z"/><path class="cls-45" d="M701.51,581.77a27.71,27.71,0,1,1,35.82-15.9A27.71,27.71,0,0,1,701.51,581.77Z"/><rect class="cls-69" x="810.3" y="573.33" width="16.64" height="47.61" rx="2.07" transform="translate(272.62 -256.44) rotate(21.29)"/><path class="cls-70" d="M847.73,584a23.47,23.47,0,1,1-16.38,43.56Z"/><path class="cls-71" d="M833.07,578.43l2.69-6.92a2.52,2.52,0,0,1,3.3-1.32l12.83,5a2.51,2.51,0,0,1,1.54,3.2l-21.49,55.16a2.52,2.52,0,0,1-3.3,1.32l-12.83-5a2.52,2.52,0,0,1-1.54-3.2l2.47-6.34Z"/><path class="cls-72" d="M904.91,562l-42.33,2.12a5.61,5.61,0,0,0-5.31,6l4.9,65.45a5.61,5.61,0,0,0,5.93,5.18l42.1-2.54a5.6,5.6,0,0,0,5.26-5.72l-.05-2.38a5.61,5.61,0,0,0-5.3-5.48L884,623.27a5.62,5.62,0,0,1-5.31-5.4l-1.29-36.64a5.61,5.61,0,0,1,5.06-5.78l23.28-2.25a5.61,5.61,0,0,0,5.06-5.17h0A5.61,5.61,0,0,0,904.91,562Z"/><path class="cls-73" d="M1197,350.42l10.71-12.9a6.49,6.49,0,0,1,9.29-.71l129,113.13a6.49,6.49,0,0,1,.7,9l-5.59,6.73Z"/><path class="cls-74" d="M1352.41,513.63l11.3-13.59a13.1,13.1,0,0,0-1.5-18.27L1201.78,344.63l-31.51,37.91a7.13,7.13,0,0,0,1.06,10.13L1334.17,515.5A13.09,13.09,0,0,0,1352.41,513.63Z"/><path class="cls-67" d="M1295.61,472.4l-71.15-54.68a11.29,11.29,0,1,1,14.43-17.36L1310,455a11.29,11.29,0,0,1-14.43,17.37Z"/><polygon class="cls-45" points="1221.33 403.83 1224.66 399.82 1313.17 468.93 1309.84 472.93 1221.33 403.83"/><circle class="cls-67" cx="1190.55" cy="361.74" r="46.21" transform="translate(-41.61 535.11) rotate(-24.91)"/><circle class="cls-45" cx="1190.55" cy="361.74" r="35.3" transform="translate(66.12 894.58) rotate(-42.26)"/><path class="cls-75" d="M1421.6,407.44l-12.19-6.64c-4.91-2.67-10.54-1.89-12.66,1.76L1338,499.2l34,18.5c2.75,1.5,5.9,1,7-1.12L1427,419C1428.91,415.26,1426.51,410.11,1421.6,407.44Z"/><path class="cls-67" d="M1393,520.25a36.28,36.28,0,1,1-14.52-49.2A36.28,36.28,0,0,1,1393,520.25Z"/><circle class="cls-45" cx="1361.14" cy="502.91" r="27.71" transform="translate(458.87 1639.36) rotate(-71.83)"/><rect class="cls-76" x="1407.68" y="378.24" width="16.64" height="47.61" rx="2.07" transform="translate(381.76 1449.46) rotate(-61.21)"/><path class="cls-77" d="M1406.74,371.47a23.47,23.47,0,1,1,41,21.93Z"/><path class="cls-78" d="M1399.34,385.29l-6.51-3.58a2.52,2.52,0,0,1-.88-3.44l6.63-12.07a2.52,2.52,0,0,1,3.38-1.1l51.88,28.5a2.52,2.52,0,0,1,.88,3.45l-6.63,12.06a2.52,2.52,0,0,1-3.38,1.11l-6-3.28Z"/><path class="cls-72" d="M1392.45,311.91,1389,354.17a5.61,5.61,0,0,0,5.27,6.05l65.53,3.68a5.62,5.62,0,0,0,5.91-5.2l3-42.07a5.59,5.59,0,0,0-5-6l-2.37-.26a5.61,5.61,0,0,0-6.12,4.54l-4.8,25.72a5.6,5.6,0,0,1-6,4.55l-36.5-3.5a5.59,5.59,0,0,1-5.06-5.77l.8-23.38a5.59,5.59,0,0,0-4.47-5.68h0A5.6,5.6,0,0,0,1392.45,311.91Z"/><path class="cls-79" d="M1351.16,1082.56a4.53,4.53,0,0,0,4.58-3.46L1428,696.56a4.21,4.21,0,0,0-3.8-4.78,4.63,4.63,0,0,0-5.36,3.4l-72.26,382.54a4.22,4.22,0,0,0,3.8,4.79A5.19,5.19,0,0,0,1351.16,1082.56Z"/><path class="cls-79" d="M1595,1082.57a4.78,4.78,0,0,0,.92-.09,4.19,4.19,0,0,0,3.64-4.89L1514.33,700a4.64,4.64,0,0,0-5.47-3.25,4.19,4.19,0,0,0-3.64,4.89l85.19,377.56A4.56,4.56,0,0,0,1595,1082.57Z"/><path class="cls-79" d="M1406.3,791.1h123.5a4.18,4.18,0,1,0,0-8.3H1406.3a4.18,4.18,0,1,0,0,8.3Z"/><path class="cls-79" d="M1408.54,791.1h119a4.16,4.16,0,1,0,0-8.3h-119a4.16,4.16,0,1,0,0,8.3Z"/><path class="cls-79" d="M1406.3,860.27h123.5a4.18,4.18,0,1,0,0-8.3H1406.3a4.18,4.18,0,1,0,0,8.3Z"/><path class="cls-79" d="M1395.09,860.27h149.72a4.18,4.18,0,1,0,0-8.3H1395.09a4.18,4.18,0,1,0,0,8.3Z"/><path class="cls-79" d="M1406.3,929.44h123.5a4.18,4.18,0,1,0,0-8.3H1406.3a4.18,4.18,0,1,0,0,8.3Z"/><path class="cls-79" d="M1380.79,929.44H1560a4.18,4.18,0,1,0,0-8.3H1380.79a4.18,4.18,0,1,0,0,8.3Z"/><path class="cls-79" d="M1406.3,998.61h168.11a4.18,4.18,0,1,0,0-8.3H1406.3a4.18,4.18,0,1,0,0,8.3Z"/><path class="cls-79" d="M1369.22,998.61h205.19a4.18,4.18,0,1,0,0-8.3H1369.22a4.18,4.18,0,1,0,0,8.3Z"/><path class="cls-80" d="M1459.9,769.12a45.49,45.49,0,0,1,1.52,10.5,1.44,1.44,0,0,1-1.23,1.38c-4.08.56-18,2.23-25.64,0a1.41,1.41,0,0,1-1-1.39c.06-2.4,1.75-8,15.72-9.47Z"/><path class="cls-81" d="M1435.88,676.77c-1.72,1.12,11.24,92.14,14.39,92.81,0,0,3.59,3.33,9.13-.47-3.2-29.67-5.15-59.76-3.43-90.51Z"/><path class="cls-82" d="M1491,771a45.49,45.49,0,0,1,1.52,10.5,1.44,1.44,0,0,1-1.23,1.38c-4.08.56-18,2.23-25.64,0a1.43,1.43,0,0,1-1-1.39c.07-2.4,1.76-8,15.73-9.47Z"/><path class="cls-83" d="M1467,678.63c-1.72,1.12,11.24,92.14,14.39,92.81,0,0,3.59,3.33,9.13-.47-3.2-29.67-5.15-59.76-3.43-90.51Z"/><path class="cls-84" d="M1481.34,621.52s-42.27,1.93-52.34,5.47c0,0,1.24,34.37,5.38,55.49a2.09,2.09,0,0,0,1.59,1.65c2.71.63,9.54,1.53,20.36-1.5a2.13,2.13,0,0,0,1.54-2.18l-1.12-13.69a1.67,1.67,0,0,1,1.55-1.78l1.13-.17a1.67,1.67,0,0,1,1.78,1.65l2.14,13.89a2.12,2.12,0,0,0,1.43,2c3.18,1.07,11.45,3.08,22.35-.24a2.12,2.12,0,0,0,1.5-2C1488.74,663.24,1485.71,643.09,1481.34,621.52Z"/><path class="cls-85" d="M1465.5,624.48s5.34,14.86,18.24,15.89l-2.85-16.94S1470.9,623.35,1465.5,624.48Z"/><path class="cls-86" d="M1369.87,558.66c18.79,4.35,42,1.69,70.92-9.87l1.32,26.43c-27.1,7.75-52.51,7.31-74.87-8Z"/><path class="cls-87" d="M1430.55,554.75c3.59-6.62,15.34-7.51,21.82-7.78,9.53-.39,17.32.56,23.61,8.67a47.88,47.88,0,0,1,2.84,4.22c3.68,5.95,4.89,14.72,6.83,21.42,3.84,13.25,7.62,26.53,11.07,39.9.5,2,6.47,20.21,4.11,21.53-5.31,18.43-62.19,12.37-80-9.06C1423.09,602.4,1424.82,568.78,1430.55,554.75Z"/><path class="cls-88" d="M1425,520.4s1.63-4.59-2.52-5.41-.19,11.37-.19,11.37Z"/><path class="cls-89" d="M1458.14,532.85l1.64,18s-9.49,5.54-17.66.69l1.45-15.71Z"/><path class="cls-90" d="M1423.07,520.06s-4.16-7.12,1.14-10.87c0,0-2.84-6.27,2.54-10.8,0,0,8.56-20.05,26.53-6,0,0,15.48-4.6,20.46,14.65,0,0,5.15,2.88,2.79,10.08,0,0,.58,26.67-22.78,17.68Z"/><path class="cls-91" d="M1430.77,505.16s-19.81,29.84.65,39c19.32,8.63,27.45-11.19,27.45-11.19s8.49-8.79,5.64-15.57S1435.59,501.45,1430.77,505.16Z"/><path class="cls-92" d="M1460.8,528.25s-19.38-6.13-17.72-17.58c0,0-3.36.34-4.39-3.62,0,0-9.51,8.56-12,2.58,0,0,1.67-14.82,13.29-10s22.23,9.69,25.34,13.1S1471,524.4,1460.8,528.25Z"/><path class="cls-93" d="M1456.33,535.62l3.44-9.47s6.66-3,5.78,2.09S1458.7,536.24,1456.33,535.62Z"/><polygon class="cls-94" points="1393.68 579.12 1384.84 588.07 1291.59 494.14 1298.57 487.07 1393.68 579.12"/><path class="cls-95" d="M1372.6,553.82l-13.32,13.49a6.56,6.56,0,0,0-.09,9.13l78.86,83.1a15.31,15.31,0,0,0,22,.21l6.27-6.34a15.31,15.31,0,0,0-.5-22l-84.1-77.8A6.56,6.56,0,0,0,1372.6,553.82Z"/><rect class="cls-96" x="1405.25" y="553.88" width="4.79" height="119.44" transform="translate(-17.99 1184.15) rotate(-45.36)"/><rect class="cls-96" x="1411.37" y="547.68" width="4.79" height="119.44" transform="translate(-11.73 1186.73) rotate(-45.37)"/><rect class="cls-96" x="1417.5" y="541.48" width="4.79" height="119.44" transform="translate(-5.51 1189.22) rotate(-45.37)"/><path class="cls-94" d="M1266.14,457.64l-4.39,4.45a3.4,3.4,0,0,0-.77,4l9.56,15.88a2.47,2.47,0,0,0,.74.77l19.89,13a3.37,3.37,0,0,0,4.13-.76l4.65-4.7a3.36,3.36,0,0,0,.67-4.19l-13.68-19.28a2.33,2.33,0,0,0-.75-.68l-16-9.38A3.42,3.42,0,0,0,1266.14,457.64Z"/><path class="cls-97" d="M1382.46,617.38c-.16,2.44,4.06,4.59,5.83,5.56a35.21,35.21,0,0,0,16.21,3.9l2.29,0c4,0,7.54-1.33,11.43-2.36a4.23,4.23,0,0,0,2.23-1.09c1.12-1.27-.72-3.93-1.37-5.09a2.07,2.07,0,0,0-.64-.79,1.91,1.91,0,0,0-1-.21c-2.53-.09-4.74.77-7.27.84l-4.13.11a15.3,15.3,0,0,1-3.45-.15c-2.8-.55-5.22-2.59-8.08-2.72a.69.69,0,0,0-.32,0,.61.61,0,0,0-.18.88,2.22,2.22,0,0,0,.8.62,2.53,2.53,0,0,1,1.38,2,69.25,69.25,0,0,0-15.14-2.28,19.67,19.67,0,0,0,2.63,3Z"/><path class="cls-86" d="M1412.53,617.29c18-7.93,35.37-24.27,51.79-51.31,13.77-9.83,17.76,2,13.86,20.36-17.32,22.84-34.74,38.35-62.48,39.54A7.63,7.63,0,0,0,1412.53,617.29Z"/><path class="cls-98" d="M1289,1146.28h323.63v-62.4H1289C1296,1083.88,1296,1146.28,1289,1146.28Z"/><path class="cls-99" d="M1612.67,1130.66v-28.55c0-10.07-6.4-18.23-14.29-18.23h-308a11,11,0,0,1-11.24-10.82,3.36,3.36,0,0,1,3.42-3.29h336.59c7.72,0,20,11.69,20,26.12v39.88c0,13.59-11.9,24.62-19.18,24.62H1284.36a5.1,5.1,0,0,1-5.19-5,9.3,9.3,0,0,1,9.47-9.11h311.79C1607.19,1146.28,1612.67,1139.29,1612.67,1130.66Z"/><path class="cls-100" d="M1603.69,1097.63H1300.25a.95.95,0,1,1,0-1.89h303.44a.95.95,0,1,1,0,1.89Z"/><path class="cls-100" d="M1603.69,1106.9H1300.25a1,1,0,0,1,0-1.9h303.44a1,1,0,0,1,0,1.9Z"/><path class="cls-100" d="M1603.69,1116.16H1300.25a1,1,0,0,1,0-1.9h303.44a1,1,0,0,1,0,1.9Z"/><path class="cls-100" d="M1603.69,1125.42H1300.25a1,1,0,0,1,0-1.9h303.44a1,1,0,0,1,0,1.9Z"/><path class="cls-100" d="M1603.69,1134.68H1300.25a1,1,0,0,1,0-1.9h303.44a1,1,0,0,1,0,1.9Z"/><rect class="cls-101" x="1236.01" y="1159.72" width="431.92" height="104.26" rx="14.43"/><rect class="cls-102" x="1588.88" y="1169.07" width="50.74" height="80.29" rx="4.89"/><rect class="cls-102" x="1546.4" y="1171.16" width="19.04" height="80.29" rx="3.97"/><g class="cls-103"><path class="cls-104" d="M1201.89,765.82l-.37,0-16.2-2a3,3,0,0,1-2.59-2.36l-2.64-12.29a60.61,60.61,0,0,1-15.45-8.72l-11.89,4.11a3,3,0,0,1-3.36-1l-10.07-12.85a3,3,0,0,1-.16-3.5l6.83-10.56a61.36,61.36,0,0,1-4.78-17.09l-11.3-5.5a3,3,0,0,1-1.67-3.08l2-16.21a3,3,0,0,1,2.37-2.58l12.28-2.64a61,61,0,0,1,8.72-15.45l-4.1-11.89a3,3,0,0,1,1-3.36l12.85-10.07a3,3,0,0,1,3.5-.16l10.56,6.83a61,61,0,0,1,17.09-4.78l5.5-11.3a3,3,0,0,1,3.07-1.67l16.21,2a3,3,0,0,1,2.59,2.36l2.64,12.29a61,61,0,0,1,15.45,8.72l11.89-4.11a3,3,0,0,1,3.36,1l10.07,12.86a3,3,0,0,1,.16,3.5l-6.83,10.56a61,61,0,0,1,4.77,17.09l11.31,5.49a3,3,0,0,1,1.67,3.08l-2,16.21a3,3,0,0,1-2.37,2.59L1259.71,714A61.39,61.39,0,0,1,1251,729.4l4.1,11.89a3,3,0,0,1-1,3.36l-12.85,10.07a3,3,0,0,1-3.5.16l-10.56-6.83a61,61,0,0,1-17.09,4.77l-5.5,11.3A3,3,0,0,1,1201.89,765.82Zm-15.57-5.69,15.11,1.83,6.17-12.67,1-.12a57.22,57.22,0,0,0,17.91-5l1-.44,11.84,7.66,12-9.39-4.61-13.33.66-.82a57.28,57.28,0,0,0,9.14-16.2l.36-1,13.78-3,1.83-15.1-12.67-6.17-.12-1a57.22,57.22,0,0,0-5-17.91l-.44-1,7.66-11.85-9.39-12-13.33,4.6-.82-.65a57.09,57.09,0,0,0-16.19-9.14l-1-.36-3-13.79-15.1-1.83L1197,634.23l-1,.11a57.51,57.51,0,0,0-17.91,5l-1,.44-11.85-7.66-12,9.38,4.6,13.34-.65.81a57.28,57.28,0,0,0-9.14,16.2l-.36,1-13.78,2.95-1.83,15.11,12.67,6.16.12,1a57.3,57.3,0,0,0,5,17.91l.44,1-7.66,11.84,9.39,12,13.33-4.61.82.66a57.47,57.47,0,0,0,16.19,9.14l1,.36ZM1134,675.25Zm-1.88-.23h0Zm70.51,57.85a42.31,42.31,0,0,1-5-.3,41.26,41.26,0,0,1-20.35-8.37,1.9,1.9,0,1,1,2.33-3,37.5,37.5,0,1,0-14.24-34.15,38.14,38.14,0,0,0-.12,8,1.9,1.9,0,0,1-3.78.35,41.33,41.33,0,0,1,46.1-44.82,41.3,41.3,0,0,1-4.94,82.3Z"/><path class="cls-104" d="M1202.29,708.17a16.44,16.44,0,1,1,6.64-1.42A16.38,16.38,0,0,1,1202.29,708.17Zm0-29a12.6,12.6,0,1,0,4.52.84A12.63,12.63,0,0,0,1202.29,679.16Z"/><path class="cls-104" d="M1318.42,660.8a2,2,0,0,1-1.5-.7l-3.72-4.4a29.59,29.59,0,0,1-8.14-.19l-3.92,4.24a2,2,0,0,1-2.23.46l-7.18-3.17a2,2,0,0,1-1.17-2l.48-5.75a30.42,30.42,0,0,1-5.62-5.88l-5.76.22a2,2,0,0,1-1.91-1.25l-2.84-7.33a2,2,0,0,1,.57-2.21l4.4-3.72a30,30,0,0,1,.18-8.14l-4.23-3.92a2,2,0,0,1-.46-2.23l3.17-7.18a2,2,0,0,1,2-1.17l5.75.48a29.79,29.79,0,0,1,5.88-5.61l-.22-5.77a2,2,0,0,1,1.25-1.91l7.32-2.84a2,2,0,0,1,2.21.57l3.73,4.4a29.91,29.91,0,0,1,8.13.18l3.93-4.23a2,2,0,0,1,2.23-.46l7.18,3.17a2,2,0,0,1,1.17,2l-.49,5.75a29.56,29.56,0,0,1,5.62,5.88l5.77-.22a2,2,0,0,1,1.91,1.25l2.84,7.33a2,2,0,0,1-.57,2.21l-4.41,3.72a29.92,29.92,0,0,1-.18,8.13l4.23,3.93a2,2,0,0,1,.47,2.23l-3.17,7.18a2,2,0,0,1-2,1.17l-5.75-.48a30.07,30.07,0,0,1-5.88,5.61l.22,5.77a2,2,0,0,1-1.26,1.91l-7.32,2.84A1.94,1.94,0,0,1,1318.42,660.8Zm.68-2.54Zm-4.74-5.6,4.33,5.12,6.14-2.38-.25-6.7.65-.44a27.09,27.09,0,0,0,6.35-6.06l.47-.63,6.68.56,2.66-6-4.92-4.56.15-.77a27,27,0,0,0,.19-8.78l-.11-.78,5.12-4.32-2.38-6.15-6.7.26-.44-.65a26.93,26.93,0,0,0-6.07-6.35l-.62-.47.55-6.68-6-2.66-4.55,4.91-.77-.14a27.23,27.23,0,0,0-8.78-.2l-.78.11-4.32-5.11-6.15,2.38.26,6.7-.65.44a27.09,27.09,0,0,0-6.35,6.06l-.47.63-6.68-.56-2.66,6,4.91,4.56-.14.77a27.22,27.22,0,0,0-.2,8.78l.11.77-5.11,4.33,2.38,6.15,6.7-.26.44.65a27.09,27.09,0,0,0,6.06,6.35l.63.47-.56,6.68,6,2.66,4.56-4.92.77.15a26.89,26.89,0,0,0,8.77.19Zm27.49-16.14h0Zm-64.53-1.46h0Zm65-18.58ZM1277.77,615Zm49-17.9Zm-16.78,49a20.49,20.49,0,0,1-16.62-8.61,1.42,1.42,0,1,1,2.32-1.65,17.53,17.53,0,1,0-1.73-17.2,17.91,17.91,0,0,0-1.14,3.55,1.42,1.42,0,1,1-2.79-.57,20.93,20.93,0,0,1,1.33-4.13A20.36,20.36,0,1,1,1310,646.11Z"/></g><path class="cls-105" d="M399.23,768.49a.94.94,0,0,1-.81-.44c-.65-1-1.36-2.08-2.1-3.08a1,1,0,0,1,1.53-1.13c.76,1,1.5,2.11,2.18,3.2a1,1,0,0,1-.3,1.31A.9.9,0,0,1,399.23,768.49Z"/><path class="cls-105" d="M361.48,843.59a.95.95,0,0,1-.08-1.89,48,48,0,0,0,7.44-1.19,1,1,0,0,1,.44,1.85,50.37,50.37,0,0,1-7.73,1.23ZM380.71,838a.95.95,0,0,1-.45-1.78,49.41,49.41,0,0,0,6.35-4,.95.95,0,1,1,1.14,1.51,49.43,49.43,0,0,1-6.6,4.2A.87.87,0,0,1,380.71,838Zm15.38-12.81a1,1,0,0,1-.74-1.54,48.06,48.06,0,0,0,4.2-6.25.95.95,0,0,1,1.65.94,50.74,50.74,0,0,1-4.36,6.49A1,1,0,0,1,396.09,825.17Zm9-17.89a.67.67,0,0,1-.24,0,1,1,0,0,1-.68-1.16,47.72,47.72,0,0,0,1.37-7.4,1,1,0,1,1,1.89.2,50.28,50.28,0,0,1-1.42,7.69A1,1,0,0,1,405.09,807.28Zm1.1-20a.94.94,0,0,1-.93-.81,50.3,50.3,0,0,0-1.39-6.28c-.11-.35-.21-.7-.32-1.05a1,1,0,0,1,1.81-.58l.33,1.1a51,51,0,0,1,1.44,6.52,1,1,0,0,1-.79,1.09Z"/><path class="cls-105" d="M349,843h-.17c-1.26-.23-2.53-.51-3.78-.84a.95.95,0,1,1,.48-1.83c1.2.31,2.43.58,3.64.8A.95.95,0,0,1,349,843Z"/><path class="cls-106" d="M315.84,820.45A1,1,0,0,1,315,820c-.68-1.1-1.32-2.23-1.9-3.37a1,1,0,1,1,1.69-.87c.56,1.09,1.18,2.19,1.83,3.24a1,1,0,0,1-.31,1.3A.94.94,0,0,1,315.84,820.45Z"/><path class="cls-106" d="M309.76,805.63a.94.94,0,0,1-.92-.73,49.44,49.44,0,0,1-1.15-7.61.94.94,0,0,1,.87-1,1,1,0,0,1,1,.88,47.94,47.94,0,0,0,1.11,7.32,1,1,0,0,1-.71,1.14Zm-.48-19.69-.17,0a1,1,0,0,1-.77-1.1,50.71,50.71,0,0,1,2-7.45.95.95,0,1,1,1.79.62,49.06,49.06,0,0,0-1.87,7.17A1,1,0,0,1,309.28,785.94Zm7.31-18.3a1,1,0,0,1-.52-.15,1,1,0,0,1-.28-1.32,50.47,50.47,0,0,1,4.71-6.09.95.95,0,1,1,1.41,1.27,48.45,48.45,0,0,0-4.53,5.86A.93.93,0,0,1,316.59,767.64Zm13.89-14a.93.93,0,0,1-.79-.43,1,1,0,0,1,.27-1.32,50.07,50.07,0,0,1,6.72-3.74,1,1,0,0,1,.79,1.73,48,48,0,0,0-6.46,3.6A.94.94,0,0,1,330.48,753.68Zm18.27-7.37a.95.95,0,0,1-.17-1.88,49.4,49.4,0,0,1,7.66-.81.95.95,0,0,1,.05,1.89,48,48,0,0,0-7.36.79Z"/><path class="cls-106" d="M372.16,747.7a.9.9,0,0,1-.28,0c-1.19-.37-2.4-.7-3.59-1a.94.94,0,0,1-.72-1.13,1,1,0,0,1,1.14-.72c1.24.28,2.49.62,3.73,1a.95.95,0,0,1-.28,1.85Z"/><path class="cls-107" d="M373.25,759.33a.59.59,0,0,0-.69.06L367.1,764a30.89,30.89,0,0,0-10-1.43l-4-6a.58.58,0,0,0-.63-.25l-8.34,2.15a.59.59,0,0,0-.44.52l-.57,7.15a31.06,31.06,0,0,0-8.1,6.08l-7-1.44a.6.6,0,0,0-.62.28L323,778.53a.59.59,0,0,0,.06.68l4.65,5.47a31.36,31.36,0,0,0-1.43,10l-6,3.95a.58.58,0,0,0-.24.64l2.14,8.34a.59.59,0,0,0,.52.44l7.15.57a31.1,31.1,0,0,0,6.09,8.09l-1.44,7a.59.59,0,0,0,.28.63l7.41,4.38a.61.61,0,0,0,.68-.06l5.46-4.65a31.18,31.18,0,0,0,10,1.42l3.95,6a.59.59,0,0,0,.64.24l8.33-2.14a.59.59,0,0,0,.44-.52l.58-7.15a31.44,31.44,0,0,0,8.09-6.09l7,1.44a.58.58,0,0,0,.62-.28l4.38-7.41a.57.57,0,0,0-.06-.68l-4.65-5.46a31.46,31.46,0,0,0,1.43-10l6-3.95a.59.59,0,0,0,.25-.64l-2.15-8.33a.57.57,0,0,0-.52-.44l-7.15-.58a31.41,31.41,0,0,0-6.08-8.09l1.43-7a.6.6,0,0,0-.27-.63Z"/><path class="cls-104" d="M357.75,803.11a9.06,9.06,0,0,1-4.36-17h0a9.07,9.07,0,1,1,4.36,17Zm0-15.28a6.1,6.1,0,0,0-3,.76h0a6.2,6.2,0,1,0,4.73-.51A6.31,6.31,0,0,0,357.72,787.83Zm-3.65-.49h0Z"/><path class="cls-104" d="M357.65,816.4a22.19,22.19,0,0,1-5.53-43.68l.14,0a22.69,22.69,0,0,1,4.4-.65h.14l.11,2.85a19.52,19.52,0,0,0-4.08.6h0A19.34,19.34,0,1,0,377,794.21a19.33,19.33,0,0,0-5.74-13.75l2-2a22.22,22.22,0,0,1,5.88,10.25,22,22,0,0,1,.7,5.53,22.22,22.22,0,0,1-16.66,21.49A22,22,0,0,1,357.65,816.4Z"/><path class="cls-108" d="M725.85,1091.37h-263v-50.71h263C720.22,1040.66,720.22,1091.37,725.85,1091.37Z"/><path class="cls-109" d="M462.86,1078.68v-23.21c0-8.18,5.2-14.81,11.61-14.81H724.74a9,9,0,0,0,9.13-8.79,2.73,2.73,0,0,0-2.78-2.67H457.57c-6.27,0-16.23,9.5-16.23,21.22v32.4c0,11,9.67,20,15.58,20H729.65a4.14,4.14,0,0,0,4.22-4.06,7.55,7.55,0,0,0-7.69-7.4H472.81C467.32,1091.37,462.86,1085.69,462.86,1078.68Z"/><path class="cls-110" d="M716.74,1052H470.16a.95.95,0,1,1,0-1.89H716.74a.95.95,0,1,1,0,1.89Z"/><path class="cls-110" d="M716.74,1059.54H470.16a1,1,0,0,1,0-1.9H716.74a1,1,0,1,1,0,1.9Z"/><path class="cls-110" d="M716.74,1067.07H470.16a1,1,0,0,1,0-1.9H716.74a1,1,0,1,1,0,1.9Z"/><path class="cls-110" d="M716.74,1074.59H470.16a.95.95,0,0,1,0-1.9H716.74a.95.95,0,1,1,0,1.9Z"/><path class="cls-110" d="M716.74,1082.12H470.16a.95.95,0,0,1,0-1.9H716.74a.95.95,0,1,1,0,1.9Z"/><rect class="cls-101" x="417.96" y="1102.29" width="350.98" height="84.72" rx="14.43" transform="translate(1186.9 2289.3) rotate(180)"/><rect class="cls-111" x="394" y="1186.41" width="400.69" height="46.9" rx="14.43" transform="translate(1188.7 2419.71) rotate(180)"/><rect class="cls-102" x="688.04" y="1112.03" width="41.23" height="65.25" rx="4.89" transform="translate(1417.31 2289.3) rotate(180)"/><rect class="cls-102" x="666.51" y="1112.03" width="15.47" height="65.25" rx="3.97" transform="translate(1348.48 2289.3) rotate(180)"/><rect class="cls-102" x="636.36" y="1112.03" width="15.47" height="65.25" rx="3.97" transform="translate(1288.2 2289.3) rotate(180)"/><path class="cls-112" d="M534.62,748.26c-2.76-2.88-5.86-5.25-3.42-10.74,2.52-5.68,10.61-7.28,16-5.58a15.27,15.27,0,0,1,10.35,14.25c0,1.94-.37,4,.65,5.7,1.51,2.42,5,2.41,7.62,3.46,4.46,1.76,6.7,6.65,8.52,11.1a9.17,9.17,0,0,1,1,4.21c-.35,3.57-4.47,5.3-8,6.13s-7.65,2.05-8.63,5.51a18.78,18.78,0,0,1-.72,3.28,4.25,4.25,0,0,1-2.65,2.12c-4.63,1.44-9.07-3.16-10.47-7.8s-1.16-9.78-3.31-14.13A51.56,51.56,0,0,1,539,761c-.86-2.32-.75-4.88-1.18-7.31A10.5,10.5,0,0,0,534.62,748.26Z"/><path class="cls-113" d="M482.48,761.87s-1-11.3-7-15c-12.13-7.39-24.26,1.7-31.32,12.1-3.16,4.65-4,11.39-.38,15.71,1.69,2,4.1,3.27,6.1,5s3.64,4.33,3,6.87c-.59,2.18-2.72,3.62-3.57,5.71-1.2,3,.66,6.55,3.56,7.86a9.63,9.63,0,0,0,9.07-1.14c1.73-1.14,4.14-2.67,5.53-1.14a5.42,5.42,0,0,1,.79,1.62A6.9,6.9,0,0,0,481.55,797c.08-4.48-4.06-9-1.89-12.95C484.37,775.62,483.33,772.1,482.48,761.87Z"/><path class="cls-114" d="M508.38,741.56c-4.41-1.89-13.75-3.82-21,8.89a5.56,5.56,0,0,1-2.14,2.11c-4.32,2.39-16.85,11.06-5.44,26.7a5.52,5.52,0,0,1,1,2.43c.38,2.65,1.64,8.52,5.44,10a5.48,5.48,0,0,1,2.71,2.27c2.55,4.2,9.82,13,22.05,3.8a5.45,5.45,0,0,1,2.1-1L530,793a5.53,5.53,0,0,1,2.71.1c2.07.6,6.24,1.13,7.79-3.72a5.67,5.67,0,0,1,1.7-2.55c2.83-2.4,8.84-8.93,4.29-18.08a5.57,5.57,0,0,1-.52-3.31c.54-3.43.82-11-6.3-14.32a5.31,5.31,0,0,1-2.5-2.34c-2.37-4.57-10.1-16.27-23.73-7.69A5.44,5.44,0,0,1,508.38,741.56Z"/><path class="cls-115" d="M504,791.56l-2.52,24.89s13.53,4.59,22.44-.59l-2.41-25Z"/><path class="cls-116" d="M488.62,818.32l-4.4.49c-8.52,9.14-24.15,71.93-29.79,85.28l-22.94-3.75a1.14,1.14,0,0,0-1.29,1.56c1,2.49,4.84,9.67,19.73,9.67,7,0-3.9,5.4.26,7.25,0,0,9.14-3.29,9.16-9.08,0,0,26.21-59.7,31.59-66S488.62,818.32,488.62,818.32Z"/><path class="cls-117" d="M609.36,810.39a8.4,8.4,0,0,0,0-4.17,7,7,0,0,0-1-3c-1.17-1.6-3.43-1.88-5.41-1.82a29.13,29.13,0,0,0-12.34,3.2c-2.43,1.25-4.76,3.82-6.49,5.92-2.92,3.54-4.13,7.76-7.44,11.4-5,5.48-11.6,9.41-19.22,8.86-5.51-.41-10.65-3-15-6.27-.91-.69-5.91-4-5.86-5.37,0,0-.73,23.23-.73,23.23,49.94,22.74,55.9-28,56.24-31.43l2.47.31c5.13,3.07,10,5.88,14.27,0A3.93,3.93,0,0,0,609.36,810.39Z"/><path class="cls-118" d="M484.22,818.81s23.31-8.64,52.42.31c0,0,3.26,22,1.58,32.52l-50.15,1.81Z"/><path class="cls-119" d="M538.38,850.45l-.16,5.3s-16.11,2.83-50.18,1.69l-.18-5.84S525.61,852.34,538.38,850.45Z"/><path class="cls-120" d="M538.27,767.44c3.88,15,2.75,32.15-14.86,36-12.18,2.67-25-9.74-28.85-24.7s2.76-26.36,14.83-29.48S534.4,752.47,538.27,767.44Z"/><path class="cls-121" d="M498.34,782.49s-1.35-6.91-6.23-3.72,4.43,14.47,10.18,12Z"/><path class="cls-122" d="M491.11,777s14,15.15,21.27-16.29c0,0,7.26,9.39,10.57,1.08,0,0,14.45,5,16-1.12s-19.53-22.56-36.52-10.73S491.11,777,491.11,777Z"/><path class="cls-123" d="M598.43,804.43a25.87,25.87,0,0,1,7.57-1.57,3.75,3.75,0,0,1,2.39.46,3.18,3.18,0,0,1,1.11,2.31c.43,3.73-2.65,12.16-7.46,11.24C598.34,816.17,594.43,805.92,598.43,804.43Z"/><path class="cls-124" d="M554.81,987.89l-.31,9c-.54,15.4,7.45,28.18,17.84,28.54l12.35.43c10.39.36,19.24-11.84,19.77-27.24l.31-9c0-.59,0-1.19,0-1.78l-2.27-266.56-26.91-.93L554.91,986.11C554.86,986.7,554.83,987.3,554.81,987.89Zm12.53-.27c.4-11.6,6.31-20.81,13.2-20.57s12.16,9.83,11.75,21.43-6.31,20.81-13.2,20.57S566.93,999.22,567.34,987.62Z"/><path class="cls-124" d="M565.21,628.92,563.4,681a12,12,0,0,0,4.33,9.64l14.67,12.12a12,12,0,0,0,14.59.51l15.46-11.08a12,12,0,0,0,5-9.31l1.8-52.1c.27-7.85,9.72-11.86,15.43-6.45a68.79,68.79,0,0,1,21.25,52.5c-1.3,37.47-31.4,62.22-67.44,61s-64.35-28-63.05-65.5a68.83,68.83,0,0,1,24.83-50.91C556.33,616.42,565.48,621.06,565.21,628.92Z"/><path class="cls-125" d="M570.12,629.09l-1.81,52.09a12,12,0,0,0,4.33,9.64l14.66,12.12a12,12,0,0,0,14.59.51l15.47-11.08a12,12,0,0,0,5-9.31l1.8-52.1c.27-7.85,9.72-11.86,15.43-6.46A68.83,68.83,0,0,1,660.83,677c-1.3,37.47-31.4,62.22-67.44,61s-64.35-28-63-65.5a68.83,68.83,0,0,1,24.83-50.91C561.24,616.59,570.39,621.23,570.12,629.09Z"/><path class="cls-125" d="M558.72,988l-.31,9c-.53,15.41,7.46,28.19,17.84,28.55l12.35.43c10.39.36,19.24-11.84,19.78-27.25l.31-9c0-.6,0-1.19,0-1.79l-2.27-266.55-26.9-.94L558.82,986.24C558.78,986.84,558.75,987.43,558.72,988Zm12.53-.28c.4-11.6,6.32-20.8,13.21-20.57s12.15,9.84,11.75,21.44-6.31,20.81-13.21,20.57S570.85,999.35,571.25,987.75Z"/><path class="cls-126" d="M609.76,807.51a5.15,5.15,0,0,0-1.5-4.15c-2.11-2.12-5.72-5-8-2.72-3.43,3.37,1.33,13.74,1.33,13.74l4.49,5.89.34,4C608.41,821.5,609.27,815.09,609.76,807.51Z"/><path class="cls-127" d="M541.07,1013.71l-2.46,2.84,1.69,6.17a4.36,4.36,0,0,0,3.42,3.14c5.49,1,17.94,2.82,24.34.06,0,0,2-13.34-20.07-9.37Z"/><path class="cls-128" d="M504.09,1016.3l-1.31,3.21.53,11.57a3.59,3.59,0,0,0,3.16,3.26,41.94,41.94,0,0,0,9.22.49c2.59-.2,4.21-2.63,3.19-4.79l-3.89-8.35a5.1,5.1,0,0,0-3-2.65Z"/><path class="cls-129" d="M493.6,927.06s6.42,71.58,10.66,93.49c0,0,3.17,2.31,7.92-.67l5.76-95.54Z"/><path class="cls-130" d="M520.63,935.86,538.22,1016s4.79,5,11,0l-3-84.28Z"/><path class="cls-131" d="M537.8,854.66S557.7,906,563.51,939.9a3.2,3.2,0,0,1-2.61,3.69A71.53,71.53,0,0,0,544.15,949c-12.46,5.6-23.28,5.26-33.19,3.46-7.79-1.41-26.9-1.4-34.76-1.33a3.19,3.19,0,0,1-3.21-3.44c1-12.85,5.07-58.51,15.05-90.27Z"/><path class="cls-132" d="M799.9,719.78S761,775.44,728,783c0,0,2.64,15.9,8.4,18.34,0,0,31.67-7.57,65.5-74.32Z"/><path class="cls-133" d="M793.22,735.46c.09,1.06-3.82,1.78-5.06-2.7.34-2,1-10.47,2.44-11.79,7.95-7.06,22.12-15,22.12-15a2.89,2.89,0,0,1-.49,4l-7.08,4.78c.74,2.44,1.82,4.6,1.94,7.4A8.29,8.29,0,0,1,805,728a71.87,71.87,0,0,1-5,5.26A8.16,8.16,0,0,1,793.22,735.46Z"/><path class="cls-134" d="M797,732l-.88-.36c.14-.35,3.53-8.58,5.16-10.28a2.62,2.62,0,0,0,.93-1.75,1.32,1.32,0,0,0-.46-.85l-5.82,3.11-2.54,4-.8-.51,2.67-4.19,6.62-3.54.24.2a2.44,2.44,0,0,1,1,1.75,3.37,3.37,0,0,1-1.18,2.45C800.68,723.27,797.92,729.61,797,732Z"/><path class="cls-135" d="M635.45,943.19A41,41,0,0,0,628.4,938a1.49,1.49,0,0,0-1.9.41c-2.65,3.43-11.5,15.32-13.48,23.5a1.52,1.52,0,0,0,.8,1.69c2.28,1.19,8.3,2.48,16.89-9.46l5.15-7.29A2.72,2.72,0,0,0,635.45,943.19Z"/><path class="cls-136" d="M687.76,916.5s-2.88,38.94-18.75,51.92c-13.89,11.36-35.51-9.33-40.68-14.66a3.34,3.34,0,0,1-.9-2.94,8.16,8.16,0,0,1,3.94-5.8,4.06,4.06,0,0,1,4.76.53c4.31,4,15.59,13.63,21.35,11.33C664.69,954,669,916.5,669,916.5Z"/><path class="cls-137" d="M650.27,798.26s-21.63-10.1-33.52-65.43l5.92-3s23,45.18,34.81,55.48S650.27,798.26,650.27,798.26Z"/><path class="cls-138" d="M621.33,736.46l-4.58-3.63s-6.24-6.06-8.43-11.21,4.24-9.8,6.67-10.89,3.75,1.21,3.27,6.39a23,23,0,0,1,4.73,15.8Z"/><path class="cls-139" d="M695.3,1016.64a48.55,48.55,0,0,0-1.6,11.09,1.51,1.51,0,0,0,1.31,1.46c4.3.6,19,2.36,27.08,0a1.5,1.5,0,0,0,1.08-1.48c-.08-2.53-1.86-8.48-16.61-10Z"/><path class="cls-140" d="M720.69,919.06c1.81,1.18-11.88,97.36-15.2,98.06,0,0-3.8,3.53-9.65-.49,3.38-31.35,5.44-63.14,3.61-95.64Z"/><path class="cls-141" d="M672.65,860.68s44.67,2,55.3,5.78c0,0-1.31,36.31-5.67,58.63a2.23,2.23,0,0,1-1.69,1.75c-2.86.67-10.08,1.62-21.51-1.59a2.23,2.23,0,0,1-1.62-2.3l1.18-14.47a1.76,1.76,0,0,0-1.64-1.87l-1.2-.19a1.76,1.76,0,0,0-1.88,1.75l-2.26,14.67a2.22,2.22,0,0,1-1.51,2.09c-3.36,1.14-12.1,3.26-23.62-.25a2.23,2.23,0,0,1-1.58-2.11C664.84,904.77,668,883.47,672.65,860.68Z"/><path class="cls-142" d="M689.39,863.81s-5.64,15.7-19.27,16.79l3-17.9S683.69,862.62,689.39,863.81Z"/><path class="cls-143" d="M651.71,778.07s20.19,13,44.7,11.53c20.45-1.2,32.87-6.41,39.77-12.29a7.31,7.31,0,0,1,8.71-.7A62,62,0,0,1,756,785.88a3.36,3.36,0,0,1,.46,4.07c-6,9.62-12.3,16.34-19,20.25a13.19,13.19,0,0,0-3.42,9.2l1.25,47.26a2.66,2.66,0,0,1-2.17,2.69c-9,1.7-43,7.62-64.11,3.89v-51a10.38,10.38,0,0,0-5.41-9.07c-4.44-2.47-11.05-7.29-17.66-16.39Z"/><path class="cls-144" d="M726.6,759.41s-1.72-4.84,2.67-5.71.2,12,.2,12Z"/><path class="cls-145" d="M691.57,772.57l-1.73,19s10,5.86,18.66.74L707,775.72Z"/><path class="cls-146" d="M728.83,759.37a13.94,13.94,0,0,0,4.66-4.67c1.57-2.85,3.17-6.24,1.84-9.21-.89-2-3-3.5-3-5.68,0-1.6,1.18-2.95,1.58-4.51.62-2.45-.88-5.06-3-6.45a15.79,15.79,0,0,0-7.23-2,8,8,0,0,1-3.4-.81c-1.19-.69-1.91-1.94-2.82-3-3.57-4-10.74-4-14.26.1-1.81,2.1-2.79,5.07-5.26,6.33a16.9,16.9,0,0,1-4.44,1,18.64,18.64,0,0,0-9,5.26c-3.77,3.66-6.78,7.47-7.75,12.73a46.07,46.07,0,0,0-.52,8.47c0,3.61,0,7.36,1.63,10.59s4.55,5.56,5.91,8.85a20.26,20.26,0,0,0,1.33,3.19,3,3,0,0,0,2.86,1.56c1.37-.26,2.06-1.74,2.79-2.92,3.62-5.84,15.7-8.52,21.74-11.42C717.05,764.63,724,762.59,728.83,759.37Z"/><path class="cls-147" d="M720.5,743.32s20.93,31.53-.69,41.19c-20.41,9.11-29-11.83-29-11.83s-9-9.29-6-16.45S715.4,739.4,720.5,743.32Z"/><path class="cls-148" d="M688.63,766.3a5.63,5.63,0,0,0,3.32-2.43c1.49-2.1,1.8-4.79,2.83-7.15a14.09,14.09,0,0,1,9.22-7.65c3.61-1,7.41-.64,11.15-.72,5.09-.11,16.56-3.79,7.25-8.79-6.7-3.59-14.39-.22-21,1.63-6.35,1.76-13.72,5.37-17.88,10.72a10.66,10.66,0,0,0-2.24,8.42C682,763.89,685.39,767,688.63,766.3Z"/><path class="cls-149" d="M693.49,775.5l-3.64-10s-7-3.23-6.1,2.21S691,776.16,693.49,775.5Z"/><rect class="cls-150" x="225.84" y="1124.27" width="12.16" height="131.53" transform="translate(463.84 2380.06) rotate(180)"/><path class="cls-151" d="M178.66,1258.33H285.18a7.92,7.92,0,0,0-7.91-7.92H186.58a7.93,7.93,0,0,0-7.92,7.92Z"/><rect class="cls-152" x="162.85" y="1094.8" width="133.93" height="37.98" rx="13.08"/><path class="cls-153" d="M280.61,1107.35c23.3,32.1,16.6,66.76-30.12,90.08-3.29-3-4.21-5.79-.91-12.11,37.23-26.81,31.53-51.13,8.64-66.58Z"/><path class="cls-154" d="M232,1122c18.66,33.27,14.57,59.24-39,76.44-2.94-7.59-1.72-11.8,2.83-13.3,40.59-20.39,30.24-36.41,10.09-53.71Z"/><path class="cls-155" d="M192.92,1186.68c-1.53,6.42-.82,9.75,4.05,11.08,2.94,10.52,1.32,16.35-3.71,18.66-6.26-8.9-11-18.44-12.54-29.36C185.37,1185.34,191.81,1183.84,192.92,1186.68Z"/><path class="cls-156" d="M249.58,1185.32c-1.52,6.38-.81,9.69,4,11,2.92,10.46,1.31,16.25-3.69,18.55-6.22-8.84-10.93-18.33-12.46-29.19C242.08,1184,248.48,1182.49,249.58,1185.32Z"/><path class="cls-157" d="M182,1062.17c-3.18,21.7,6.51,49.23,23.6,71.8,12.12,1.34,25.28.18,35.44-6.21l-12.86-29.16,6.07-1.81,25.2,25.84c11.36,1.66,18.95-4.1,27.83-9.91-9.89-21.79-32.36-32-38.16-62.39Z"/><path class="cls-158" d="M228.29,1058h.3l133.94-.15a6,6,0,1,0,0-12l-133.93.15a6,6,0,0,0-.29,12Z"/><path class="cls-159" d="M267.35,1010.93s8.52,44.45,11.67,44.45,61.47-7,61.47-7v-12.66l-46.08,1.7-11.07-33Z"/><path class="cls-160" d="M243.86,1062.76h46.56s-10.57-22.72-29.92-21.6S243.86,1062.76,243.86,1062.76Z"/><path class="cls-161" d="M256.36,1058.7h-78l4.73-55.21s-5.82-41.67,20.77-46.3c15.66-4.26,15.66-4.22,15.66-4.22s20-3.11,36.8,4.28S287,1009.1,287,1009.1l-20,8-5.1-16.55Z"/><path class="cls-162" d="M212.6,1013.27a.35.35,0,0,1-.29-.15.36.36,0,0,1,.08-.51l3.22-2.41-10.35-28.65a.36.36,0,1,1,.68-.25l10.44,28.9a.36.36,0,0,1-.12.42l-3.44,2.58A.34.34,0,0,1,212.6,1013.27Z"/><path class="cls-163" d="M195.12,1021l17.48-8,15.46,27.17s43.72-6.8,51.49,1.45,4.13,8.14,3.16,8.14-5.47-4.86-5.47-4.86,3.94,5.93,1.82,6.19-7.28-5.34-7.28-5.34,4.25,7.41,1.7,6.56-4.62-4.86-4.62-4.86,3.4,4.75,1.1,4.93-5.83-3.92-5.83-3.92-5.41,2.45-8.5,2.45-34.31,7.79-39.95,4.56S195.12,1021,195.12,1021Z"/><path class="cls-164" d="M264.71,914s-2.15-6.07,3.33-7.16.26,15,.26,15Z"/><path class="cls-165" d="M220.85,930.43l-2.17,23.8s12.56,7.34,23.37.92l-1.92-20.78Z"/><path class="cls-166" d="M267.25,913.51s5.5-9.42-1.51-14.38c0,0,3.76-8.29-3.35-14.29,0,0-11.33-26.51-35.11-7.92,0,0-20.47-6.08-27.06,19.38,0,0-6.81,3.82-3.69,13.33,0,0-.77,35.29,30.14,23.39Z"/><path class="cls-167" d="M257.07,893.8s26.2,39.48-.87,51.57c-25.55,11.41-36.31-14.8-36.31-14.8s-11.24-11.64-7.46-20.6S250.68,888.9,257.07,893.8Z"/><path class="cls-168" d="M217.33,924.35s25.64-8.11,23.45-23.26c0,0,4.44.45,5.81-4.79,0,0,12.58,11.32,15.9,3.41,0,0-2.21-19.6-17.58-13.25s-29.42,12.81-33.53,17.33S203.85,919.26,217.33,924.35Z"/><path class="cls-169" d="M223.25,934.09l-4.55-12.52s-8.81-4-7.65,2.77S220.12,934.92,223.25,934.09Z"/><path class="cls-170" d="M458,1275.17a4.2,4.2,0,0,0,1.65-.34,4.14,4.14,0,0,0,2.18-5.46l-87.62-202.54a4.19,4.19,0,0,0-5.49-2.18,4.14,4.14,0,0,0-2.18,5.46l87.62,202.54A4.19,4.19,0,0,0,458,1275.17Z"/><path class="cls-171" d="M359.33,1275.17a4.19,4.19,0,0,0,3.84-2.52l87.62-202.54a4.18,4.18,0,0,0-7.68-3.28l-87.62,202.54a4.15,4.15,0,0,0,2.19,5.46A4.2,4.2,0,0,0,359.33,1275.17Z"/><path class="cls-172" d="M199.31,1275.17a4.2,4.2,0,0,0,1.65-.34,4.14,4.14,0,0,0,2.18-5.46l-87.62-202.54a4.19,4.19,0,0,0-5.49-2.18,4.14,4.14,0,0,0-2.18,5.46l87.62,202.54A4.19,4.19,0,0,0,199.31,1275.17Z"/><path class="cls-173" d="M100.6,1275.17a4.19,4.19,0,0,0,3.84-2.52l87.62-202.54a4.18,4.18,0,0,0-7.68-3.28L96.76,1269.37a4.15,4.15,0,0,0,2.19,5.46A4.2,4.2,0,0,0,100.6,1275.17Z"/><rect class="cls-174" x="60.1" y="1057.93" width="431.74" height="17.37" rx="8.09"/><path class="cls-175" d="M477.89,936.4H366.35a21.26,21.26,0,0,0-19.23,12.19l-51.57,109.34H434.17a12.91,12.91,0,0,0,12-8.17l40-101.18A8.91,8.91,0,0,0,477.89,936.4Z"/><path class="cls-98" d="M394.78,999c-2.42,7.51-.63,14.81,4,16.29s10.32-3.39,12.74-10.9.63-14.8-4-16.29S397.19,991.47,394.78,999Z"/><path class="cls-176" d="M1718.7,1245.66s2,11.13,2.93,22.15a7.6,7.6,0,0,1-7.27,8.23c-14.67.61-46.07,1.8-57.34,1.3a2.47,2.47,0,0,1-2.17-3.39h0a5.57,5.57,0,0,1,2.83-3l51.86-23.83Z"/><path class="cls-177" d="M1720.31,1239.12l-1.58,13.31s-9.09,4.23-15.29-.53l3.76-14.84Z"/><path class="cls-178" d="M1719.12,988.73c.68,3.48,3.66,173.56-14.52,249.78a2.61,2.61,0,0,0,1.52,3,45.06,45.06,0,0,0,14.81,3,4.46,4.46,0,0,0,4.42-3.2c5.2-17.69,30.1-106.29,33.35-190.92,3.63-94.58,0-3.22,0-3.22l-2.13-58.46Z"/><path class="cls-179" d="M1778.35,1251.47s3.14,5.62,6.17,20.55a4.64,4.64,0,0,1-4.08,5.55c-4.85.48-12.31,1.09-18.28,1a4.62,4.62,0,0,1-4.58-5.15c.66-5.45,2.73-14.4,9.1-21.37Z"/><path class="cls-180" d="M1781.1,1234.34l-3.69,20.14s-3.65,2.71-10.87.74l1.76-21.67Z"/><path class="cls-181" d="M1791.08,994c14.87,89.74-3.23,221.79-9.33,247.63a4,4,0,0,1-3.25,3.07,27,27,0,0,1-11.63-.47,3.69,3.69,0,0,1-2.66-3.4c-.82-20.9.66-149.17-13.2-199.87a11.49,11.49,0,0,0-4.44-6.35l-26.89-19.12-2.06-30.9Z"/><path class="cls-182" d="M1696.33,823.92c44.56-.74,93.73,11.7,93.73,11.7,13.28,77.5,2.32,166.89,2.32,166.89-34.49,9-73.41-5.53-73.41-5.53-5.73-32.39-32.48-123.56-32.48-123.56-21.78-2.7-39.71-9-54.48-17.29,11.27-13,16.58-29.67,18.88-39.49C1666.65,821.53,1682.59,824.15,1696.33,823.92Z"/><path class="cls-183" d="M1564.71,758.29a8.53,8.53,0,0,1,9.92-2.79c6.56,27.7,40.94,50.16,76.26,61.14-2.3,9.82-7.61,26.44-18.88,39.49C1573.39,823.17,1564.71,758.29,1564.71,758.29Z"/><path class="cls-184" d="M1565.78,759.63c-.46,1.46,4.84,3.67,8-2.28.11-2.85,1.85-15.08.14-17.41-9.08-12.38-26.69-27.9-26.69-27.9a4.18,4.18,0,0,0-.52,5.82l8.54,8.9c-1.79,3.23-4,6-5,9.86a12,12,0,0,0,1.19,8.81c1.5,2.7,3.55,6.21,5.48,9A11.85,11.85,0,0,0,1565.78,759.63Z"/><path class="cls-185" d="M1559,732.53l7.78,6.6,2.45,6.57-7,7.7s-2.33-13-4.06-15.86S1557.33,733.36,1559,732.53Z"/><path class="cls-186" d="M1773,878.77l17.09-43.15s41.62,28.28,48.47,64.14c-7.87.57-22.18,2.62-36.19,9.69C1799.26,892.52,1773,878.77,1773,878.77Z"/><path class="cls-187" d="M1736.6,919.37s46.73,26.41,62.49,3.86a17.7,17.7,0,0,0,3.25-13.78c14-7.07,28.32-9.12,36.19-9.69a49.51,49.51,0,0,1-5.38,33.92c-27.62,50.52-102.74-2.79-102.74-2.79Z"/><path class="cls-188" d="M1742.21,952.78l-25.5-89.07a2.61,2.61,0,0,0-2.2-1.87c-4.62-.54-18-2.05-33.47-3.36-18.62-1.57-40.24-2.85-53.17-1.76a2.61,2.61,0,0,0-2.13,3.75c7.35,14.86,37.58,75.34,52.71,95.15a2.61,2.61,0,0,0,2.11,1l59.17-.55A2.61,2.61,0,0,0,1742.21,952.78Z"/><path class="cls-189" d="M1678.4,850.76l-18.49-3.08a1.33,1.33,0,0,0-1.48,1.73l1.83,5.54a1.32,1.32,0,0,0,1.08.9l17.8,2.38a1.32,1.32,0,0,0,1.46-1.62l-1.13-4.84A1.34,1.34,0,0,0,1678.4,850.76Z"/><path class="cls-190" d="M1692.24,866.42l-1.52-7.94a1.84,1.84,0,0,0-1.62-1.48l-37.34-3.79a1.84,1.84,0,0,0-2,2.26l2.37,9.88a1.84,1.84,0,0,0,1.69,1.41l36.5,1.83A1.83,1.83,0,0,0,1692.24,866.42Z"/><path class="cls-191" d="M1736.05,931.26s3.55-14.61,2.12-19.79-4.21-11.85-13.47-10.37a135.43,135.43,0,0,0-20.17,5.38s.55,6.75,7.59,4.58l-4.36,3.37s.62,5.41,6.56,2.52l-4.06,4.47s2.56,4.44,6.93,1.6S1723.65,933,1736.05,931.26Z"/><path class="cls-192" d="M1741.47,787.75l14.18,41a1.49,1.49,0,0,1-.68,1.78c-3.86,2.13-17.79,8.31-34.57-2.33a7,7,0,0,1-3.2-5l-4.59-35.48Z"/><path class="cls-193" d="M1710.62,749.78s-15.57,29.3-13.57,41.14,21.29,11,38.14,1.38L1747,760.65Z"/><path class="cls-194" d="M1734.44,776.75a1.2,1.2,0,0,1-.53-1.76c1.25-1.91,3.59-5.8,4.34-9.2,0,0,2.79-1.79-7.13-4.17s-24.72-6.06-27.83-14.5c-3-8.24,4.94-29,17.65-12.45a1.21,1.21,0,0,0,1.91,0c2.09-2.72,7.57-8.35,15.17-4.93,7.12,3.19,7.92,8.41,7.82,11a1.21,1.21,0,0,0,1.43,1.23c3.59-.69,12.23-1.28,16.26,7.58,3.32,7.3,1.16,11.43-.8,13.45a1.2,1.2,0,0,0,.51,2c2.37.72,5.42,2.72,5.12,8.27-.43,7.66-9,7-11.43,6.63a1.19,1.19,0,0,0-1.07.38c-2.09,2.32-11.51,12.14-21.71,13.32a1.22,1.22,0,0,1-1.28-1.61l4.42-12.82a1.22,1.22,0,0,0-.66-1.51Z"/><path class="cls-195" d="M1732.67,778.58s11.08-7.61,11.89-1.21-10,9.28-15.32,6.89Z"/></g></g></svg>