<svg xmlns="http://www.w3.org/2000/svg" viewBox="0 0 319.42 396.86"><defs><style>.cls-1,.cls-3{fill:#fff;}.cls-2,.cls-5{fill:#231f20;}.cls-3{font-size:45.2px;}.cls-3,.cls-5{font-family:BerlinSansFB-Reg, Berlin Sans FB;}.cls-4{fill:#e13327;}.cls-5{font-size:16px;}</style></defs><g id="Layer_2" data-name="Layer 2"><g id="Layer_1-2" data-name="Layer 1"><path class="cls-1" d="M29,160.74s17.25-59.25,85-75.13V36.24h9.63V84a298.55,298.55,0,0,1,73.5.12V36.24h9.12V86.11s58.63,8.75,84.38,74.63c0,0,19.75-7.44,28.43,14.78a4.88,4.88,0,0,1,.32,1.74v40.07a5.2,5.2,0,0,1-.14,1.17c-.71,3-4.65,15.71-20.74,15.49l-.19,47.18h-277V234.11S4.57,235.9.15,216.48A6.69,6.69,0,0,1,0,215.07V177.83a5.87,5.87,0,0,1,.21-1.56C1.34,172.22,7.44,155.25,29,160.74Z"/><circle class="cls-1" cx="118.78" cy="18.68" r="18.68"/><circle class="cls-1" cx="202.09" cy="18.68" r="18.68"/><circle class="cls-2" cx="98.86" cy="196.61" r="20"/><circle class="cls-2" cx="221.71" cy="196.61" r="20"/><text class="cls-3" transform="translate(60.55 340.15) scale(0.85 1)">NNOVENT</text><path class="cls-4" d="M48.4,302.15c3.42-8.11,3.65-9.4-2.62-10.18L43,291.62a1.23,1.23,0,0,1,.68-2.15c4.57.17,8.45.26,13.24.26s8.21-.09,13.69-.26a1.19,1.19,0,0,1,0,2.15l-3.08.35c-6.62.78-7.08,1.64-10.61,10.18L43.61,334.24c-3.31,8-3.65,9.83,2.17,10.27l3.53.25a1.36,1.36,0,0,1-.45,2.16c-5.59-.17-9.47-.26-14.38-.26-4.67,0-8.55.09-13.11.26a1.23,1.23,0,0,1-.12-2.16l3.54-.25c5.47-.44,6.61-1.47,10.27-10.27Z"/><rect class="cls-1" x="20.67" y="359.99" width="276.67" height="36.88"/><polygon class="cls-4" points="240.71 295.78 263.33 318.19 240.71 340.15 237.33 337.44 258 318.19 237.33 298.74 240.71 295.78"/><polygon class="cls-4" points="258.67 336.44 267.67 327.61 287.83 347.61 291 344.44 267.83 322.11 255.5 333.61 258.67 336.44"/><polygon class="cls-4" points="295.67 293.78 272.33 317.96 284 329.94 287 327.44 278 317.96 298.33 296.78 295.67 293.78"/><polygon class="cls-4" points="255.92 302.17 259.17 299.61 267.17 307.44 281.5 293.94 284.33 296.61 267.83 312.94 255.92 302.17"/><text class="cls-5" transform="translate(46 384.12)">LEARN | IMPLEMENT | INNOVATE</text></g></g></svg>