<svg xmlns="http://www.w3.org/2000/svg" viewBox="0 0 1851.72 1080"><defs><style>.cls-1{isolation:isolate;}.cls-2{fill:#1e1316;}.cls-3{fill:#fdf6d0;}.cls-4{fill:#bed4d6;}.cls-5{fill:#636352;}.cls-6{fill:#81826d;}.cls-7{fill:#898975;}.cls-8{fill:#fdf2e9;}.cls-9{fill:#3c2832;}.cls-10{fill:#624452;}.cls-11{fill:#543947;}.cls-12{fill:#684658;}.cls-13{fill:#795966;}.cls-14{fill:#f7eab8;}.cls-15{fill:#f2d4a5;}.cls-16{fill:#fff8e0;}.cls-17{fill:#fdb981;}.cls-18{fill:#873b3f;}.cls-19{fill:#772d33;}.cls-20{fill:#fd9b66;}.cls-21{fill:#ff3c6a;}.cls-22{fill:#f2d3a2;}.cls-23{fill:#ff5b77;}.cls-24{fill:#503f56;}.cls-25{fill:#645069;}.cls-26{fill:#eb507d;}.cls-27{fill:#eb7656;}.cls-28{fill:#604747;}.cls-29{fill:#422d2e;}.cls-30{fill:#fdf2d5;}.cls-31{fill:#d0c299;}.cls-32{fill:#664d4f;}.cls-33{fill:#563f41;}.cls-34{fill:#d4caa9;}.cls-35{fill:#e3d9b9;}.cls-36{fill:#b2b219;}.cls-37{fill:#c2b793;}.cls-38{fill:#aea178;}.cls-39{fill:#f0ead4;}.cls-40{fill:#c7c94c;}.cls-41{fill:#a78590;}.cls-42{fill:#91757d;}.cls-43{fill:#372025;}.cls-44{fill:#55363b;}.cls-45{fill:#6b4a4d;}.cls-46{fill:#7c555b;}.cls-47{fill:#ac939b;}.cls-48{fill:#c0abb2;}.cls-49{fill:#67414c;}.cls-50{fill:#724954;}.cls-51{fill:#5b3945;}.cls-52{fill:#ffb85e;}.cls-53{fill:#fbc979;}.cls-54{fill:#7b595d;}.cls-55{fill:#906c72;}.cls-56{fill:#ffe0b0;}.cls-57{fill:#f5a448;}.cls-58{fill:#f24255;}.cls-59{fill:#65475b;}.cls-60{fill:#5b3c52;}.cls-61{fill:#d9cfb1;}.cls-62{fill:#da2a45;}.cls-63,.cls-70{fill:#efe7d0;}.cls-63{mix-blend-mode:overlay;}.cls-64{fill:#e3d9bc;}.cls-65{fill:#8d7887;}.cls-66{fill:#e6e1ce;}.cls-67{fill:#df2c4f;}.cls-68{fill:#803d43;}.cls-69{fill:#74313a;}.cls-71{fill:#f5efde;}.cls-72{fill:#d5cdb5;}.cls-73{fill:#9c3e23;}.cls-74{fill:#412931;}.cls-75{fill:#fdedda;}.cls-76{fill:#ffecdd;}.cls-77{fill:#aa8489;}.cls-78{fill:#975d64;}.cls-79{fill:#ffa63f;}.cls-80{fill:#654754;}.cls-81{fill:#4b343f;}.cls-82{fill:#ece4bd;}.cls-83{fill:#ebd3a8;}.cls-84{fill:#563d48;}.cls-85{fill:#894f58;}.cls-86{fill:#fcdcb1;}.cls-87{fill:#cdb3b7;}.cls-88{fill:#cd3849;}.cls-89{fill:#a5a019;}.cls-90{fill:#513743;}.cls-91{fill:#ab9779;}.cls-92{fill:#ebc787;}.cls-93{fill:#b92c42;}.cls-94{fill:#ffad4c;}.cls-95{fill:#f6e6bf;}.cls-96{fill:#f4d8a0;}.cls-97{fill:#bcbc37;}.cls-98{fill:#fceed3;}.cls-99{fill:#7f3727;}.cls-100{fill:#6d2a1e;}.cls-101{fill:#c777c4;}.cls-102{fill:#a05b9b;}.cls-103{fill:#eacb9a;}.cls-104{fill:#f6d9b0;}.cls-105{fill:#f0e5bf;}.cls-106{fill:#644c50;}.cls-107{fill:#573c43;}.cls-108{fill:#8b6870;}.cls-109{fill:#f7e3d6;}.cls-110{fill:#503c40;}.cls-111{fill:#e8d084;}.cls-112{fill:#f6edd2;}.cls-113{fill:#ebd4a1;}.cls-114{fill:#61529e;}.cls-115{fill:#7965ad;}.cls-116{fill:#b14656;}.cls-117{fill:#a0374a;}.cls-118{fill:#4e4281;}.cls-119{fill:#eed8a8;}.cls-120{fill:#fff6e2;}</style></defs><g class="cls-1"><g id="Layer_2" data-name="Layer 2"><g id="Layer_1-2" data-name="Layer 1"><path class="cls-2" d="M523.25,50.1c0-.7,0-1.4,0-2.12,0-12.16-4-22-8.93-22s-8.93,9.86-8.93,22c0,.72,0,1.42,0,2.12Z"/><path class="cls-2" d="M514.89,26c1.83,4.83,2.46,13,1.4,22.3-.07.6-.15,1.19-.23,1.78h7.19c0-.7,0-1.4,0-2.12C523.29,36.26,519.58,26.71,514.89,26Z"/><path class="cls-2" d="M286.39,50.1c0-.7,0-1.4,0-2.12,0-12.16-4-22-8.93-22s-8.93,9.86-8.93,22c0,.72,0,1.42,0,2.12Z"/><path class="cls-2" d="M278.22,26c1.83,4.83,2.46,13,1.4,22.3-.07.6-.15,1.19-.23,1.78h7.19c0-.7,0-1.4,0-2.12C286.62,36.26,282.9,26.71,278.22,26Z"/><rect class="cls-2" x="512.34" width="2.31" height="35.61"/><rect class="cls-2" x="276.63" width="2.31" height="35.61"/><path class="cls-3" d="M558.83,51.5H226.31L232,62c2.9,5.34,7.79,8.55,13,8.55H538.5c4.85,0,9.43-2.67,12.49-7.27Z"/><path class="cls-2" d="M557.86,44.06H228.62c-9.63,0-13.84,7.75-12.68,16.9H567.77C568.92,55.74,566.91,44,557.86,44.06Z"/><path class="cls-2" d="M267.63,61H569.79c1.44-6.24-1.35-15-11.93-15H265.22Z"/><path class="cls-2" d="M224.6,54.12c.8-2.53.4-4.94-.88-5.38s-3,1.25-3.77,3.78-.4,4.95.89,5.39S223.81,56.66,224.6,54.12Z"/><rect class="cls-4" x="675.64" y="207.61" width="703.33" height="433.74"/><rect class="cls-5" x="691.37" y="217.31" width="671.86" height="414.34"/><rect class="cls-6" x="700" y="222.64" width="654.6" height="403.69"/><polygon class="cls-7" points="1279.51 222.64 897.47 222.64 775.1 626.33 1157.14 626.33 1279.51 222.64"/><path class="cls-8" d="M755.74,376.25q8.75,0,13.8,5.05t5.05,14.05v13.42c0,3.87-.57,6.86-1.7,9a10.36,10.36,0,0,1-5,4.68,11.18,11.18,0,0,1,5.47,4.8q1.95,3.33,2,9.24v36.22H764.25V436.12c0-3-.59-5.19-1.76-6.46s-3.47-1.91-6.88-1.91h-8.27v45h-11V376.25ZM747.34,418h7.54c3.33,0,5.62-.67,6.88-2s1.88-3.59,1.88-6.71V396.7q0-9.74-8.76-9.73h-7.54Z"/><path class="cls-8" d="M824.1,455.09a20.73,20.73,0,0,1-1.52,8.14,17.88,17.88,0,0,1-4.2,6.09,17.66,17.66,0,0,1-6.26,3.82,22.35,22.35,0,0,1-7.6,1.3,22.68,22.68,0,0,1-7.73-1.3,17.07,17.07,0,0,1-6.2-3.82,18.16,18.16,0,0,1-4.14-6.09,20.55,20.55,0,0,1-1.52-8.14V393.87a20.46,20.46,0,0,1,1.52-8.13,17.66,17.66,0,0,1,4.14-6,18.54,18.54,0,0,1,6.2-3.82,21.77,21.77,0,0,1,7.73-1.35,21.45,21.45,0,0,1,7.6,1.35,19.23,19.23,0,0,1,6.26,3.82,17.39,17.39,0,0,1,4.2,6,20.64,20.64,0,0,1,1.52,8.13ZM796,455c0,2.8.79,4.91,2.37,6.35a9.86,9.86,0,0,0,12.29,0c1.58-1.44,2.37-3.55,2.37-6.35V394q0-4.19-2.37-6.34a9.82,9.82,0,0,0-12.29,0Q796,389.81,796,394Z"/><path class="cls-8" d="M854,376.25q8.76,0,13.81,5.05t5,14.05v13.42q0,5.93-1.7,9.18A10.14,10.14,0,0,1,866,422.7a11.51,11.51,0,0,1,6,4.92q2.05,3.45,2.06,9.86v15.4q0,9.6-5.11,14.72T855,472.71H834.68V376.25Zm-8.39,41.89h7.78q4.64,0,6.57-2t1.95-7V396.7a11.12,11.12,0,0,0-2.07-7.14q-2.07-2.6-6.69-2.59h-7.54Zm0,43.85h8.52q8.75,0,8.75-9.85V437.36c0-3.45-.65-5.9-1.94-7.33s-3.57-2.16-6.81-2.16h-8.52Z"/><path class="cls-8" d="M922.14,455.09a20.55,20.55,0,0,1-1.52,8.14,17.63,17.63,0,0,1-10.46,9.91,22.31,22.31,0,0,1-7.6,1.3,22.68,22.68,0,0,1-7.73-1.3,17.07,17.07,0,0,1-6.2-3.82,18.31,18.31,0,0,1-4.14-6.09,20.73,20.73,0,0,1-1.52-8.14V393.87a20.64,20.64,0,0,1,1.52-8.13,17.8,17.8,0,0,1,4.14-6,18.54,18.54,0,0,1,6.2-3.82,21.77,21.77,0,0,1,7.73-1.35,21.41,21.41,0,0,1,7.6,1.35,19.38,19.38,0,0,1,6.27,3.82,17.37,17.37,0,0,1,4.19,6,20.46,20.46,0,0,1,1.52,8.13ZM894,455c0,2.8.79,4.91,2.38,6.35a9.84,9.84,0,0,0,12.28,0c1.58-1.44,2.37-3.55,2.37-6.35V394q0-4.19-2.37-6.34a9.81,9.81,0,0,0-12.28,0Q894,389.81,894,394Z"/><path class="cls-8" d="M960.34,376.25v11h-10.7v85.49H938.45V387.22H927.74v-11Z"/><path class="cls-8" d="M979.56,376.25v96.46H968.37V376.25Z"/><path class="cls-8" d="M1001.21,455.09c0,2.8.75,4.89,2.25,6.29a8.3,8.3,0,0,0,5.9,2.09,8.5,8.5,0,0,0,6-2.09c1.54-1.4,2.32-3.49,2.32-6.29v-2l10.33-2.71v4.93a19.71,19.71,0,0,1-1.52,8,18.92,18.92,0,0,1-4.07,6,16.68,16.68,0,0,1-6,3.82,21.3,21.3,0,0,1-7.48,1.3,20.42,20.42,0,0,1-7.3-1.3,16.79,16.79,0,0,1-6-3.82,18.16,18.16,0,0,1-4-6,20.6,20.6,0,0,1-1.46-8V393.62a20.58,20.58,0,0,1,1.46-7.94,18.21,18.21,0,0,1,4-6,16.72,16.72,0,0,1,6.08-3.82,22.48,22.48,0,0,1,7.78-1.29q8.52,0,13.51,5.11t5,14v3.21h-10.33v-3c0-2.79-.72-4.89-2.13-6.28a8,8,0,0,0-5.9-2.1,8.66,8.66,0,0,0-6.15,2.1c-1.5,1.39-2.25,3.49-2.25,6.28Z"/><path class="cls-8" d="M1054.49,374.53q8.64,0,13.5,5.17t4.87,13.68v3.45h-10.34v-2.59a9.64,9.64,0,0,0-2.19-6.65,7.7,7.7,0,0,0-6.08-2.47q-4.5,0-6.63,3a12.39,12.39,0,0,0-2.13,7.33,17.65,17.65,0,0,0,1.28,6.71,32.52,32.52,0,0,0,3.71,6.59c1,1.57,2.37,3.37,4,5.43s3.2,4.21,4.87,6.46,3.26,4.48,4.8,6.66,2.88,4.16,4,6a39.23,39.23,0,0,1,4.07,8.62,31.36,31.36,0,0,1,1.28,9.37q0,10.71-4.62,16.93t-14.48,6.23a22.78,22.78,0,0,1-8.45-1.48,18.46,18.46,0,0,1-6.27-4,17.54,17.54,0,0,1-4-6,19.52,19.52,0,0,1-1.4-7.39v-5.18l10.34,2.71v2.34a8.64,8.64,0,0,0,2.37,6,8.52,8.52,0,0,0,6.63,2.59q4.62,0,6.87-3t2.25-8.38a23.49,23.49,0,0,0-1-6.77,31.31,31.31,0,0,0-3.71-7.64c-.89-1.39-2-3-3.34-4.68l-4.2-5.42q-2.19-2.83-4.32-5.73t-3.83-5.6a50,50,0,0,1-5.66-11.77,34.45,34.45,0,0,1-1.52-9.79q0-9.62,5.29-15.22T1054.49,374.53Z"/><path class="cls-8" d="M1115.68,455.09c0,2.8.75,4.89,2.25,6.29a8.3,8.3,0,0,0,5.9,2.09,8.52,8.52,0,0,0,6-2.09c1.54-1.4,2.31-3.49,2.31-6.29v-2l10.34-2.71v4.93a19.88,19.88,0,0,1-1.52,8,18.92,18.92,0,0,1-4.07,6,16.77,16.77,0,0,1-6,3.82,21.36,21.36,0,0,1-7.49,1.3,20.37,20.37,0,0,1-7.29-1.3,16.83,16.83,0,0,1-6-3.82,18.14,18.14,0,0,1-4-6,20.6,20.6,0,0,1-1.46-8V393.62a20.58,20.58,0,0,1,1.46-7.94,18.18,18.18,0,0,1,4-6,16.76,16.76,0,0,1,6.09-3.82,22.48,22.48,0,0,1,7.78-1.29q8.52,0,13.5,5.11t5,14v3.21H1132.1v-3c0-2.79-.71-4.89-2.13-6.28a8,8,0,0,0-5.9-2.1,8.65,8.65,0,0,0-6.14,2.1c-1.5,1.39-2.25,3.49-2.25,6.28Z"/><path class="cls-8" d="M1162.51,376.25v85.5h17.88v11h-29.07V376.25Z"/><path class="cls-8" d="M1212.14,376.25l16.55,96.46h-10.83l-2.19-13.92h-17.76l-2.07,13.92H1185l16-96.46Zm-12.77,73.05h14.84L1206.67,401Z"/><path class="cls-8" d="M1253.5,374.53q8.64,0,13.5,5.17t4.87,13.68v3.45h-10.34v-2.59a9.64,9.64,0,0,0-2.19-6.65,7.7,7.7,0,0,0-6.08-2.47q-4.5,0-6.63,3a12.39,12.39,0,0,0-2.13,7.33,17.65,17.65,0,0,0,1.28,6.71,32.52,32.52,0,0,0,3.71,6.59c1,1.57,2.37,3.37,4,5.43s3.2,4.21,4.87,6.46,3.26,4.48,4.8,6.66,2.88,4.16,4,6a39.23,39.23,0,0,1,4.07,8.62,31.36,31.36,0,0,1,1.28,9.37q0,10.71-4.62,16.93t-14.48,6.23a22.78,22.78,0,0,1-8.45-1.48,18.46,18.46,0,0,1-6.27-4,17.54,17.54,0,0,1-4-6,19.52,19.52,0,0,1-1.4-7.39v-5.18l10.34,2.71v2.34a8.64,8.64,0,0,0,2.37,6,8.52,8.52,0,0,0,6.63,2.59q4.62,0,6.87-3t2.25-8.38a23.49,23.49,0,0,0-1-6.77,31.31,31.31,0,0,0-3.71-7.64c-.89-1.39-2-3-3.34-4.68l-4.2-5.42q-2.19-2.83-4.32-5.73t-3.83-5.6a50,50,0,0,1-5.66-11.77,34.45,34.45,0,0,1-1.52-9.79q0-9.62,5.29-15.22T1253.5,374.53Z"/><path class="cls-8" d="M1299.24,374.53q8.64,0,13.5,5.17t4.87,13.68v3.45h-10.34v-2.59a9.64,9.64,0,0,0-2.19-6.65,7.7,7.7,0,0,0-6.08-2.47q-4.5,0-6.63,3a12.39,12.39,0,0,0-2.13,7.33,17.47,17.47,0,0,0,1.28,6.71,32.52,32.52,0,0,0,3.71,6.59c1,1.57,2.37,3.37,4,5.43s3.2,4.21,4.87,6.46,3.26,4.48,4.8,6.66,2.88,4.16,4,6a39.23,39.23,0,0,1,4.07,8.62,31.36,31.36,0,0,1,1.28,9.37q0,10.71-4.63,16.93t-14.47,6.23a22.87,22.87,0,0,1-8.46-1.48,18.51,18.51,0,0,1-6.26-4,17.54,17.54,0,0,1-4-6,19.33,19.33,0,0,1-1.4-7.39v-5.18l10.34,2.71v2.34a8.64,8.64,0,0,0,2.37,6,8.52,8.52,0,0,0,6.63,2.59q4.62,0,6.87-3t2.25-8.38a23.49,23.49,0,0,0-1-6.77,31.31,31.31,0,0,0-3.71-7.64c-.9-1.39-2-3-3.35-4.68l-4.19-5.42q-2.19-2.83-4.32-5.73t-3.83-5.6a50,50,0,0,1-5.66-11.77,34.1,34.1,0,0,1-1.52-9.79q0-9.62,5.29-15.22T1299.24,374.53Z"/><path class="cls-2" d="M1666.63,50.1c0-.7,0-1.4,0-2.12,0-12.16-3.93-22-8.79-22s-8.79,9.86-8.79,22c0,.72,0,1.42,0,2.12Z"/><path class="cls-2" d="M1658.41,26c1.79,4.83,2.41,13,1.37,22.3-.07.6-.15,1.19-.23,1.78h7.08c0-.7,0-1.4,0-2.12C1666.67,36.26,1663,26.71,1658.41,26Z"/><path class="cls-2" d="M1433.47,50.1c0-.7,0-1.4,0-2.12,0-12.16-3.94-22-8.79-22s-8.8,9.86-8.8,22c0,.72,0,1.42,0,2.12Z"/><path class="cls-2" d="M1425.43,26c1.8,4.83,2.42,13,1.37,22.3-.06.6-.15,1.19-.23,1.78h7.09c0-.7,0-1.4,0-2.12C1433.7,36.26,1430,26.71,1425.43,26Z"/><rect class="cls-2" x="1655.9" width="2.27" height="35.61"/><rect class="cls-2" x="1423.87" width="2.27" height="35.61"/><path class="cls-3" d="M1701.66,51.5H1374.32L1380,62c2.86,5.34,7.67,8.55,12.82,8.55h288.87c4.76,0,9.28-2.67,12.29-7.27Z"/><path class="cls-2" d="M1700.7,44.06H1376.61c-9.48,0-13.63,7.75-12.5,16.9h346.35C1711.59,55.74,1709.61,44,1700.7,44.06Z"/><path class="cls-2" d="M1415,61h297.44c1.42-6.24-1.32-15-11.74-15H1412.63Z"/><path class="cls-2" d="M1372.65,54.12c.78-2.53.39-4.94-.88-5.38s-2.92,1.25-3.71,3.78-.39,4.95.88,5.39S1371.86,56.66,1372.65,54.12Z"/><path class="cls-9" d="M741.69,1063.67c0,8.37,6.24,15.15,13.93,15.15s13.94-6.78,13.94-15.15-6.24-15.15-13.94-15.15S741.69,1055.31,741.69,1063.67Z"/><path class="cls-9" d="M821.21,1063.67c0,8.37,6.24,15.15,13.93,15.15s13.94-6.78,13.94-15.15-6.24-15.15-13.94-15.15S821.21,1055.31,821.21,1063.67Z"/><rect class="cls-9" x="728.84" y="1056.08" width="102.61" height="13.02"/><path class="cls-10" d="M764.58,905.49a98.19,98.19,0,0,1,25.74,34.21c6.22,13.67,8,28.29,11.49,42.84.38,1.62,4.49,2.47,4.07.73-3.59-15.09-7.22-30.35-13.79-44.48a102,102,0,0,0-26.46-34.73C764.23,902.87,764.58,905.49,764.58,905.49Z"/><path class="cls-10" d="M792.49,971a7.3,7.3,0,1,0,7.29-7.29A7.29,7.29,0,0,0,792.49,971Z"/><path class="cls-11" d="M787,1063.67c0,8.37,6.23,15.15,13.93,15.15s13.93-6.78,13.93-15.15-6.24-15.15-13.93-15.15S787,1055.31,787,1063.67Z"/><path class="cls-9" d="M790.67,1063.93c0,4.37,3.26,7.91,7.27,7.91s7.28-3.54,7.28-7.91S802,1056,797.94,1056,790.67,1059.57,790.67,1063.93Z"/><path class="cls-11" d="M710.79,1063.67c0,8.37,6.23,15.15,13.93,15.15s13.93-6.78,13.93-15.15-6.24-15.15-13.93-15.15S710.79,1055.31,710.79,1063.67Z"/><path class="cls-12" d="M753.24,984H729.75a9.64,9.64,0,0,0-9.29,8.34L713.39,1051h31.77Z"/><path class="cls-13" d="M756.54,969.45h61.67a2,2,0,0,1,2,2V995a0,0,0,0,1,0,0H754.56a0,0,0,0,1,0,0V971.43A2,2,0,0,1,756.54,969.45Z"/><path class="cls-9" d="M715,1063.93c0,4.37,3.26,7.91,7.28,7.91s7.27-3.54,7.27-7.91-3.25-7.91-7.27-7.91S715,1059.57,715,1063.93Z"/><path class="cls-14" d="M705.06,1060.76H857.15L835.84,995.4a11.08,11.08,0,0,0-8.91-7.51l-77.47-11.31a11,11,0,0,0-11.78,6.65Z"/><path class="cls-15" d="M835.84,995.4a11.08,11.08,0,0,0-8.91-7.51l-77.47-11.31a11,11,0,0,0-8.77,2.56l59.94,8.75a11.05,11.05,0,0,1,8.9,7.51l21.32,65.36h26.3Z"/><rect class="cls-13" x="699.85" y="1056.08" width="161.99" height="9.38" rx="1.07"/><path class="cls-16" d="M744.25,991.83c1.39-3.67,4.79-6.05,8.29-5.76l-3.81-1.76a8,8,0,0,0-8.55,4.83l-21.71,51.59a3.39,3.39,0,0,0,3.12,4.7h0a3.39,3.39,0,0,0,3.17-2.19Z"/><path class="cls-16" d="M773.41,988.89c.09-1.09-.14-2-14.12-3.7s-14.37-.84-14.47.25.14,2,14.12,3.7S773.31,990,773.41,988.89Z"/><path class="cls-16" d="M787.82,990.35c.1-1.14.07-2.08-4.8-2.5s-5.06.5-5.16,1.65-.07,2.08,4.8,2.5S787.72,991.5,787.82,990.35Z"/><path class="cls-10" d="M761.42,904.72a3.61,3.61,0,1,0,3.6-3.6A3.6,3.6,0,0,0,761.42,904.72Z"/><polygon class="cls-10" points="823.08 1043.49 766.13 1043.49 767.3 1046.88 824.25 1046.88 823.08 1043.49"/><polygon class="cls-10" points="849.94 1043.49 826.77 1043.49 827.94 1046.88 851.12 1046.88 849.94 1043.49"/><path class="cls-17" d="M677.31,731.46c4.43-5.61,7.14-13.18,9.83-13.49s9.41,7.72,3.59,12.23-15.51,8-15.51,8Z"/><path class="cls-17" d="M677.11,730c3.45-7,2.91-21.15,4.6-21.42s3.4,16.37,2.09,18.5S675.73,732.8,677.11,730Z"/><path class="cls-17" d="M679.23,725.6c10.52-7.44,12.5-19,13.76-19.45s1,8.9-4,14.73S679.23,725.6,679.23,725.6Z"/><path class="cls-17" d="M680.94,728.72c11.16-6.29,15.58-19,17.15-19.42s-1.2,9.81-7,14.92C685.9,728.86,680.94,728.72,680.94,728.72Z"/><path class="cls-17" d="M682.56,733.24c11.87-7.22,15.64-16.94,16.64-17.1s-.88,7-5.75,11.67C687.78,733.23,682.56,733.24,682.56,733.24Z"/><path class="cls-18" d="M642.55,641.12c19.27-46.88-32.29-79.69-84.49-75.27-17,1.45-31.81,13.65-40.85,28.15s-12.78,31.78-13.65,48.85c-.36,7-.27,14.2-2.32,20.94-4.28,14.14-17,23.83-25.47,35.92-15.89,22.55-16.51,52.34-13.56,79.77.52,4.9,1.18,9.91,3.36,14.33s6.2,8.24,11.09,8.9a55.56,55.56,0,0,0,23,41.72c13.76,9.75,31.3,12.63,48.16,12.48,8.7-.08,17.63-.95,25.43-4.8s14.33-11.18,15.2-19.84l.72,1.59a25.69,25.69,0,0,0,33.1-37c-.79-1.21-1.71-2.44-1.76-3.88-.09-2.44,2.24-4.17,4.25-5.55,7.81-5.33,14.85-12.59,17.25-21.73,1.79-6.82.84-14,.42-21.06C640.41,710,629.36,673.22,642.55,641.12Z"/><path class="cls-19" d="M642.55,641.12a49.83,49.83,0,0,0,4-23.14c0,.58,0,1.15,0,1.74a64.36,64.36,0,0,1-128.59-5.54,63.51,63.51,0,0,1,13.82-36.9A69.41,69.41,0,0,0,517.21,594c-9,14.5-12.78,31.78-13.65,48.85-.36,7-.27,14.2-2.32,20.93-4.28,14.15-17,23.84-25.47,35.93-15.89,22.55-16.51,52.34-13.56,79.77.52,4.9,1.18,9.91,3.36,14.33s6.2,8.24,11.09,8.9a55.56,55.56,0,0,0,23,41.72c13.76,9.75,31.3,12.63,48.16,12.48,8.7-.08,17.63-.95,25.43-4.8s14.33-11.18,15.2-19.84l.72,1.59a25.69,25.69,0,0,0,33.1-37c-.79-1.21-1.71-2.44-1.76-3.88-.09-2.44,2.24-4.17,4.25-5.55,7.81-5.33,14.85-12.59,17.25-21.73,1.79-6.82.84-14,.42-21.06C640.41,710,629.36,673.22,642.55,641.12Z"/><path class="cls-17" d="M571,740.78c19.07,18.59,55.74,33.92,61.89,34.53s56.61-48,57.32-52.83-56.08,35.38-61.47,34.06-40.73-31.4-45.86-32.73S565.64,735.59,571,740.78Z"/><path class="cls-20" d="M622.19,759.62a32.47,32.47,0,0,1,.47-6.65c-11.87-8.29-35.68-28.08-39.82-29.16-5.12-1.34-17.2,11.78-11.87,17C586.58,756,614,769,626.78,773.59A26,26,0,0,1,622.19,759.62Z"/><path class="cls-21" d="M593.86,780.27l21.21-36.18s-25.73-37.05-37.52-33.3S556.52,737.69,593.86,780.27Z"/><polygon class="cls-22" points="589.6 776.37 614.25 740.43 616.68 744.25 594.46 783.14 589.6 776.37"/><path class="cls-17" d="M588.38,857.28c-.69,2.08-8.33,188.21-3.47,218.07,0,0,48.61-169.46,52.09-217.38S588.38,857.28,588.38,857.28Z"/><path class="cls-20" d="M612.61,973.18C624.21,928,635.4,880.06,637,858c3.47-47.92-48.62-.69-48.62-.69-.43,1.3-3.57,74.31-4.69,136.26A109.54,109.54,0,0,1,612.61,973.18Z"/><path class="cls-14" d="M574.49,848.25c-2.08,6.6-5.55,100.35-5.55,100.35l67,6.26s8.34-70.15,8.69-114.25C631.21,827.39,604,840.24,574.49,848.25Z"/><path class="cls-22" d="M629,881.24c-5.2-6.24-25-41-54.52-33-2.08,6.6-5.55,100.35-5.55,100.35l56.25,5.25C625.88,936.09,634.23,887.49,629,881.24Z"/><polygon class="cls-22" points="627.45 896.17 638.56 884.88 624.32 885.75 612.51 885.41 627.45 896.17"/><path class="cls-17" d="M576.58,857.28c-.7,2.08-8.34,188.21-3.48,218.07,0,0,48.14-169.49,52.09-217.38C629.31,808.12,576.85,856.47,576.58,857.28Z"/><path class="cls-20" d="M576.58,857.28c-.45,1.35-3.83,80.11-4.81,143.46,9.51-16.32,20.58-28.25,30.23-33.06,11-43.57,21.44-88.53,23.19-109.71C629.31,808.12,576.85,856.47,576.58,857.28Z"/><path class="cls-14" d="M559.91,843.39c-2.09,6.6-1,107-1,107l63.76-6.84s6.73-64.86,13.32-107.75C622.53,822.53,589.39,835.38,559.91,843.39Z"/><path class="cls-22" d="M578.92,929.09C593.59,892,615.12,875,643.51,871c1.37-12.81,1.38-20.15,1.47-31.77-13.43-13.22-55.59-3.84-85.07,4.17-2.09,6.6-1,107-1,107l15-1.61A89.36,89.36,0,0,1,578.92,929.09Z"/><path class="cls-23" d="M557.09,879.72c27.46-1.29,87.59-19.41,92.14-21S616.1,727.76,580,709.83c-12.14-6-34.38-2.32-30.33,23.06C558.3,787,557.09,879.72,557.09,879.72Z"/><path class="cls-21" d="M563.55,708.66a12.91,12.91,0,0,0-7.81,2.93c-4.83,3.91-7.76,10.69-6.07,21.3,8.63,54.1,7.42,146.83,7.42,146.83,8.44-.4,20-2.39,32-5,4.53-17.51,7.25-39.75,7.25-64C596.37,754.37,581.68,708.66,563.55,708.66Z"/><path class="cls-24" d="M686.83,720.31a116.41,116.41,0,0,0,8.89,10.57,3.48,3.48,0,0,0,3.54.81c1.14-.6.64-1.64,0-2.37-.2-.21-.39-.42-.59-.62s.25.26,0,0l-.26-.28-1.08-1.19c-.73-.83-1.45-1.66-2.16-2.51-1.39-1.67-2.74-3.38-4-5.13a3.78,3.78,0,0,0-3.44-1.39,1.25,1.25,0,0,0-.84,2.1Z"/><path class="cls-25" d="M658.41,756.29c2,6,14.55,18.46,17.47,18.52s50-37.94,50.71-41.5-11.93-19.7-14.85-20.09S657.17,752.6,658.41,756.29Z"/><path class="cls-24" d="M716.66,723.44c-2-2.44-4.95-3.78-6.54-3s-1.26,3.41.75,5.85,5,3.78,6.54,3S718.67,725.89,716.66,723.44Z"/><path class="cls-24" d="M715.13,724.28c26.36-22.76,59.21-37.14,94-39.06,3.64-.2,3-2.19.58-2.05a164,164,0,0,0-98,39.37c-1.85,1.6,3,4.29,4.64,2.85Z"/><path class="cls-26" d="M679.8,718.4a6.79,6.79,0,1,0,6.79-6.79A6.79,6.79,0,0,0,679.8,718.4Z"/><path class="cls-24" d="M675.88,774.81c2.17,0,28.91-21.09,42.66-33.3-3.57-6-10.69-14.47-12.79-14.75s-30.47,21-45,33.86C665.15,766.88,673.55,774.76,675.88,774.81Z"/><path class="cls-17" d="M558.85,742.78c18.27,21.37,46.48,48,52.78,49s85.54-21.6,88.69-26.09-76.82,9.93-82.28,8.19-40.45-47.27-45.64-49S553.75,736.82,558.85,742.78Z"/><path class="cls-20" d="M611.51,768.09c-12-12.7-35-41.82-39.11-43.21-5.18-1.74-18.65,11.94-13.55,17.9,13.67,16,32.91,34.94,44.37,43.88C604.28,780.84,607.11,774.5,611.51,768.09Z"/><path class="cls-23" d="M580.93,781.23l20.58-36s-25.35-39.38-37.45-36.45C551.64,711.78,541.86,735.9,580.93,781.23Z"/><path class="cls-21" d="M565.49,708.63a6.09,6.09,0,0,0-1.43.14c-12.42,3-22.2,27.13,16.87,72.46l7-12.18C563.34,739.12,560.72,719,565.49,708.63Z"/><path class="cls-14" d="M588.78,1075H562.59s5.14-13.08,10.87-15.1S588.78,1075,588.78,1075Z"/><path class="cls-14" d="M617.93,1075H584.72s-1.5-13.08,4.53-15.1S617.93,1075,617.93,1075Z"/><circle class="cls-25" cx="811.35" cy="683.64" r="3.87"/><polygon class="cls-22" points="575.36 777.24 600.01 741.3 602.45 745.12 580.22 784.01 575.36 777.24"/><path class="cls-21" d="M580,709.83c-7.06-3.5-17.5-3.68-24.23,1.74.31.33.61.66.94,1,13.78,14.08,31.06,24.27,38.58,22.76,3.47-.69,4.23-3.77,2.72-8.25C592.09,719,586,712.83,580,709.83Z"/><path class="cls-22" d="M575.53,708.14c-10.24-3.65-19.09,2.78-19.09,2.78s9.37,2.6,25.17,5.38Z"/><polygon class="cls-27" points="558.35 687.48 559.98 708.99 576.58 713.52 572.76 684.7 558.35 687.48"/><path class="cls-17" d="M598.47,707.07c-29.45,2.23-57.27-6.13-57-39.8s10-84.76,47.57-76,51.51,37.32,50.3,65.79S624.84,705.06,598.47,707.07Z"/><path class="cls-18" d="M587.88,595.35a15.84,15.84,0,0,0-3.74-6.17,16.55,16.55,0,0,0-5-2.92,51.75,51.75,0,0,0-19.24-4.18,23.87,23.87,0,0,0-8.84,1.13,22.3,22.3,0,0,0-7.56,5.42c-11.88,11.92-21.32,14.17-20.56,41.27.3,10.59,6.67,29.11,14.3,48.85,2.18,5.62,7.87,4.86,8.78-1.15a47.34,47.34,0,0,1,3.11-11.33c8.11-19.18,27.64-23.87,36.7-39.39C591.13,617.74,591.76,605.64,587.88,595.35Z"/><path class="cls-17" d="M550.24,669.32c-3-7.45-9-12.05-13.4-10.27s-5.39,9.27-2.34,16.72,9.06,12.05,13.4,10.27S553.3,676.77,550.24,669.32Z"/><path class="cls-27" d="M547.09,670.61c-1.83-4.46-5.43-7.22-8-6.15s-3.24,5.55-1.41,10,5.43,7.22,8,6.15S548.92,675.08,547.09,670.61Z"/><path class="cls-17" d="M547.62,676.4c-1.26-3.09-3.74-5-5.54-4.25s-2.23,3.83-1,6.92,3.75,5,5.55,4.24S548.89,679.48,547.62,676.4Z"/><path class="cls-28" d="M600.72,652.26c1-3.85-.79-7.62-4-8.41s-6.62,1.68-7.61,5.53.79,7.62,4,8.41S599.73,656.11,600.72,652.26Z"/><path class="cls-28" d="M633,660.35c1-3.85-.8-7.61-4-8.4s-6.62,1.68-7.61,5.53.79,7.61,4,8.41S632,664.2,633,660.35Z"/><path class="cls-18" d="M600.72,627.78l-14.35,2a3.48,3.48,0,0,0-3.07,3.43l.14,3.28a2.78,2.78,0,0,0,3.31,2.56l14.35-2a3.49,3.49,0,0,0,3.07-3.43l-.14-3.28A2.77,2.77,0,0,0,600.72,627.78Z"/><path class="cls-18" d="M641.91,641.44l-11.73-6.3a2.88,2.88,0,0,0-3.95,1.24l-1.46,2.89a3,3,0,0,0,1.28,4l11.73,6.3a2.88,2.88,0,0,0,4-1.24l1.46-2.89A3,3,0,0,0,641.91,641.44Z"/><path class="cls-27" d="M611.85,661.35s-.47.69-1.11,1.77c2.43,5.51,5,14.84-3.74,13.12,0,.24,0,.49.08.73C621.76,682.18,614,664.82,611.85,661.35Z"/><path class="cls-29" d="M591,680.17c-.11.35-.25.69-.33,1.05-1.37,6.28,2.1,12.31,7.75,13.47s11.34-3,12.71-9.27c.06-.27.06-.53.1-.8Z"/><path class="cls-30" d="M607.45,690a10.62,10.62,0,0,0,2-4.22c.05-.23.05-.45.09-.67l-17-3.74c-.09.3-.21.57-.28.88a10.46,10.46,0,0,0,.08,4.7Z"/><path class="cls-17" d="M682.86,767.54c6.61-2.75,12.65-8,15.15-7s4.47,11.32-2.8,12.43-17.45-.53-17.45-.53Z"/><path class="cls-17" d="M683.41,766.15c6.4-4.43,12.82-17.07,14.43-16.48s-5,16-7.16,17.18S680.83,767.94,683.41,766.15Z"/><path class="cls-17" d="M687.39,763.35c12.81-1.39,20.14-10.5,21.48-10.31s-3.44,8.27-10.62,11S687.39,763.35,687.39,763.35Z"/><path class="cls-17" d="M687.37,766.91c12.81-.07,22.86-9,24.43-8.64s-5.82,8-13.34,9.66C691.64,769.44,687.37,766.91,687.37,766.91Z"/><path class="cls-17" d="M686.59,771.64c13.88-.53,21.9-7.2,22.85-6.85s-4.18,5.7-10.7,7.4C691.16,774.18,686.59,771.64,686.59,771.64Z"/><rect class="cls-31" x="166.12" y="781.3" width="10.06" height="298.7"/><rect class="cls-31" x="262.03" y="781.3" width="10.06" height="298.7"/><path class="cls-32" d="M126.66,664.29a9.14,9.14,0,1,0,9.13-9.13A9.14,9.14,0,0,0,126.66,664.29Z"/><path class="cls-32" d="M312.05,664.29a9.14,9.14,0,1,0,9.13-9.13A9.14,9.14,0,0,0,312.05,664.29Z"/><path class="cls-32" d="M186.55,747.09c-3.52-14.77-4.23-34.55,10-44.13,1.5-1,2.53-3,.67-4.22s-5-.42-6.67.73A35.66,35.66,0,0,0,176.32,720c-2.65,9.67-1.43,20,.86,29.64.9,3.76,10.28,1.33,9.37-2.51Z"/><path class="cls-33" d="M197.27,698.74c-1.88-1.22-5-.42-6.67.72a35.58,35.58,0,0,0-14.1,19.93c2.74,1.24,5.53,3.89,8,7.56.58-9.45,3.81-18.43,12.08-24C198.1,702,199.13,699.94,197.27,698.74Z"/><path class="cls-32" d="M283.17,750.53c3.09-16.38-4.1-34.42-14.35-48.86-2-2.8-10.5.18-8.05,3.63,9.67,13.62,13.39,30.39,10.49,45.75-.67,3.57,8.39,2.35,9-1Z"/><path class="cls-33" d="M280.72,724.57a89.3,89.3,0,0,0-11.9-22.9c-2-2.8-10.5.18-8.05,3.63a61.89,61.89,0,0,1,11.07,29.12A43.82,43.82,0,0,1,280.72,724.57Z"/><path class="cls-32" d="M345.45,716.05c4.39-10.23,4.57-24.11-1.78-33.64-6.62-9.91-20.63-15.86-31.87-16.64-2.48-.17-5.45.23-5.77-2.58s3.05-3.85,5.27-3.7c15.1,1,32.53,6.7,41.81,19.45,8.11,11.14,9.16,27.66,3.79,40.18-1.12,2.62-4.25,3-6.76,2.34-1.88-.5-5.81-2.8-4.69-5.41Z"/><path class="cls-32" d="M110.13,716.05c-4.39-10.23-4.58-24.11,1.78-33.64,6.62-9.91,20.63-15.86,31.87-16.64,2.48-.17,5.45.23,5.77-2.58s-3.05-3.85-5.28-3.7c-15.09,1-32.52,6.7-41.8,19.45-8.11,11.14-9.16,27.66-3.79,40.18,1.12,2.62,4.25,3,6.76,2.34,1.88-.5,5.8-2.8,4.69-5.41Z"/><path class="cls-34" d="M293.52,755.79a16.53,16.53,0,0,0-32.88,0Z"/><path class="cls-34" d="M199.22,755.79a16.53,16.53,0,0,0-32.88,0Z"/><path class="cls-32" d="M253.55,701.32h32.59a0,0,0,0,1,0,0v11.25a2.08,2.08,0,0,1-2.08,2.08H255.63a2.08,2.08,0,0,1-2.08-2.08V701.32A0,0,0,0,1,253.55,701.32Z"/><path class="cls-32" d="M166.32,698.36h33.9a0,0,0,0,1,0,0v13.06a1.92,1.92,0,0,1-1.92,1.92H168.24a1.92,1.92,0,0,1-1.92-1.92V698.36A0,0,0,0,1,166.32,698.36Z"/><rect class="cls-35" x="129.13" y="761.72" width="181.03" height="26.33"/><rect class="cls-31" x="129.13" y="761.39" width="181.03" height="14.81"/><rect class="cls-35" x="136.67" y="817.18" width="165.23" height="7.24"/><rect class="cls-35" x="133.08" y="781.3" width="10.06" height="298.7"/><rect class="cls-35" x="296.15" y="781.3" width="10.06" height="298.7"/><rect class="cls-36" x="110.04" y="753.16" width="219.21" height="14.48" rx="1.83"/><path class="cls-37" d="M150.85,640.1H305.39a0,0,0,0,1,0,0v63.8a2.85,2.85,0,0,1-2.85,2.85H153.71a2.85,2.85,0,0,1-2.85-2.85V640.1A0,0,0,0,1,150.85,640.1Z"/><rect class="cls-38" x="150.85" y="663.63" width="154.53" height="30.94"/><path class="cls-34" d="M134.4,647.1H322.68a0,0,0,0,1,0,0v38.49a3.8,3.8,0,0,1-3.8,3.8H138.2a3.8,3.8,0,0,1-3.8-3.8V647.1A0,0,0,0,1,134.4,647.1Z"/><rect class="cls-35" x="140.48" y="664.95" width="174.28" height="24.36" rx="1.75"/><path class="cls-32" d="M185.66,689.39h-3.95V677.08a9.26,9.26,0,0,1,9.26-9.25h26.9a5.31,5.31,0,0,0,5.31-5.31V647.34h3.95v15.18a9.27,9.27,0,0,1-9.26,9.26H191a5.31,5.31,0,0,0-5.31,5.3Z"/><path class="cls-32" d="M217,667.83h-7.33a5.27,5.27,0,0,1-5.23-5.31V647.34h-3.89v15.18a9.2,9.2,0,0,0,9.12,9.26H217Z"/><rect class="cls-33" x="206.15" y="611.96" width="42.46" height="16.79"/><path class="cls-35" d="M193,604.06v8.56a6.09,6.09,0,0,0,6.09,6.09h56.61a6.09,6.09,0,0,0,6.09-6.09v-8.56C261.77,594.62,193,594.62,193,604.06Z"/><path class="cls-35" d="M329.13,635.42c-69.43-14.07-137.3-14.25-203.59,0a7.36,7.36,0,0,0-5.79,7.2v.07a7.33,7.33,0,0,0,7.33,7.33h200.6a7.33,7.33,0,0,0,7.33-7.33h0A7.37,7.37,0,0,0,329.13,635.42Z"/><path class="cls-34" d="M193,604.06v8.56a6.08,6.08,0,0,0,.31,1.81h68.18a6.07,6.07,0,0,0,.3-1.81v-8.56a2,2,0,0,0-.29-1H193.27A2.13,2.13,0,0,0,193,604.06Z"/><path class="cls-39" d="M229.5,602.71a122.67,122.67,0,0,1,29,3.2v-2.19c0-6.46-62.2-6.46-62.21,0v3.37C204.83,604.38,216.55,602.71,229.5,602.71Z"/><path class="cls-39" d="M229.33,633.61c39.16,0,74,3.06,96.53,7.83a6.74,6.74,0,0,0-5.1-4.72c-63.72-12.91-126-13.08-186.86-.05a6.75,6.75,0,0,0-5.24,5.7C150.9,637.07,187.69,633.61,229.33,633.61Z"/><path class="cls-32" d="M236.92,664.13A4.12,4.12,0,1,0,241,660,4.12,4.12,0,0,0,236.92,664.13Z"/><path class="cls-32" d="M250.09,664.13A4.12,4.12,0,1,0,254.2,660,4.11,4.11,0,0,0,250.09,664.13Z"/><path class="cls-32" d="M263.58,664.13A4.12,4.12,0,1,0,267.7,660,4.12,4.12,0,0,0,263.58,664.13Z"/><path class="cls-35" d="M265.31,664.13a2.39,2.39,0,1,0,2.39-2.39A2.38,2.38,0,0,0,265.31,664.13Z"/><path class="cls-35" d="M251.86,664.13a2.39,2.39,0,1,0,2.38-2.39A2.38,2.38,0,0,0,251.86,664.13Z"/><path class="cls-35" d="M238.78,664.13a2.39,2.39,0,1,0,2.38-2.39A2.37,2.37,0,0,0,238.78,664.13Z"/><path class="cls-32" d="M344.55,712.68a14.63,14.63,0,0,0-14.64,14.64,14.45,14.45,0,0,0,.29,2.89c2.2-.37,5.16-.74,7.56-4.49a7,7,0,1,1,11.79,6.48c-1.17,1.9-.78,7.88.24,8.76a14.62,14.62,0,0,0-5.24-28.28Z"/><path class="cls-32" d="M98.31,719.29a14.67,14.67,0,0,0,6.23,19.77,15.52,15.52,0,0,0,2.7,1.08c.69-2.12,1.72-4.92-.49-8.79a7,7,0,1,1,11.2-7.46c1.14,1.92,6.63,4.35,7.88,3.85a14.64,14.64,0,0,0-27.52-8.45Z"/><path class="cls-40" d="M322,753.16H117.28a7.19,7.19,0,0,0-5.81,3,7.19,7.19,0,0,0,5.81,3H322a7.21,7.21,0,0,0,5.81-3A7.2,7.2,0,0,0,322,753.16Z"/><rect class="cls-41" x="294.44" y="889.01" width="12.42" height="61.19" transform="translate(545.25 -16.47) rotate(32.75)"/><polygon class="cls-42" points="323.18 897.5 315.88 892.82 282.75 944.26 290.05 948.95 323.18 897.5"/><circle class="cls-41" cx="314.61" cy="894.71" r="12.19"/><path class="cls-42" d="M306.41,896c-1.37,6,2,11.95,7.43,13.18s11-2.67,12.37-8.71-2-11.95-7.43-13.18S307.77,889.92,306.41,896Z"/><path class="cls-42" d="M335.73,906.55l-40-21.23s2.13-24.41,44.58-30.43l2.13,1.06L329,877.89l1.65-1.2,15.69-23.92,3.54.71S357,878.6,335.73,906.55Z"/><path class="cls-41" d="M345.77,858.17,345,860l-10.53,21.42c.27.16,2.89.28,3.69-.62,3.66-4.12,9.75-18,12.55-22.94a32.39,32.39,0,0,0-.77-4.41l-3.54-.71s-1.5,2.52-3.61,6C343.76,858.54,344.69,858.32,345.77,858.17Z"/><path class="cls-41" d="M340.51,859.13l1.95-3.18-2.13-1.06c-42.45,6-44.58,30.43-44.58,30.43l6.23,3.31C302.54,884.9,307.08,865.79,340.51,859.13Z"/><path class="cls-43" d="M93.1,1014.73c-6.14-13.2-21.42-19.1-34.15-13.18S40.9,1023,47,1036.16s21.43,19.1,34.15,13.18S99.24,1027.93,93.1,1014.73Z"/><rect class="cls-43" x="37.94" y="1058.64" width="40.2" height="19.64"/><path class="cls-44" d="M103.56,1055.62c1.56-12.81-7.91-23.19-21.17-23.19s-25.26,10.38-26.83,23.19,7.92,23.2,21.17,23.2S102,1068.44,103.56,1055.62Z"/><ellipse class="cls-45" cx="36.06" cy="1048.04" rx="30.29" ry="32.36" transform="translate(-900.45 576.2) rotate(-61.29)"/><rect class="cls-45" x="28.65" y="1067.28" width="9.29" height="11.54"/><polygon class="cls-45" points="13.39 1023.1 23.44 1019.13 28.39 1029.33 13.39 1034.64 13.39 1023.1"/><path class="cls-46" d="M49.77,1050.22c-2.16-15.8-15-28.61-28.64-28.61s-23,12.81-20.82,28.61,15,28.6,28.64,28.6S51.92,1066,49.77,1050.22Z"/><path class="cls-45" d="M36.07,1050.57c-1.06-7.72-7.33-14-14-14s-11.24,6.26-10.18,14,7.32,14,14,14S37.12,1058.29,36.07,1050.57Z"/><path class="cls-44" d="M34.77,1049.86c-.63-4.63-4.39-8.39-8.4-8.39s-6.75,3.76-6.11,8.39,4.39,8.4,8.4,8.4S35.41,1054.5,34.77,1049.86Z"/><path class="cls-45" d="M18.56,1033.46a2.08,2.08,0,0,0-1.87-1.87,1.5,1.5,0,0,0-1.36,1.87,2.07,2.07,0,0,0,1.87,1.86A1.5,1.5,0,0,0,18.56,1033.46Z"/><path class="cls-45" d="M39.65,1045a2.07,2.07,0,0,0-1.86-1.87,1.5,1.5,0,0,0-1.36,1.87,2.08,2.08,0,0,0,1.87,1.87A1.49,1.49,0,0,0,39.65,1045Z"/><path class="cls-45" d="M10.47,1054.42a2.09,2.09,0,0,0-1.87-1.87,1.5,1.5,0,0,0-1.36,1.87,2.08,2.08,0,0,0,1.87,1.87A1.5,1.5,0,0,0,10.47,1054.42Z"/><path class="cls-45" d="M31.3,1068.09a2.08,2.08,0,0,0-1.87-1.87,1.49,1.49,0,0,0-1.36,1.87,2.07,2.07,0,0,0,1.87,1.86A1.5,1.5,0,0,0,31.3,1068.09Z"/><path class="cls-45" d="M11.13,1042.74a2.07,2.07,0,0,0-1.87-1.86,1.5,1.5,0,0,0-1.36,1.86,2.07,2.07,0,0,0,1.87,1.87A1.5,1.5,0,0,0,11.13,1042.74Z"/><path class="cls-45" d="M39.39,1059.86a2.08,2.08,0,0,0-1.87-1.87,1.5,1.5,0,0,0-1.36,1.87,2.08,2.08,0,0,0,1.87,1.87A1.5,1.5,0,0,0,39.39,1059.86Z"/><path class="cls-45" d="M30.37,1034.78a2.07,2.07,0,0,0-1.87-1.86,1.5,1.5,0,0,0-1.36,1.86,2.08,2.08,0,0,0,1.87,1.87A1.5,1.5,0,0,0,30.37,1034.78Z"/><path class="cls-45" d="M19,1065a2.07,2.07,0,0,0-1.87-1.86,1.5,1.5,0,0,0-1.36,1.86,2.08,2.08,0,0,0,1.87,1.87A1.5,1.5,0,0,0,19,1065Z"/><polygon class="cls-47" points="76.15 878.49 107.21 937.79 117.08 936.65 80.17 875.45 76.15 878.49"/><path class="cls-48" d="M59.14,859.34a26.83,26.83,0,0,0-5.83,25.38,139,139,0,0,1,21.77-9.15,18,18,0,0,1-2.31-.35C66.82,873.74,60.41,864.94,59.14,859.34Z"/><path class="cls-48" d="M72.61,851.64a17.91,17.91,0,0,1,4.57,7c2.48,6.26,2.93,11.17,1.69,14.84a114,114,0,0,1,18.22-15A27.77,27.77,0,0,0,72.61,851.64Z"/><path class="cls-42" d="M69.58,876a8,8,0,1,0,8-8A8,8,0,0,0,69.58,876Z"/><path class="cls-49" d="M74.07,876a3.53,3.53,0,1,0,3.53-3.53A3.53,3.53,0,0,0,74.07,876Z"/><path class="cls-50" d="M100.5,916.9h16.88a1.32,1.32,0,0,1,1.32,1.32v29.29a0,0,0,0,1,0,0H99.17a0,0,0,0,1,0,0V918.22a1.32,1.32,0,0,1,1.32-1.32Z" transform="translate(-424.15 159.74) rotate(-27.94)"/><path class="cls-48" d="M83.12,891.81,96.84,918a39.89,39.89,0,0,0,4.06-8.17L86.18,885.42A41.26,41.26,0,0,0,83.12,891.81Z"/><polygon class="cls-46" points="238.17 912.1 214.82 914.03 146.89 898.4 132.56 949.27 242.95 954.58 238.17 912.1"/><polygon class="cls-49" points="151.38 904.76 142.35 938.97 154.29 944.39 160.93 907.13 151.38 904.76"/><polygon class="cls-49" points="167.52 908.78 160.42 943.45 172.64 948.19 177.19 910.62 167.52 908.78"/><polygon class="cls-49" points="184.77 912.76 177.66 947.43 189.89 952.17 194.44 914.6 184.77 912.76"/><polygon class="cls-49" points="202.28 917.01 195.18 951.67 207.4 956.42 211.95 918.85 202.28 917.01"/><polygon class="cls-49" points="221.97 913.57 201.52 947.91 211.31 948.59 230.47 912.33 221.97 913.57"/><polygon class="cls-50" points="277.95 900.76 241.5 887.44 210.57 941.56 279.52 980.98 277.95 900.76"/><polygon class="cls-51" points="310.46 926.86 277.95 900.76 240.89 958.89 279.52 980.98 310.46 926.86"/><polygon class="cls-52" points="253.68 927.42 372.53 933.79 361.72 1078.82 247.84 1078.82 253.68 927.42"/><polygon class="cls-53" points="256.48 927.42 75.33 930.25 79.23 1078.82 261.15 1078.82 256.48 927.42"/><path class="cls-50" d="M313.37,897.54a4.11,4.11,0,0,0,3,5,4.06,4.06,0,0,0,4.77-3.21,4.11,4.11,0,0,0-3-5A4.06,4.06,0,0,0,313.37,897.54Z"/><polygon class="cls-50" points="349.89 853.48 334.47 881.48 329.01 877.89 330.93 876.08 346.35 852.77 349.89 853.48"/><path class="cls-42" d="M313.84,897.42a2.4,2.4,0,1,0,2.88-1.94A2.45,2.45,0,0,0,313.84,897.42Z"/><path class="cls-54" d="M407.44,1037.22c-38.83-10.89-46.44-8.25-71.71-8.64-10.14,19.6-11.14,35.74-7.78,50.24h89.87C422.82,1069,411,1051.37,407.44,1037.22Z"/><path class="cls-55" d="M335,1051.11c14.14-5.69,25.35-14,31.24-22.16-9.8-.73-18-.18-30.52-.37a83.24,83.24,0,0,0-8.64,25.31C329.71,1053.09,332.35,1052.18,335,1051.11Z"/><path class="cls-45" d="M420.61,1042.73c-16.12-7.84-35.32-12.89-58.72-14.15-7.08,19.6-7.77,35.74-5.43,50.24h62.67C422.62,1069,423.06,1056.88,420.61,1042.73Z"/><path class="cls-51" d="M382.14,1055.12c1.16-8.07-1.9-15.19-6.83-15.9s-9.87,5.26-11,13.34,1.9,15.19,6.83,15.9S381,1063.2,382.14,1055.12Z"/><path class="cls-45" d="M376.3,1054.59c.67-4.72-1.11-8.87-4-9.28s-5.76,3.07-6.44,7.78,1.11,8.87,4,9.28S375.62,1059.3,376.3,1054.59Z"/><path class="cls-51" d="M413.64,1058.81c.88-6.07-1.43-11.43-5.14-12s-7.43,4-8.3,10,1.44,11.44,5.15,12S412.77,1064.89,413.64,1058.81Z"/><path class="cls-45" d="M408.8,1058.27c.49-3.39-.8-6.38-2.87-6.68s-4.14,2.21-4.63,5.6.8,6.39,2.87,6.68S408.32,1061.66,408.8,1058.27Z"/><polygon class="cls-56" points="240 939.5 201.26 940.98 201.26 965.51 243.47 964.75 240 939.5"/><polygon class="cls-52" points="166.06 1006.72 79.38 935.26 165.35 1011.68 214.18 975.59 166.06 1006.72"/><polygon class="cls-57" points="318.94 1005.85 262.34 935.26 319.18 1011.68 369.49 939.15 318.94 1005.85"/><polygon class="cls-52" points="169.24 1007.08 165.35 1011.68 235.4 1064.39 169.24 1007.08"/><path class="cls-58" d="M463.87,415C493.71,457.39,531,547.42,546.1,568.49s-18,64.55-51.47,55.32S463.87,415,463.87,415Z"/><path class="cls-59" d="M493.11,638.92c8.89,87.88,63.19,439.41,63.19,439.41S410.49,790.66,402.59,722.52,493.11,638.92,493.11,638.92Z"/><path class="cls-60" d="M435.07,661.49C413,675.16,393.76,696,397.33,726.8c7.4,63.87,140.62,316.88,157.27,348.32C526.93,987.6,446.16,729.28,435.07,661.49Z"/><path class="cls-59" d="M333.14,618.19c-9.87,115.53,22.72,348.56,55.3,455.2L425,753.46l39.49-28.63,7.9-83.93Z"/><path class="cls-60" d="M363.1,885.12c0-129.79-11.17-220.67,93.37-209,17.48,1.95,38.41,3.77,41.73,5.59l-3.77-36.84L333.14,618.19c-9.87,115.53,22.72,348.56,55.3,455.2l0-.31C378.52,1034.51,363.1,936.23,363.1,885.12Z"/><path class="cls-61" d="M545.71,561.87c-18.31-15.41-46.1-10.83-59.56,9.06-12.11,17.9-7,40.66,9.49,51.84,15.7,10.63,38.14,8.28,51.92-5.89C562.71,601.3,562.93,576.35,545.71,561.87Z"/><path class="cls-20" d="M546.88,552.87c-17.76-14.94-44.7-10.49-57.76,8.79-11.74,17.36-6.82,39.44,9.21,50.28,15.22,10.3,37,8,50.35-5.72C563.37,591.11,563.58,566.92,546.88,552.87Z"/><path class="cls-58" d="M325.69,641.62a6,6,0,0,0,6.72,5.38c35.79-4.46,139.17,10,163.08,13.81a4.25,4.25,0,0,0,4.91-4.43c-1.64-30.58-15.34-199.77-27.53-225.81-20.74-44.27-68.63-68.13-114.7-41.21C328.55,406.67,315.48,514.74,325.69,641.62Z"/><path class="cls-62" d="M483.81,484.51c-1.71,51-2.55,109-61.3,110.47-38.5,1-64-89.36-47.23-143.67,9.56-30.94-23-41.73-12.08-64.5a53.93,53.93,0,0,0-5,2.55c-29.62,17.31-42.69,125.38-32.48,252.26a6,6,0,0,0,6.72,5.38c10.57-1.32,27.07-1,45.65.25,13.37-11,34.82-19.94,59.78-23.69,23.42-3.51,45.16-1.69,61,4C496.55,586.53,487.08,526.9,483.81,484.51Z"/><path class="cls-63" d="M324.67,497c-.45,5.42-.84,11-1.16,16.71,69.29-6.23,143.84.44,164.27,2.54-1-9.15-2.15-18-3.27-26.46C461.41,488.54,390.33,486.07,324.67,497Z"/><path class="cls-58" d="M355.86,390.58c-57.14,34.92-98.71,106.74-76.06,180.34,7.9,25.67,84.08-4,77.37-28.77-8.56-31.59,10.3-58.52,30.28-82.28C411.81,430.9,382.52,374.29,355.86,390.58Z"/><path class="cls-62" d="M367.2,479.47c-23.37,19.55-46.8,27.58-57.71,18-14-12.21-8.49-54.48,20.07-87.22C287,448.8,260.82,509.23,279.8,570.92c7.9,25.67,84.08-4,77.37-28.77-5.93-21.9,1.31-41.56,13-59.48C375.3,474.74,373.77,474,367.2,479.47Z"/><path class="cls-17" d="M391.18,535.75c-5.86,26.35,25.28,40,32,39.78S443.93,557.66,447,553s-17.09-6.78-13.12-23.52C435.42,522.89,394.56,520.5,391.18,535.75Z"/><path class="cls-17" d="M431.76,561c18.8,5,32.18,10.4,35.24,9.3s4.89-6.2,3.8-8.14-29.58-14.65-29.58-14.65Z"/><path class="cls-17" d="M438,547.63c-2.47-12.31,19.95-8.3,22-12.88,1.56-3.55,1.73-7.58-3.32-7-19.3,2-37.44-7.81-39.55-2.55C415.18,529.91,429.19,539.71,438,547.63Z"/><path class="cls-17" d="M428.29,570.05c5.53,3.88,11.14-1.24,13.24-5.58S416.45,561.73,428.29,570.05Z"/><path class="cls-17" d="M415,572.07c2.87,6.67,15,3.84,16,.14S411.05,562.93,415,572.07Z"/><path class="cls-64" d="M630.19,482.68,512.53,465.61a4.62,4.62,0,0,0-4.78,2.51L448.67,586.26l137.59,6.58,47.46-103.67A4.61,4.61,0,0,0,630.19,482.68Z"/><polygon class="cls-64" points="586.26 584.94 403.91 580.34 403.91 588.23 586.26 592.84 586.26 584.94"/><path class="cls-35" d="M597.28,1078.82H546.92s-2.47-13.82,7.41-15.8S597.28,1078.82,597.28,1078.82Z"/><path class="cls-35" d="M396.34,1078.82H365.73s12.87-9.77,20.5-16.34C395.35,1054.63,396.34,1078.82,396.34,1078.82Z"/><polygon class="cls-60" points="427.94 756.1 405.56 735.69 436.37 739.43 471.06 727.13 427.94 756.1"/><polygon class="cls-60" points="454.75 661.93 427.69 660.2 427.69 680.64 454.75 682.37 454.75 661.93"/><polygon class="cls-65" points="450.33 662.61 433.52 661.54 433.52 674.24 450.33 675.31 450.33 662.61"/><path class="cls-61" d="M373,529.12c-6.9-22.41-40.39-33.44-69.5-22.51s-42.82,39.66-35.92,62.07,36.09,31.73,65.2,20.8S379.92,551.53,373,529.12Z"/><path class="cls-66" d="M344,535.17a73.16,73.16,0,0,0,24.36-15.06c-12-16.12-40-22.84-64.83-13.5a60.91,60.91,0,0,0-21.94,14.08C291.61,538.42,317.81,545,344,535.17Z"/><path class="cls-17" d="M433,531.88c-15.92-15.81-104.06-34.34-126.23-22.55-32.31,17.19-35.54,56.25-13.13,74.15s101.25-26.92,114.55-20.25S448.91,547.69,433,531.88Z"/><path class="cls-20" d="M384.29,564.28c-48.75-5.61-86.28-27.58-83.81-49.07a16.81,16.81,0,0,1,.45-2.33c-26.79,18.54-28.29,53.84-7.31,70.6,17.57,14,69.8-10.47,98-18.51C389.17,564.78,386.75,564.56,384.29,564.28Z"/><path class="cls-67" d="M369.92,417.29c42.15,14.09,81.56,9.92,88.65-9.21-24.29-28.92-62.95-40.6-100.4-18.72l0,0a21.84,21.84,0,0,0-2.29,1.2,175.09,175.09,0,0,0-17.59,12.34A163.17,163.17,0,0,0,369.92,417.29Z"/><path class="cls-61" d="M422.06,411.75c11.35-1.93,17.87-10,18.13-20.36-19.09-13-42.58-17.42-66.46-9.19.47,1.16,1,2.32,1.61,3.49C384.37,402.92,405.28,414.59,422.06,411.75Z"/><path class="cls-68" d="M520.76,272.09c-4.45-16.78-29.63-11.35-29.63-11.35s.5-10.86-15.3-12.35-22.71,11.85-22.71,11.85-6.91-8.88-16.79-4.93-2.47,11.84-2.47,11.84c-33.57,3.46-34.56,31.6-34.56,31.6s-17.77,15.8-5.06,52.95L445.71,362c20.74-6.42,40-37,40-37S503,320,506.44,308.63,504,294.31,504,294.31,525.2,288.88,520.76,272.09Z"/><path class="cls-69" d="M474.84,320.81c-33.45,0-60.57-19.82-60.57-44.27,0-1.05.12-2.07.22-3.09-14.61,9.35-15.19,25.3-15.19,25.3s-17.77,15.8-5.06,52.95L445.71,362c20.74-6.42,40-37,40-37s9.36-2.69,15.68-8.63A79.14,79.14,0,0,1,474.84,320.81Z"/><path class="cls-27" d="M381.14,381.5c8.31-29.92,29.76-52.45,29.76-52.45l32.37,25-10,38.7S419.05,429.09,381.14,381.5Z"/><path class="cls-17" d="M401.28,363.43c.8,10.44,34.47,24.17,42,23.7S485.09,313.86,486,305.9s-33.72-29-43.55-28.1S399.87,345.17,401.28,363.43Z"/><path class="cls-68" d="M443.74,271.27c17.06-.81-21.4,62.87-21.4,62.87l-14.74-1.32S423,272.26,443.74,271.27Z"/><path class="cls-69" d="M416.91,292c-8,17-9.31,40.81-9.31,40.81l14.74,1.32s6.85-11.35,13.48-24.4C429.67,307.13,420.73,298,416.91,292Z"/><path class="cls-70" d="M587.06,591.08l46.66-101.91a4.61,4.61,0,0,0-3.53-6.49l-112-16.24a3.32,3.32,0,0,0-.26.36L458.88,584.94Z"/><polygon class="cls-71" points="464.53 585.21 527.17 588.21 617.59 480.85 559.51 472.43 464.53 585.21"/><path class="cls-66" d="M570.22,531.83c3.07-7.26-.09-13.75-7-14.5s-15.09,4.52-18.16,11.78.09,13.75,7.05,14.5S567.15,539.08,570.22,531.83Z"/><path class="cls-72" d="M563.18,517.33a14.78,14.78,0,0,0-6.65,1c.24,0,.48,0,.72,0,7,.75,10.11,7.24,7,14.5a20.44,20.44,0,0,1-11.51,10.79c6.8.34,14.48-4.77,17.44-11.78C573.29,524.57,570.13,518.08,563.18,517.33Z"/><path class="cls-17" d="M551.86,604.53c-15.82.88-19.2-4.17-19.58-13l40.48,1S572.43,603.37,551.86,604.53Z"/><path class="cls-17" d="M560.11,594.57c8.13-8.35,9.19-14.78,11.16-14.91s6.27.51,6.36,2.8-3.9,12.39-8.21,15.33S560.11,594.57,560.11,594.57Z"/><path class="cls-17" d="M548.11,593.85c8.59-9.67,9.95-17,11.94-17.17s6.31.38,6.3,3-4.48,14.08-9,17.54S548.11,593.85,548.11,593.85Z"/><path class="cls-17" d="M536,593.58c8.13-8.34,9.19-14.78,11.16-14.91s6.27.52,6.36,2.8-3.9,12.39-8.21,15.33S536,593.58,536,593.58Z"/><path class="cls-73" d="M451,380.13c6.17-11.49,6.47-24.84-1.43-28.9s-22,2.49-27.91,13.69,1,15.53,8.55,19.75S444.9,391.52,451,380.13Z"/><path class="cls-17" d="M447.77,376c3.88-7.21,4.06-15.6-.9-18.15s-13.84,1.57-17.52,8.6.64,9.75,5.37,12.4S443.93,383.19,447.77,376Z"/><path class="cls-28" d="M451.12,329.24c1.76-3.38,1.83-6.82.16-7.68s-4.47,1.17-6.24,4.56-1.83,6.82-.15,7.68S449.36,332.62,451.12,329.24Z"/><path class="cls-68" d="M456.75,311.72l-12.42-1.59a2.19,2.19,0,0,0-2.32,1.73l-.89,4.11a1.77,1.77,0,0,0,1.46,2.22L455,319.77a2.18,2.18,0,0,0,2.32-1.73l.89-4.11A1.76,1.76,0,0,0,456.75,311.72Z"/><path class="cls-28" d="M467.9,337.43c1.46-3.18,1.51-6.28.11-6.93s-3.71,1.39-5.17,4.57-1.51,6.29-.11,6.94S466.44,340.61,467.9,337.43Z"/><path class="cls-68" d="M477.48,325l-9.63-6.7a1.89,1.89,0,0,0-2.61.72l-2.4,3.61a2,2,0,0,0,.32,2.76l9.63,6.7a1.89,1.89,0,0,0,2.61-.72l2.4-3.61A2,2,0,0,0,477.48,325Z"/><path class="cls-74" d="M452.42,361.22l-13.08-7.06s-2.22,4.62,3.16,9.12S452.42,361.22,452.42,361.22Z"/><path class="cls-75" d="M448.6,363.28a8.56,8.56,0,0,0,2.38-2.2l-10.57-5.69a5.25,5.25,0,0,0-.23,3.15Z"/><polygon class="cls-76" points="442.15 323.49 456.63 330.43 451.21 340.8 436.73 333.86 442.15 323.49"/><polygon class="cls-76" points="462.5 334.22 475.87 341.11 470.54 351.49 457.16 344.6 462.5 334.22"/><path class="cls-27" d="M456.59,334.56c.68,9.73.17,15.61-3.19,16.69-2.09.68-4.5-.54-6.32-1.83l-.1.15s5.23,5.34,8.79,4.48S458.74,346.23,456.59,334.56Z"/><polygon class="cls-17" points="463.45 336.27 473.65 341.52 469.6 349.45 459.4 344.19 463.45 336.27"/><polygon class="cls-17" points="442.92 325.86 454.45 331.57 450.32 339.47 438.78 333.75 442.92 325.86"/><polygon class="cls-76" points="455.8 331.56 463.08 335.26 461.53 337.51 454.24 333.82 455.8 331.56"/><polygon class="cls-76" points="413.65 309.39 442.88 324.38 441.33 326.64 412.1 311.64 413.65 309.39"/><path class="cls-28" d="M453.59,331.15c-1.69,2.35-3.82,3.62-5.2,2.91s-1.56-3.11-.64-5.81Z"/><path class="cls-28" d="M471.42,340.38c-1.38,2.12-3.08,3.34-4.2,2.82s-1.3-2.73-.51-5.25Z"/><path class="cls-17" d="M422.22,321.35c.32-7.87-3.34-14.15-8.19-14s-9,6.6-9.37,14.46,3.35,14.15,8.19,14S421.89,329.21,422.22,321.35Z"/><path class="cls-27" d="M419,321.7c.21-5-2.14-9.05-5.24-9s-5.78,4.19-6,9.22,2.13,9.05,5.24,9S418.78,326.72,419,321.7Z"/><path class="cls-17" d="M416.67,326.57c.12-2.79-1.37-5-3.33-5s-3.63,2.34-3.74,5.12,1.37,5,3.33,5S416.56,329.35,416.67,326.57Z"/><path class="cls-77" d="M1815.53,895.59c-2.71-.62-6.07.81-6.68,3.79-.14.69-.29,1.38-.47,2.06-.09.34-.18.68-.29,1,0,.07-.08.24-.14.41s-.27.54-.34.67a1.87,1.87,0,0,1-.17.23h0l0,.06,0,0,0,0a.44.44,0,0,1-.11.1l-.07,0v0l-.05,0h0c-.3.1-.59.19-.89.26l-.32.05c-.68,0-1.34,0-2,0-.34-.07-.68-.14-1-.23s-.67-.21-1-.31l-.06,0-.11-.06a17.36,17.36,0,0,1-1.6-1,2.46,2.46,0,0,1-.22-.17c-.29-.26-.55-.54-.82-.82,0,.08.07.11.12.22a4.27,4.27,0,0,0-.3-.44.1.1,0,0,1,0-.05h0a9,9,0,0,1-.52-.84c0-.09-.17-.34-.26-.54s-.18-.52-.22-.62c-.1-.34-.17-.69-.25-1l0-.05a19.06,19.06,0,0,1,0-2l0-.15c.08-.35.17-.69.28-1,0,0,0-.08.05-.12.17-.31.32-.63.51-.94l.18-.26c.28-.29.54-.6.85-.88l.21-.2a8.3,8.3,0,0,0,.91-.58l.39-.21c.28-.09.57-.21.85-.29l.62-.13a8.45,8.45,0,0,0,.87,0l1.41-.22a5.43,5.43,0,0,0,3.25-2.5,5.65,5.65,0,0,0,.64-3.47,5.43,5.43,0,0,0-5.34-4.71,16.55,16.55,0,0,0-12.57,5.76A17.27,17.27,0,0,0,1787,901c.1.52.23,1,.37,1.53a124.45,124.45,0,0,0-36.77,93.94c.34,7,11.22,7,10.87,0a113.76,113.76,0,0,1,32.29-84.93,18.91,18.91,0,0,0,15.53,3.18,12.53,12.53,0,0,0,7.54-5.42,20.52,20.52,0,0,0,2.51-7.05C1819.9,899.5,1818.53,896.27,1815.53,895.59Zm-15.87-2.75a1.07,1.07,0,0,0,.16-.14C1800.31,892.27,1799.92,892.68,1799.66,892.84Zm7.82,11,0,0s0,0,.07,0Z"/><path class="cls-78" d="M1777.28,933.06A99.7,99.7,0,0,1,1775,916.8a124.42,124.42,0,0,0-24.41,79.69c.34,7,11.22,7,10.87,0A113.68,113.68,0,0,1,1777.28,933.06Z"/><polygon class="cls-79" points="1839.42 979.15 1804.62 1013.26 1851.72 1012.11 1839.42 979.15"/><polygon class="cls-80" points="1646.13 869.21 1641.72 869.09 1662.81 913.91 1673.88 911.22 1646.13 869.21"/><path class="cls-80" d="M1636.27,869.75a7,7,0,1,0,7-7A7,7,0,0,0,1636.27,869.75Z"/><path class="cls-81" d="M1639.21,869.32a3.88,3.88,0,1,0,3.88-3.88A3.88,3.88,0,0,0,1639.21,869.32Z"/><path class="cls-82" d="M1645.11,857.52l-6.79,20.39s-45.31,1.35-49.38-.91S1645.11,857.52,1645.11,857.52Z"/><path class="cls-82" d="M1655,897.44l12.13,1.73a2.4,2.4,0,0,1,1.64,1l37.52,55.63-2,9.85-25.13-5.09-26.19-60.44A2,2,0,0,1,1655,897.44Z"/><path class="cls-83" d="M1691.79,934.34c-8.21.72-19.77-4.66-30.32-14.45l17.64,40.7,25.13,5.09,2-9.85Z"/><rect class="cls-84" x="1810.95" y="948.82" width="9.4" height="34.9" transform="translate(597.25 -690.77) rotate(25.65)"/><rect class="cls-84" x="1787.94" y="945.82" width="10.92" height="40.81" transform="translate(76.16 -129.66) rotate(4.23)"/><rect class="cls-80" x="1798.4" y="953.2" width="7.77" height="40.81" transform="translate(267.63 -383.23) rotate(13.1)"/><polygon class="cls-80" points="1786.6 954.43 1774.22 951.38 1767.63 978.22 1786.47 982.86 1786.6 954.43"/><polygon class="cls-80" points="1765.2 936.95 1707.69 928.61 1692.21 966.13 1772.97 988.66 1765.2 936.95"/><polygon class="cls-84" points="1740.75 979.67 1772.97 988.66 1765.2 936.95 1740.75 933.4 1740.75 979.67"/><polygon class="cls-81" points="1760.26 941.88 1745.3 939.06 1745.3 945.57 1760.26 948.38 1760.26 941.88"/><polygon class="cls-81" points="1761.56 952.28 1746.6 949.47 1746.6 955.97 1761.56 958.79 1761.56 952.28"/><polygon class="cls-81" points="1763.07 963.56 1748.12 960.74 1748.12 967.24 1763.07 970.06 1763.07 963.56"/><polygon class="cls-78" points="1727.3 948.85 1625.73 927.95 1621 946.72 1736.28 978.7 1727.3 948.85"/><path class="cls-80" d="M1701.44,954a6.64,6.64,0,1,0-6.64,6.64A6.65,6.65,0,0,0,1701.44,954Z"/><path class="cls-80" d="M1679.76,948.53a6.64,6.64,0,1,0-6.64,6.64A6.64,6.64,0,0,0,1679.76,948.53Z"/><path class="cls-80" d="M1661,945.06a6.64,6.64,0,1,0-6.64,6.64A6.64,6.64,0,0,0,1661,945.06Z"/><path class="cls-80" d="M1643.93,939.57a6.64,6.64,0,1,0-6.64,6.64A6.65,6.65,0,0,0,1643.93,939.57Z"/><polygon class="cls-85" points="1708.96 945.08 1713.44 972.36 1736.28 978.7 1727.3 948.85 1708.96 945.08"/><polygon class="cls-52" points="1750.63 965.26 1839.42 979.15 1835.8 1078.82 1742.77 1078.82 1750.63 965.26"/><polygon class="cls-53" points="1750.63 965.26 1614.1 939.28 1605.04 1078.82 1753.65 1078.82 1750.63 965.26"/><polygon class="cls-52" points="1674.69 1033.22 1622.96 963.28 1674.69 1037.84 1744.63 973.39 1674.69 1033.22"/><polygon class="cls-86" points="1734.8 970.17 1700.72 968.65 1700.72 989.35 1734.8 990.87 1734.8 970.17"/><path class="cls-83" d="M1612.68,878.31c12.68,0,25.64-.4,25.64-.4l6.73-20.21C1628,863.81,1615.13,872.13,1612.68,878.31Z"/><path class="cls-87" d="M1803.14,885a13.4,13.4,0,0,1,2,.17,4,4,0,0,0-3.41-2,12.42,12.42,0,0,0-9.4,4.31,12.78,12.78,0,0,0-2.84,10.18C1790.38,890.51,1796.14,885,1803.14,885Z"/><polygon class="cls-88" points="1556.84 919.62 1548.61 919.62 1550.34 928.43 1556.84 927.42 1556.84 919.62"/><polygon class="cls-88" points="1578.37 921.5 1570.14 921.5 1571.16 929.37 1576.93 929.73 1578.37 921.5"/><path class="cls-88" d="M1550.86,914.49a86,86,0,0,0,1.61,20.56c1.2,5.92,3,12.84,6.38,17,3.26,3.94,8.32,5.2,11.56.54,3-4.31,4.17-11.2,4.84-17a70.5,70.5,0,0,0-1.17-23c-.43-2-4.1-2.92-3.52-.21a67,67,0,0,1,1.06,21.68,59.55,59.55,0,0,1-2.14,10.53c-.83,2.74-2.06,5.88-4.15,7-4.86,2.56-7.62-9-8.72-13.53a81.43,81.43,0,0,1-2.08-22.43c.09-2.1-3.56-3.65-3.67-1.15Z"/><polygon class="cls-80" points="1588.63 906.76 1542.98 912.37 1544.22 924.1 1589.21 926.84 1588.63 906.76"/><path class="cls-89" d="M1496.23,973.16c-1.79-1.75-4.23-2.15-5.47-.89s-.8,3.7,1,5.45,4.23,2.15,5.47.89S1498,974.91,1496.23,973.16Z"/><path class="cls-90" d="M1566.56,966.94a10.09,10.09,0,1,0,10.09-10.08A10.09,10.09,0,0,0,1566.56,966.94Z"/><path class="cls-90" d="M1530.16,969.54a14.27,14.27,0,1,0,14.26-14.26A14.26,14.26,0,0,0,1530.16,969.54Z"/><circle class="cls-80" cx="1518.33" cy="970.85" r="19.63" transform="translate(-241.79 1357.98) rotate(-45)"/><path class="cls-90" d="M1507.56,969.66A13.48,13.48,0,1,0,1521,956.18,13.48,13.48,0,0,0,1507.56,969.66Z"/><path class="cls-91" d="M1514.82,969.66a7.09,7.09,0,1,0,7.09-7.08A7.08,7.08,0,0,0,1514.82,969.66Z"/><polygon class="cls-80" points="1597.77 899.57 1585.3 900.99 1586.59 969.95 1591.92 969.16 1597.77 899.57"/><path class="cls-92" d="M1622.4,956.78c-1.83,2.06-2.24,4.61-.9,5.67s3.92.26,5.75-1.81,2.24-4.6.9-5.67S1624.24,954.71,1622.4,956.78Z"/><path class="cls-92" d="M1594.3,959.81c-1.84,2.07-2.24,4.61-.9,5.68s3.91.26,5.75-1.81,2.24-4.61.9-5.68S1596.13,957.74,1594.3,959.81Z"/><path class="cls-93" d="M1616.06,961.16c2.66.74,5.12,0,5.5-1.68s-1.49-3.63-4.15-4.38-5.12,0-5.5,1.68S1613.4,960.41,1616.06,961.16Z"/><path class="cls-93" d="M1533.42,972.68c1.28-2.44,1-4.8-.66-5.26s-4,1.15-5.29,3.6-1,4.8.66,5.26S1532.14,975.13,1533.42,972.68Z"/><path class="cls-93" d="M1517.39,975.27c.78-2.79.08-5.43-1.56-5.89s-3.61,1.43-4.39,4.23-.09,5.43,1.56,5.89S1516.61,978.07,1517.39,975.27Z"/><polygon class="cls-52" points="1501.15 974.01 1649.29 954.11 1662.76 1078.82 1501.15 1078.82 1501.15 974.01"/><polygon class="cls-94" points="1601.93 1036.81 1649.29 954.11 1662.76 1078.82 1501.15 1078.82 1601.93 1036.81"/><polygon class="cls-53" points="1501.29 973.99 1474.46 977.53 1461.92 1078.82 1502.91 1078.82 1501.29 973.99"/><path class="cls-80" d="M1581.71,898.37a13.14,13.14,0,1,0,13.14-13.14A13.14,13.14,0,0,0,1581.71,898.37Z"/><path class="cls-92" d="M1589.5,897.94a6.07,6.07,0,1,0,6.07-6.07A6.06,6.06,0,0,0,1589.5,897.94Z"/><path class="cls-80" d="M1581.7,897.94c0,5.58,3,10.11,6.79,10.11s6.79-4.53,6.79-10.11-3-10.11-6.79-10.11S1581.7,892.35,1581.7,897.94Z"/><path class="cls-95" d="M1574.82,878.68l-46.21-2.2a3.17,3.17,0,0,0-3.31,3.32l1.93,39.36a3.17,3.17,0,0,0,3.52,3l45.21-5.09a17.76,17.76,0,0,0,15.77-17.64v-3A17.76,17.76,0,0,0,1574.82,878.68Z"/><path class="cls-88" d="M1514.64,970.67c5.11,10.88,4.55,23.53,9.5,34.53,4.19,9.31,11.35,17.52,21.15,20.91,9,3.11,19.9,2.46,27.33-4.38,4.06-3.73,6.62-8.81,8.72-13.82,2.44-5.84,4.65-11.73,7.43-17.43a141.12,141.12,0,0,1,11.29-19.88c4.1-5.76,9.47-10.78,16.6-11.92,3.15-.51-.61-3.88-2.67-3.55-10.59,1.7-17.26,10.3-22.46,19.07-6.06,10.22-10.64,20.86-15.2,31.79-4.25,10.16-11.13,18.66-22.94,18.28-11.1-.36-19.31-8.49-23.86-18-5.37-11.24-4.68-24.27-9.94-35.48-.86-1.83-6.1-2.55-4.95-.1Z"/><path class="cls-96" d="M1597,959.24c2.14,7.7,6.09,15.59,11.79,21.3,3,3,7.57,4,11.2,1.54,3.28-2.19,4.82-6.49,6.24-10a80.64,80.64,0,0,0,4.35-14.68c.24-1.23-.85-2.13-1.9-2.55-.69-.28-2.9-.7-3.14.52a80.91,80.91,0,0,1-4.15,14.19,58,58,0,0,1-2.71,6c-.93,1.71-2.28,3.59-4.27,4.13-1.55.42-2.55-1.38-3.39-2.43a51.22,51.22,0,0,1-3.75-5.38,49.61,49.61,0,0,1-5.29-12.46c-.55-2-5.74-3-5-.21Z"/><path class="cls-88" d="M1531.09,969.54c5.76,8.46,3.77,19.53,4.4,29.13.14,2.14,5.35,3.57,5.19,1.15-.69-10.51,1.14-21.77-5.15-31a3.86,3.86,0,0,0-3.57-1.43,1.28,1.28,0,0,0-.87,2.16Z"/><path class="cls-97" d="M1492.29,971.5c-9.29-1.62-11,10-12.21,16.67-1.59,8.87-1.91,17.88-2.18,26.87-.07,2.12,5.11,3.64,5.19,1.15a212.18,212.18,0,0,1,1.49-22.54,81.25,81.25,0,0,1,2.3-11.14c.64-2.24,1.88-7,5.81-7.38,3.58-.38,2.4-3.15-.4-3.63Z"/><path class="cls-98" d="M1574.47,895.68c7.49-1.73,8-12.68.52-14.62a16,16,0,0,0-3.28-.51l-41.62-2a2.86,2.86,0,0,0-3,3l.34,7a9.3,9.3,0,0,0,8.21,8.77,121.8,121.8,0,0,0,14.59.85A110.6,110.6,0,0,0,1574.47,895.68Z"/><path class="cls-23" d="M1233.44,890.66l11.43,3.24a2.57,2.57,0,0,1,1.78,3.13l-1.77,6.72-16.38-4.65,1.75-6.62A2.56,2.56,0,0,1,1233.44,890.66Z"/><path class="cls-17" d="M1283.51,843.52c1.74,12.86-6.7,77.72-14.15,79.64s-63.77-15.91-67.31-21.11c-2.36-3.45,54.94,8.73,58.31,5s2-58.6,7-68.42S1282.53,836.34,1283.51,843.52Z"/><path class="cls-20" d="M1269,914.77c1.24-2.5-1.89-6-7.93-9.57,2.47-10.32,1.68-57.55,6.3-66.6,5-9.83,15.16-2.26,16.14,4.92,1.74,12.86-6.7,77.72-14.15,79.64-3.8,1-20.31-3.19-36-8.18C1251.56,919.14,1266.79,919.22,1269,914.77Z"/><path class="cls-99" d="M1325.85,859.24c37.43-35.76,11.58-107.75,11.58-107.75s9.11-75.52-76.49-65.75-128.88,65.19-85.25,129S1306.26,878,1325.85,859.24Z"/><path class="cls-100" d="M1256,790.73c43-25.7,63.11-71.41,44.87-102.16,42.4,14,36.53,62.92,36.53,62.92s25.85,72-11.58,107.75c-19.59,18.72-106.54,19.25-150.16-44.53a118,118,0,0,1-7.8-13.13C1191.6,812.17,1225.48,809,1256,790.73Z"/><path class="cls-101" d="M1289,900.4l-31.06-12.48s2.46-58.38,13.55-58.66S1300.12,847.54,1289,900.4Z"/><path class="cls-102" d="M1269.59,829.9a3.53,3.53,0,0,1,1.85-.64c11.08-.27,28.68,18.28,17.51,71.14l-16.11-6.47C1269.65,855.94,1272.32,838.34,1269.59,829.9Z"/><path class="cls-103" d="M1288.52,1078.82c9.86-31.45,17.08-64.5,12.79-95.36-.83-6,3.89-6.1,4.55-1.38,4.38,31.48.48,64.57-9.56,96.74Z"/><path class="cls-103" d="M1257.88,1078.82c9.86-31.45,17.07-64.5,12.78-95.36-.83-6,3.9-6.1,4.55-1.38,4.38,31.48.48,64.57-9.56,96.74Z"/><path class="cls-103" d="M1347.76,1078.82c-7.08-32-11.37-65.57-4.35-96.94,1.36-6.07-3.36-6.21-4.43-1.4-7.16,32-6.19,65.64,1,98.34Z"/><path class="cls-103" d="M1384.18,1078.82c-7.08-32-11.37-65.57-4.35-96.94,1.36-6.07-3.36-6.21-4.43-1.4-7.16,32-6.19,65.64,1,98.34Z"/><path class="cls-104" d="M1277,988.07h96.32a9.28,9.28,0,0,0,9-7.09l33-135.85a4,4,0,0,0-3.9-5h-54.33a4,4,0,0,0-3.91,3.1l-30,129.26a9.17,9.17,0,0,1-8.94,7.1H1277a4.22,4.22,0,0,0-4.13,5.09h0A4.22,4.22,0,0,0,1277,988.07Z"/><path class="cls-103" d="M1277,979.63h37.25a9.38,9.38,0,0,0,2.76-.44h53.2a9.28,9.28,0,0,0,9-7.09l32.09-131.93h.16a4,4,0,0,1,3.9,5l-33,135.85a9.28,9.28,0,0,1-9,7.09H1277a4.22,4.22,0,1,1,0-8.44Z"/><path class="cls-105" d="M1362.93,844.84h37.73a3.17,3.17,0,0,1,3.08,3.92L1389.57,907c-15.24-5.07-26.78-28.84-26.78-57.45C1362.79,848,1362.86,846.41,1362.93,844.84Z"/><path class="cls-106" d="M1216.41,1076.6c29.31-63.11,33.47-98.3,33.47-98.3l67.09,1.27c8.44,0,15.77-5.85,17.12-13.91s1.81-18-1.76-26c-7.11-15.88-100.09,12.42-102.6,25.34C1228.4,971.84,1216.41,1076.6,1216.41,1076.6Z"/><path class="cls-107" d="M1241.89,966.9s19.69-18.95,65.43-24.28c5.4-.63,18.43-5.12,17.34-7.21,3.92.65,6.67,2,7.67,4.22,3.57,8,3.11,18,1.76,26s-8.68,13.91-17.12,13.91l-65.16,1.54s-6.09,32.38-35.4,95.49c0,0,.07-.64.2-1.72C1236,1021,1241.89,966.9,1241.89,966.9Z"/><path class="cls-106" d="M1239.8,1076.6c27.55-63.07,33-97.86,33-97.86l67.53.83c8.44,0,15.77-5.85,17.12-13.91s1.81-18-1.76-26c-7.1-15.88-100.09,12.42-102.59,25.34C1251.79,971.84,1239.8,1076.6,1239.8,1076.6Z"/><path class="cls-107" d="M1268.09,967.64l64.55-12c8.48-.81,16.37-4.14,17.73-12.32.38-2.27.67-4.69.84-7.16,2.23.76,3.81,1.89,4.51,3.46,3.57,8,3.11,18,1.76,26s-8.68,13.91-17.12,13.91h-65.92s-5.33,33.92-34.64,97l.19-1.61C1264.72,1014.32,1268.09,967.64,1268.09,967.64Z"/><path class="cls-107" d="M1329.53,971.19c-6.65-25.7-39.32-31-44.75-31.07l8-6.38,59.36,20.13Z"/><path class="cls-101" d="M1356.17,973.41c-28-18.21-47.73-36.82-71.39-33.29,0,0-2.92-61.3-13.89-85.29-7.11-15.55-8.28-33.56,18.66-29.32C1329.2,831.76,1376.6,934.33,1356.17,973.41Z"/><path class="cls-102" d="M1336.49,943.54c-5-81.78-45-114.92-65.07-114.92a6.61,6.61,0,0,0-1.49.2c3.36-3.36,9.51-4.9,19.62-3.31,39.65,6.25,87,108.82,66.62,147.9-7.34-4.77-14.11-9.57-20.54-14A69.63,69.63,0,0,0,1336.49,943.54Z"/><path class="cls-106" d="M1269.05,909.43l-8.59,16.17a3.11,3.11,0,0,1-3.39,1.57l-67.68-14.66a3.09,3.09,0,0,1-2.34-3.82l5.53-21a3.11,3.11,0,0,1,3.82-2.2L1267.14,905A3.1,3.1,0,0,1,1269.05,909.43Z"/><path class="cls-108" d="M1188.17,908.2l5-19.71a2.88,2.88,0,0,1,.71-1.25l23.73,6.15a2.86,2.86,0,0,1,1.74,4.11l-7.81,15.3a2.88,2.88,0,0,1-3.09,1.54l-20-4A2.94,2.94,0,0,1,1188.17,908.2Z"/><path class="cls-17" d="M1306.09,842.89c2.71,12.69-.83,78-8.12,80.47s-72.31-14.18-77.67-21.27c-2.52-3.34,64.41,9.87,67.48,5.86s-2.41-58.58,1.86-68.76S1304.58,835.8,1306.09,842.89Z"/><path class="cls-20" d="M1295,916.46c.59-2.16-2.32-5.09-7.62-8.22a1.14,1.14,0,0,0,.41-.29c3.08-4-2.41-58.58,1.86-68.76s14.94-3.39,16.45,3.7c2.71,12.69-.83,78-8.12,80.47-3.8,1.29-23.32-2.63-41.88-7.68C1276.82,920.66,1293.72,921.13,1295,916.46Z"/><path class="cls-101" d="M1315.12,901.08l-31.87-8.31s-4.53-59.91,7.38-61.48S1320.65,845.79,1315.12,901.08Z"/><path class="cls-102" d="M1285.78,832.91c.53-.38,3.61-3.47,4.22-3.55,11.92-1.57,33.8,17.25,28.27,72.55L1301,897.4C1305.1,859.15,1294.58,840.65,1285.78,832.91Z"/><path class="cls-102" d="M1277,862.82c-4.09,1-10.54-11.57-12.24-24.54a22.74,22.74,0,0,1,3.48-7.1c2.72-4.92,9.12-7.59,21.33-5.67a32.55,32.55,0,0,1,9.37,3.2C1280.31,847.39,1282.34,861.48,1277,862.82Z"/><path class="cls-109" d="M1288.38,825.34l-18.51,20.46L1268,831.45C1273.54,826,1279.88,822.75,1288.38,825.34Z"/><polygon class="cls-27" points="1285.09 824.99 1274.22 801.52 1260.01 809.52 1270.89 839.28 1285.09 824.99"/><path class="cls-17" d="M1211.4,849.15c10,4.36,67.06-11.71,79-42.25s-25.8-84.46-60-76.77-59.41,30.48-58.85,47.14S1199.17,843.8,1211.4,849.15Z"/><path class="cls-99" d="M1188.27,734.45c1-7.4,5.37-13.59,11.09-17.78s12.67-6.53,19.78-8.12,14.48-2.45,22-1.07,15.1,5.24,20.09,11.57c16.11,19.46,28.5,38.9,36,58.3,2.29,5.92-5.17,11.24-9.81,6.9l-.12-.11a31.4,31.4,0,0,0-9-6.17c-8.78-3.85-18.1-2.12-27-1.3a125.09,125.09,0,0,1-27.18-.53c-5.5-.7-11.16-1.82-16.17-4.81a38,38,0,0,1-9.19-8.18C1191.8,754.92,1187,744.26,1188.27,734.45Z"/><polygon class="cls-17" points="1168.85 807.45 1190.07 795.16 1200.88 816.78 1178.38 826.18 1168.85 807.45"/><path class="cls-109" d="M1198.09,792l1.42,2.84,3,6c1.08,2.17,2.17,4.35,3.25,6.53a44.9,44.9,0,0,0,3,6c1.75,2.44,6.13,1.91,8.68,1.44a37.94,37.94,0,0,0,7.34-2.67l13-5.35c2.28-.94,4.65-1.78,6.88-2.85.85-.42,1.81-.93,2-1.92a4.29,4.29,0,0,0-.55-2.35l-9.86-26.82c-.85-2.29-7.43-1.42-9.79-.12-.15.07-.32.1-.46.17-7.64,3.78-15.2,7.75-22.57,12-1.16.67-2.31,1.35-3.43,2.06a7.86,7.86,0,0,0-2.42,1.87C1196.84,789.93,1197.57,790.91,1198.09,792Zm9.75-2.88c.16-.74,2-1.53,2.61-1.89,5.44-3.31,11.07-6.31,16.75-9.21l8.4,22.84c.09.25.31,1.37.49,1.48,0,.05,0,0,0,.07l-.22.09a33.65,33.65,0,0,0-3.53,1.46l-6.49,2.67-6.78,2.8-1.1.45c-.19-.47-.37-.92-.52-1.22l-2-4-4-7.95-2-4-.85-1.7C1208.5,790.61,1207.74,789.58,1207.84,789.08Z"/><path class="cls-109" d="M1166.78,811.12l2.64,5,2.89,5.45a44.11,44.11,0,0,0,2.72,5.08c1.69,2.31,5.6,1.85,7.77,1.46a26.27,26.27,0,0,0,5.81-2.18l9.63-4.19c1.7-.74,3.47-1.39,5.11-2.24.72-.37,1.55-.83,1.66-1.77a4.16,4.16,0,0,0-.56-2q-4.6-11.14-9.2-22.3c-.93-2.26-6.75-1.58-8.91-.37a3.42,3.42,0,0,0-.34.13c-5.68,3-11.29,6.19-16.72,9.62-.85.53-1.69,1.08-2.51,1.65a5.41,5.41,0,0,0-1.82,1.57C1164.21,807.46,1166.09,809.82,1166.78,811.12Zm5-4c.06-.42,1.54-1.13,2-1.4,4-2.49,8-4.73,12.11-6.9q4,9.08,8.09,18.16a8,8,0,0,0,.46,1.16,22.4,22.4,0,0,0-2.76,1.17l-5.26,2.2-5.17,2.17c-.07-.15-.15-.31-.21-.42-.63-1.09-1.26-2.19-1.9-3.28l-3.79-6.56-1.89-3.28-.81-1.41C1172.44,808.36,1171.73,807.49,1171.8,807.08Z"/><path class="cls-109" d="M1192.35,800.05a25.77,25.77,0,0,1,3.73-2.76,24.48,24.48,0,0,1,2.37-1.24,23.85,23.85,0,0,1,2.58-.95,7,7,0,0,1,1.83-.26,6.09,6.09,0,0,1,1.82.07,3.47,3.47,0,0,1,1.4.47,2,2,0,0,1,.92.71,1.51,1.51,0,0,1-.27,1.92l-.69.58a6.72,6.72,0,0,1-2,.86l-.31.11,1.09-.38a15.34,15.34,0,0,0-2.18,1l.92-.49a20.53,20.53,0,0,0-3.41,2.34l.69-.58-.1.08a3.31,3.31,0,0,1-1.15.83,4.84,4.84,0,0,1-1.54.62,6.65,6.65,0,0,1-1.83.27,6.08,6.08,0,0,1-1.82-.08l-1-.26a2.81,2.81,0,0,1-1.31-.92l-.24-.6a1.66,1.66,0,0,1,.51-1.31Z"/><path class="cls-109" d="M1238,779.81c14.29-2.26,28.57-4.76,42.91-6.75,11.65-1.62,25.25-1.41,34.19,7.4,3.79,3.75-6.16,6.59-8.9,3.89-8-8-19.37-6.07-29.53-4.47q-19.07,3-38.14,6c-1.74.28-5.37-.3-5.57-2.57-.22-2.44,3.35-3.25,5-3.52Z"/><path class="cls-17" d="M1280.69,774c1.7-8,7.29-13.59,12.48-12.48s8,8.49,6.32,16.49-7.3,13.58-12.49,12.47S1279,781.94,1280.69,774Z"/><path class="cls-27" d="M1284.87,775.61c1-4.55,4.16-7.74,7.11-7.11s4.57,4.84,3.6,9.4-4.16,7.73-7.11,7.1S1283.9,780.17,1284.87,775.61Z"/><path class="cls-17" d="M1285.86,781c.66-3.11,2.84-5.29,4.86-4.86s3.12,3.31,2.45,6.42-2.84,5.28-4.86,4.85S1285.19,784.08,1285.86,781Z"/><path class="cls-105" d="M1242.33,1078.53h-21.76s15.54-9.78,19.84-8S1242.33,1078.53,1242.33,1078.53Z"/><path class="cls-105" d="M1219.68,1078.53h-21.76s15.54-9.78,19.84-8S1219.68,1078.53,1219.68,1078.53Z"/><path class="cls-110" d="M1063.94,969.42h42.34a0,0,0,0,1,0,0v8.1a1.08,1.08,0,0,1-1.08,1.08H1065a1.08,1.08,0,0,1-1.08-1.08v-8.1A0,0,0,0,1,1063.94,969.42Z" transform="translate(2170.21 1948.01) rotate(180)"/><path class="cls-110" d="M1153.84,1068c0-11.66.52-24.82-4.78-35.5-5.65-11.39-14.54-17.28-25.61-22.2-2.48-1.1-1.33-2.85.52-2,11.39,5.07,22.94,10.74,29,22.24,5.82,11,5.93,24.2,6,36.37,0,2.08-5.09,3.54-5.09,1.12Z"/><path class="cls-110" d="M1045.11,1014c-19.25,11-26.88,33.31-29.09,54.23-.22,2.09-5.33,3.45-5.09,1.13,2.39-22.59,11-45.88,31.7-57.73.84-.48,2.68-1.12,3.46-.18s-.12,2.06-1,2.55Z"/><path class="cls-106" d="M1146.25,1066.09c0-6.87,4.54-12.44,10.13-12.44s10.13,5.57,10.13,12.44-4.53,12.44-10.13,12.44S1146.25,1073,1146.25,1066.09Z"/><path class="cls-106" d="M1002.93,1066.09c0-6.87,4.78-12.44,10.67-12.44s10.66,5.57,10.66,12.44-4.77,12.44-10.66,12.44S1002.93,1073,1002.93,1066.09Z"/><path class="cls-103" d="M1045.5,1016.05H1128a3.92,3.92,0,0,1,3.92,3.92v15.63a0,0,0,0,1,0,0h-90.31a0,0,0,0,1,0,0V1020A3.92,3.92,0,0,1,1045.5,1016.05Z" transform="translate(2173.47 2051.64) rotate(180)"/><path class="cls-104" d="M1057.35,1034a13.83,13.83,0,0,1-6.85-1.87,250.44,250.44,0,0,1,34-2.06c15,0,28.45,1,37.46,2.6a13.82,13.82,0,0,1-5.85,1.33Z"/><polygon class="cls-110" points="1038.92 999.47 1134.55 999.47 1131.89 1020.2 1041.58 1020.2 1038.92 999.47"/><path class="cls-104" d="M1065.57,973.12h40.56c18.77,0,34.49,12.66,38.6,29.67,1.09,4.52-2.64,8.82-7.43,8.82H1034.4c-4.79,0-8.53-4.3-7.43-8.82C1031.08,985.78,1046.8,973.12,1065.57,973.12Z"/><path class="cls-106" d="M1091.48,1016.26a16.22,16.22,0,0,0-5,9.71,93.43,93.43,0,0,0-.72,11.09c-.12,7.71,1.37,16-.08,23.59-.4,2.06-5.52,3.34-5.09,1.13,1.62-8.47,1.13-17.08,1.41-25.64.22-6.94.28-16.53,6-21.47.84-.72,2.51-1.44,3.59-.82s.76,1.71,0,2.41Z"/><path class="cls-106" d="M1071.49,1066.09a12.44,12.44,0,1,1,12.43,12.44A12.43,12.43,0,0,1,1071.49,1066.09Z"/><path class="cls-110" d="M1076.89,1066.09a7,7,0,1,1,7,7A7,7,0,0,1,1076.89,1066.09Z"/><path class="cls-111" d="M1079.63,1066.09a4.3,4.3,0,1,1,4.29,4.29A4.29,4.29,0,0,1,1079.63,1066.09Z"/><ellipse class="cls-110" cx="1010.58" cy="1066.09" rx="4.95" ry="7.04"/><path class="cls-111" d="M1008.79,1066.09c0-2.34,1.33-4.23,3-4.23s3,1.89,3,4.23-1.33,4.23-3,4.23S1008.79,1068.43,1008.79,1066.09Z"/><path class="cls-110" d="M1154.39,1066.09c0-4.09,2.13-7.4,4.75-7.4s4.75,3.31,4.75,7.4-2.12,7.4-4.75,7.4S1154.39,1070.18,1154.39,1066.09Z"/><path class="cls-111" d="M1155.41,1066.09c0-2.51,1.31-4.55,2.92-4.55s2.92,2,2.92,4.55-1.31,4.55-2.92,4.55S1155.41,1068.6,1155.41,1066.09Z"/><path class="cls-110" d="M1086.44,1026a.34.34,0,0,0,0,.1,4.23,4.23,0,0,0-3.77.09c.67-4.43,2.06-8.7,5.28-11.49.84-.72,2.51-1.44,3.59-.82s.76,1.71,0,2.41A16.22,16.22,0,0,0,1086.44,1026Z"/><path class="cls-105" d="M1032.94,997a28,28,0,0,1,32.63-23.89h40.56A28,28,0,0,1,1138.75,997c1,4.53-2.37,8.82-6.67,8.82h-92.46C1035.32,1005.83,1032,1001.54,1032.94,997Z"/><path class="cls-112" d="M1066,975.76h38.5c-.2,4.4-18.69,8-41.49,8-6.92,0-13.43-.33-19.17-.91A38.21,38.21,0,0,1,1066,975.76Z"/><path class="cls-110" d="M1130.26,1005.54a2.67,2.67,0,1,1,2.67,2.66A2.67,2.67,0,0,1,1130.26,1005.54Z"/><path class="cls-110" d="M1120.19,1005.54a2.67,2.67,0,1,1,2.67,2.66A2.68,2.68,0,0,1,1120.19,1005.54Z"/><path class="cls-110" d="M1038.22,1005.54a1.88,1.88,0,1,1,1.88,1.88A1.88,1.88,0,0,1,1038.22,1005.54Z"/><path class="cls-28" d="M1220.31,797.63c-1.8-2.85-1.33-6.35,1-7.82s5.77-.36,7.57,2.49,1.34,6.34-1,7.82S1222.12,800.48,1220.31,797.63Z"/><path class="cls-28" d="M1180,813.55c-1.6-2.52-1.18-5.62.93-6.93s5.11-.32,6.71,2.2,1.18,5.63-.93,6.94S1181.62,816.08,1180,813.55Z"/><path class="cls-99" d="M1194.91,771.71l16.78-5.54c2.06-.67,4.3.08,5,1.68l1.4,3.18c.71,1.61-.39,3.46-2.45,4.14l-16.77,5.53c-2.06.68-4.31-.07-5-1.67l-1.4-3.19C1191.75,774.24,1192.85,772.39,1194.91,771.71Z"/><path class="cls-99" d="M1166.61,789.22l12-7.58a3.06,3.06,0,0,1,4.28,1l1.76,2.93a3.23,3.23,0,0,1-1.07,4.37l-12,7.57a3.06,3.06,0,0,1-4.28-1l-1.76-2.94A3.21,3.21,0,0,1,1166.61,789.22Z"/><path class="cls-27" d="M1203.34,808.84s.69.54,1.69,1.42c-.66,6.36-.22,16.6,8,12,0,.25.14.5.15.76C1200.1,833.08,1202.3,813,1203.34,808.84Z"/><path class="cls-29" d="M1236.64,813.47c.31.23.64.42.94.68,5.14,4.48,6,11.81,1.93,16.37s-11.54,4.63-16.68.15c-.22-.19-.38-.42-.59-.62Z"/><path class="cls-30" d="M1228.84,832.25a11.32,11.32,0,0,1-4.36-2.34c-.18-.16-.32-.35-.49-.52l12.09-13.93c.27.2.54.36.8.58a11.08,11.08,0,0,1,2.91,4Z"/><path class="cls-17" d="M1227.85,902.34c-6.2-.46-12.63-3.19-14.41-1.65s-.6,10.57,5.71,9.5S1233.4,905,1233.4,905Z"/><path class="cls-17" d="M1227,901.35c-6.49-1.91-15.24-10.59-16.41-9.66s8.48,11.8,10.61,12.21S1229.64,902.11,1227,901.35Z"/><path class="cls-17" d="M1223,900.12c-10.94,2.35-19.49-3.16-20.54-2.64s5.1,5.89,11.75,6.13S1223,900.12,1223,900.12Z"/><path class="cls-17" d="M1224,903.05c-10.59,3.45-21.33-1.22-22.51-.45s7,5,13.64,4.32C1221.13,906.31,1224,903.05,1224,903.05Z"/><path class="cls-17" d="M1225.9,906.74c-11.6,3.36-20,0-20.73.59s5,3.57,10.85,3.19C1222.82,910.08,1225.9,906.74,1225.9,906.74Z"/><path class="cls-17" d="M1369.14,846c-4-5.11-6.68-12.38-9-12.38s-7.49,8.76-2.38,12.61,13.43,6.3,13.43,6.3Z"/><path class="cls-17" d="M1369.22,844.55c-3.24-6.6-3.53-20.82-5-20.9s-2,16.74-.8,18.71S1370.53,847.21,1369.22,844.55Z"/><path class="cls-17" d="M1367.22,840.4c-9.21-6.27-11.46-17.57-12.55-17.91s-.39,9,4.08,14.28S1367.22,840.4,1367.22,840.4Z"/><path class="cls-17" d="M1366,843.71c-9.69-5-14.06-17.28-15.4-17.51s1.52,9.67,6.62,14.14C1361.79,844.4,1366,843.71,1366,843.71Z"/><path class="cls-17" d="M1364.82,848.4c-10.33-5.89-14-15.19-14.84-15.24s1.1,6.92,5.43,11C1360.44,849,1364.82,848.4,1364.82,848.4Z"/><path class="cls-17" d="M1507.57,913.76c1.73,48.29-10.67,162.8-10.67,162.8h-2.56l-8.41-160Z"/><path class="cls-20" d="M1498.54,1033.23c.87.13,1.71.3,2.57.45,3.41-37.65,7.5-90.81,6.46-119.92l-21.64,2.76,6.1,116C1494.17,1032.7,1496.33,1032.9,1498.54,1033.23Z"/><polygon class="cls-95" points="1468.06 1012.54 1524.71 1012.83 1523.8 935.81 1461.56 917.13 1468.06 1012.54"/><path class="cls-113" d="M1520.9,991.11c0,7.52-.35,14.79-1,21.69l4.78,0-.91-77-11.13-3.34C1517.72,947,1520.9,967.9,1520.9,991.11Z"/><path class="cls-113" d="M1470.18,991.11c0-28.66,4.83-53.76,12.07-67.77l-20.69-6.21,6.5,95.41h3C1470.51,1005.73,1470.18,998.54,1470.18,991.11Z"/><path class="cls-95" d="M1490.72,1078.82h21.07s-9.57-9.24-14.91-9.7S1490.72,1078.82,1490.72,1078.82Z"/><path class="cls-17" d="M1359.4,835.22c10.4,29.92,41.15,59.38,50.23,58.75s45.31-53.46,29.9-77.47c-7.21-11.24-26.12,56.29-31.71,56.63S1359.4,835.22,1359.4,835.22Z"/><path class="cls-20" d="M1439.53,816.5c-7.21-11.24-26.12,56.29-31.71,56.63-2.06.13-9.16-5-17.31-11.46,4.7,10.09,7.5,19.64,8.11,27,4.66,3.5,8.61,5.49,11,5.32C1418.71,893.35,1454.94,840.51,1439.53,816.5Z"/><path class="cls-114" d="M1427.45,889.9l-22.65-29s19.59-57.39,35.9-61.62S1427.45,889.9,1427.45,889.9Z"/><path class="cls-17" d="M1435,916.17c.45,47.58,19,160.39,19,160.39h2.72l1.36-157.67Z"/><path class="cls-20" d="M1457.11,1034.22l1-115.33L1435,916.17c.27,28.08,6.85,78.86,12.19,115.78A41.43,41.43,0,0,1,1457.11,1034.22Z"/><polygon class="cls-95" points="1423.83 927.95 1425.64 1016.15 1476.98 1018.57 1478.19 972.65 1488.76 967.52 1486.05 914.36 1423.83 927.95"/><path class="cls-113" d="M1524.08,954.7V923.19L1423.83,928l1.81,88.2,3.39.16c-.39-3.93,1.94-15.52,1.7-19.71C1429.06,967.73,1467.14,951.23,1524.08,954.7Z"/><path class="cls-113" d="M1473,967.06c-1.89.28,3.12,20.62,2.63,37.51a115.31,115.31,0,0,1-1.24,13.88l2.59.12,2.49-44.47,10.71-5-.14-5.77A114.63,114.63,0,0,1,1473,967.06Z"/><path class="cls-113" d="M1462.8,964.67c16.32,5.11,37.94-5.86,37.94-5.86s-5.86,11.49-18.86,13S1462.8,964.67,1462.8,964.67Z"/><path class="cls-115" d="M1419.94,954.75c35.94,3.92,109-6.11,109-6.11s-12.68-140.14-15.1-146.79-31.11-14.19-41.07-13.89-32,8.46-38.06,14.5S1419.94,954.75,1419.94,954.75Z"/><path class="cls-114" d="M1513.83,801.85a6,6,0,0,0-1.75-2.23c.4,4.87-12.19,9.31-12.65,14.93-2.89,35.26-21.36,54-44.61,47.84-14.6-3.86-23.51-17.72-24.9-34.27-5,43.5-10,126.63-10,126.63l1.54.14c-.15-37.52,18-67.69,41.6-68.14,23.17-.45,43.25,27.81,46.59,64.24,11.58-1.29,19.26-2.35,19.26-2.35S1516.25,808.5,1513.83,801.85Z"/><path class="cls-116" d="M1537.75,713.28c-1.38-6,1.73-22.95-4.42-22,3-2.05,2.78-6.84.21-9.55s-6.75-3.48-10.35-2.77c2.07-3.24-1.65-8.39-5.58-7.71-1,.17-2,.6-2.9.11a3,3,0,0,1-1.21-1.82c-2.4-6.72-5.74-14.47-12.77-16.46,1.88-5.5,0-11.92-3.77-16.68s-14-10.29-19.71-12.62c-4.81-2-14.34,10.25-19.41,10.87s-9.94,3.56-11.63,8.2a11.4,11.4,0,0,0-11.16,1.46,10.39,10.39,0,0,0-3.54,10.28,5.2,5.2,0,0,0-4.49-.94c.07.77.15,1.53.22,2.3-5.76-9.06-19-11.68-28.79-7.83-5.1,2-9.62,5.58-11.82,10.46a15,15,0,0,0,1.79,15.43,13.3,13.3,0,0,0-12.52,2.89c-3.31,2.86-5.23,7-6.31,11.2-1.82,7.16-.81,16,5.49,20.6-5.61,3.12-7.17,11.37-3.14,16.63.91,1.19,2.07,2.26,2.54,3.66a10.41,10.41,0,0,1,.08,4.05c-.73,9.89,8.33,19.88,18.61,20.52,3.77,16.13,19.15,29.52,36,31.37l61.48-8.23c29.62-7.94,37.6-31.49,44-45.89C1537.09,725.35,1539.12,719.28,1537.75,713.28Z"/><path class="cls-117" d="M1537.75,713.28c-1.38-6,1.73-22.95-4.42-22,3-2.05,2.78-6.84.21-9.55s-6.75-3.48-10.35-2.77c2.07-3.24-1.65-8.39-5.58-7.71-1,.17-2,.6-2.9.11a3,3,0,0,1-1.21-1.82,41.59,41.59,0,0,0-5.53-11.17c5.84,37.93-17.56,78-58,94.8a95.6,95.6,0,0,1-55,5.91c5.61,13.58,19.34,24.22,34.23,25.85l61.48-8.23c29.62-7.94,37.6-31.49,44-45.89C1537.09,725.35,1539.12,719.28,1537.75,713.28Z"/><path class="cls-118" d="M1548.93,877.75c-.2-2.1-6.37-9.34-16.2-12.29-10-3-20.73-.6-20.73,1.52s8.64,6.39,19,9.38C1541.22,879.28,1549.13,879.86,1548.93,877.75Z"/><path class="cls-17" d="M1461.88,858c26,18.14,66.59,38.54,73.58,32.71s-10.1-77.42-22.2-83.08,11.55,60.74,7.22,64.3S1461.88,858,1461.88,858Z"/><path class="cls-20" d="M1513.26,807.61c-12.09-5.66,11.55,60.74,7.22,64.3-1,.86-5,.48-10.41-.57a59.38,59.38,0,0,1,9.4,17.64c7.8,2.71,13.71,3.62,16,1.71C1542.46,884.86,1525.36,813.27,1513.26,807.61Z"/><path class="cls-115" d="M1512.17,866.05c15.64-1.21,27.35,3.61,36.7,12.07,3-3-14.15-73.56-39.37-80C1485.09,792,1512.17,866.05,1512.17,866.05Z"/><path class="cls-114" d="M1510.88,798.62c8.46,5.31,17.13,19.08,22,36.52,3.62,13,4.38,25.28,2.7,34.42a47.6,47.6,0,0,1,13.3,8.56C1551.79,875.16,1535.34,807.19,1510.88,798.62Z"/><path class="cls-114" d="M1437.47,800.25c1.81,9.42,22.3,13.76,45.93,9.69,12-2.06,22.43-5.87,29.68-10.37a18.49,18.49,0,0,0-2.41-1c-8.21-5.61-29.58-10.84-37.91-10.59C1464,788.23,1445.78,794.6,1437.47,800.25Z"/><path class="cls-53" d="M1483.25,789.11a53.73,53.73,0,0,0-10.49-1.15c-6.41.19-17.8,3.64-26.73,7.67,1.54,5.14,6.67,8.64,13.85,8.64C1469.8,804.27,1479.94,797.57,1483.25,789.11Z"/><path class="cls-95" d="M1457.43,1078.82h-24s13-9.24,19.19-9.7S1457.43,1078.82,1457.43,1078.82Z"/><path class="cls-27" d="M1469.43,757.91l-22.31,3.65c1,6.73,7.82,29,7.82,29,3.1,9.84,16.86,10,24.64-2Z"/><path class="cls-17" d="M1460.54,790.08c-34.18,4.17-60.1-5.51-66.64-39.79s3-64.59,50.83-71.63,66.45,26.93,69.29,51.73S1490.65,786.41,1460.54,790.08Z"/><path class="cls-119" d="M1435.07,782.57l-87.61,20.76a4.43,4.43,0,0,0-2.69,6.7L1383,869.19a4.72,4.72,0,0,0,4.57,2.13L1467,861.18a4.73,4.73,0,0,0,3.74-6.58l-30.24-69.32A4.72,4.72,0,0,0,1435.07,782.57Z"/><path class="cls-116" d="M1524.8,709.86c-1.72-6.89-5.58-13.4-11.45-17.39-21.93-22.37-44.74-30.13-68.71-18.52-3.43.13-6.16,3.35-6.68,6.74s.73,6.81,2.41,9.8c6,10.71,17.31,17.15,26.8,25a101.38,101.38,0,0,1,34.14,55.2c13.52-8.36,21.19-24,23.78-39.65C1526.25,724,1526.52,716.74,1524.8,709.86Z"/><path class="cls-117" d="M1527.61,709.55c-1.72-6.88-5.84-15.95-11.7-19.94-2.25-2.3-7.07-1.54-9.34-3.52-3.53,19.57-12.26,35.95-23.89,45.46a101.19,101.19,0,0,1,18.63,39.09c13.52-8.36,24.37-23.3,27-39A57.12,57.12,0,0,0,1527.61,709.55Z"/><path class="cls-17" d="M1510.39,759c4.61-7.29,5.18-15.21,1.27-17.69s-10.83,1.44-15.44,8.73-5.18,15.22-1.27,17.69S1505.77,766.31,1510.39,759Z"/><path class="cls-27" d="M1507,759.11c2.85-4.49,3.21-9.36.8-10.89s-6.65.88-9.5,5.38-3.2,9.36-.8,10.88S1504.1,763.6,1507,759.11Z"/><path class="cls-17" d="M1502.18,762.48c1.63-2.61,1.81-5.43.4-6.32s-3.88.52-5.51,3.12-1.81,5.43-.4,6.31S1500.55,765.08,1502.18,762.48Z"/><path class="cls-98" d="M1435.88,789.32a4.74,4.74,0,0,0-5.43-2.71l-86.34,20.47a4.34,4.34,0,0,0,.66,2.95L1383,869.19a4.72,4.72,0,0,0,4.57,2.13l78.88-10.06a4.79,4.79,0,0,0-.31-2.62Z"/><polygon class="cls-120" points="1381.35 798.25 1391.83 870.77 1436.79 865.04 1425.62 787.76 1381.35 798.25"/><path class="cls-98" d="M1413.71,831.91c-1.49-5-7.61-9-13.65-9s-9.74,4-8.24,9,7.61,9,13.66,9S1415.21,836.87,1413.71,831.91Z"/><path class="cls-119" d="M1395.07,832.12c-1.44-4.79,2-8.66,7.61-8.94a14.47,14.47,0,0,0-2.62-.27c-6,0-9.74,4-8.24,9s7.61,9,13.66,9c.21,0,.41,0,.62,0C1401,839.9,1396.35,836.37,1395.07,832.12Z"/><path class="cls-17" d="M1478.89,865.12c-5.42-3.58-10.25-9.63-12.4-8.92s-4.35,10.68,1.73,12.72,14.72,1.73,14.72,1.73Z"/><path class="cls-17" d="M1478.5,863.68c-5.17-5.24-9.93-18.63-11.32-18.26s3.39,16.51,5.16,18S1480.58,865.79,1478.5,863.68Z"/><path class="cls-17" d="M1475.29,860.38c-10.72-3-16.43-13-17.57-13s2.48,8.67,8.39,12.26S1475.29,860.38,1475.29,860.38Z"/><path class="cls-17" d="M1475.13,863.92c-10.79-1.72-18.8-11.95-20.14-11.74s4.49,8.69,10.74,11.32C1471.4,865.89,1475.13,863.92,1475.13,863.92Z"/><path class="cls-17" d="M1475.54,868.73c-11.66-2.33-18.08-10-18.9-9.77s3.23,6.21,8.64,8.74C1471.57,870.65,1475.54,868.73,1475.54,868.73Z"/><path class="cls-28" d="M1447.13,744.24c-1.85-2.6-1.8-6.21.1-8.07s4.94-1.24,6.78,1.36,1.8,6.21-.1,8.06S1449,746.84,1447.13,744.24Z"/><path class="cls-28" d="M1409.83,747.9c-.47-3.31,1.46-6.33,4.32-6.73s5.56,2,6,5.27-1.46,6.32-4.32,6.72S1410.31,751.21,1409.83,747.9Z"/><path class="cls-116" d="M1446,718.28l13.24,2.26a3.17,3.17,0,0,1,2.71,3.22l-.26,3a2.59,2.59,0,0,1-3.18,2.21l-13.24-2.26a3.17,3.17,0,0,1-2.71-3.22l.25-3A2.6,2.6,0,0,1,1446,718.28Z"/><path class="cls-116" d="M1398.37,731.54l10.84-7.64a2.43,2.43,0,0,1,3.7,1l1.41,3a3.67,3.67,0,0,1-1.12,4.42L1402.36,740a2.42,2.42,0,0,1-3.7-1l-1.41-3A3.67,3.67,0,0,1,1398.37,731.54Z"/><path class="cls-27" d="M1429.43,763.4s1.34-.39,3-.84c3.17,2.07,7.41,3.51,8.55-1a1.67,1.67,0,0,1,.2.08C1440.2,770.1,1431.61,765.53,1429.43,763.4Z"/><path class="cls-27" d="M1460.43,766.15c-4.06,6-10.77,9.89-17,10.39a21.72,21.72,0,0,0,18.48-9c3.08-4.42,3.52-9.13,1.72-12.76A17.14,17.14,0,0,1,1460.43,766.15Z"/><path class="cls-27" d="M1466.27,770.49c-.91-.91-1.52,1.51-3.4,3.38s-4.3,2.47-3.4,3.38,3.16.13,5-1.74S1467.17,771.4,1466.27,770.49Z"/></g></g></g></svg>