<svg xmlns="http://www.w3.org/2000/svg" viewBox="0 0 234.18 171.27"><defs><style>.cls-1,.cls-11,.cls-4{fill:#1a1a1a;}.cls-1{opacity:0.11;}.cls-2{fill:#1e434c;}.cls-3{fill:#ffb583;}.cls-4{opacity:0.17;}.cls-5{fill:#2a6171;}.cls-6{fill:#75cac3;}.cls-7{fill:#fff;}.cls-8{fill:#dd9666;}.cls-9{fill:#d8a432;}.cls-10{fill:#204955;}.cls-11{opacity:0.23;}</style></defs><g id="Layer_2" data-name="Layer 2"><g id="OBJECTS"><ellipse class="cls-1" cx="117.09" cy="160.35" rx="117.09" ry="10.93"/><path class="cls-2" d="M122.92,41.51s-3.44-11.58-2.36-18.83S128.35,8.2,131.79,8s8.87.18,11.4,5.79a37,37,0,0,1,3.26,16.66,87.9,87.9,0,0,1-2.71,12.85c-.36,1.27-10,2.18-10,2.18l-6.7-.37Z"/><path class="cls-3" d="M131.24,31.92a13.05,13.05,0,0,1-.72,3.19,5.41,5.41,0,0,1-2,2.78l2.35,4,5.43.54L138.85,41l1.27-3.26a8.71,8.71,0,0,1-2.41-2.87,7.31,7.31,0,0,1-.85-3.1Z"/><path class="cls-4" d="M137.71,34.84a7.31,7.31,0,0,1-.85-3.1l-5.62.18a13.05,13.05,0,0,1-.72,3.19,15,15,0,0,0,6.66,0Z"/><path class="cls-3" d="M125.81,23.23s.82,4.7,3,7.33,3.71,2.53,4.89,2.53,2.71.19,4.8-2.17,2.89-6.88,3-7.51l.55-.73s2-.45,2.08-1.17-.36-2.36-1-2.36-6.6,1.45-9-5.43c0,0-2.08,4.62-5.79,5.7a8,8,0,0,1-2,.28s-1.45-1.09-2.27-.73-1.17,2.27-.72,2.63a13.09,13.09,0,0,0,2.17,1Z"/><path class="cls-2" d="M120,77.9s-1.44,13.44-2.17,21.73a120.7,120.7,0,0,0-.37,15.21c0,2.9-2.71,18.11-2.71,18.11l5.61,3.8,3.8-2s2.54-12.68,2.54-16.12,5.07-22.09,5.79-24.26,2.54-2,2.9-1.45,2.71,19,3.8,21.55,1.45,3.62,1.45,5.43,1.45,12.31,3.26,15.39l5.61.54,2.72-3.62S150.8,114.84,151,111,149,83,146.82,77.36l-6.34-.72H124.91Z"/><path class="cls-5" d="M143,133.13s4.71,2.17,9.42-2.36l-.18-1.36s.9.1,1.08,2.27-.9,10.14-.54,12.67,2.17,7.79,3.8,9.42,1.77,2,1.5,2.58-1.5,1.83-2.52,1.63-4.21-2.45-5.22-3.4a4.79,4.79,0,0,1-1.36-1.9.68.68,0,0,0-.68-.34l-.14,1.9a4.37,4.37,0,0,1-4.27-.07s-.34-2.92-.41-3.73-.68-4.28-.34-5.77-1.49-9-1.22-10.12A1.89,1.89,0,0,1,143,133.13Z"/><path class="cls-5" d="M124.49,133.13s-4.71,2.17-9.41-2.36l.18-1.36s-.91.1-1.09,2.27.91,10.14.54,12.67-2.17,7.79-3.8,9.42-1.76,2-1.49,2.58,1.49,1.83,2.51,1.63,4.21-2.45,5.23-3.4a4.91,4.91,0,0,0,1.36-1.9.66.66,0,0,1,.67-.34l.14,1.9a4.39,4.39,0,0,0,4.28-.07s.34-2.92.41-3.73.67-4.28.33-5.77,1.5-9,1.23-10.12A1.89,1.89,0,0,0,124.49,133.13Z"/><path class="cls-3" d="M148.72,52.2s5.16,6,7.87,8.41c0,0,.82.41,0,1.63-.36.55-2.24,3.59-4.26,7.09-2.53,4.4-5.29,9.51-5.51,11.25-.41,3.12-.28,5.43.81,6.65s2,1.63,3.39,1.22,2-.27,2.31-1.09.82-1.62.14-2l-.68-.41a1.62,1.62,0,0,1-.81-2c.54-1.35,1.49-1.35,1.22-2.71A6,6,0,0,0,152,77.72s11.4-11.4,11.54-14.93c0-1.24-1.05-3.54-2.52-6a73.46,73.46,0,0,0-7.12-10.12Z"/><path class="cls-4" d="M152.33,69.33l.23-.39c1.93-3.33,3.68-6.17,4-6.7.82-1.22,0-1.63,0-1.63-2.71-2.44-7.87-8.41-7.87-8.41l5.16-5.57A73.46,73.46,0,0,1,161,56.75s.52,4.86-2.65,8A25.16,25.16,0,0,1,152.33,69.33Z"/><path class="cls-3" d="M119,52.2s-5.16,6-7.88,8.41c0,0-.81.41,0,1.63.39.58,2.5,4,4.66,7.79,2.42,4.22,4.9,8.9,5.12,10.55.41,3.12.27,5.43-.82,6.65s-2,1.63-3.39,1.22-2-.27-2.31-1.09-.81-1.62-.14-2l.68-.41a1.63,1.63,0,0,0,.82-2c-.54-1.35-1.5-1.35-1.22-2.71a6,6,0,0,1,1.22-2.45s-11.41-11.4-11.54-14.93c-.06-1.47,1.51-4.47,3.39-7.49a69.51,69.51,0,0,1,6.25-8.67Z"/><path class="cls-4" d="M115.82,70c-2.16-3.79-4.27-7.21-4.66-7.79-.81-1.22,0-1.63,0-1.63,2.72-2.44,7.88-8.41,7.88-8.41l-5.16-5.57a69.51,69.51,0,0,0-6.25,8.67s-.95,6.64.22,8.31S115.82,70,115.82,70Z"/><path class="cls-6" d="M129.34,37.12a26.3,26.3,0,0,0-8.29,1.5c-3.88,1.49-9.13,9.5-9.13,9.5s5.39,5,5.53,6a.87.87,0,0,0,1,.13c.55-.27,1.93-2.85,1.93-2.85s.14,3.8,1.39,5.16S118.56,77.59,118.56,78s-.28,1.35,1,1.76,22.69,1.36,28.5-.54c0,0,1.38-.41,1.38-1.09s-3.32-18.33-3.46-19.42-.28-1.9-.28-1.9a18.45,18.45,0,0,0,1.53-6l2.35,2.85s5.53-2.31,7.05-6.93a6.29,6.29,0,0,0-.69-1.22c-.42-.54-5.39-6.38-7.75-7.33s-8.43-1.09-8.43-1.09.27,3.4-5,3.53C129.74,40.78,129.34,37.12,129.34,37.12Z"/><path class="cls-7" d="M138,67.68l-.91-3.49h-6l-.94,3.49h-5.53L130.62,49h6.71l6.15,18.69Zm-2-7.62-.8-3.05c-.19-.68-.41-1.56-.68-2.64s-.45-1.85-.53-2.31c-.08.43-.23,1.14-.45,2.14s-.73,2.94-1.5,5.86Z"/><path class="cls-8" d="M132.94,22.18a35,35,0,0,0-.33,4.31,2.61,2.61,0,0,0,2.15.21.56.56,0,0,0,.37-.6,24.2,24.2,0,0,0-.45-3.92A1.79,1.79,0,0,0,132.94,22.18Z"/><path class="cls-7" d="M129.75,25.45a3.63,3.63,0,1,1,3.62-3.63A3.63,3.63,0,0,1,129.75,25.45Zm0-6.25a2.63,2.63,0,1,0,2.62,2.62A2.62,2.62,0,0,0,129.75,19.2Z"/><path class="cls-7" d="M137.81,25.54a3.63,3.63,0,1,1,3.62-3.63A3.63,3.63,0,0,1,137.81,25.54Zm0-6.25a2.63,2.63,0,1,0,2.62,2.62A2.62,2.62,0,0,0,137.81,19.29Z"/><path class="cls-9" d="M21.1,21.32s-.49,6.91-.68,8.67-1.11,4.85.49,5.86,8.9,1.78,10.81,1.57S42.44,37.77,42,34s-2.56-13.13-2.66-14.22-3.54-4.05-3.54-4.05l-6.75-1.17L24.67,16Z"/><path class="cls-3" d="M27.46,40.65a4.7,4.7,0,0,0,1.21-2.53,10.91,10.91,0,0,0,.14-3.31l1.9.55,2.86.13A16.88,16.88,0,0,0,34,38.55a4.49,4.49,0,0,0,1.21,2.37l-.14,3.4-5.3,2-3-3.81Z"/><path class="cls-4" d="M34,38.55a16.88,16.88,0,0,1-.42-3.06l-2.86-.13-1.9-.55a10.91,10.91,0,0,1-.14,3.31,6.88,6.88,0,0,0,4.85.43Z"/><path class="cls-3" d="M23.48,23.29l-.09,3s-.65-1.11-1.2-.85a1.65,1.65,0,0,0-.73,1.6c.12.41,2.25,1.84,2.25,1.84s2.54,5.52,3.47,6.23A7.57,7.57,0,0,0,31.06,37a4.82,4.82,0,0,0,4.14-1.9,44.35,44.35,0,0,0,3.07-6.83,12.06,12.06,0,0,0,1.4-1.32c.28-.4,1.13-1.32.32-1.62s-1.78.49-1.78.49-.17-3-.29-3.41S36,18.67,36,18.67l-3.21-1.6-5.16-.16Z"/><path class="cls-9" d="M31.43,12.82a5.65,5.65,0,0,0-3.5-.79c-2.05.2-5.21,1.32-6.1,3.6s-1.17,6.89-.91,7.31A5.55,5.55,0,0,0,24,24.4a11.53,11.53,0,0,0,3.13,0c.82-.24,4-3,4-3S29,24,29.84,24.18s2.06-.48,3.55-.56,2.72-.05,3.4-.17,1.54.35,2.06-.61a6.11,6.11,0,0,0,1.2-3.49c0-1.09-2.13-5.37-3.06-6.08S32.72,10.82,31.43,12.82Z"/><path class="cls-3" d="M12,54.42s-.72,1.21-1.62,2.69c-1.18,2-2.65,4.39-3.16,5.21a3.45,3.45,0,0,0,.31,4.24c1,1,9,11.91,9,11.91s-1.5,2.64-1.15,3.61,1.62,2.81,3,2.61,3.14-2.82,3.33-3.76S20,78.38,19.89,77.56A90.79,90.79,0,0,0,16,69.32c-1-1.92-1.82-3.54-2.13-4-.88-1.41-.63-.85-.63-.85l5-6.26-2.62-2-2.86-2.21Z"/><path class="cls-4" d="M13.27,64.42l5-6.26-2.62-2-2.86-2.21-.71.5s-.72,1.21-1.62,2.69c0,0,2.64,1.79,2.76,3.16S13.27,64.42,13.27,64.42Z"/><path class="cls-3" d="M52.25,54.42s3.89,6.46,4.79,7.9a3.45,3.45,0,0,1-.32,4.24c-1,1-9,11.91-9,11.91s1.5,2.64,1.14,3.61-1.61,2.81-3,2.61-3.15-2.82-3.33-3.76,1.76-2.55,1.85-3.37c.06-.52,2.14-4.84,3.86-8.25,1-1.91,1.82-3.54,2.14-4,.87-1.41.63-.85.63-.85l-5-6.26,3.32-2.57,2.16-1.67Z"/><path class="cls-4" d="M49.39,55.59l-3.32,2.57,5,6.26s.24-.56-.63.85c-.32.5-3.37,6.59-4.33,8.5,0,0,8.16-6.89,8.28-8.37S49.39,55.59,49.39,55.59Z"/><path class="cls-6" d="M27.15,39.63A44.36,44.36,0,0,0,20,41.82c-2.23,1.1-8.13,9.6-8.75,10.81L10.51,54a.85.85,0,0,0,.35,1.12,35.85,35.85,0,0,1,4.38,2.7c.31.28,1.1.88,1.68,1.31a.76.76,0,0,0,1.1-.21,68.15,68.15,0,0,1,3.77-5.73,21.18,21.18,0,0,0,1.47,8c1.58,3.48,1.41,14.08,1.41,14.08L32,77.84l6.12-2.66S39.36,62.6,39.7,61.39,41.44,57,41.6,54l6.22,7.14,6.53-6.58s-7.1-9.5-8.91-11.1a19.82,19.82,0,0,0-8-3.42,11.24,11.24,0,0,0-2.57-.14s-.49,3.91-3.61,3.74S27.15,39.63,27.15,39.63Z"/><path class="cls-3" d="M22.35,118.7s-.18,1.88-.33,4.58a79.54,79.54,0,0,0,.28,14.63c1.11,6.94,1.86,10.06,1,13.1a8.47,8.47,0,0,0-.07,5.07l2.6,2.49,1.83-.45,2-3.53A23.12,23.12,0,0,1,28,148.16c-.06-2.54,1.6-10.43,1.79-17.86s.08-12.68.08-12.68Z"/><path class="cls-4" d="M29.75,130.3c.18-7.42.08-12.68.08-12.68l-7.48,1.08s-.18,1.88-.33,4.58c0,0,5.91-.26,6.41,1.49S29.75,130.3,29.75,130.3Z"/><path class="cls-10" d="M23.06,151.82a13.72,13.72,0,0,0-1.35,3.46,7.45,7.45,0,0,0,2.4,4.66,3.21,3.21,0,0,0,3.43.35c.83-.42,2.64-4,2.78-5a3.94,3.94,0,0,0-1.72-3.62s.93,5-2.25,5.23S23.06,151.82,23.06,151.82Z"/><path class="cls-3" d="M40.57,118.7s.18,1.82.32,4.45c.24,4.21.41,10.49-.27,14.76-1.1,6.94-1.86,10.06-1,13.1a8.38,8.38,0,0,1,.07,5.07l-2.6,2.49-1.83-.45-2-3.53A23.37,23.37,0,0,0,35,148.16c.05-2.54-1.61-10.43-1.8-17.86s-.08-12.68-.08-12.68Z"/><path class="cls-4" d="M33.17,130.3c-.18-7.42-.08-12.68-.08-12.68l7.48,1.08s.18,1.82.32,4.45a23.64,23.64,0,0,1-4,1.25,4.11,4.11,0,0,0-3,2.87C33.68,128.52,33.17,130.3,33.17,130.3Z"/><path class="cls-10" d="M39.86,151.82a13.72,13.72,0,0,1,1.35,3.46,7.4,7.4,0,0,1-2.4,4.66,3.19,3.19,0,0,1-3.42.35c-.84-.42-2.65-4-2.79-5a4,4,0,0,1,1.72-3.62s-.93,5,2.26,5.23S39.86,151.82,39.86,151.82Z"/><path class="cls-2" d="M24.6,73.79a20.58,20.58,0,0,0-8.14,15.75C16.05,100.13,22,121.18,22,121.18s11.55,2.17,19.15.13c0,0,5-21.86,4.89-30a23.18,23.18,0,0,0-7.61-17.24A27.6,27.6,0,0,1,24.6,73.79Z"/><path class="cls-7" d="M34.15,67.68h-5V53.18H24.57V49.06H38.68v4.12H34.15Z"/><path class="cls-8" d="M30.49,26.76a29.21,29.21,0,0,0-.27,3.57,2.19,2.19,0,0,0,1.78.18.47.47,0,0,0,.31-.5,21.13,21.13,0,0,0-.37-3.25A1.48,1.48,0,0,0,30.49,26.76Z"/><path class="cls-3" d="M219,43.55s2.61,3.46,5.15,7a76.77,76.77,0,0,1,4.67,6.86c.95,2,.14,3.8-1.22,5.29s-16.75,14.58-16.75,14.58a20,20,0,0,1,2,3.94c.14,1-2.31,3-3.12,3.39s-2-.13-2.85-.68-2-3.39-1.9-4.89,2.71-3.12,3.25-4.48c.41-1,5-8.24,7.64-12.3.93-1.4,1.63-2.42,1.87-2.68,0,0,.93-.76.25-1.57s-6.86-7.59-6.86-7.59l3.21-6.14Z"/><path class="cls-4" d="M215.92,62.21c.93-1.4,1.63-2.42,1.87-2.68,0,0,.93-.76.25-1.57s-6.86-7.59-6.86-7.59l3.21-6.14,4.62-.68s2.61,3.46,5.15,7c0,0-1.81,3.61-3.64,4.44,0,0,2,4.17-.5,5.67A10.19,10.19,0,0,1,215.92,62.21Z"/><path class="cls-3" d="M164.19,43.55s-2.56,3.39-5.07,6.84a79.8,79.8,0,0,0-4.75,7c-1,2-.14,3.8,1.22,5.29s16.75,14.58,16.75,14.58a20,20,0,0,0-2,3.94c-.14,1,2.31,3,3.12,3.39s2-.13,2.85-.68,2-3.39,1.9-4.89-2.71-3.12-3.25-4.48c-.4-1-4.73-7.88-7.44-12-1-1.56-1.81-2.71-2.07-3,0,0-.93-.76-.25-1.57S172,50.37,172,50.37l-3.22-6.14Z"/><path class="cls-4" d="M167.48,62.52c-1-1.56-1.81-2.71-2.07-3,0,0-.93-.76-.25-1.57S172,50.37,172,50.37l-3.22-6.14-4.61-.68s-2.56,3.39-5.07,6.84c0,0,2.4,4,3.73,4.72,0,0-1.17,3,.33,4.5A20.44,20.44,0,0,0,167.48,62.52Z"/><path class="cls-5" d="M199.14,147.79s-1,5.66-.45,7.24c0,0,1.72,2,3.35,2s.54-1.45,1.81-.73,1.72,2.26,4.89,3.08a8.83,8.83,0,0,0,6-.18c1.63-.73,1.45-.95,1.54-1.77a3.15,3.15,0,0,0-.27-1.31,2.51,2.51,0,0,0-.73-3.26c-1.81-1.45-6.51-4.53-7.6-6.34C207.65,146.52,199.86,146.89,199.14,147.79Z"/><path class="cls-5" d="M185.25,147.79s1,5.66.45,7.24c0,0-1.72,2-3.35,2s-.54-1.45-1.81-.73-1.72,2.26-4.89,3.08a8.83,8.83,0,0,1-6-.18c-1.63-.73-1.45-.95-1.54-1.77a3.15,3.15,0,0,1,.27-1.31,2.51,2.51,0,0,1,.73-3.26c1.81-1.45,6.51-4.53,7.6-6.34C176.74,146.52,184.53,146.89,185.25,147.79Z"/><path class="cls-2" d="M205.48,76.28s3.8,17.92,4.34,21.54a34.41,34.41,0,0,1,.36,11.59c-.72,4.52-1.62,37.11-1.62,37.11s-6,5.62-11.05,1.09a20.16,20.16,0,0,0,0-4.89c-.36-2-1.63-17.2-1.63-22.63s-4-23.9-4-23.9-2.9,15.75-4.17,18.65-.54,5.07-.54,6.52,1.09,20.82-.36,26.61c0,0-8.33,4-11.41-1.26,0,0-1.63-33.86-1.63-35.49a98.57,98.57,0,0,1,.55-11.59c.54-3.8,3.07-22.81,3.07-22.81Z"/><polygon class="cls-3" points="186.92 32.19 187.21 30.3 187.64 27.48 197.06 27.3 197.58 30.09 198.15 33.09 194.16 37.8 190.18 37.62 186.92 32.19"/><path class="cls-4" d="M197.58,30.09l-.52-2.79-9.42.18-.43,2.82s3.81,2.31,9.64.47Z"/><path class="cls-5" d="M181.67,15.17a15.07,15.07,0,0,1,.72-5.07c.82-1.9,2.18-4,3.9-4.71a20.09,20.09,0,0,1,6.06-1.17c1.81-.09,4.62.09,6.07,1.17s3.62,5,3.62,6.16a22.88,22.88,0,0,1-.73,3.89l-.9,2-15.48.37Z"/><path class="cls-5" d="M182,16.8a17.66,17.66,0,0,1,.45,3.89c-.18.91-.27,6.16,6.25,8.42s9.87-1.63,10.5-2.44,2.08-2.18,2.08-4.08a31.28,31.28,0,0,0-.45-3.71c0-.72.63-3.8.63-3.8V14l-1.44-.72-16.93-.09Z"/><path class="cls-3" d="M183.21,14.81s-1-1.36-2.17-1.36-1.82,1.81-1.36,2.53,2.08,1.27,2.53,1.54a5.51,5.51,0,0,1,.82.64A7.61,7.61,0,0,0,183.21,14.81Z"/><path class="cls-3" d="M200.21,14.72s1-1.36,2.17-1.36,1.81,1.81,1.36,2.53-2.09,1.27-2.54,1.54a4.55,4.55,0,0,0-.81.64A7.45,7.45,0,0,1,200.21,14.72Z"/><path class="cls-3" d="M185.74,10.28a10.49,10.49,0,0,0-1.26,3.26c-.19,1.45.18,3.44,0,4.16s2,3.44,4,4.08a16.8,16.8,0,0,0,7.42-.09,8.94,8.94,0,0,0,3.17-4.26c.18-1.26.36-3.53,0-4.34s-1.18-3-2-3.44-2.63,1-5.07,1.08-3.89-1.63-5-1.35S185.74,10.28,185.74,10.28Z"/><path class="cls-6" d="M197.87,31.15s8.29.54,11.41,2.71,12.48,12.77,12.48,12.77,1.63,4.81-8.16,9c0,0-6.22-8.77-6.63-8.09s.27,8.42,0,10.18S206.56,77,206.56,77s-10.86,10.32-30.28,1.09c0,0-.54-22-.68-23.63s0-7.46,0-7.46l-6.51,9.1s-9.41-5.74-9.16-9c0,0,11.06-10.86,15-12.76a27.53,27.53,0,0,1,12-3.26s.66,3.74,5.24,3.66A5.8,5.8,0,0,0,197.87,31.15Z"/><path class="cls-7" d="M189,67.68l-3.8-13.41h-.12c.18,2.28.27,4.06.27,5.32v8.09h-4.46V49.06h6.7l3.88,13.22h.1l3.81-13.22h6.71V67.68h-4.62V59.52c0-.43,0-.9,0-1.42s.07-1.78.17-3.8h-.12l-3.75,13.38Z"/><path class="cls-8" d="M191.18,13.5s-1,6.2-.52,6.34a4.87,4.87,0,0,0,3.17-.14,42.24,42.24,0,0,0-.64-6.2A1.69,1.69,0,0,0,191.18,13.5Z"/><path class="cls-2" d="M67.11,146.57s-2,4.48-2.86,5.3a78.79,78.79,0,0,0-5.43,7.46c-.27.68.82,1.9,2.85,2s4.49-2.72,5.71-3.8,3.39-3.4,3.39-3.4.14.82.55.82,3-.54,3-1.22.27-2.86.27-3.81-1.35-3.39-2.3-3.8Z"/><path class="cls-2" d="M96.67,146.57s2,4.48,2.85,5.3a77.06,77.06,0,0,1,5.43,7.46c.27.68-.81,1.9-2.85,2s-4.48-2.72-5.7-3.8-3.4-3.4-3.4-3.4-.13.82-.54.82-3-.54-3-1.22-.27-2.86-.27-3.81,1.36-3.39,2.31-3.8Z"/><path class="cls-5" d="M71.86,77s-.78,1.8-1.63,3.86-1.77,4.36-2,5.38c-.54,2-1.63,27.29-1.9,30.14s.68,7.88.41,10.46,0,14.94.41,19.69a6.53,6.53,0,0,0,6,.27s1.63-10.59,2.31-14.39,2-11.95,2.17-15.48,3.53-19.15,3.53-19.15,4.08,17.11,4.35,19,.54,9.51,2.17,16.84,3.12,13.17,3.12,13.17a5.91,5.91,0,0,0,5.94-.27s-1-19.55-1-20.91.54-7.06.54-9.78-2.44-27.43-2.71-30-3.94-9.37-3.94-9.37Z"/><path class="cls-11" d="M87.61,133.67c-1.63-7.33-1.9-14.94-2.17-16.84s-4.35-19-4.35-19,1.26,0,1.93,2.29,5,14.5,5,16.66S87.61,133.67,87.61,133.67Z"/><path class="cls-11" d="M93.45,85.87c-.27-2.58-3.94-9.37-3.94-9.37L71.86,77s-.78,1.8-1.63,3.86c0,0,6,.44,11.13,1.07s11.83,4,11.83,4"/><path class="cls-3" d="M58.28,45.68s-1,1.13-2.45,2.74c-3.08,3.47-8,9.17-8.69,10.56-1,2-.13,3.81,1.23,5.3S66.43,79.35,66.43,79.35a20.57,20.57,0,0,0-2,3.94c-.14.95,2.31,3,3.12,3.4s2-.14,2.85-.68,2-3.4,1.91-4.89S69.55,78,69,76.64c-.38-.94-5.48-7.92-8.92-12.51-1.55-2.07-2.77-3.66-3.05-4,0,0-.93-.76-.25-1.57s8.41-6.79,8.41-6.79l-2.3-5.43Z"/><path class="cls-4" d="M60.09,64.13c-1.55-2.07-2.77-3.66-3.05-4,0,0-.93-.76-.25-1.57s8.41-6.79,8.41-6.79l-2.3-5.43-4.62-.68s-1,1.13-2.45,2.74l1.69,4.19c.33.83-2.34,4.83-2.17,6.33S60.09,64.13,60.09,64.13Z"/><path class="cls-3" d="M103.73,45.68s1,1.13,2.45,2.74c3.08,3.47,8,9.17,8.69,10.56.95,2,.13,3.81-1.23,5.3S95.58,79.35,95.58,79.35a20,20,0,0,1,2,3.94c.14.95-2.31,3-3.12,3.4s-2-.14-2.85-.68-2-3.4-1.9-4.89S92.46,78,93,76.64c.38-.94,5.48-7.92,8.92-12.51,1.55-2.07,2.77-3.66,3.06-4,0,0,.92-.76.25-1.57s-8.42-6.79-8.42-6.79l2.31-5.43Z"/><path class="cls-4" d="M101.92,64.13c1.55-2.07,2.77-3.66,3.06-4,0,0,.92-.76.25-1.57s-8.42-6.79-8.42-6.79l2.31-5.43,4.61-.68s1,1.13,2.45,2.74c0,0-1.35,3.35-1.68,4.19s2.33,4.83,2.16,6.33S101.92,64.13,101.92,64.13Z"/><path class="cls-3" d="M77.56,28.84s-.14,1.61-.44,3.28a10.82,10.82,0,0,1-.92,3.1l1.5,3,3.8.68,5-2.85s-.71-2.4-1.26-4.57a19.1,19.1,0,0,1-.64-3.17C84.62,26.94,77.56,28.84,77.56,28.84Z"/><path class="cls-4" d="M85.26,31.47a19.1,19.1,0,0,1-.64-3.17c0-1.36-7.06.54-7.06.54s-.14,1.61-.44,3.28c0,0,4.73.65,7.4-.51Z"/><path class="cls-6" d="M76.61,33.32a44.41,44.41,0,0,0-8.42,1.9c-4.48,1.5-11,9.37-11,10.05s7.34,8,7.74,8.28,2.31-1.08,2.31-1.08,1.09,8.69,1.09,10.86,2.44,9.23,2.58,10.86a6.57,6.57,0,0,0,1,2.85s-.27,2.18,7.87,2,10.19-1.22,10.19-1.22,1.49-4.21,1.63-4.75S93,63.47,93,63.06s.82-11.41.95-11.82,3.8,2.18,3.8,2.18a12.13,12.13,0,0,0,7.48-7.74,2.82,2.82,0,0,0-.55-2.18c-.82-1.08-8-7.6-9.91-8.55s-5.57-1.63-9-1.77c0,0,.55,3.54-4.07,3.67S76.61,33.32,76.61,33.32Z"/><path class="cls-7" d="M86.55,67.68h-11V49.06h11v4h-6V56h5.58v4H80.53v3.52h6Z"/><path class="cls-11" d="M81.09,97.82s-4,6-4.89,10.12-.81,24.51-.81,24.51c.68-3.81,2-11.95,2.17-15.48s3.53-19.15,3.53-19.15"/><path class="cls-3" d="M72.67,10.51s-1.08-1.09-1.9-.95-1.49,2.31-.68,3.26a11,11,0,0,0,3.13,1.9Z"/><path class="cls-3" d="M88.74,10.51s1.08-1.09,1.9-.95,1.49,2.31.68,3.26a11,11,0,0,1-3.13,1.9Z"/><polygon class="cls-3" points="72.94 7.66 73.89 16.21 77.7 20.15 83.67 20.56 87.47 15.67 88.02 8.61 84.89 4.4 78.78 4.13 72.94 7.66"/><path class="cls-2" d="M71.72,9.69s-.27-3.66.41-4.75,5-3.53,6.52-4.34S81-.22,83.13.73a11.82,11.82,0,0,1,4.48,3,11.18,11.18,0,0,1,1,3.8,16.53,16.53,0,0,0,.68,2.56l-.5.43-.16,1-.85-.12a1.92,1.92,0,0,1-.66-1.26,3.71,3.71,0,0,0-1.14-2.39c-.58-.32-2.09-1.32-2.48-1.49a7.7,7.7,0,0,0-2.49,0c-.36.11-2.38,1.31-3.92,1.35a4,4,0,0,0-2.77,1.15,8.26,8.26,0,0,0-1,2v.42l-.53-.09-.07-.57S72.1,9.78,71.72,9.69Z"/><path class="cls-2" d="M72.36,14.45a9.3,9.3,0,0,1-.09,2.67A12.81,12.81,0,0,0,71.86,21c0,1.22,1.13,3.71,1.18,4.84s.4,2.85,1,3.22a7.23,7.23,0,0,0,3.53.86A5.5,5.5,0,0,1,80,29.7a5.62,5.62,0,0,0,2.53.36c.91-.22,4.53-.18,5.75-3.08a17.5,17.5,0,0,0,.77-8.37c-.27-1.22-.54-3.94-.54-3.94l-.46.18.5-3.53-.23-.54-.72.09a23.37,23.37,0,0,1-.27,2.67c-.14.27-1.22,2.44-2,2.85s-2.08,1.81-3.57,1.95a7.21,7.21,0,0,1-4.58-1A13.1,13.1,0,0,1,74.48,15a14.92,14.92,0,0,1-.86-2l-.35-2.25-.6-.24.55,4.21Z"/><path class="cls-8" d="M79.92,10.37s-.77,6.2-.41,6.34A3.06,3.06,0,0,0,82,16.57a53.76,53.76,0,0,0-.5-6.2A1.11,1.11,0,0,0,79.92,10.37Z"/></g></g></svg>